<?xml version="1.0" encoding="utf-8"?>
<!-- Generator: Adobe Illustrator 16.0.0, SVG Export Plug-In . SVG Version: 6.00 Build 0)  -->
<!DOCTYPE svg PUBLIC "-//W3C//DTD SVG 1.1//EN" "http://www.w3.org/Graphics/SVG/1.1/DTD/svg11.dtd">
<svg version="1.1" xmlns="http://www.w3.org/2000/svg" xmlns:xlink="http://www.w3.org/1999/xlink" x="0px" y="0px"
	 width="850.394px" height="496.063px" viewBox="0 0 850.394 496.063" enable-background="new 0 0 850.394 496.063"
	 xml:space="preserve">
<g id="Layer_1" display="none">
	
		<image display="inline" overflow="visible" width="3684" height="3399" xlink:href="5E08C8F.jpg"  transform="matrix(0.9586 0 0 0.9586 -2234.9751 -2541.0273)">
	</image>
</g>
<g id="Layer_27" display="none">
	<g id="Layer_34" display="inline">
	</g>
	<g id="Layer_35" display="inline">
		<path fill="#1C8439" d="M403.951,205.271c8.056-5.287,23.999-12.382,36.666-31.716c0,0,9.333-13.333,0-22s-26,12-26,12
			s-14.332,23.786-36.999,23.786s-49.353-39.668-49.353-39.668s-33.063,12.756-32.397,23.423s63.758,45.112,79.258,45.112
			C392.125,216.208,392.951,212.491,403.951,205.271z"/>
		<path fill="#2BA954" d="M399.136,189.861c8.056-5.287,24-12.382,36.666-31.716c0,0,9.333-13.333,0-22s-26,12-26,12
			s-14.332,23.786-36.999,23.786s-49.353-39.668-49.353-39.668s-33.063,12.756-32.397,23.423s63.758,45.112,79.258,45.112
			C387.311,200.798,388.136,197.081,399.136,189.861z"/>
	</g>
	<g id="Layer_36" display="inline">
		<g id="Layer_9">
			<path fill="#2EEA93" d="M299.85,70.292c0,0-25.082,1.514-28.797,11.77s-26.825,14.063-34.75,16.5l8,2.572
				c0,0,29.885-6.826,31-13.322c1.114-6.496,23.088-9.551,23.088-9.551L299.85,70.292z"/>
			<path fill="#2BA954" d="M289.832,94.674c0,25.85,20.955,46.806,46.805,46.806c9.476,0,18.293-2.815,25.661-7.655
				c12.735-8.364,21.144-22.775,21.144-39.15c0-25.849-20.956-46.804-46.805-46.804C310.787,47.87,289.832,68.825,289.832,94.674z"
				/>
			<g>
				<g id="Laag_1_3_">
					<path id="XMLID_3_" fill="#FECEA2" d="M382.119,84.324c1.953,4.356,1.509,6.195,1.146,14.444
						c-0.52,11.802-4.527,18.063-6.756,20.424c-5.913,1.154-17.617,1.015-18.731,1.015c-14.308-0.043-19.663-14.395-13.365-26.346
						c6.426-12.209,24.875-9.537,37.341-9.537"/>
				</g>
			</g>
			<circle fill="#EFE8E3" cx="369.496" cy="101.133" r="12.257"/>
			<circle fill="#784F30" cx="369.496" cy="101.133" r="9.625"/>
			<circle fill="#020200" cx="369.496" cy="101.133" r="5.54"/>
			<ellipse fill="#EFE8E3" cx="374.716" cy="97.419" rx="4.405" ry="4.412"/>
		</g>
		<g id="Layer_37">
			<path fill="#2EEA93" d="M383.441,89.894c0,0-26.565-10.281-91.322-9.703c0,0,2.519-6.841,4.559-9.899
				c2.04-3.059,51.821-0.537,83.44,7.033C380.118,77.325,383.549,82.496,383.441,89.894z"/>
		</g>
	</g>
	<g id="Layer_38" display="inline">
		<path fill="#2D2723" d="M383.716,101.832c0,0-9.5-10.458-30.95-17.625l6.244-6.251c0,0,19.099,10.168,27.215,18.501
			L383.716,101.832z"/>
	</g>
	<g id="Layer_40" display="inline">
		<path fill="#2BA954" d="M318.803,126.811c0,0,12.5,25-3.5,40.5s-39,21.219-54,38.859s-3,33.758-29,41.449
			s-46.5-14.309-42.5-30.809s43.5-78.199,89-96.6S314.303,125.311,318.803,126.811z"/>
	</g>
	<g id="Layer_41" display="inline">
		<path fill="#2BA954" d="M243.54,219.068c0,0-21.125-17.992-35.263-10.192c-14.137,7.8-22.654,9.647-23.221,25.338
			s55.993,30.202,72.938,35.188c16.944,4.986,22.995,1.227,32.561,6.541c9.564,5.313-2.262,5.371,16.423,18.51
			c18.685,13.138,36.151,18.938,41.717,19.464s21.675,2.895,26.715,5.754c5.04,2.858,11.868,14.951,17.464,8.632
			c5.596-6.318,29.455-36.084,29.455-36.084s-3.224-11.472-13.808-4.69c-10.584,6.78-13.817,14.066-25.462,14.287
			c-11.646,0.221-31.36-18.356-31.36-18.356s-22.871-9.761-26.676-15.43c-3.804-5.668-10.981-20.047-20.999-20.992
			c-10.019-0.945-30.226-30.795-61.348-37.168"/>
		<path fill="#2BA954" d="M222.575,257.235c0,0,16.674-22.181,8.028-35.817c-8.645-13.637-11.007-22.026-26.703-21.637
			c-15.695,0.389-26.74,57.727-30.687,74.943c-3.947,17.217,3.974,26.037-4.549,32.897c-6.861,5.523-5.861,1.759-19.33,1.818
			c-22.839,0.101-40.6,4.151-45.531,6.784s-19.674,9.546-25.455,9.941c-5.779,0.396-18.146-5.921-19.327,2.437
			c-1.182,8.355-4.657,46.346-4.657,46.346s9.019,7.787,14.105-3.707c5.084-11.494,3.762-19.355,13.351-25.963
			c9.592-6.609,36.284-1.994,36.284-1.994s42.731-9.214,49.032-6.584c6.301,2.628,30.866-7.335,31.2-17.392
			s28.899-32.043,33.367-63.494"/>
	</g>
	<g id="Layer_42" display="inline">
		<path fill="#F9A883" d="M443.303,157.478c0,0-5.125-12.104-15.947-16.798c-8.372-3.631,16.689-16.748,16.792-17.498
			s31.853,0,37.353,6.5s8.514,12.569,8.514,12.569s0.998,13.931-6.883,12.681S477,144.682,477,144.682s-7.25-8-10.75-4
			s-7.912,6.1-3.456,7.05s7.206-1.881,7.206-1.881s6.75,1.331,2.25,6.331S460.189,163.123,443.303,157.478z"/>
		<path fill="#FECEA2" d="M438.407,150.083c0,0-21.475-7.91-17.081-15.908s16.689-16.748,16.792-17.498s31.853,0,37.353,6.5
			s8.514,12.569,8.514,12.569s0.998,13.931-6.883,12.681s-6.131-10.25-6.131-10.25s-7.25-8-10.75-4s-7.912,6.1-3.456,7.05
			s7.206-1.881,7.206-1.881s6.75,1.331,2.25,6.331S455.292,155.728,438.407,150.083z"/>
	</g>
	<g id="Layer_28" display="inline">
		<circle fill="#001406" cx="706.968" cy="399.871" r="16.94"/>
	</g>
	<g id="Layer_29" display="inline">
		<circle fill="#FF1200" cx="706.967" cy="399.871" r="13.389"/>
	</g>
	<g id="Layer_30" display="inline">
		<path fill="#666666" d="M701.229,397.138c0,0,6.867-14.48,4.801-19.945v-4.099h4.307v-2.914h-3.916v-4.008h24.408v4.008h-6.921
			v2.914h7.377l-19.126,28.963c0,0-4.172,5.086-8.471,2.459C698.77,401.51,701.229,397.138,701.229,397.138z"/>
		<circle fill="#001406" cx="519.35" cy="399.871" r="16.94"/>
		<circle fill="#FF1200" cx="519.35" cy="399.871" r="13.389"/>
		<path fill="#666666" d="M524.542,402.057c0,0-4.172,5.086-8.471,2.459c-4.918-3.006-2.459-7.378-2.459-7.378
			s6.867-14.48,4.8-19.945v-4.099h25.256L524.542,402.057z"/>
		<rect x="522.719" y="369.633" fill="#666666" width="13.57" height="5.191"/>
		<rect x="518.803" y="366.172" fill="#666666" width="24.408" height="4.008"/>
	</g>
	<g id="Layer_31" display="inline">
		<path fill="#666666" d="M666.422,330.039c15.533,2.28,30.931,5.97,43.596,15.277c0.322-0.077,1.479,0.684,1.822,0.684l1.411,0.592
			c2.384,0,4.372,1.988,4.372,4.372c0,1.077-0.409,2.071-1.074,2.84c3.555,4.709,5.348,10.613,5.992,16.559
			c0.258,2.375-2.184,4.372-4.371,4.372c-2.578,0-4.115-2.003-4.373-4.372c-0.486-4.492-2.271-10.548-6.031-13.438
			c-1.115-0.857-1.917-2.007-2.115-3.269c-5.758-4.204-12.494-7.157-19.143-9.542c-8.089-2.902-16.618-5.056-25.17-5.991
			c-1.152-0.126-1.926-0.143-3.554-0.714c-11.079-1.536-15.688-2.617-23.694-4.271c-9.389-1.94-18.832-3.423-28.262-5.127
			c-17.533-3.17-35.623-7.056-53.47-4.599c-1.132,1.04-2.574,1.301-3.899,1.022c-0.192,0.179-0.438,0.391-0.438,0.392
			c-0.167,0.171-0.259,0.259-0.308,0.301c-0.038,0.063-0.115,0.178-0.266,0.385c-1.145,1.588-2.051,3.413-2.797,5.218
			c-1.713,4.139-2.908,8.479-4.164,12.771c-1.156,3.957-2.752,7.752-4.045,11.664c-1.271,3.848-3.397,9.712-1.112,13.537
			c2.897,4.854-4.663,9.248-7.55,4.414c-5.966-9.991,1.549-22.61,4.424-32.441c1.494-5.107,3.033-10.166,5.195-15.039
			c0.727-1.638,1.625-3.354,2.73-4.916c-0.24-0.947-0.133-2.016,0.492-3.111c2.963-5.189,7.809-11.437,13.506-13.729
			c4.635-1.866,9.844-1.594,14.832-0.946c1.305-0.732,2.803,0.13,4.42-0.007c13.719-1.164,26.482-5.972,43.834-4.438
			c1.538,0.136,11.743,20.753,12.155,21.885c3.214,0.364,0,0,3.157,0.652c0.396,0.027,0.793,0.046,1.188,0.076"/>
	</g>
	<g id="Layer_32" display="inline">
		
			<rect x="523.998" y="156.971" transform="matrix(-0.9146 0.4044 -0.4044 -0.9146 1106.8373 237.5059)" fill="#666666" width="8.668" height="157.379"/>
		<polygon fill="#666666" points="530.137,181.941 534.274,182.339 584.109,319.183 581.167,319.955 		"/>
		<polygon fill="#666666" points="552.928,186.057 555.917,185.414 591.375,302.758 588.385,303.401 		"/>
		<polygon fill="#666666" points="572.364,188.367 575.385,187.801 603.945,301.531 600.924,302.096 		"/>
		<polygon fill="#666666" points="500.822,180.503 501.267,177.863 764.999,211.047 764.551,213.688 		"/>
		<polygon fill="#666666" points="562.044,305.395 561.709,302.742 744.889,285.542 745.222,288.195 		"/>
		<polygon fill="#666666" points="761.989,211.144 764.999,211.753 744.169,288.448 741.161,287.838 		"/>
		<polygon fill="#666666" points="649.673,197.081 652.763,197.152 649.641,296.872 646.551,296.799 		"/>
		<polygon fill="#666666" points="685.441,202.235 688.508,202.565 675.252,294.317 672.185,293.987 		"/>
		<polygon fill="#666666" points="667.84,200.798 670.919,201.025 661.704,294.44 658.624,294.213 		"/>
		<polygon fill="#666666" points="721.307,206.17 724.359,206.594 708.502,291.501 705.452,291.077 		"/>
		<polygon fill="#666666" points="703.307,205.29 706.368,205.661 692.237,292.403 689.175,292.032 		"/>
		<polygon fill="#666666" points="742.191,209.363 745.222,209.884 726.954,288.97 723.922,288.449 		"/>
		<polygon fill="#666666" points="630.133,195.846 633.222,195.77 636.577,298.126 633.487,298.202 		"/>
		<polygon fill="#666666" points="611.68,192.237 614.76,192.016 625.041,298.974 621.959,299.194 		"/>
		<polygon fill="#666666" points="594.115,190.19 597.182,189.861 614.198,308.143 611.129,308.471 		"/>
		<polygon fill="#666666" points="753.081,249.858 752.819,252.517 528.969,236.043 529.231,233.384 		"/>
		<polygon fill="#666666" points="758.022,230.202 757.682,232.855 517.322,209.889 517.663,207.237 		"/>
		<polygon fill="#666666" points="748.723,267.685 748.707,270.354 544.317,269.335 544.335,266.667 		"/>
	</g>
	<g id="Layer_33" display="inline">
		<path fill="#FF1200" d="M495.411,171.931c0,0-0.895-1.026-2.867-3.212s-2.52-12.568-9.441-19.126c0,0-11.475-9.472-25.501-6.011
			c0,0-2.368-1.093-2.732-4.736c-0.364-3.643,2.731-6.192,9.653-6.557c6.922-0.365,24.253,2.914,30.889,15.118
			c6.635,12.204,8.544,15.178,7.226,19.429C501.317,171.087,495.411,171.931,495.411,171.931z"/>
	</g>
	<g id="Layer_43" display="inline">
		<path fill="#19CC72" d="M444.765,157.75c0,0-1.548-4.611-5.556-7.564c-0.427-0.314-8.75-2.513-13.117-5.665
			c0,0-12.621,11.377-20.65,22.917c0,0,19.402,15.888,26.58,16.779C432.022,184.217,448.053,168.905,444.765,157.75z"/>
		<path fill="#2EEA93" d="M439.407,150.083c0,0-16.493-6.687-18.673-13.229c0,0-12.621,11.377-20.65,22.917
			c0,0,9.615,17.757,16.792,18.648C416.875,178.419,437.259,168.606,439.407,150.083z"/>
		<path fill="#2EEA93" d="M378.187,301.034c0,0-14.712-7.209-26.235-17.341c0,0-13.912,13.86-14.968,26.927
			c0,0,6.041,2.623,11.203,3.238s19.839,3.113,24.728,4.721C372.915,318.579,373.071,306.881,378.187,301.034z"/>
		<path fill="#2EEA93" d="M81.82,345.278c0,0,9.671-5.404,33.059-2.471c0,0,0.477-17.79-6.325-28.996c0,0-8.144,3.099-12.688,5.625
			c-4.545,2.526-14.175,5.137-19.078,6.699C76.788,326.135,82.539,337.541,81.82,345.278z"/>
	</g>
</g>
<g id="Layer_39">
</g>
<g id="Layer_17">
	<g id="Layer_23">
		<path fill="#3B3B3B" d="M244.636,279.862"/>
		<path fill="#3B3B3B" d="M474.769,336.038"/>
	</g>
	<g id="Layer_24">
	</g>
	<g id="Layer_25">
	</g>
	<g id="Layer_18">
	</g>
	<g id="Layer_16">
	</g>
	<g id="Layer_19">
	</g>
	<g id="Layer_21">
	</g>
	<g id="Layer_44">
		<path fill="#2BA954" d="M462.64,164.955c0,0,15.733,8.134,30.003,21.821c17.683,16.96,28.328,72.318,34.011,115.321
			c1.427,10.798-35.687,47.472-53.321,50.299c0,0-10.853-14.363-22.009-27.292c-1.527-1.771,21.77-6.939,31.265-26.57
			c9.982-20.635-7.063-36.021-16.08-66.071c0,0-0.284,59.289-7.425,94.719c-3.473,17.229,10.063,33.161,9.924,38.701
			c-0.241,9.698,37.041,3.829,53.56,2.792c6.581-0.413,31.856,0.504,35.509,6.624c0,0,21.704,30.961,6.064,43.09
			c0,0-76.924,18.831-126.397,7.021c0,0-27.884-6.384-63.096-1.915c0,0-69.046,4.788-91.389,2.873c0,0-29.045,3.191-23.3-18.194
			c2.925-10.888,4.07-28.895,24.178-40.695c8.485-4.98,38.302-1.596,51.11-4.549c8.703-2.006,11.164-36.706,11.164-36.706
			s-14.297-45.857-10.939-91.367c0.101-1.363-20.293,17.742-13.591,59.05c2.998,18.472,39.792,25.934,49.895,33.833
			c12.332,9.643-9.356,45.646-35.53,27.139c0,0-33.037-14.371-52.347-48.204c-12.897-22.597,3.803-93.97,28.248-117.991
			c0,0,14.594-9.898,36.227-17.982C367.375,163.598,462.64,164.955,462.64,164.955z"/>
	</g>
	<g id="Layer_49">
		<path fill="#15823C" d="M346.409,179.68c0,0,18.354,27.041,56.201,27.041s61.689-40.514,61.689-40.514
			s-8.568,44.949-61.689,44.949S346.409,179.68,346.409,179.68"/>
		<path fill="#15823C" d="M363.054,377.532c0,0-19.487-7.66-36.316-11.649l33.756,13.396L363.054,377.532"/>
		<path fill="#15823C" d="M473.333,378.808c0,0,25.694-7.66,46.761-9.097c0,0-37.302,7.69-41.792,11.107
			C473.811,384.235,478.6,379.288,473.333,378.808"/>
		<path fill="#15823C" d="M393.058,390.618c0,0,15.321-3.51,29.684,5.587c0,0,8.952,4.615,12.928,4.309c3.975-0.308,0,0,0,0
			s34.471,0.798,37.663,29.364c0,0-9.575-29.364-37.823-27.289c0,0-7.182-0.319-14.843-4.628c0,0-7.34-6.065-27.609-7.022"/>
		<path fill="#15823C" d="M427.21,387.746c0,0-4.663-6.224-12.706-7.66c0,0-17.298-0.614-24.001,1.928c0,0-11.172,3.18-16.279,3.18
			c-5.106,0,7.501,0.731,17.077-1.31c9.576-2.042,18.673-2.815,22.662-1.87C417.954,382.958,422.104,384.074,427.21,387.746"/>
	</g>
	<g id="Layer_48">
		<path fill="#2EEA93" d="M390.345,422.537c0,0-15.48-20.428,2.713-31.919l-30.003-13.086c0,0-32.397,24.896-13.884,47.559
			L390.345,422.537z"/>
		<path fill="#2EEA93" d="M427.21,387.746c0,0,7.82,6.064,8.459,12.768c0,0,33.753,1.735,37.344,29.364h10.533
			c0,0,7.342-48.835-10.214-51.069L427.21,387.746z"/>
	</g>
	<g id="Layer_45">
	</g>
	<g id="Layer_46">
	</g>
	<g id="Layer_22">
		<path fill="#15823C" d="M387.472,178.697c0.128-0.397,0.258-0.783,0.336-1.19c0.039-0.141,0.063-0.282,0.063-0.422
			c0-0.4-0.249-0.623-0.539-0.679c-0.04-0.157-0.128-0.308-0.296-0.421c-0.61-0.414-1.761-2.256-2.125-3.479
			c-0.049-0.328-0.077-0.664-0.073-1.008c0.008-0.801-1.235-0.993-1.411-0.191c-0.014,0.063-0.015,0.127-0.022,0.191
			c-0.001,0-0.002,0-0.003,0c0,0.006,0.001,0.013,0.001,0.02c-0.026,0.244-0.011,0.491,0.037,0.739
			c0.219,2.245,1.456,4.083,2.353,6.11c-0.174,0.321-0.354,0.64-0.542,0.953c-0.078,0.129-0.238,0.41-0.437,0.722
			c-0.253-0.196-0.608-0.231-0.882,0.085c-1.54,1.775-3.076,3.554-4.548,5.386c-0.575,0.714,0.435,1.737,1.016,1.016
			c1.033-1.285,2.1-2.54,3.175-3.79c1.051-0.086,1.789-1.059,2.388-1.885c0.197-0.271,0.377-0.555,0.551-0.843
			c0.484,0.487,1.388-0.063,1.172-0.725C387.621,179.088,387.548,178.892,387.472,178.697z"/>
		<path fill="#15823C" d="M433.576,190.606c-1.778-2.756-2.968-4.697-5.126-7.125c-1.522-1.713-1.524-3.653-1.824-5.79
			c-0.307-2.196-2.213-5.151-2.428-7.376c-0.089-0.914-0.349-0.537-0.26,0.385c0.199,2.056,0.654,4.526,1.117,6.535
			c0.381,1.65,0.181,3.8,1.028,5.331c1.908,3.444,5.561,5.466,7.688,8.765C434.272,192.106,434.08,191.387,433.576,190.606z"/>
	</g>
	<g id="Layer_26">
	</g>
	<g id="Layer_20">
	</g>
	<g id="Layer_5">
		<path fill="#2EEA93" d="M455.69,101.477c0,0,25.997,6.82,31.489,21.985c5.493,15.165,3.296,28.1,15.014,31.702h-10.985
			c0,0-10.619-15.637-12.267-25.241c-1.648-9.604-21.093-16.664-21.093-16.664L455.69,101.477z"/>
		<path fill="#2BA954" d="M470.504,137.53c0,38.221-30.984,69.205-69.205,69.205c-14.01,0-27.047-4.164-37.942-11.319
			c-18.83-12.368-31.262-33.675-31.262-57.886c0-38.221,30.984-69.205,69.205-69.205S470.504,99.309,470.504,137.53z"/>
		<g>
			<g id="Laag_1_2_">
				<path id="XMLID_2_" fill="#FECEA2" d="M453.554,116.209c-9.501-18.051-33.822-24.449-52.253-24.449
					c-18.433,0-42.755,6.398-52.256,24.449c-9.311,17.672-1.395,38.955,19.699,38.955c1.647,0,12.541-1.141,21.218-2.852
					c7.474-1.456,15.138-1.456,22.613,0c8.741,1.711,19.571,2.852,21.219,2.852C454.949,155.1,462.867,133.881,453.554,116.209z"/>
			</g>
		</g>
		<path fill="#2EEA93" d="M333.951,121.554c0,0,45.244-35.948,132.557-7.241c0,0-1.683-14.139-9.097-17.29
			c-57.182-24.305-112.874,0.915-112.874,0.915S335.459,112.556,333.951,121.554z"/>
		<path fill="#2D2723" d="M406.272,109.435l1.443,7.851c0,0,31.107-4.354,41.469-1.104l-6.246-13.27
			C442.938,102.913,410.517,106.524,406.272,109.435z"/>
		<path fill="#2D2723" d="M396.315,109.755l-1.995,7.729c0,0-30.721-6.551-41.286-4.043l7.171-12.792
			C360.205,100.649,392.289,106.549,396.315,109.755z"/>
	</g>
	<g id="Layer_47">
		<path fill="#443529" d="M410.772,121.836c0,0,9.575,14.04,32.796,7.738C443.568,129.575,420.587,129.018,410.772,121.836z"/>
		<path fill="#443529" d="M388.172,121.836c0,0-9.576,14.04-32.796,7.738C355.375,129.575,378.357,129.018,388.172,121.836z"/>
	</g>
	<g id="Layer_50">
		<path fill="#2EEA93" d="M426.951,341.552l22.573-18.105c0,0,27.16,0.438,26.146,30.084l-33.755,21.394L426.951,341.552z"/>
		<path fill="#2EEA93" d="M387.871,341.297l-19.992-15.99c0,0-33.155-0.451-31.604,30.361l38.12,21.863L387.871,341.297"/>
		<path fill="#F9A883" d="M409.867,343.978c0,0-3.772-4.152,0.718-6.743c9.628-5.555,18.062-4.628,19.185-4.628
			c1.124,0,17.082,7.66,18.679,22.981c1.596,15.32-5.426,21.386-16.598,22.662s-27.286,5.745-33.592,1.276
			c-6.306-4.468-13.704-25.795-4.509-27.071c9.195-1.276,28.475-4.13,28.966-7.002c0.491-2.873-1.324-2.503-4.931-2.313
			C413.977,343.339,416.57,345.254,409.867,343.978z"/>
		<path fill="#FECEA2" d="M408.537,344.177c0,0,2.444-5.755-8.444-7.989c-10.889-2.234-13.958,1.885-15.082,1.885
			s-17.068,4.271-18.665,19.591c-1.596,15.321,5.426,21.386,16.597,22.662c11.172,1.277,27.287,5.745,33.593,1.277
			c6.305-4.469,13.703-25.796,4.508-27.072c-9.195-1.276-31.117-5.036-28.966-7.002c0.393-0.359-0.871-2.656,7.056-2.274
			C403.271,345.455,401.834,345.455,408.537,344.177z"/>
	</g>
	<g id="Layer_51">
		<polygon fill="#15823C" points="343.228,314.333 366.121,324.413 362.046,325.306 		"/>
		<polygon fill="#15823C" points="449.524,323.447 460.417,319.82 453.268,323.447 		"/>
	</g>
</g>
<g id="Layer_10" display="none">
	<g id="Layer_12" display="inline">
		<path fill="#2EEA93" d="M530.226-168.829c0,0,47.333,12.419,57.333,40.029s6.001,51.161,27.334,57.719h-20
			c0,0-19.334-28.468-22.334-45.955s-38.403-30.34-38.403-30.34L530.226-168.829z"/>
	</g>
	<g id="Layer_2" display="inline">
		<path fill="#2BA954" d="M557.198-103.188c0,69.588-56.412,126-126,126c-25.507,0-49.244-7.579-69.082-20.608
			c-34.282-22.518-56.918-61.312-56.918-105.392c0-69.588,56.412-126,126-126S557.198-172.775,557.198-103.188z"/>
		<path fill="#2BA954" d="M339.154,133.899c10.405,55.912,38.257,86.411,47.998,97.495s71.33,9.667,80.074,3.084
			s60.918-67.58,63.918-100.579s8.096-122.961-3.918-135.421c-9-9.333-23.333-23.011-23.333-23.011l-147.237,9.941
			C356.656-14.591,331.104,90.647,339.154,133.899z"/>
	</g>
	<g id="Layer_11" display="inline">
		<path fill="#2BA954" d="M510.198-16.189c0,0,94.361,99,148.361-6l54,7c0,0-26,110.422-83,117.711s-140-45.711-140-45.711
			L510.198-16.189z"/>
		<path fill="#2BA954" d="M362.813-11.189c0,0-90.361,100-144.361-5l-54,7c0,0,22,104.422,79,111.711s140-40.711,140-40.711
			L362.813-11.189z"/>
		<path fill="#2BA954" d="M507.645,174.397c0,0,59.498,67.496,75.997,104.994s38.997,73.496,46.497,119.994
			c0,0,9.351,6,35.424,28.499c0,0-9.924,23.999-57.922,16.499l-50.443-35.998v-22.499c0,0-56.229-107.91-89.972-151.408
			S507.645,174.397,507.645,174.397z"/>
	</g>
	<g id="Layer_14" display="inline">
		<path fill="#2EEA93" d="M647.84-22.445c0,0-4.781,32.506-26.51,45.158c0,0,60.671-11.093,63.673,32.989
			c0.094,1.376,35.806-62.89,27.556-84.146C707.822-40.65,647.84-22.445,647.84-22.445"/>
		<path fill="#2EEA93" d="M222.912-25.553c0,0,4.781,32.506,26.51,45.158c0,0-56.671-5.093-59.673,38.989
			c-0.094,1.376-35.806-62.891-27.556-84.147C166.931-37.758,222.912-25.553,222.912-25.553"/>
		<path fill="#2EEA93" d="M557.198,385.886c0,0,42.546-14.401,71.12,3.762c0,0-14.834-59.483-25.13-68.993
			c0,0-52.075-2.224-72.186,16.8L557.198,385.886z"/>
		<path fill="#2BA954" d="M359.547,180.856c0,0-59.498,67.496-75.997,104.994s-38.997,73.496-46.497,119.994
			c0,0-9.351,6-35.424,28.499c0,0,9.924,23.999,57.922,16.499l50.443-35.998v-22.499c0,0,56.229-107.91,89.972-151.408
			C433.708,197.439,359.547,180.856,359.547,180.856z"/>
		<path fill="#2EEA93" d="M309.994,392.345c0,0-42.546-14.401-71.12,3.762c0,0,14.834-59.483,25.13-68.993
			c0,0,52.075-2.224,72.186,16.8L309.994,392.345z"/>
	</g>
	<g id="Layer_15" display="inline">
	</g>
	<g id="Layer_13" display="inline">
		<path fill="#FECEA2" d="M103.584-81.189c0,0-14.692,45.333,34.641,65s32.143,15.667,32.143,15.667s46.298-0.333,47.191-8
			s19.333-40.667,16-56"/>
		<path fill="#FECEA2" d="M656.561-18.428c0,0-19.807-23.929-19.002-44.761s7.486-41.596,7.486-41.596l67.514-9.478
			c0,0,27,30.074,27,34.074s5,22.409-7,38.205s-27,35.796-27,35.796S661.183-8.637,656.561-18.428z"/>
	</g>
	<g id="Layer_3" display="inline">
		<g>
			<g id="Laag_7_1_" display="none">
				<path display="inline" opacity="0.1" enable-background="new    " d="M653.753,511.738l-11.507-1.569c0,0,0-2.441-0.872-5.058
					c-1.746-7.147-3.66-12.554-6.625-19.184c-0.872-2.267-1.917-4.359-2.615-5.929l0,0l0,0l9.418-10.985l-25.115-35.052
					l-16.041,7.151c-19.529-15.698-42.199-21.104-69.232-21.104c-63.301,0-114.569,51.271-114.569,114.572
					c0,63.304,51.27,114.572,114.569,114.572c1.223,0,2.442,0,3.838-0.176l8.896,16.393l38.362-12.033l-2.789-14.994
					c10.112-4.708,17.612-9.766,25.808-16.914l10.986,4.882l24.238-31.738l-7.846-9.242c2.266-5.058,10.81-27.202,11.508-31.39
					l9.938-2.087v-40.109h-0.349V511.738L653.753,511.738z M630.04,476.513L630.04,476.513L630.04,476.513z M631.957,479.826
					C631.783,479.826,631.783,479.826,631.957,479.826C631.783,479.826,631.783,479.826,631.957,479.826z M631.783,479.477
					C631.607,479.477,631.607,479.477,631.783,479.477C631.607,479.477,631.607,479.477,631.783,479.477z M631.432,479.128
					C631.432,479.128,631.432,478.953,631.432,479.128C631.432,478.953,631.432,479.128,631.432,479.128z M631.26,478.78
					c0-0.174-0.176-0.174-0.176-0.35C631.26,478.603,631.26,478.78,631.26,478.78z M630.911,478.082L630.911,478.082
					L630.911,478.082z M630.736,477.906c0-0.17-0.173-0.17-0.173-0.35C630.736,477.733,630.736,477.733,630.736,477.906z
					 M630.561,477.208l-0.171-0.173C630.39,477.208,630.39,477.208,630.561,477.208z M630.39,477.035
					C630.39,476.862,630.21,476.862,630.39,477.035C630.21,476.862,630.39,476.862,630.39,477.035z M630.21,476.686L630.21,476.686
					L630.21,476.686z"/>
			</g>
			<g id="Laag_8_1_">
			</g>
			<g id="Laag_21_1_">
			</g>
			<g id="Laag_20_1_">
			</g>
			<g id="Laag_15_1_">
			</g>
			<g id="Laag_19_1_">
			</g>
			<g id="Laag_4_1_">
			</g>
			<g id="Laag_2_1_">
			</g>
			<g id="Laag_12_1_">
			</g>
			<g id="Laag_11_1_">
			</g>
			<g id="Laag_10_1_" display="none">
				<g display="inline">
					<g>
						<g>
							<g>
								<defs>
									<ellipse id="SVGID_1_" cx="520.701" cy="-94.946" rx="134.619" ry="137.763"/>
								</defs>
								<clipPath id="SVGID_2_">
									<use xlink:href="#SVGID_1_"  overflow="visible"/>
								</clipPath>
								<path opacity="0.1" clip-path="url(#SVGID_2_)" enable-background="new    " d="M955.436,349.386l-0.692-0.698l0,0
									l-0.697-0.694l0,0l-0.694-0.698l0,0l-0.698-0.694l0,0l-0.694-0.698l0,0l-0.695-0.697l0,0l-1.047-1.22l0,0l-0.697-0.698l0,0
									l-0.698-0.694l0,0l-0.697-0.698l0,0l-0.692-0.694l0,0l-0.697-0.698l0,0l-0.695-0.694l0,0l-0.697-0.698l0,0l-0.695-0.697l0,0
									l-0.694-0.695l0,0l-0.698-0.697l0,0l-0.697-0.695l0,0l-0.698-0.697l0,0l-0.691-0.695l0,0l-0.698-0.697l0,0l-0.694-0.698l0,0
									l-0.698-0.694l0,0l-0.694-0.698l0,0l-0.698-0.694l0,0l-0.697-0.698l0,0l-0.695-0.697l0,0l-0.697-0.695l0,0l-0.691-0.697l0,0
									l-0.698-0.695l0,0l-0.697-0.697l0,0l-0.695-0.695l0,0l-0.716-0.719l0,0l-0.698-0.698l0,0l-0.698-0.694l0,0l-0.694-0.698l0,0
									l-0.694-0.694l0,0l-0.695-0.698l0,0l-0.697-0.697l0,0l-0.698-0.695l0,0l-0.698-0.697l0,0l-0.694-0.695l0,0l-0.694-0.697l0,0
									l-0.698-0.698l0,0l-0.694-0.694l0,0l-0.695-0.698h2.792v-20.922h-0.698v-0.698h-0.698v-3.489h-0.694v-0.694h-0.694v-0.698
									h-0.695v-0.697h-0.697v-0.695h-0.698v-0.697h-0.694v-0.695h-0.698v-0.697h-0.694v-0.698h-0.698v-0.694h-0.694v-0.698h-0.695
									v-0.349h9.764v-20.96h-0.694v-0.697h-0.698v-0.698h-0.694v-0.694h-0.695v-0.695h-0.697v-0.697h-0.695v-0.698h-0.697v-0.694
									h-0.698v-0.698h-0.694v-0.694h-0.695v-2.094h-0.697v-0.697h-0.695v-0.698h-0.694v-0.694h-0.698v-0.695h-0.697v-0.697h-0.695
									v-0.698h-0.697v-0.697h-0.695v-0.695h-0.694v-1.396h-0.698v-0.697h-0.697v-0.695h-0.691v-0.697h-0.698v-0.698h-0.698v-0.694
									h-4.881v-0.695h-0.698v-1.047h-0.698v-0.697h-0.695v-0.698h-0.693v-0.697h-0.698v-0.696h-0.698v-0.694h-1.043v-0.698h-0.696
									v-0.696h-0.696v-0.697h-0.695v-1.393h-0.697v-0.698h-0.696v-0.696h-0.696V233.8h-1.044v-0.695h-0.697v-0.696h-0.698v-0.697
									h-0.693v-0.696h-0.696v-0.696h-0.694v-1.395h-0.698v-0.697h-1.047v-0.696h-0.697v-0.173
									c4.71-1.918,9.768-2.792,15.176-2.792c11.505,0,21.966,4.534,30.688,12.033l0.173,0.171l0,0c0,0,0,0,0.173,0.177
									c0.177,0.171,0.35,0.521,0.698,0.694l0,0c0.173,0.351,0.525,0.523,0.698,0.874l0,0c0.17,0.349,0.521,0.523,0.691,0.87l0,0
									c0.173,0.35,0.524,0.525,0.697,0.874l0,0c0.174,0.348,0.522,0.522,0.698,0.872l0,0c0.173,0.349,0.521,0.521,0.694,0.873l0,0
									c0.177,0.35,0.525,0.522,0.698,0.871l0,0c0.173,0.349,0.521,0.521,0.694,0.871l15.695-16.04
									c-1.918-2.442-3.838-4.534-5.929-6.803c-0.173-0.173-0.521-0.522-0.694-0.696c-0.173-0.173-0.525-0.523-0.698-0.697
									c-0.173-0.173-0.521-0.521-0.697-0.695c-0.173-0.174-0.522-0.522-0.695-0.695c-0.17-0.177-0.521-0.525-0.694-0.698
									s-0.521-0.523-0.698-0.696c-0.173-0.173-0.521-0.523-0.694-0.698c-0.176-0.172-0.525-0.521-0.698-0.695
									c-0.173-0.174-0.521-0.523-0.694-0.695c-0.173-0.174-0.525-0.525-0.695-0.697c-0.173-0.174-0.524-0.523-0.697-0.697
									c-0.173-0.173-0.521-0.521-0.698-0.696c-0.173-0.173-0.521-0.522-0.697-0.696c-0.17-0.174-0.522-0.522-0.691-0.696
									c-0.173-0.173-0.522-0.524-0.698-0.696c-0.173-0.174-0.521-0.523-0.694-0.697c-0.177-0.172-0.525-0.521-0.698-0.697
									c-0.173-0.172-0.525-0.521-0.698-0.695c-0.169-0.175-0.521-0.523-0.694-0.696c-0.173-0.174-0.521-0.524-0.694-0.697
									c-0.173-0.174-0.522-0.523-0.698-0.697c-0.173-0.172-0.521-0.521-0.698-0.696c-0.173-0.173-0.521-0.522-0.691-0.696
									c-0.176-0.173-0.524-0.523-0.697-0.695c-0.173-0.174-0.522-0.524-0.695-0.697c-0.176-0.174-0.524-0.523-0.697-0.697
									c-0.173-0.172-0.525-0.521-0.698-0.697c-0.17-0.172-0.521-0.521-0.694-0.695s-0.522-0.523-0.698-0.695
									c-0.173-0.174-0.519-0.525-0.694-0.697c-0.173-0.173-0.522-0.523-0.698-0.698c-0.173-0.172-0.521-0.521-0.694-0.695
									c-0.173-0.174-0.522-0.522-0.695-0.697c-0.173-0.173-0.524-0.523-0.697-0.695c-0.173-0.174-0.522-0.524-0.695-0.697
									c-0.176-0.172-0.524-0.523-0.697-0.696c-0.17-0.173-0.522-0.522-0.695-0.696s-0.521-0.522-0.697-0.697
									c-0.173-0.174-0.522-0.523-0.695-0.695c-0.176-0.174-0.524-0.525-0.697-0.697s-0.522-0.523-0.695-0.697
									c-0.173-0.172-0.524-0.521-0.694-0.695c-0.173-0.175-0.525-0.523-0.698-0.697c-0.173-0.175-0.521-0.523-0.697-0.696
									c-0.173-0.174-0.521-0.524-0.698-0.697c-0.17-0.172-0.519-0.523-0.691-0.696s-0.521-0.522-0.697-0.696
									c-0.174-0.174-0.522-0.523-0.695-0.696c-0.176-0.174-0.524-0.523-0.697-0.696c-0.174-0.174-0.525-0.523-0.698-0.697
									c-0.17-0.172-0.521-0.522-0.691-0.697c-0.177-0.172-0.525-0.521-0.698-0.695s-0.521-0.523-0.697-0.697
									c-0.174-0.174-0.522-0.523-0.698-0.695c-0.173-0.174-0.521-0.523-0.691-0.697c-0.176-0.173-0.525-0.523-0.698-0.697
									c-0.173-0.173-0.521-0.521-0.694-0.696c-0.176-0.174-0.525-0.523-0.698-0.695c-0.173-0.175-0.524-0.524-0.697-0.697
									c-0.17-0.173-0.522-0.523-0.695-0.696s-0.521-0.523-0.697-0.697c-0.17-0.173-0.52-0.522-0.695-0.696
									c-0.173-0.174-0.521-0.522-0.697-0.695c-0.173-0.176-0.522-0.525-0.695-0.697c-0.173-0.174-0.521-0.523-0.694-0.697
									c-0.173-0.172-0.525-0.523-0.694-0.697c-0.177-0.172-0.525-0.521-0.698-0.695c-0.176-0.175-0.525-0.523-0.698-0.695
									c-0.171-0.175-0.52-0.525-0.696-0.698c-0.171-0.174-0.52-0.523-0.696-0.697c-0.173-0.172-0.521-0.522-0.694-0.696
									c-0.173-0.173-0.521-0.522-0.698-0.695c-0.171-0.174-0.521-0.523-0.692-0.696c-0.175-0.174-0.525-0.524-0.696-0.696
									c-0.174-0.175-0.525-0.523-0.698-0.698c-0.173-0.172-0.521-0.522-0.698-0.697c-0.173-0.172-0.521-0.521-0.694-0.695
									c-0.171-0.174-0.521-0.523-0.696-0.695c-0.171-0.174-0.521-0.525-0.696-0.697c-0.173-0.174-0.521-0.523-0.694-0.697
									c-0.177-0.173-0.525-0.521-0.698-0.697c-0.171-0.173-0.521-0.521-0.693-0.695c-0.176-0.174-0.524-0.523-0.696-0.696
									c-0.176-0.174-0.524-0.524-0.697-0.696c-0.173-0.174-0.522-0.523-0.698-0.697c-0.173-0.173-0.521-0.522-0.697-0.697
									c-0.172-0.173-0.522-0.521-0.693-0.696c-0.172-0.174-0.522-0.522-0.696-0.695c-0.173-0.174-0.522-0.525-0.695-0.697
									c-0.176-0.174-0.524-0.523-0.697-0.697c-0.173-0.172-0.525-0.521-0.696-0.695c-0.173-0.174-0.522-0.523-0.696-0.697
									c-0.173-0.174-0.522-0.523-0.695-0.696c-0.173-0.174-0.521-0.523-0.697-0.697c-0.173-0.172-0.522-0.522-0.698-0.696
									c-0.171-0.173-0.521-0.522-0.693-0.696c-0.174-0.173-0.524-0.522-0.696-0.696c-0.35-0.523-0.872-0.873-1.396-1.395
									l-0.173-0.173c-0.173-0.174-0.524-0.524-0.697-0.697c-0.173-0.174-0.522-0.523-0.698-0.696
									c-0.171-0.173-0.521-0.522-0.693-0.697c-0.174-0.173-0.521-0.522-0.696-0.695c-0.173-0.175-0.521-0.523-0.694-0.696
									c-0.176-0.174-0.525-0.524-0.698-0.696c-0.176-0.173-0.524-0.523-0.697-0.698c-0.172-0.172-0.522-0.521-0.696-0.695
									c-0.172-0.174-0.522-0.523-0.693-0.697c-0.173-0.174-0.525-0.523-0.698-0.695c-0.173-0.174-0.521-0.525-0.697-0.697
									c-0.172-0.173-0.522-0.523-0.693-0.697c-0.176-0.173-0.525-0.521-0.696-0.695c-0.176-0.175-0.525-0.523-0.694-0.696
									c-0.177-0.175-0.525-0.524-0.698-0.697c-0.176-0.173-0.524-0.523-0.698-0.696c-0.171-0.173-0.524-0.523-0.696-0.697
									c-0.171-0.172-0.521-0.522-0.696-0.695c-0.173-0.175-0.521-0.523-0.694-0.696c-0.173-0.174-0.521-0.524-0.698-0.696
									c-0.173-0.175-0.521-0.523-0.692-0.698c-0.177-0.172-0.525-0.521-0.696-0.697c-0.177-0.172-0.525-0.521-0.698-0.695
									s-0.521-0.523-0.698-0.695c-0.173-0.174-0.521-0.525-0.694-0.697c-0.171-0.173-0.524-0.523-0.696-0.697
									c-0.171-0.173-0.521-0.521-0.696-0.695c-0.173-0.175-0.521-0.523-0.694-0.698c-0.176-0.173-0.525-0.522-0.698-0.695
									c-0.176-0.174-0.521-0.524-0.694-0.696c-0.175-0.173-0.523-0.523-0.696-0.697c-0.175-0.173-0.523-0.522-0.696-0.695
									c-0.173-0.175-0.525-0.523-0.698-0.696c-0.173-0.176-0.521-0.524-0.697-0.696c-0.172-0.175-0.522-0.523-0.693-0.698
									c-0.172-0.172-0.522-0.523-0.696-0.697c-0.173-0.172-0.522-0.521-0.695-0.695c-0.176-0.174-0.524-0.523-0.697-0.695
									c-0.176-0.174-0.525-0.525-0.698-0.697c-0.171-0.175-0.521-0.523-0.693-0.697c-0.174-0.173-0.524-0.521-0.696-0.697
									c-0.173-0.173-0.524-0.521-0.697-0.695s-0.521-0.523-0.698-0.696c-0.171-0.173-0.521-0.524-0.692-0.696
									c-0.177-0.173-0.525-0.523-0.697-0.697c-0.176-0.172-0.521-0.522-0.694-0.695c-0.176-0.175-0.524-0.523-0.698-0.697
									c-0.176-0.175-0.524-0.523-0.697-0.695c-0.172-0.175-0.525-0.523-0.696-0.698c-0.171-0.172-0.521-0.523-0.696-0.697
									c-0.17-0.172-0.521-0.521-0.694-0.695s-0.522-0.523-0.698-0.695c-0.173-0.176-0.521-0.525-0.693-0.697
									c-0.176-0.175-0.524-0.523-0.697-0.697c-0.175-0.173-0.523-0.523-0.696-0.697c-0.173-0.173-0.522-0.521-0.695-0.695
									c-0.176-0.174-0.524-0.523-0.697-0.696c-0.172-0.174-0.525-0.524-0.696-0.696c-0.172-0.174-0.522-0.523-0.696-0.697
									c-0.173-0.173-0.522-0.522-0.698-0.695c-0.173-0.175-0.519-0.523-0.694-0.697c-0.173-0.175-0.522-0.523-0.698-0.695
									c-0.171-0.175-0.521-0.525-0.693-0.698c-0.174-0.172-0.524-0.523-0.696-0.697c-0.176-0.172-0.524-0.521-0.697-0.695
									s-0.522-0.523-0.695-0.697c-0.176-0.174-0.524-0.523-0.697-0.695c-0.172-0.175-0.523-0.523-0.696-0.697
									c-0.172-0.173-0.521-0.523-0.696-0.697c-0.173-0.172-0.522-0.521-0.695-0.695c-0.176-0.174-0.524-0.523-0.697-0.696
									c-0.172-0.173-0.522-0.524-0.696-0.696c-0.173-0.174-0.521-0.523-0.693-0.697c-0.176-0.172-0.525-0.523-0.698-0.697
									c-0.173-0.173-0.524-0.521-0.697-0.695c-0.173-0.175-0.522-0.523-0.698-0.695c-0.171-0.175-0.521-0.525-0.693-0.698
									c-0.171-0.174-0.521-0.523-0.695-0.697c-0.174-0.172-0.522-0.521-0.698-0.695c-0.173-0.174-0.521-0.523-0.694-0.697
									c-0.177-0.174-0.525-0.523-0.698-0.695c-0.175-0.175-0.521-0.524-0.693-0.697c-0.175-0.173-0.524-0.523-0.696-0.697
									c-0.176-0.173-0.524-0.521-0.697-0.695c-0.174-0.174-0.525-0.523-0.698-0.697s-0.521-0.523-0.696-0.695
									c-0.173-0.174-0.521-0.523-0.693-0.697c-0.173-0.173-0.521-0.523-0.697-0.697c-0.174-0.173-0.522-0.521-0.698-0.695
									c-0.173-0.175-0.521-0.523-0.694-0.695c-0.175-0.175-0.525-0.525-0.696-0.698c-0.172-0.174-0.525-0.523-0.696-0.697
									c-0.173-0.172-0.522-0.523-0.695-0.697c-0.176-0.172-0.524-0.521-0.697-0.695s-0.522-0.523-0.698-0.695
									c-0.171-0.175-0.521-0.524-0.696-0.697c-0.171-0.174-0.521-0.523-0.693-0.697c-0.176-0.172-0.521-0.521-0.697-0.695
									c-0.173-0.174-0.522-0.523-0.695-0.697c-0.176-0.174-0.524-0.523-0.696-0.695c-0.176-0.174-0.524-0.525-0.697-0.697
									c-0.172-0.172-0.525-0.523-0.696-0.697c-0.173-0.173-0.522-0.521-0.695-0.695c-0.173-0.175-0.524-0.523-0.697-0.698
									c-0.172-0.174-0.522-0.522-0.696-0.695c-0.172-0.174-0.522-0.523-0.696-0.697c-0.173-0.172-0.522-0.523-0.695-0.696
									c-0.176-0.173-0.524-0.522-0.697-0.696c-0.349-0.523-0.871-0.871-1.22-1.395l-0.172-0.174
									c-0.174-0.174-0.524-0.523-0.696-0.695c-0.173-0.174-0.521-0.525-0.697-0.697c-0.173-0.172-0.521-0.523-0.698-0.697
									c-0.17-0.172-0.521-0.521-0.694-0.695c-0.172-0.175-0.521-0.523-0.696-0.697c-0.172-0.174-0.521-0.523-0.693-0.696
									c-0.176-0.174-0.524-0.523-0.698-0.696c-0.176-0.173-0.524-0.523-0.697-0.697c-0.172-0.172-0.521-0.522-0.693-0.695
									c-0.176-0.174-0.524-0.523-0.696-0.696c-0.173-0.174-0.524-0.524-0.697-0.696c-0.173-0.175-0.522-0.523-0.698-0.697
									c-0.173-0.173-0.521-0.523-0.698-0.698c-0.168-0.172-0.519-0.522-0.692-0.696c-0.172-0.174-0.522-0.523-0.696-0.695
									c-0.173-0.174-0.522-0.525-0.695-0.697c-0.176-0.174-0.524-0.523-0.697-0.697c-0.177-0.172-0.525-0.522-0.698-0.696
									c-0.171-0.174-0.521-0.523-0.693-0.697c-0.174-0.174-0.524-0.523-0.696-0.696c-0.173-0.174-0.524-0.525-0.697-0.697
									c-0.173-0.172-0.522-0.523-0.698-0.697c-0.173-0.172-0.521-0.522-0.693-0.696c-0.176-0.173-0.521-0.523-0.697-0.697
									c-0.172-0.175-0.521-0.523-0.696-0.696c-0.173-0.174-0.522-0.523-0.695-0.697c-0.176-0.173-0.524-0.523-0.697-0.698
									c-0.172-0.172-0.525-0.522-0.696-0.696c-0.172-0.174-0.522-0.523-0.693-0.695c-0.176-0.174-0.525-0.525-0.698-0.697
									c-0.173-0.174-0.521-0.523-0.697-0.697c-0.173-0.172-0.522-0.522-0.698-0.697c-0.171-0.172-0.521-0.522-0.693-0.695
									c-0.174-0.174-0.524-0.523-0.696-0.696c-0.173-0.174-0.521-0.525-0.694-0.697c-0.176-0.173-0.525-0.523-0.698-0.697
									c-0.176-0.172-0.524-0.522-0.697-0.696c-0.172-0.173-0.523-0.523-0.696-0.697c-0.172-0.175-0.521-0.523-0.696-0.696
									c-0.173-0.174-0.521-0.525-0.694-0.697c-0.174-0.173-0.522-0.523-0.698-0.698c-0.172-0.172-0.521-0.522-0.696-0.696
									c-0.173-0.174-0.521-0.523-0.693-0.695c-0.176-0.175-0.524-0.525-0.697-0.697c-0.174-0.173-0.522-0.523-0.695-0.697
									c-0.176-0.172-0.524-0.523-0.697-0.697c-0.175-0.172-0.525-0.522-0.696-0.695c-0.172-0.174-0.522-0.523-0.696-0.696
									c-0.174-0.174-0.522-0.525-0.698-0.697c-0.173-0.173-0.521-0.523-0.694-0.697c-0.173-0.172-0.522-0.522-0.698-0.697
									c-0.171-0.172-0.521-0.522-0.693-0.695c-0.174-0.175-0.524-0.523-0.696-0.696c-0.176-0.174-0.524-0.525-0.697-0.697
									c-0.173-0.173-0.525-0.523-0.698-0.698c-0.173-0.172-0.521-0.522-0.693-0.696c-0.173-0.174-0.524-0.523-0.696-0.697
									c-0.173-0.174-0.521-0.523-0.697-0.696c-0.173-0.173-0.522-0.525-0.698-0.697c-0.173-0.172-0.521-0.523-0.694-0.697
									c-0.175-0.172-0.522-0.522-0.696-0.695c-0.172-0.174-0.522-0.523-0.693-0.696c-0.176-0.175-0.525-0.525-0.698-0.697
									c-0.176-0.173-0.524-0.523-0.697-0.697c-0.173-0.172-0.522-0.523-0.698-0.697c-0.171-0.172-0.521-0.522-0.693-0.695
									c-0.171-0.175-0.524-0.523-0.696-0.696c-0.173-0.174-0.521-0.525-0.697-0.697c-0.173-0.175-0.521-0.523-0.695-0.698
									c-0.176-0.172-0.524-0.522-0.696-0.697c-0.176-0.172-0.524-0.522-0.697-0.695c-0.172-0.174-0.521-0.523-0.693-0.696
									c-0.176-0.173-0.524-0.525-0.698-0.697c-0.173-0.172-0.524-0.523-0.697-0.697c-0.172-0.172-0.521-0.522-0.696-0.695
									c-0.172-0.174-0.521-0.523-0.693-0.698c-0.173-0.174-0.524-0.523-0.698-0.696c-0.173-0.173-0.521-0.525-0.697-0.697
									c-0.173-0.172-0.521-0.523-0.695-0.697c-0.174-0.172-0.524-0.521-0.695-0.695c-0.175-0.175-0.525-0.523-0.696-0.696
									c-0.173-0.176-0.522-0.525-0.695-0.697c-0.176-0.175-0.524-0.523-0.697-0.698c-0.173-0.172-0.525-0.523-0.698-0.697
									c-0.172-0.172-0.521-0.522-0.696-0.695c-0.171-0.174-0.521-0.523-0.693-0.696c-0.173-0.173-0.521-0.525-0.697-0.697
									c-0.173-0.174-0.522-0.523-0.698-0.697c-0.171-0.172-0.521-0.522-0.693-0.697c-0.176-0.173-0.524-0.522-0.696-0.696
									c-0.173-0.349-0.524-0.523-0.697-0.696c-0.173-0.35-0.522-0.525-0.695-0.697c-0.176-0.172-0.524-0.523-0.697-0.697
									c-0.172-0.172-0.525-0.521-0.696-0.695c-0.172-0.175-0.522-0.523-0.696-0.697c-0.173-0.174-0.522-0.523-0.695-0.695
									c-0.176-0.175-0.521-0.523-0.697-0.698c-0.173-0.172-0.522-0.523-0.698-0.697c-0.171-0.172-0.521-0.522-0.693-0.695
									c-0.174-0.351-0.524-0.523-0.696-0.696c-0.173-0.351-0.524-0.525-0.697-0.697c-0.173-0.174-0.522-0.523-0.695-0.697
									c-0.171-0.35-0.524-0.523-0.696-0.697c-0.173-0.35-0.521-0.522-0.697-0.696c-0.172-0.174-0.521-0.523-0.696-0.696
									c-0.173-0.173-0.522-0.525-0.695-0.697c-0.352-0.523-0.87-0.874-1.396-1.396l-0.173-0.174
									c-0.176-0.174-0.524-0.523-0.697-0.695c-0.172-0.351-0.525-0.525-0.696-0.697c-0.172-0.349-0.522-0.523-0.696-0.697
									c-0.173-0.172-0.522-0.522-0.695-0.696s-0.521-0.523-0.697-0.697c-0.173-0.348-0.522-0.523-0.696-0.696
									c-0.173-0.174-0.522-0.525-0.693-0.698c-0.176-0.172-0.525-0.523-0.698-0.697c-0.173-0.172-0.524-0.521-0.697-0.696
									c-0.173-0.173-0.522-0.523-0.695-0.697c-0.174-0.174-0.524-0.523-0.696-0.696c-0.171-0.35-0.521-0.523-0.696-0.697
									c-0.173-0.172-0.521-0.523-0.697-0.697c-0.173-0.35-0.522-0.522-0.695-0.696c-0.176-0.351-0.521-0.523-0.697-0.695
									c-0.172-0.174-0.522-0.525-0.693-0.697c-0.175-0.174-0.524-0.523-0.696-0.697c-0.176-0.172-0.525-0.523-0.698-0.697
									c-0.173-0.172-0.524-0.522-0.697-0.695c-0.173-0.174-0.522-0.523-0.693-0.696c-0.173-0.174-0.524-0.525-0.698-0.698
									c-0.171-0.173-0.52-0.523-0.695-0.697c-0.174-0.349-0.522-0.521-0.698-0.696c-0.173-0.35-0.521-0.523-0.694-0.697
									c-0.175-0.35-0.525-0.523-0.697-0.696c-0.171-0.173-0.521-0.525-0.692-0.697c-0.177-0.172-0.525-0.523-0.698-0.697
									c-0.176-0.173-0.524-0.521-0.697-0.696c-0.174-0.174-0.522-0.523-0.698-0.697c-0.171-0.174-0.521-0.523-0.696-0.696
									c-0.172-0.174-0.521-0.523-0.693-0.697c-0.173-0.172-0.521-0.523-0.697-0.697c-0.173-0.172-0.522-0.522-0.695-0.695
									c-0.176-0.174-0.524-0.523-0.697-0.696c-0.175-0.174-0.525-0.525-0.696-0.698c-0.172-0.173-0.522-0.523-0.693-0.697
									c-0.176-0.172-0.525-0.521-0.698-0.697c-0.173-0.172-0.524-0.522-0.697-0.695c-0.172-0.174-0.522-0.523-0.696-0.696
									c-0.173-0.173-0.522-0.525-0.698-0.697c-0.171-0.174-0.521-0.523-0.693-0.697c-0.173-0.173-0.521-0.521-0.697-0.696
									c-0.173-0.174-0.522-0.523-0.695-0.697c-0.174-0.174-0.524-0.523-0.696-0.696c-0.174-0.174-0.524-0.525-0.696-0.697
									c-0.173-0.172-0.521-0.523-0.697-0.697c-0.173-0.172-0.522-0.522-0.695-0.695c-0.173-0.174-0.524-0.523-0.697-0.696
									c-0.172-0.176-0.522-0.525-0.696-0.698c-0.172-0.173-0.522-0.523-0.693-0.697c-0.176-0.172-0.524-0.523-0.698-0.697
									c-0.176-0.172-0.521-0.522-0.697-0.695c-0.173-0.174-0.521-0.523-0.693-0.696c-0.176-0.173-0.525-0.525-0.698-0.697
									c-0.171-0.174-0.522-0.523-0.696-0.697c-0.173-0.173-0.521-0.521-0.697-0.698c-0.173-0.172-0.521-0.522-0.695-0.695
									c-0.171-0.174-0.521-0.523-0.695-0.696c-0.172-0.174-0.522-0.525-0.697-0.697c-0.173-0.172-0.521-0.523-0.694-0.697
									c-0.176-0.172-0.524-0.522-0.697-0.695c-0.177-0.174-0.522-0.523-0.695-0.697c-0.175-0.174-0.524-0.523-0.696-0.696
									c-0.174-0.173-0.524-0.525-0.696-0.697c-0.173-0.172-0.524-0.523-0.697-0.697c-0.173-0.172-0.522-0.522-0.698-0.695
									c-0.173-0.174-0.521-0.523-0.694-0.696c-0.172-0.176-0.521-0.525-0.696-0.697c-0.172-0.175-0.521-0.523-0.696-0.697
									c-0.173-0.173-0.522-0.523-0.695-0.698c-0.349-0.522-0.874-0.871-1.223-1.393l-0.168-0.174
									c-0.175-0.173-0.525-0.523-0.696-0.697c-0.176-0.175-0.525-0.523-0.698-0.696c-0.173-0.174-0.521-0.525-0.697-0.697
									c-0.173-0.172-0.522-0.522-0.698-0.697c-0.171-0.172-0.521-0.522-0.693-0.696c-0.171-0.173-0.521-0.523-0.696-0.697
									c-0.173-0.174-0.521-0.523-0.694-0.696c-0.176-0.173-0.525-0.525-0.698-0.697c-0.176-0.173-0.524-0.523-0.697-0.698
									c-0.172-0.172-0.525-0.522-0.696-0.696c-0.172-0.173-0.522-0.523-0.693-0.697c-0.173-0.174-0.525-0.523-0.698-0.696
									c-0.173-0.173-0.521-0.523-0.697-0.697c-0.173-0.173-0.522-0.523-0.696-0.697c-0.173-0.173-0.521-0.521-0.693-0.695
									c-0.176-0.175-0.521-0.523-0.698-0.696c-0.173-0.175-0.521-0.525-0.694-0.697c-0.176-0.173-0.525-0.523-0.698-0.697
									c-0.174-0.172-0.524-0.523-0.696-0.697c-0.171-0.172-0.521-0.522-0.695-0.695c-0.174-0.174-0.522-0.523-0.695-0.696
									c-0.173-0.174-0.524-0.525-0.697-0.697c-0.174-0.174-0.522-0.523-0.698-0.698c-0.171-0.172-0.521-0.522-0.693-0.697
									c-0.175-0.172-0.524-0.522-0.696-0.695c-0.176-0.174-0.524-0.523-0.697-0.696c-0.174-0.173-0.522-0.525-0.695-0.697
									c-0.176-0.175-0.524-0.523-0.696-0.698c-0.173-0.172-0.524-0.521-0.697-0.696c-0.172-0.174-0.521-0.522-0.696-0.697
									c-0.174-0.174-0.522-0.523-0.698-0.696c-0.173-0.173-0.519-0.525-0.694-0.697c-0.172-0.172-0.522-0.523-0.696-0.697
									c-0.172-0.172-0.522-0.522-0.693-0.695c-0.176-0.174-0.525-0.523-0.698-0.698c-0.176-0.174-0.524-0.523-0.697-0.696
									c-0.173-0.173-0.522-0.525-0.695-0.697c-0.174-0.172-0.524-0.523-0.696-0.697c-0.171-0.172-0.524-0.521-0.696-0.695
									c-0.173-0.175-0.521-0.523-0.697-0.696c-0.173-0.176-0.522-0.525-0.695-0.697c-0.176-0.175-0.524-0.523-0.697-0.698
									c-0.172-0.172-0.521-0.523-0.696-0.697c-0.172-0.172-0.522-0.522-0.693-0.695c-0.176-0.174-0.525-0.523-0.698-0.696
									c-0.173-0.173-0.524-0.525-0.697-0.697c-0.172-0.174-0.522-0.523-0.696-0.697c-0.173-0.173-0.522-0.523-0.693-0.697
									c-0.173-0.173-0.521-0.522-0.698-0.696c-0.173-0.174-0.521-0.523-0.697-0.696c-0.173-0.173-0.521-0.525-0.695-0.697
									c-0.352-0.523-0.873-0.871-1.218-1.396l-0.171-0.173c-0.177-0.172-0.525-0.523-0.698-0.697
									c-0.176-0.172-0.524-0.522-0.698-0.696c-0.173-0.173-0.524-0.523-0.697-0.697c-0.172-0.174-0.521-0.523-0.696-0.696
									c-0.172-0.174-0.521-0.523-0.693-0.697c-0.173-0.173-0.521-0.523-0.697-0.697c-0.174-0.173-0.522-0.521-0.698-0.696
									c-0.173-0.173-0.521-0.523-0.693-0.695c-0.176-0.175-0.524-0.525-0.697-0.697c-0.172-0.173-0.523-0.523-0.693-0.697
									c-0.176-0.172-0.525-0.523-0.698-0.697c-0.176-0.173-0.524-0.522-0.697-0.696c-0.172-0.173-0.522-0.522-0.696-0.695
									c-0.172-0.174-0.522-0.525-0.696-0.698c-0.173-0.173-0.522-0.523-0.695-0.697c-0.173-0.172-0.521-0.522-0.697-0.697
									c-0.173-0.172-0.522-0.521-0.695-0.695c-0.174-0.174-0.524-0.523-0.696-0.696c-0.174-0.174-0.524-0.525-0.696-0.698
									c-0.173-0.173-0.524-0.522-0.697-0.697c-0.173-0.172-0.522-0.521-0.695-0.696c-0.173-0.173-0.524-0.523-0.697-0.697
									c-0.172-0.174-0.521-0.523-0.696-0.696c-0.172-0.173-0.521-0.525-0.696-0.697c-0.173-0.172-0.522-0.523-0.695-0.697
									c-0.176-0.173-0.521-0.522-0.697-0.696c-0.172-0.173-0.522-0.523-0.693-0.697c-0.175-0.174-0.525-0.523-0.696-0.696
									c-0.176-0.173-0.525-0.525-0.698-0.697c-0.173-0.172-0.521-0.523-0.697-0.697c-0.173-0.173-0.522-0.521-0.695-0.695
									c-0.171-0.175-0.524-0.523-0.696-0.697c-0.171-0.174-0.521-0.523-0.696-0.696c-0.173-0.173-0.521-0.523-0.694-0.697
									c-0.176-0.172-0.525-0.523-0.698-0.697c-0.176-0.172-0.521-0.523-0.697-0.695c-0.172-0.174-0.521-0.523-0.693-0.697
									c-0.175-0.174-0.524-0.523-0.696-0.698c-0.173-0.174-0.524-0.522-0.697-0.697c-0.174-0.173-0.522-0.522-0.698-0.697
									c-0.173-0.174-0.521-0.523-0.693-0.697c-0.173-0.173-0.521-0.523-0.696-0.697c-0.173-0.174-0.521-0.523-0.697-0.697
									c-0.174-0.174-0.522-0.523-0.695-0.697c-0.176-0.174-0.524-0.523-0.697-0.698c-0.175-0.174-0.525-0.523-0.696-0.697
									c-0.172-0.174-0.522-0.523-0.693-0.697c-0.176-0.173-0.525-0.523-0.698-0.697c-0.173-0.174-0.524-0.523-0.697-0.697
									c-0.173-0.174-0.522-0.523-0.698-0.698c-0.171-0.174-0.521-0.522-0.693-0.697c-0.174-0.174-0.521-0.523-0.696-0.697
									c-0.173-0.173-0.521-0.523-0.697-0.697c-0.173-0.174-0.522-0.523-0.695-0.697c-0.176-0.174-0.524-0.523-0.696-0.697
									c-0.173-0.174-0.524-0.523-0.697-0.697c-0.172-0.174-0.521-0.523-0.693-0.698c-12.907-13.603-29.648-21.972-48.131-21.972
									c-33.308,0-58.067,26.854-65.917,63.825h-49.529v20.926h0.696v-34.187h0.696v0.698h0.696v0.696h0.875v0.695h0.694v0.697
									h0.695v0.697h0.697v0.696h0.698v0.698h0.694v0.695h0.698v0.697h1.044v0.697h0.697v0.695h0.698v1.047h-9.767v20.926h0.696
									v0.697h0.698v0.696h0.695v0.696h1.047v0.697h0.696v0.697h0.696v0.695h0.696v0.697h0.696v0.695h0.696v0.698h0.696v0.697
									h1.047v0.696h0.696v0.697h0.696v0.695h0.698v0.697h0.696v0.697h0.696v0.696h0.696v0.696h1.047v0.697h0.695v0.697h0.698
									v0.697h0.694v0.695h0.698V-54h0.696v0.698h0.696v0.697h1.047v0.697h0.696v0.695h0.696v0.695h0.696v0.698h0.696v0.697h0.697
									v0.697h0.696v0.695h0.696v0.695H463v0.697h0.696v0.697h0.698v0.696h0.694v0.697h0.698v0.696h0.696v0.697h0.696v0.697h0.697
									v0.695h0.695v0.695h0.696v0.698h0.696v0.697h0.697v0.697h0.698v0.695h0.694v0.695h0.696v0.697h0.696v0.697h0.698v0.698
									h0.697v0.695h0.695v0.696h0.696v0.697h0.696v0.762h0.697v0.697h0.698v0.695h0.694v0.698h0.696v0.695h0.696v0.698h0.698
									v0.697h0.698v0.695h0.694v0.696h2.791v0.697h0.696v0.698h0.698v0.697h0.696v0.696h0.694v0.695h0.698v0.697h0.696v0.697
									h1.047v0.695h0.696v0.698h0.696v0.695h0.696v0.698h0.697v0.697h0.696v0.695h0.696v0.697h1.047v0.695h0.696v0.698h0.696
									v0.697h0.696v0.695h0.696v0.696h0.697v0.697h0.695v0.697h1.047v0.697h0.697v0.696h0.696v0.695h0.696v0.698h0.696v0.697
									h0.696v0.695h0.696v0.697h1.047v0.695h0.696v0.698h0.698v0.697h0.696v0.695h0.696v0.696h0.696v0.697h0.696v0.697h1.046
									v0.697h0.696v0.696h0.696v0.695h0.696v0.698h0.696v0.697h0.698v0.697h0.696v0.695h1.047v0.695h0.696v0.698h0.696v0.697
									h0.696V5.27h0.697v0.697h0.044v0.695h0.696v0.697h1.046v0.697h0.693v0.696h0.698v0.695h0.697v0.698h0.698v0.697h0.693v0.697
									h0.696v0.695h1.047v0.695h0.694v0.698h0.698v0.697h0.696v0.697h0.692v0.695h0.698v0.695h0.698v0.697h1.046v0.697h0.696
									v0.696h0.693v0.697h0.698v0.695h0.697v0.697h0.695v0.697h0.696v0.695h0.693v0.695h0.697v0.698h0.698v0.697h0.697v0.697
									h0.696v0.696h0.693v0.695h0.698v0.697h0.694v0.697h0.696v0.698h0.698v0.695h0.696v0.695h0.694v0.697h0.698v0.697h0.696
									v0.695h0.696v0.697h0.694v0.696h0.698v0.697h0.694v0.697h0.696v0.696h0.696v0.695h0.698v0.697h0.697v0.697h0.694v0.698
									h0.697v0.695h0.692v0.695h0.698v0.697h0.697v0.697h0.696v0.695h0.693v0.697h0.698v0.696h0.697v0.697h0.698v0.697h0.693
									v0.696h0.696v0.697h0.694v0.696h0.698v0.697h0.697v0.698h0.696v0.695h0.693v0.695h0.698v0.697h0.697v0.697h0.693v0.697
									h0.696v0.696h0.698v0.696h0.694v0.697h0.698v0.697h0.696v0.696h0.696v0.697h0.697v0.696h0.695v0.697h0.697v0.698h0.693
									v0.695h0.696v0.697h0.698v0.695h0.697v0.697h0.693v0.697h0.698v0.695h0.696v0.696h0.694v0.697h0.697v0.697h0.696v0.697
									h0.693v0.695h0.698v0.696h0.697v0.697h0.698v0.698h0.696v0.695h0.693v0.697h0.697v0.695h0.695v0.697h0.697v0.697h0.696
									v0.695h0.693v0.697h0.698v0.695h0.697v0.697h0.696v0.697h0.693v0.695h0.698v0.695h0.697v0.697h0.695v0.698h0.696v0.697
									h0.696v0.695h0.697v0.695h0.695v0.804h0.697V80.6h0.696v0.695h0.693v0.697h0.698v0.696h0.697v0.696h0.693v0.697h0.698v0.695
									h0.696v0.695h0.697v0.697h0.694v0.697h0.697v0.698h0.695v0.695h0.695v0.695h0.697v0.697h0.698v0.697h0.696v0.696h0.693
									v0.696h0.697v0.696h0.698v0.696h0.694v0.697h0.696v0.695h0.693v0.697h0.698v0.695h0.697v0.697h0.696v0.698h0.696v0.695
									h0.695v0.695h0.697v0.697h0.698v0.697h0.693v0.696h0.696v0.696h0.694v0.696h0.698v0.696h0.697v0.697h0.696v0.697h0.696
									v0.695h0.695v0.695h0.697v0.697h0.693v0.698h0.696v0.695h0.698v0.697h0.694v0.695h0.698v0.697h0.696v0.696h0.696v0.696
									h0.697v0.696h0.695v0.696h0.697v0.697h0.693v0.697h0.696v0.695h0.697v0.695h0.698v0.697h0.693v0.698h0.697v0.696h0.696
									v0.696h0.695v0.695h0.697v0.697h0.696v0.696h0.693v0.696h0.698v0.697h0.697v0.695h0.698v0.697h0.693v0.697h0.696v0.695
									h0.697v0.695h0.695v0.697h0.697v0.698h0.696v0.696h0.693v0.696h0.698v0.695h0.697v0.697h0.696v0.696h0.693v0.696h0.698
									v0.697h0.697v0.695h0.695v0.697h0.696v0.697h0.695v0.695h0.695v0.697h0.697v0.695h0.698v0.698h0.696v0.696h0.693v0.696
									h0.697v0.695h0.698v0.697h0.693v0.696h0.697v0.698h0.696v0.695h0.695v0.695h0.697v0.697h0.696v0.697h0.696v0.695h0.695
									v0.697h0.697v0.695h0.695v0.698h0.696v0.696h0.696v0.696h0.697v0.696h0.698v0.696h0.694v0.696h0.696v0.698h0.696v0.695
									h0.695v0.695h0.697v0.697h0.693v0.697h0.696v0.697h0.698v0.695h0.697v0.695h0.837v0.698h0.693v0.696h0.696v0.696h0.694
									v0.696h0.698v0.696h0.697v0.696h0.693v0.698h0.696v0.695h0.698v0.697h0.697v0.695h0.698v0.697h0.693v0.697h0.696v0.696
									h0.694v0.696h0.698v0.696h0.696v0.696h0.696v0.697h0.694v0.695h0.698v0.698h0.697v0.695h0.693v0.697h0.696v0.697h0.698
									v0.695h0.694v0.697h0.698v0.695h0.696v0.697h0.696v0.697h0.694v0.695h0.698v0.697h0.696v0.695h0.692v0.698h0.698v0.697
									h0.698v0.695h0.694v0.695h0.696v0.697h0.696v0.697h0.697v0.696h0.695v0.696h0.697v0.696h0.696v0.696h0.693v0.697h0.698
									v0.697h0.697v0.695h0.693v0.696h0.696v0.697h0.698v0.697h0.697v0.696h0.695v0.696h0.696v0.695h0.693v0.697h0.697v0.697
									h0.698v0.697h0.697v0.695h0.693v0.695h0.696v0.697h0.698v0.698h0.697v0.697h0.693v0.695h0.698v0.695h0.692v0.697h0.698
									v0.697h0.698v0.697h0.696v0.695h0.696v0.695h0.694v0.697h0.697v0.697h0.695v0.697h0.696v0.695h0.696v0.696h0.694v0.697
									h0.698v0.697h0.697v0.695h0.696v0.696h0.696v0.696h0.695v0.697h0.697v0.697h0.693v0.695h0.696v0.697h0.698v0.695h0.694
									v0.697h0.698v0.698h0.696v0.695h0.696v0.697h0.694v0.695h0.698v0.697h0.697v0.696h0.693v0.696h0.696v0.697h0.698v0.695
									h0.697v0.697h0.693v0.698h0.698v0.694h0.696v0.696h0.694v0.696h0.698v0.698h0.692v0.697h0.696v0.695h0.698v0.696h0.698
									v0.695h0.697v0.698h0.693v0.696h0.696v0.696h0.698v0.696h0.694v0.696h0.698v0.698h0.695v0.696h0.693v0.696h0.698v0.694
									h0.697v0.698h0.696v0.697h0.693v0.696h0.698v0.696h0.694v0.695h0.698v0.697h0.696v0.698h0.696v0.696h0.694v0.696h0.698
									v0.694h0.697v0.698h0.696v0.696h0.693v0.697h0.698v0.696h0.694v0.695h0.696v0.698h0.696v0.694h0.698v0.698h0.694v0.697
									h0.698v0.695h0.696v0.697h0.692v0.695h0.698v0.697h0.698v0.695h0.694v0.697h0.696v0.698h0.696v0.694h0.698v0.698h0.697
									v0.694h0.693v0.698h0.698v0.698h0.692v0.694h0.698v0.697h0.697v0.695h0.693v0.697h0.696v0.695h0.698v0.697h0.697v0.698
									h0.695v0.694h0.696v0.698h0.696v0.694h0.694v0.698h0.698v0.694h0.697V261h0.693v0.697h0.696v0.695h0.698v0.697h0.697v0.695
									h0.693v0.697h0.696v0.698h0.694v0.694h0.698v0.698h0.698v0.694h0.696v0.698h0.696v0.694h0.694v0.698h0.698v0.698h0.697
									v0.694h0.693v0.698h0.696v0.694h0.694v0.697h0.698v0.698h0.696v0.694h0.697v0.698h0.697v0.694h0.694v0.698h0.698v0.698
									h0.692v0.694h0.696v0.697h0.698v0.695h2.442c0.173,0.176,0.521,0.524,0.694,0.697c0.177,0.174,0.525,0.522,0.698,0.698
									c0.174,0.173,0.524,0.521,0.693,0.694c0.174,0.177,0.524,0.525,0.696,0.695c0.176,0.176,0.524,0.524,0.697,0.697
									c0.173,0.177,0.525,0.525,0.698,0.698s0.521,0.521,0.697,0.698c0.172,0.173,0.522,0.521,0.693,0.694
									c0.172,0.173,0.522,0.524,0.696,0.694c0.173,0.177,0.522,0.525,0.698,0.698c0.173,0.176,0.521,0.524,0.694,0.698
									c0.176,0.173,0.525,0.521,0.696,0.697c0.173,0.173,0.525,0.521,0.693,0.695c0.176,0.173,0.525,0.524,0.698,0.694
									c0.176,0.176,0.524,0.524,0.697,0.698c0.173,0.176,0.521,0.524,0.698,0.697c0.171,0.173,0.521,0.521,0.696,0.698
									c0.171,0.173,0.521,0.521,0.692,0.694c0.174,0.173,0.522,0.525,0.698,0.694c0.173,0.177,0.521,0.525,0.694,0.698
									c0.177,0.173,0.525,0.525,0.698,0.698c0.175,0.173,0.525,0.521,0.696,0.694c0.172,0.176,0.525,0.525,0.696,0.698
									c0.173,0.173,0.521,0.521,0.694,0.694c0.174,0.176,0.525,0.525,0.698,0.698s0.521,0.524,0.698,0.697
									c0.171,0.173,0.52,0.521,0.696,0.694c0.171,0.174,0.52,0.525,0.692,0.698c0.177,0.173,0.522,0.521,0.698,0.694
									c0.173,0.177,0.521,0.525,0.694,0.698c0.175,0.173,0.525,0.525,0.696,0.698c0.175,0.173,0.525,0.521,0.696,0.694
									c0.173,0.173,0.522,0.525,0.698,0.698c0.173,0.173,0.521,0.521,0.694,0.694c0.173,0.176,0.525,0.524,0.698,0.698
									c0.171,0.173,0.521,0.521,0.696,0.697c0.171,0.173,0.521,0.521,0.693,0.695c0.176,0.173,0.524,0.524,0.697,0.697
									c0.176,0.173,0.525,0.521,0.698,0.695c0.173,0.173,0.521,0.524,0.694,0.697c0.175,0.173,0.523,0.521,0.696,0.698
									c0.172,0.173,0.525,0.521,0.696,0.694c0.173,0.173,0.522,0.525,0.698,0.695c0.173,0.176,0.521,0.524,0.697,0.697
									c0.173,0.173,0.522,0.525,0.693,0.698c0.173,0.173,0.522,0.521,0.696,0.697c0.173,0.173,0.521,0.522,0.695,0.695
									c0.176,0.173,0.524,0.521,0.697,0.694c0.176,0.176,0.525,0.525,0.698,0.698c0.171,0.173,0.521,0.524,0.692,0.697
									c0.175,0.173,0.525,0.522,0.697,0.698c0.173,0.17,0.524,0.521,0.697,0.694s0.521,0.522,0.698,0.695
									c0.173,0.176,0.521,0.524,0.694,0.697c0.175,0.173,0.525,0.521,0.696,0.698c0.171,0.173,0.521,0.521,0.696,0.697
									c0.173,0.17,0.521,0.522,0.694,0.695c0.177,0.173,0.525,0.521,0.698,0.694c0.173,0.176,0.525,0.525,0.696,0.698
									c11.508,11.684,26.16,18.658,43.07,18.658c20.927,0,39.938-10.637,53.363-27.9L955.436,349.386L955.436,349.386z"/>
							</g>
						</g>
					</g>
				</g>
			</g>
			<g id="Laag_13_1_">
				<g id="path3924_1_">
					<g>
						<circle fill="#FFFFFF" cx="170.195" cy="-113.237" r="83.704"/>
					</g>
				</g>
				<g id="path3089_2_">
					<g>
						<g>
							<path fill="#56E295" d="M189.728-185.083l-1.92,1.047c0,0,1.047,0.35,1.223,0.697c0.349,0.174,1.043-0.174,1.043-0.174v1.047
								c0,0,1.745,0.873,1.569,1.22c-0.173,0.349,2.791-0.35,2.791-0.35l2.967-1.047l0.695-1.219l-1.22-1.047l-5.579,0.697
								L189.728-185.083z"/>
							<path fill="#56E295" d="M123.46-181.769l1.223-0.173l2.788-1.22l2.093-1.395l0.175,0.174l-1.57,1.394l-0.349,0.523
								l-1.396,0.697l1.047,0.174l-0.173,0.698l1.218-0.175l1.221-1.047l1.046,0.35l0.522,0.523h1.397v-1.046l-2.093-1.569
								l-0.522-0.523l-0.174-0.523l0.874,0.174l0.698,0.697l0.871-0.871l1.572-0.174l1.567-1.221v-0.871l1.221-1.22l-0.874-0.873
								h2.094h1.917c0,0,0.871-0.349,1.046-0.174c0.173,0.35,1.569,1.22,1.569,1.22l-0.522,0.523l-2.27,0.35l-0.521,1.047
								l1.568,0.174l1.221-1.221l1.393-0.174l0.176,1.221c0,0-1.571,0.873-1.746,0.873c-0.173,0-1.046,0.523-1.046,0.523v1.047
								l-1.396,0.174l-1.568-0.35h-0.696l-1.218,0.873l0.871,0.871c0,0,1.396-0.523,1.571-0.697
								c0.175-0.174,0.871-0.523,1.047-0.174c0.174,0.349,1.047,1.046,1.047,1.046l0.695,1.396l1.046,0.523l2.094,0.697
								c0,0,1.568,0.35,1.568,0.523s-0.173-0.873-0.173-0.873l-1.221-1.394c0,0,0-0.35,0.351-0.35
								c0.35,0.175,1.221,0.873,1.221,0.873c0.171,0,1.218,0.697,1.218,0.697l0.525-1.22l1.044-0.523l-0.349-0.697l-0.521-0.523
								l-0.525-0.697v-0.872c0,0,0.174-0.174,0.352-0.174c0.173-0.173,0.695-0.523,0.695-0.349c0.173,0.173,1.22,1.569,1.22,1.569
								l1.047,0.174l0.525-0.872l1.393-0.173l0.174-0.697l1.218-0.35l-1.745-1.57l-1.22-0.174l-0.696,0.174l-0.696-0.872
								l0.696-0.697l0.351-1.047l-0.873-0.871l-1.396-0.174l-0.347-0.697c0,0-1.221-0.173-1.221,0
								c-0.171,0.174-1.045-1.046-1.045-1.046l-0.522-0.873c-4.011,1.221-8.021,2.79-11.685,4.71l-0.175,0.349l-1.219,0.697
								l-1.396,1.046l-1.22,0.523l-0.173-0.349c-4.182,2.267-8.021,5.057-11.684,8.021c1.917-0.871,5.058-2.615,5.058-2.615
								L123.46-181.769z"/>
							<path fill="#56E295" d="M200.365-165.376l0.871-0.174l0.695-0.35l0.176-0.174l1.218-0.174l0.171-0.523l0.354-0.523v-1.569
								l0.693-0.348l-0.171-1.046l-1.047-0.349l-0.875-0.174l0,0l-0.522,0.174l-0.521,0.523l-0.521,0.523
								c0.349-0.174,0.521-0.174,0.521,0.174c0,0.174-0.35,0.348-0.35,0.348h-0.349l-0.349-0.174h-0.525l-0.173,0.348l0.173,0.523
								l-0.521,0.349l0.349,0.35l0.522,0.173v0.523h-0.522l-0.698,0.35l-0.171,0.697l0.522,0.35L200.365-165.376z"/>
							<path fill="#56E295" d="M204.027-171.131c0.171,0.174,0.349,0.35,0.349,0.35c0,0.174,0.525,0.174,0.525,0.174l0.522-0.174
								l-0.522,0.523c0,0,0,0.35,0.173,0.523c0.171,0.174,0.521,0,0.521,0s0.871-0.173,1.047-0.173c0.171,0,0,0.35,0,0.35
								l0.349,0.523c0,0,0.171,0.697,0.171,0.872c0,0.176-0.349,0.174-0.349,0.174s-0.696,0.174-0.875,0
								c-0.171,0-0.346,0.174-0.693,0.523c-0.171,0.35,0,0.174,0,0.174h0.521c0,0,0,0.349,0,0.522c0,0.174-0.35,0.35-0.521,0.174
								c-0.171,0-0.871,0.349-0.871,0.349v0.523l0.871,0.174l0.872,0.174l0.174,0.174c0,0-0.525,0.173-0.696,0
								c-0.173-0.174-0.521,0.523-0.521,0.523l-0.351,0.35l-0.874,0.697l0.522,0.174l0.352-0.348h0.693l0.698-0.174l0.521-0.523
								c0.176,0,1.22,0,1.22,0s0.874-0.174,1.047-0.174c0.176,0,0.874,0.174,0.874,0.174c0.173,0,1.568-0.349,1.568-0.349
								s0.349-0.523,0.349-0.697c0-0.174-0.349-0.35-0.521-0.35c-0.176-0.174,0.349-0.174,0.521-0.35
								c0.173-0.175,0.349-0.523,0.349-0.697c0.176-0.174-0.173-0.523-0.173-0.697c0-0.174-0.525,0-0.696-0.174
								c-0.171,0-0.696,0-0.696,0v-0.697c0,0-1.743-2.268-1.568-2.442c0-0.174-0.349-0.871-0.522-0.871s-0.349-0.174-0.698-0.523
								c-0.173-0.35,0.349-0.697,0.349-0.697s0.525-0.697,0.698-0.873c0-0.173,0-0.522-0.173-0.697c-0.174,0-1.396,0-1.396,0
								l-0.349-0.349c0-0.174,0.349-0.174,0.522-0.174s0.698-1.22,0.874-1.22c0.173,0-0.176-0.349-0.176-0.349l0,0l-0.521,0.174
								l-0.525,0.697c0,0-0.522,0.174-0.693,0c-0.174-0.174-0.525,0-0.696,0c-0.176,0-0.522,0.35-0.522,0.35
								s-0.525,0.523-0.698,0.523s-0.698,0.697-0.698,0.697v0.523c0,0-0.171,0.173-0.349,0.173c-0.176,0,0.173,0.697,0.173,0.697
								l0.525,0.173c0,0-0.173,0.35-0.349,0.175C204.027-171.654,203.678-171.305,204.027-171.131z"/>
							<path fill="#56E295" d="M163.569-83.941c0,0-1.745-0.349-1.745-0.521c0-0.176-2.964-2.792-3.137-2.792
								c0,0-1.22-1.219-1.396-0.875c-0.173,0.353-2.439,0.353-2.439,0.353l-2.27-0.525c0,0-1.047,0.697-0.871,0.35
								c0.174-0.347,0-2.09,0-1.742c0,0.347-3.661-1.572-3.661-1.572l-1.221,1.047v-1.047l-1.917-1.219l0.174-1.572l-0.696-0.694
								c0,0-0.173,0.172-0.173,0c0-0.175-0.525-2.964-0.525-2.964l-2.791-2.27l-3.313-0.172l-2.964-1.568l-0.698-1.571
								c0,0-1.743-0.872-1.743-1.047c0-0.172-0.523,0-0.696-0.172c-0.173,0,0-0.872,0-0.872l-0.871-0.697l-0.351-0.172l-0.696-0.176
								l-0.349-0.694c0,0,1.57-0.697,1.396-0.697c-0.176,0-3.489,0.522-3.489,0.522l-0.349,0.697l-1.57-0.871l-2.617-0.172
								c0,0-1.917-0.698-1.917-1.047c0-0.176-0.522-1.047-0.522-1.047s-0.351,1.047-0.525,1.219
								c-0.173,0.525-1.396,1.571-1.396,1.571l0.173,1.746l-0.871-1.047l0.696-0.875v-1.219c0-0.172,0.875-0.525,0.875-0.525
								l-0.352-0.694c0,0-1.045,0.172-1.045,0.35s-1.221,0.871-1.221,0.871l-1.568,0.521h-0.698c0,0-0.694,1.222-0.871,1.222
								c-0.173,0-0.173,1.047-0.173,1.047s-1.745,1.917-1.917,1.742c-0.176-0.172-1.917-1.742-1.917-1.742l-2.27,0.35l-1.22,0.697
								l-1.568-1.046l-1.22-1.917l0.173-2.094l0.696-2.442l0.351-1.569l-1.572-1.221c0,0-3.313,0.35-3.313,0.176
								c0-0.176-1.745,0-1.745-0.176c0-0.172,0.698-1.218,0.698-1.396c0-0.172,0.525-1.393,0.525-1.393l0.695-1.396l0.873-2.616
								l0.523-0.871l-2.964-0.174l-1.57,0.697l-1.045,2.792l-4.533,1.219l-1.221-0.871c0,0-0.175,0.523,0,0.172
								c0-0.35-1.395-2.093-1.395-2.093l-0.698-2.615c0,0,1.917-5.405,1.745-5.405c0,0.174,0-1.917,0-1.917l5.755-3.837l2.27,0.35
								l0.522,0.523l1.396-0.174l1.396-1.394l1.744,0.173l1.745-0.347l1.044,1.22l1.571-0.523l0.874,0.873l0.522,0.522v0.873
								l-0.349,0.873l0.349,1.918l1.046,1.569l0.696,0.35l0.873-2.441l-0.173-2.267l-0.349-1.744v-1.22l2.268-2.791l2.792-2.092
								l2.267-1.219l1.917-2.093l-0.174-2.093l0.872-0.174l0.871-1.917l0.874,0.174l1.745-2.093l2.791-1.047l1.743-0.35l0.523-0.522
								l-0.698-0.698l1.396-1.918l4.184-1.745l2.617-0.697l-2.094,1.395l0.351,1.047l1.568-0.523l1.047-0.697l2.964-0.872
								l0.523-0.872c-0.175,0.35,1.57-0.35,1.57-0.35l-0.349-0.697l0.173-0.873l-0.874,0.349l-1.22,1.395l-2.093-0.175l-0.871-1.394
								l0.871-1.221c0,0,0.872-1.917,0.872-1.744c0,0.173-1.394-0.523-1.394-0.523l-2.093,0.697c-0.173,0-2.267,1.221-2.094,1.047
								c0-0.174-1.046,0.523-1.046,0.523l2.792-2.267l1.218-0.174l1.221-1.22h6.277l2.093-0.35l2.79-1.569l0.174,0.349l-1.221,1.221
								l-1.394,1.57L144.4-161l-0.696,0.872l2.268,0.174c0,0,1.745,0,1.921,0c0.171,0,0.346,0.697,0.346,0.697l0.874-0.697
								l0.522,1.22l1.572-1.22l-0.525-1.396l0.525-1.394h-1.917v-0.697c0,0-0.698-0.872-0.698-0.698
								c0,0.174,1.046-0.873,1.046-0.873c0,0.174-0.523-0.523-0.523-0.523l1.221-1.57l-0.698-1.744l-0.349-0.871l-1.746-0.873
								l-0.523-0.871l-0.695-0.523l0.522-1.394l-0.351-1.047l-0.523-3.313c0,0.174-2.268,1.918-2.268,1.918l-2.268,1.046
								l-1.047-0.871l0.174-1.395l1.047-1.046l-1.743-0.523l-0.174-0.523c0,0-1.57-1.57-1.57-1.394
								c-0.173,0.173-0.523,0.522-0.523,0.522l-3.488-0.349l-1.22,2.093l-0.349,1.22c0,0-1.919,1.918-2.268,2.092
								c0.174,0,1.045,0.872,1.045,0.872l-0.871,1.918l-3.139,1.744l-1.57,0.174c0,0-0.871,3.314-0.871,3.487
								c0,0.174-1.22,0.873-1.22,0.873l-0.696,1.046l-0.351-1.22c0,0-0.351-0.872-0.525-1.221c0.174,0.174,1.047,0.174,1.047,0.174
								l0.174-0.697h-0.881l0.349-1.22l0.871-1.394l-2.79-0.174l-0.696-0.697l-1.396-0.173l-0.173-0.523l-1.047-0.523l-1.047-0.697
								l-1.22,0.174v-1.047l0.352-1.046l-1.396-0.35c-16.749,14.985-27.385,36.783-27.734,60.848l1.396,0.349l2.092-0.695
								l1.397,0.695l2.089,2.441l2.094,0.521l2.092,0.697H98.7l0.35,1.219c0,0,1.047,1.223,1.218,1.396c0.176,0.172,0,1.568,0,1.568
								l0.874,0.525l1.043,1.219l0.698,0.697l0.698,0.872l0.522-0.35l1.047,0.35l1.396,1.219l0.872-0.522l-0.35-1.047l0.874-0.874
								h0.698l0.871,0.697v0.7l1.046,1.569v4.36l-0.871,1.396l-1.22,0.871v1.219l-1.22,0.353l-0.525,1.742l-0.694,1.571l0.173,1.218
								l1.046,1.047l-1.046,1.046l-0.696,1.047l0.696,2.093c0,0,0.349,1.047,0.349,0.872c0-0.173,1.047,0.697,1.047,0.697
								l1.917,3.839l1.748,2.615c0,0,2.614,5.406,2.788,5.406c0.873,0.522,6.625,4.882,6.625,4.882l1.046,5.231l0.351,11.163
								l0.874,3.137l-0.175,1.396c4.535,3.14,9.417,5.929,14.65,8.021c0.521,0,1.22,0.172,1.22,0.172l2.44-0.697
								c0,0,0.873-1.742,0.873-1.917c0-0.349,0-1.219,0-1.219s0-0.697-0.522-0.697c-0.525,0-0.525-0.347-0.698-0.871
								c-0.173-0.522-0.522-1.22-0.522-1.22l-0.696,0.173l0.696-0.694l1.394,1.042l2.092,0.353l1.746-1.746l1.218-2.792l0.525-2.093
								h1.044l1.221-2.093l0.523-1.917l-0.871-2.267l0.522-0.871l3.838-2.443l2.792-0.871l0.871-0.697c0,0,1.397-1.917,1.397-2.093
								c0-0.175,0.523-2.964,0.523-2.964s0.695-3.313,0.522-3.485c0-0.176,0.173-3.141,0-3.141s0-0.871,0-0.871l2.792-3.839
								l1.219-2.964c0,0,0.874-1.567,0.874-1.745C164.44-81.498,163.569-83.941,163.569-83.941z"/>
							<path fill="#56E295" d="M190.423-189.616l1.745,0.174c0,0,0.525-2.094,0.176-2.441c-0.349-0.174,1.22-1.57,1.22-1.57
								s0.173-0.173,0.349-0.173c-7.497-2.267-15.346-3.314-23.544-3.314l0,0c-3.313,0-6.626,0.174-9.939,0.523l0.871,0.174
								c0,0,1.917,0.871,2.266,1.22c0.352,0.349,0.174,1.221,0.174,1.918c-0.174,0.523-0.35,0.697-0.872,1.22
								c-0.349,0.697,0.872,0.347,0.872,0.347l1.57,0.698c0,0-0.523,0-1.047,0.174c-0.698,0.174-1.568,0.35-1.568,0.35l-0.176,1.22
								l2.094-0.523l-0.173,0.697l-1.569,0.349l-1.57,1.744l-0.171,3.488l0.346,2.964l0.874,2.441l1.394,0.175l1.57,1.046
								l2.094-0.174l2.093-2.964l2.267-2.093l0.698-1.22l1.047-0.694l2.442-0.523l2.964-0.698c0,0,2.792-1.917,3.139-2.093
								C182.577-187.349,190.423-189.616,190.423-189.616z"/>
							<path fill="#56E295" d="M253.202-125.093l-1.22-2.093c0,0-1.396-3.313-1.567-3.488c-0.173-0.174-0.698-1.046-0.522-1.046
								c0.171,0,1.393-0.174,1.393-0.174s0.351,0.523,0.696,0.697c-0.525-2.093-1.047-4.184-1.567-6.277
								c0,0.174-0.173,0.348-0.351,0.523c-0.349,0.349-1.047,0.697-1.396,0.349c-0.349-0.347-1.917-0.174-2.094-0.174
								c-0.171,0-1.917,0-2.266,0.35c-0.176,0.349-1.569,0.174-1.745,0c-0.176-0.174-2.967-1.22-3.14-1.22s-1.569-0.697-1.745-0.873
								c-0.173-0.175-1.568-0.349-1.568-0.523c0-0.174,0.173-0.349-0.173-0.349c-0.176,0-1.745,0.523-1.917,0.697
								c-0.176,0.174-0.698,0.523-0.698,0.523s-0.698,0.697-0.525,1.22c0,0.523,0.698,0.873,0.525,1.221
								c-0.176,0.347-1.046,0.523-1.046,0.523s-0.871-0.697-1.047-0.873c-0.349-0.174-2.792-0.523-2.792-0.523l-1.043-1.221
								c0,0-1.572-1.046-1.745-1.22c-0.176,0-1.92,0-2.27-0.174c-0.35-0.173-1.046-1.396-1.568-1.22
								c-0.349,0-0.349-0.697-0.173-0.697c0.173-0.174,0.695-1.047,0.522-1.22c0-0.174,0.349-1.047-0.349-1.395
								c-0.525-0.349-0.173-1.22-0.173-1.22s0.522-0.174,0.349-0.174c-0.176,0-1.046,0-1.223-0.174
								c-0.168-0.35-0.346-0.35-0.517-0.35c-0.176,0.174-1.572,0.35-1.746,0.35c-0.176,0-1.397,0.174-1.743,0.174
								c-0.176,0,0,0-0.176,0c-0.349,0-1.396,0.523-1.396,0.697c0,0.174-1.218,0-1.218,0c-0.173,0-1.746,0-1.746,0l-2.614,0.523
								c0,0-1.746,0.873-1.746,1.221s-0.522,0.697-0.698,0.872c-0.171,0.173-1.218,0-1.218-0.174c0-0.174-1.746,0-1.746,0
								s-0.696-0.349-0.871-0.174c-0.174,0.175-0.174-0.697-0.174-0.697l0.349-0.697l1.047-0.697l2.27-0.35l1.22-0.697l0.696-0.35
								l0.35-1.046c0,0,0.871-0.174,0.693-0.349c0-0.174-0.351-0.873-0.351-0.873l1.569-2.441l2.271-1.047l0.349-0.697
								c0,0-0.174-1.047,0-1.047c0.173-0.173,1.569-0.522,1.569-0.522l1.917,0.522c0,0,1.046-0.697,1.218-0.697
								c0.176-0.174,1.223-0.697,1.223-0.697s0.173-0.523,0.349-0.523c0.178,0,1.22-0.174,1.22,0.35
								c0.173,0.349,0.871,1.744,0.871,1.744l1.223,1.22l1.217,0.872l1.396,0.523c0,0,0.874,0.697,1.047,0.872
								c0.176,0,1.046,1.046,1.046,1.046l0.349,0.698c0,0-0.171,0.523-0.522,0.873c-0.171,0.35-0.874,1.047-1.046,0.871
								c-0.171,0-1.396-0.349-1.396-0.349l-1.396,0.174c0,0-0.173,0.35,0.176,0.523c0.346,0.35,0.871,0.174,1.217,0.523
								c0.354,0.174,1.396,0.697,1.396,0.697s0.698,0.173,0.698,0.35c0,0.175,0.176-0.35,0.176-0.872
								c0-0.349-0.176-0.873,0.349-1.047c0.346-0.174,1.044,0,1.044-0.174c0-0.173,0.173-0.347,0.173-0.347l0.525-0.523v-0.35
								l0.522-0.349c0,0-0.349-0.35-0.522-0.523c-0.173-0.349-0.525-0.349-0.349-0.698c0.171-0.349,0.696-0.697,1.045-0.523
								c0.351,0.175,1.047,0.35,1.047,0.523c0,0.35,0,0.698,0.171,0.523c0.173-0.174,0-1.046,0-1.046s-0.349-0.523-0.874-0.698
								c-0.349,0-1.396-0.522-1.568-0.697c-0.349-0.173-0.696-0.349-0.696-0.349s0.171-0.523-0.171-0.523
								c-0.351,0-1.22-0.174-1.22-0.35s-1.047-0.871-1.047-1.047c0-0.175-0.871-1.394-0.871-1.394s-0.525-0.523-0.525-0.697
								c0-0.174-0.173-0.35-0.173-0.871c-0.173-0.349,1.046-1.569,1.046-1.396c0,0.174,0.349,0.35,0.522,0.873
								s1.047,1.394,1.22,1.569c0.174,0.35,1.218,1.221,1.568,1.395c0.349,0.174,0.525,0.349,1.047,0.697
								c0.523,0.173,0.523,0.349,1.221,0.697c0.693,0.349,0.871,0.523,0.871,0.523c0.171,0.174,0.522,0.174,0.693,0.349
								c0.176,0.35,0.354,0.35,0.354,0.523c0,0.35,0.171,0.35,0.171,0.872c-0.171,0.523-0.349,0.697-0.171,0.873
								c0,0.173,1.047,2.093,1.396,2.093c0.351,0,1.569,0.523,1.394,1.046c-0.173,0.698,0.696,1.57,0.696,1.57s0.696,0,1.218,0.174
								c0-0.35,0-1.047,0.349-1.221c0.525-0.349,1.223-0.523,1.046-0.872c-0.171-0.349-0.171-0.697-0.693-1.047
								c-0.354-0.349-0.875-0.523-1.047-1.047c-0.174-0.523-0.349-1.22,0.171-1.047c0.522,0.175,0.875,1.22,1.22,0.523
								c0.176-0.697,0.698-1.22,1.046-1.046c0.349,0.174,1.047,0.349,1.047,0.697c0,0.174,0.522,1.917,0.522,1.917
								s0.173,0.173,0.349,1.046c0.176,0.873,0.874,1.047,0.698,1.221c-0.173,0.35-0.349,0.35,0.525,0.523
								c0.871,0.174,1.741,0.174,1.741,0.523c0,0.173,0.698,0.349,0.874,0.523c0.176,0.173,0.698,0.522,0.875,0.173
								c0.171-0.35,0.349-1.046,0.521-0.873c0.173,0.174,1.568,0.174,1.568,0.523c0,0.35,0.698,0.35,0.875,0.523
								c-1.047-2.441-2.093-4.883-3.318-7.324l-1.917-0.523l-1.218-0.523l-0.698-0.697h0.525l-0.175-0.873l0.175-0.523l0.521-0.347
								l0.351-1.047c-3.137-5.231-6.804-10.113-10.813-14.649c-0.173,0.175-0.698,0.523-0.873,0.523c-0.174,0-0.696,0.348-0.871,0
								c-0.176-0.174-0.354-0.697-0.354-0.697s-0.171-0.35-0.171-0.173c0,0.175-0.522,0.173-0.522,0.173l-0.875,0.35
								c0,0-0.525,0.349-0.696,0.523c-0.171,0-0.693,0-0.871,0.174c-0.173,0.174-0.875,0.697-1.046,0.349
								c-0.171-0.174-0.351,0.174-0.522-0.174c-0.174-0.347-0.174-0.871-0.354-0.697c-0.171,0-0.871,0.173-0.871,0.35
								c0,0.173-0.171,0.173-0.349,0.347c-0.173,0.174-1.22,0.35-1.22,0.35v-0.173l1.22-1.047l0.349-1.047
								c0,0,1.046,0.174,1.219,0.349c0,0.175,0.349-0.349,0.525,0c0.349,0.175,0.694,0.175,0.694,0.523
								c0,0.175,0.175,0.523,0.352,0.35c0-0.173,0-0.697,0-0.697s-0.352-0.174-0.525-0.35c-0.173-0.175-0.173-0.523,0-0.523
								c0.173-0.174,0.698-0.347,0.874-0.347c0.173,0.173,0.871-0.174,0.871-0.174s0.173-0.174,0.173-0.35s0.525-1.047,0.525-1.047
								s-0.352-0.174-0.352-0.523v-0.174c-2.79-2.79-5.928-5.231-9.065-7.498c-0.522,0.174-1.047,0.35-1.047,0.35l-1.396,1.394
								c0,0-0.349,0.697-0.522,0.872c0,0.174,0.173,2.093,0.173,2.093s0.874,0,0.696,0.35c-0.175,0.174-0.175,1.394-0.175,1.394
								l1.047,0.697c0,0,1.396,0.523,1.57,0.35c0.173,0,0.872-0.523,0.872-0.523c0.171,0,0.874-0.871,1.218-0.871
								c0.171,0,0.875-0.698,1.046-0.35c0,0.174,0.171,1.221,0.349,1.394c0.176,0.175,0.698,0.523,0.872,1.047
								c0.175,0.523,0.525,1.047,0.352,1.047c0,0.174-0.525,0.523-0.525,0.523s-1.043,0.173-1.22,0.347
								c-0.173,0.174-0.349,0.174-0.521,0.174s0.349-0.523,0.521-0.697c0.176-0.174-0.173-0.698-0.349-0.698
								c-0.176,0-0.349-0.349-0.173-0.349c0.173-0.174,0.173-0.872,0.173-0.872s-0.173-0.174-0.349,0
								c-0.173,0-1.396,0.523-1.396,0.523s-0.698,0.697-0.698,0.872c0,0.173-0.349,0.872-0.173,1.394
								c0.173,0.523,0.698,1.396,0.698,1.396s0.522,0.348,0.349,0.523c-0.176,0.176-0.525,0.697-0.525,0.697h-0.871
								c0,0-1.568,0.174-1.745,0.35c-0.173,0-1.571,0.523-1.571,0.697c0,0.173-0.346,1.745-0.346,1.745s-1.571,1.047-1.746,1.047
								c-0.176,0-1.221,0.349-1.221,0.349s-0.521,1.395-0.521,1.22l-1.746,0.872c0,0-2.793-0.872-2.793-1.046
								c0-0.174-0.522-0.523-0.522-0.349c0,0.174,0.522,1.221,0.522,1.396c0,0.174,0,0.697,0,0.523
								c-0.171-0.174-0.871-0.35-1.047-0.523c-0.171,0-1.396,0-1.396,0h-0.522l-0.693,0.523v0.523l0.35,0.349l1.218,0.523
								l1.218,0.698l0.521,1.22l0.525,1.046l-0.349,2.267c0,0.174-0.874,0.697-0.874,0.697l-2.442-0.174c0,0-1.22-0.174-1.22-0.35
								c-0.173,0-1.744,0.174-1.744,0c0-0.174-0.522-0.174-0.522-0.174l-0.173-0.35h-0.698l-0.696,0.873h-0.875v0.697l0.354,1.394
								c0-0.174-0.176,1.745-0.176,1.745s-0.696,1.569-0.871,1.743v1.047l0.522,0.697v0.872c0,0-0.351,0.872-0.171,0.697
								c0.171,0,1.218,0,1.396-0.174c0-0.174,0.696-0.523,0.874-0.174c0.173,0.174,0.522,0,0.695,0.35
								c0.171,0.348,0.52,1.047,0.52,1.221c0,0.173,0.351,0.173,0.351,0.173l0.174,0.35l-0.174,0.173l-0.871,2.092l-1.919,1.396
								l-1.218,0.697l-0.352,0.872l-0.522,0.523l-0.173,1.046c0,0,0.173,1.396,0,1.396l-2.615,2.614l-1.396,0.35l-0.871,1.395
								c0,0-1.046,1.047-1.223,1.22c0,0.174-0.698,0.873-0.698,0.873s0.354,1.046,0.354,0.873c0,0,0.693,1.046,0.871,1.395
								c1.221,3.488,1.746,5.057,1.221,8.544c-0.352,2.964-2.964,6.8-4.884,8.721l-0.171,0.522c0,0,0.521,0.524,0.693,0.349
								c0.176-0.172,1.223,0.698,1.399,0.875c0.173,0.175,1.394,1.917,1.394,1.917l0.171,0.35l0.698,2.267
								c0,0,3.14,2.618,3.14,2.443c0-0.176,3.313,2.442,3.313,2.442l2.616-1.222c0,0.175,2.266-0.173,2.266-0.173l1.396,0.173
								l1.047,0.525l3.662-1.746l0.695-0.521l2.791-0.175l1.396,0.524c0,0,0.874,1.394,0.874,1.569c0,0.175,0.522,1.219,0.698,1.046
								c0-0.172,3.137-0.35,3.313-0.172c0.173,0,1.393,1.393,1.393,1.393v1.222l-0.173,2.267l-0.521,1.047l-0.349,1.046
								l-0.173,0.694c0,0,3.314,4.709,3.314,4.885c0,0.172,0.873,1.917,0.873,1.917l1.045,2.439l0.522,1.396l-0.522,0.872
								l0.873,2.442l-0.351,2.439l-1.393,3.14l-0.696,2.267l0.171,2.964l1.746,3.489l1.745,4.011l0.173,4.356l0.874,1.572
								c16.041-15.346,26.159-36.795,26.159-60.862C254.076-117.248,253.727-121.083,253.202-125.093z"/>
							<path fill="#56E295" d="M116.31-117.421c0.351,0.173,0.696,0,0.873,0c0.177,0,0.871-0.174,0.871-0.174
								s0.176,0.522,0.176,0.697c0,0.172,1.045,0,1.045-0.175c0-0.173,0.351-0.522,0.351-0.522l1.393-0.35h1.917
								c0.176,0,0.352-0.35,0-0.872c-0.349-0.523-1.218-0.697-1.393-1.22c-0.173-0.348-1.22-0.174-1.572,0
								c-0.346,0.174-1.742-0.348-2.267-0.348c-0.349,0,0,0.523,0,0.523v1.396h-1.744v0.174c0,0-0.525,0.173-0.525,0.522
								C115.435-117.418,115.963-117.595,116.31-117.421z"/>
							<path fill="#56E295" d="M116.485-121.083c0-0.174-0.871-0.35-1.22-0.35c-0.348,0-1.917-1.57-2.094-1.917
								c-0.173-0.349-3.659-1.221-3.659-1.221s-4.011-0.174-4.011-0.35s-1.917,1.395-1.917,1.395v0.174c0,0,0.173,0.697,0.173,0.873
								s1.22-0.873,1.393-1.221c0.176-0.347,1.046-0.523,1.221-0.697c0.174-0.174,0.347,0.523,0.523,0.523
								c0.176,0,1.22,0.348,1.22,0.348l1.917,0.697l0.696,0.697c0,0,0.351,1.745,0.351,1.919c0,0.172,1.396,0.172,1.396,0.172
								l2.792-0.347C115.614-120.385,116.485-120.909,116.485-121.083z"/>
						</g>
					</g>
				</g>
			</g>
			<g id="Laag_22_1_">
				<g>
					<g>
						<path fill="#FFFFFF" d="M630.085-92.029l53.77,42.141c1.625,1.628,3.788,2.704,6.49,2.704c2.156,0,4.875-1.075,6.494-2.704
							c18.391-18.935,46.517-47.07,49.765-50.307c0.533,0,0.533-0.535,1.084-1.083c7.035-8.122,14.063-17.318,14.063-34.081
							c0-25.435-22.936-39.984-46.202-39.984c-11.354,0-21.636,4.871-29.204,12.981c-7.58-8.116-18.393-12.981-29.217-12.981
							c-23.262,0-42.202,20.558-42.202,45.984C614.396-113.66,620.343-100.139,630.085-92.029z"/>
					</g>
					<path fill="#07934A" d="M752.56-134.815c0-20.014-18.609-30.783-37.001-30.783c-12.979,0-23.81,8.113-29.214,19.475
						c-5.411-11.901-16.774-19.475-29.217-19.475c-18.39,0-32.999,16.228-32.999,36.783c0,12.442,4.327,23.8,12.979,30.295
						l53.766,42.688c0,0,51.941-52.471,50.312-50.318C747.695-114.796,752.56-121.829,752.56-134.815z"/>
				</g>
			</g>
		</g>
	</g>
	<g id="Layer_4" display="inline">
		<g>
			<g id="Laag_1">
				<path id="XMLID_125_" fill="#FECEA2" d="M526.339-142.004c-17.299-32.866-61.582-44.514-95.14-44.514
					c-33.56,0-77.843,11.648-95.142,44.514c-16.952,32.175-2.538,70.923,35.865,70.923c2.999,0,22.833-2.076,38.632-5.189
					c13.608-2.652,27.562-2.652,41.17,0c15.915,3.113,35.634,5.189,38.633,5.189C528.875-71.196,543.292-109.829,526.339-142.004z"
					/>
			</g>
		</g>
	</g>
	<g id="Layer_6" display="inline">
		<circle fill="#EFE8E3" cx="474.647" cy="-118.799" r="32.998"/>
		<circle fill="#EFE8E3" cx="382.98" cy="-119.783" r="32.998"/>
	</g>
	<g id="Layer_7" display="inline">
		<rect x="474.647" y="-118.799" fill="#EFE8E3" width="0" height="0"/>
		<circle fill="#784F30" cx="474.647" cy="-118.799" r="25.912"/>
		<circle fill="#784F30" cx="382.98" cy="-120.036" r="26.749"/>
	</g>
	<g id="Layer_8" display="inline">
		<circle fill="#020200" cx="474.647" cy="-118.799" r="14.912"/>
		<circle fill="#020200" cx="382.98" cy="-119.783" r="14.912"/>
	</g>
	<path display="inline" fill="#2D2723" d="M433.583-146.784l8.065,12.089c0,0,48.882-29.685,68.549-31.711l-20-17.689
		C490.198-184.096,438.583-154.71,433.583-146.784z"/>
	<path display="inline" fill="#2D2723" d="M420.978-145.663l-8.065,12.089c0,0-48.882-29.685-68.549-31.711l20-17.689
		C364.364-182.975,415.978-153.589,420.978-145.663z"/>
</g>
</svg>
