<?xml version="1.0" encoding="utf-8"?>
<!-- Generator: Adobe Illustrator 16.0.0, SVG Export Plug-In . SVG Version: 6.00 Build 0)  -->
<!DOCTYPE svg PUBLIC "-//W3C//DTD SVG 1.1//EN" "http://www.w3.org/Graphics/SVG/1.1/DTD/svg11.dtd">
<svg version="1.1" xmlns="http://www.w3.org/2000/svg" xmlns:xlink="http://www.w3.org/1999/xlink" x="0px" y="0px"
	 width="850.394px" height="453.543px" viewBox="0 0 850.394 453.543" enable-background="new 0 0 850.394 453.543"
	 xml:space="preserve">
<g id="Layer_1" display="none">
	
		<image display="inline" overflow="visible" width="3684" height="3399" xlink:href="41218E6F.jpg"  transform="matrix(0.9586 0 0 0.9586 -1694.9204 -579.3467)">
	</image>
</g>
<g id="Layer_27">
	<g id="Layer_34">
	</g>
	<g id="Layer_35">
	</g>
	<g id="Layer_36">
		<g id="Layer_9">
		</g>
		<g id="Layer_37">
		</g>
	</g>
	<g id="Layer_38">
	</g>
	<g id="Layer_41">
	</g>
	<g id="Layer_40">
	</g>
	<g id="Layer_42">
	</g>
	<g id="Layer_47">
	</g>
	<g id="Layer_43">
	</g>
	<g id="Layer_46">
	</g>
	<g id="Layer_48">
		<g>
			
				<image overflow="visible" opacity="0.75" width="811" height="484" xlink:href="41218E6D.png"  transform="matrix(1 0 0 1 28.0396 -11.228)">
			</image>
			<g>
				<g>
					<path fill="#1C8439" d="M460.184,118.033c9.729,5.174,16.243,7.065,24.145,12.581c0,0,16.303,6.417,6.586,17.269
						c-9.715,10.852-31.942,3.242-31.942,3.242s-14.206-6.281-40.019-3.897c-25.812,2.385-63.637,17.305-63.637,17.305
						s-31.997,2.719-32.361-9.498c-0.365-12.217,71.588-42.044,89.238-43.675C431.551,109.569,446.899,110.97,460.184,118.033z"/>
					<path fill="#2BA954" d="M207.862,196.323c4.069,16.435,12.667,20.642,21.063,27.521c0,0,20.522,2.078,16.484-4.078
						c-4.278-6.522-9.064-28.533-9.064-28.533s-0.875-1.396-1.349-13.275c-0.087-2.19-0.449-6.395,2.389-6.271
						c28,1.23,67.396-7.768,67.396-7.768s26.935-30.284,20.672-40.778c-6.263-10.497-75.788,13.192-91.545,21.309
						c-8.388,4.32-15.658,9.656-24.664,17.231C201.036,168.585,205.084,185.107,207.862,196.323z"/>
					<path fill="#2EEA93" d="M324.263,57.485c0,0-28.683,1.731-32.932,13.459c-4.248,11.729-30.677,16.083-39.74,18.869l9.149,2.941
						c0,0,34.176-7.805,35.452-15.235c1.274-7.428,26.402-10.923,26.402-10.923L324.263,57.485z"/>
					<g>
						<path fill="#2BA954" d="M312.806,85.368c0,29.563,23.964,53.526,53.525,53.526c10.837,0,20.92-3.22,29.346-8.753
							c14.564-9.566,24.179-26.046,24.179-44.773c0-29.561-23.965-53.524-53.525-53.524
							C336.771,31.843,312.806,55.807,312.806,85.368z"/>
					</g>
					<g>
						<g id="Laag_1_11_">
							<path id="XMLID_14_" fill="#FECEA2" d="M418.345,73.53c2.234,4.984,1.726,7.087,1.31,16.521
								c-0.594,13.495-5.177,20.656-7.726,23.357c-6.762,1.318-20.147,1.158-21.421,1.158
								c-16.362-0.049-22.487-16.461-15.285-30.129c7.348-13.962,28.447-10.907,42.702-10.907"/>
						</g>
					</g>
					<g>
						<circle fill="#EFE8E3" cx="403.911" cy="92.754" r="14.018"/>
					</g>
					<circle fill="#784F30" cx="403.91" cy="92.754" r="11.008"/>
					<circle fill="#020200" cx="403.91" cy="92.754" r="6.335"/>
					<ellipse fill="#EFE8E3" cx="409.88" cy="88.507" rx="5.038" ry="5.046"/>
					<path fill="#2EEA93" d="M325.105,54.517c0,0-23.044,17.168-20.168,29.308c2.874,12.138-16.846,30.266-22.899,37.563
						l5.526,1.639c0,0,28.047-29.452,25.042-36.365c-3.005-6.912,16.099-23.606,16.099-23.606L325.105,54.517z"/>
					<path fill="#2EEA93" d="M419.857,79.901c0,0-30.38-11.758-104.435-11.097c0,0,2.88-7.822,5.213-11.319
						c2.333-3.498,59.262-0.614,95.421,8.043C416.057,65.528,419.981,71.44,419.857,79.901z"/>
					<path fill="#2D2723" d="M420.172,93.553c0,0-10.864-11.959-35.394-20.157l7.14-7.147c0,0,21.842,11.629,31.123,21.158
						L420.172,93.553z"/>
					<path fill="#1C8439" d="M304.507,263.765c0,0-16.024-10.662-27.023,4.17c-10.998,14.831-18.979,20.803-12.111,37.392
						c6.868,16.589,72.595,4.804,92.591,1.938c19.996-2.868,29.864-3.842,37.59-5.876c3.591-0.944,2.135-0.19-9.864,1.716
						c-7.319,1.163-13.137,4.573-17.761,8.988c-4.625,4.414-18.741,16.556-24.988,18.766c-6.246,2.213-21.81-0.952-20.546,8.619
						c1.268,9.569,17.857,52.244,17.857,52.244s12.325,5.813,14.397-8.412c2.074-14.225-10.551-22.239-2.018-32.464
						c8.537-10.223,39.359-13.334,39.359-13.334s29.96-9.153,41.54-36.361c3.057-7.183-3.655-30.119-14.524-26.341
						c-10.872,3.777-76.919-29.397-112.32-21.234"/>
					<path fill="#2BA954" d="M291.642,312.341c0,0,32.053-12.614,36.869-30.44c11.817-43.743-5.726-27.743-19.71-39.007
						c-13.982-11.263-66.004,30.604-82.174,42.711c-16.172,12.103-11.176,11.399-28.288,25.342
						c-7.808,6.363-9.995,9.234-24.472,14.498c-24.545,8.928-42.101,20.145-46.393,24.881c-4.292,4.74-17.493,17.872-23.563,20.53
						c-6.068,2.657-13.458-2.865-17.46,6.534c-1.724,4.047,6.029,11.687-0.314,20.871c-14.943,21.634-14.943,25.446-14.943,25.446
						s4.572,9.274,17.831,3.715c8.863-3.716,11.503-11.702,16.105-23.156c2.356-5.863,5.298-7.777,9.897-14.177
						c7.774-10.817,38.289-16.156,38.289-16.156s31.424-22.575,39.222-22.177c7.798,0.397,15.328-0.149,23.054-8.678
						C223.317,334.55,264.495,336.481,291.642,312.341"/>
					<path fill="#2BA954" d="M333.444,114.832c0,0,30.211,10.44,29.525,35.907c-0.685,25.466,6.329,38.2-2.819,61.747
						c-9.59,24.683-30.211,60.267-41.78,71.174c-22.56,21.271-49.456,25.488-59.38,8.801c-6.85-11.516,16.466-57.656,30.257-100.142
						c6.193-19.077-0.873-33.882,6.219-50.897C315.422,93.553,338.331,108.296,333.444,114.832z"/>
					
						<ellipse transform="matrix(0.9988 -0.0482 0.0482 0.9988 -11.405 10.0098)" fill="#E5B957" cx="201.859" cy="241.497" rx="2.036" ry="4.585"/>
					
						<rect x="202.363" y="236.189" transform="matrix(0.9988 -0.0482 0.0482 0.9988 -11.2958 11.3875)" fill="#2B2B2B" width="56.179" height="7.409"/>
					<path fill="#FECEA2" d="M235.85,211.473l8.857,6.139c0,0,1.079-2.086,3.56,4.465c2.481,6.552,5.07,4.873,5.262,5.413
						c0.191,0.539-0.748,5.574-2.173,6.689c-1.425,1.112-5.393,6.165-4.618,8.772c0.775,2.606-2.437,9.362-10.571,9.522
						c-8.135,0.162-18.482,0.504-20.955-5.597c-2.472-6.1,1.699-12.286,0.002-15.777c-1.697-3.495,7.801-13.547,7.801-13.547
						L235.85,211.473z"/>
					<path fill="#F9A883" d="M480.219,154.911l19.984,3.835c0,0-0.519,2.29,5.599-1.127c6.114-3.417,7.017-0.467,7.51-0.753
						c0.493-0.291,3.016-4.75,2.644-6.521c-0.375-1.77-0.161-8.189,2.11-9.687c2.272-1.494,4.161-8.733-1.962-14.094
						c-6.123-5.358-13.82-12.279-19.641-9.201c-5.818,3.076-7.588,9.141-11.133,10.721c-3.548,1.582-4.327,15.738-4.327,15.738
						L480.219,154.911z"/>
					<path fill="#19CC72" d="M487.217,127.088c0,0-1.854-0.169-2.433,8.457c-0.724,10.813-3.318,13.323-4.616,19.344
						c0,0-9.984,0.923-26.078-4.5c0,0,2.517-25.405,7.935-31.656C462.025,118.733,475.695,117.523,487.217,127.088z"/>
					<path fill="#2EEA93" d="M215.627,228.506c0,0,9.198-15.129,32.115-5.649c0,0-2.523-18.216-11.397-31.624
						c0,0-24.124,0.506-28.102,7.758C208.243,198.991,209.768,209.871,215.627,228.506z"/>
					<path fill="#19CC72" d="M356.96,347.224c0,0,17.25-7.307,34.639-9.67c0,0-1.548-22.404-12.045-33.107
						c0,0-6.791,3.255-11.193,7.252c-4.398,3.998-17.557,14.804-22.607,17.824C345.754,329.523,355.741,338.421,356.96,347.224z"/>
					<path fill="#2EEA93" d="M115.027,390.089c0,0,8.324-9.55,34.632-15.423c0,0-6.355-19.335-18.003-28.771
						c0,0-7.571,6.48-11.485,10.954c-3.917,4.473-13.277,11.002-17.951,14.576C102.22,371.426,112.813,381.483,115.027,390.089z"/>
					<image overflow="visible" width="11" height="35" xlink:href="41218E6A.png"  transform="matrix(1 0 0 1 249.5591 221.2915)">
					</image>
					
						<ellipse transform="matrix(0.9988 -0.0483 0.0483 0.9988 -11.2575 12.6934)" fill="#C6822A" cx="256.875" cy="239.155" rx="5.224" ry="17.217"/>
					<path fill="#7F7F7F" d="M256.791,232.595l272.046-13.131c0,0-2.822,12.636-30.808,13.985
						c-27.985,1.351-240.636,11.615-240.636,11.615l-1.348-6.185L256.791,232.595z"/>
					<path fill="#A8A8A8" d="M256.045,238.88l87.002-4.199l158.465-7.648c0,0,15.853-0.171,27.324-7.568l-185.948,8.975
						l-86.098,4.156L256.045,238.88z"/>
					<image overflow="visible" width="12" height="35" xlink:href="41218E74.png"  transform="matrix(1 0 0 1 514.5591 127.2915)">
					</image>
					
						<ellipse transform="matrix(1 -0.0069 0.0069 1 -0.9878 3.6145)" fill="#C6822A" cx="522.044" cy="144.607" rx="5.224" ry="17.215"/>
					<path fill="#A8A8A8" d="M522.321,151.161l272.356-1.859c0,0-3.515-12.459-31.532-12.269
						c-28.018,0.191-240.909,1.645-240.909,1.645l-1.006,6.249L522.321,151.161z"/>
					<path fill="#7F7F7F" d="M521.23,144.926l87.101-0.597l158.646-1.081c0,0,15.838-0.702,27.7,6.053l-186.163,1.271l-86.193,0.589
						L521.23,144.926z"/>
				</g>
			</g>
		</g>
	</g>
	<g id="Layer_49">
	</g>
</g>
<g id="Layer_39">
</g>
<g id="Layer_17" display="none">
	<g id="Layer_23" display="inline">
		<path fill="#2BA954" d="M339.559,33.814l134.542,1.959c0,0,20.907,39.519,7.433,84.019c0,0-15.949,57.5-16.212,59.5
			s-2.763,22-9.263,30c0,0-6.236,44-4.368,65.5c0,0,12.714,20,1.541,20.5s-32.773,4.5-34.973-4.5s-3.194-50.5-3.194-50.5
			s-9.036,43-9.521,52.5s-9.225,10-20.105,7s-21.755-14.5-21.755-14.5s6.839-55-3.393-68.5c0,0-5.595-17.5-7.164-28
			c0,0-4.188-18-7.628-27C345.499,161.792,315.559,110.336,339.559,33.814z"/>
		<path fill="#3B3B3B" d="M73.559,85.292"/>
		<path fill="#2BA954" d="M418.259,283.292c0,0,27.564,9.667,33.432-8.5l13.631,21.167c0,0,6.428,8.666,18.999,14.666
			c0,0,11.419,5.334,9.995,12.667s-35.701,12-35.701,12l-40.356-26.667C418.259,308.625,416.958,303.958,418.259,283.292z"/>
		<path fill="#3B3B3B" d="M554.226,202.625"/>
		<path fill="#2BA954" d="M406.712,283.736c0,0-35.581,13.39-41.449-4.777l-13.631,21.167c0,0-6.428,8.666-18.999,14.666
			c0,0-11.419,5.334-9.995,12.667s35.701,12,35.701,12l47.887-27C406.226,312.458,408.012,304.403,406.712,283.736z"/>
	</g>
	<g id="Layer_24" display="inline">
		<path fill="#15823C" d="M380.226,75.291c0,0,10.516,14,27.924,18c0,0,24.077-6,28.743-18c0,0-1,23-20.123,29l-1.706,130.668
			l-11.69-130.335C403.375,104.624,380.893,89.958,380.226,75.291z"/>
	</g>
	<g id="Layer_25" display="inline">
		<path fill="#2EEA93" d="M418.259,283.292c0,0,26.564,10.25,33.432-8.5c0,0-0.577-20.358,1.084-36.503
			c0,0-24.456,16.761-37.586,6.507C415.189,244.795,413.708,274.792,418.259,283.292z"/>
		<path fill="#2EEA93" d="M406.712,283.736c0,0-36.153,13.806-42.238-5.952c0,0,2.507-26.681,0.846-42.825
			c0,0,35.52,20.87,48.65,10.616C413.97,245.575,411.262,275.236,406.712,283.736z"/>
	</g>
	<g id="Layer_18" display="inline">
		<path fill="#3B3B3B" d="M445.559-154.208c0,0,12,21.5,10,32s58.883,31.22,56,70.5c-5.333,72.667-50.556,79.894-74,91
			c-13.018,6.167-70.123-1-70.123-1s-51.377-4-48.877-19s3.129-79.5,25.314-117.5s23.563-30.352,23.563-30.352
			s-14.255-23.148-5.316-30.148S445.559-154.208,445.559-154.208z"/>
	</g>
	<g id="Layer_16" display="inline">
		
			<image overflow="visible" width="1000" height="436" xlink:href="logo_licht.png"  transform="matrix(0.1448 0 0 0.1448 339.5562 -86.7114)">
		</image>
	</g>
	<g id="Layer_19" display="inline">
		<path fill="#2BA954" d="M457.559-157.375c0,0,61.667,18.333,76.667,37.333s11.333,31,11.333,31s9.001,6,9.667,20.333
			s8.666,37,8.666,37s-55.999,38.667-62.666,47s-6.334,18.667-6.334,18.667l-65.642,7.256c0,0,59.642-16.923,61.625-50.256
			c1.149-19.311,23.684-58.667-17.983-87.667c-12.861-8.952-19.66-24-19.66-24s-0.633-15.667-5.819-24
			S457.559-157.375,457.559-157.375z"/>
	</g>
	<g id="Layer_21" display="inline">
		<path fill="#2BA954" d="M371.893-128.56c0,0-10,1.518-29.667,38.518l-9,23c0,0-5.667,69.334,0,82.667c0,0,5.333,6.333,4,10
			l18.197,11.255h-17.197l-32.667-8.534c0,0-6.333-3.722-6.667-10.055s13.333-69.326,16-78.996l-0.333-11.004l-9.667,16.558
			c0,0-7,18.108-9,27.108v17.667c0,0,0,21.333-8.667,27.667c0,0-22-5-25.667-14.667c0,0-0.667-12.333-6.333-13
			c0,0-11.333-28.334-9-38.667c0,0,20.667-40.667,30.333-48.667c0,0,12.667-8.333,11.333-12.333c0,0,52.333-33.333,62-38
			S367.56-139.078,371.893-128.56z"/>
	</g>
	<g id="Layer_22" display="inline">
		<path fill="#15823C" d="M522.305-67.25c-0.792-3.226-1.623-6.443-2.588-9.627c-2.093-6.905-4.997-14.058-9.633-19.669
			c-5.151-6.234-14.66-11.155-16.525-19.413c-0.426-1.887-1.122-1.485-0.696,0.399c1.462,6.472,5.985,11.264,10.425,15.941
			c6.201,6.533,10.188,13.499,13.06,22.043c0.721,2.143,1.355,4.313,1.947,6.495c-0.886-0.211-1.88,0.237-1.735,1.372
			c0.332,2.616,1.586,4.11,3.304,4.808c0.821,3.415,1.601,6.841,2.452,10.238c2.295,9.157,4.883,17.646,4.994,27.204
			c0.022,1.933,3.022,1.936,3,0c-0.102-8.721-2.006-16.661-4.319-25.016c-1.096-3.958-2.036-7.956-2.997-11.947"/>
		<path fill="#15823C" d="M525.755-26.857c-2.352-9.953-5.154-19.766-8.888-29.295c-3.484-8.894-8.265-17.24-12.647-25.708
			c-4.628-8.943-11.806-16.457-16.881-25.186c-2.659-4.572-5.643-8.953-8.677-13.282c-2.875-4.102-8.729-7.003-10.729-11.629
			c-0.766-1.772-1.179-0.999-0.42,0.757c1.792,4.147,4.93,7.31,7.533,10.943c2.74,3.823,5.366,7.723,7.87,11.704
			c5.41,8.6,11.548,16.65,17.008,25.192c2.504,3.917,4.288,8.299,6.476,12.394c2.744,5.14,5.375,10.2,7.574,15.613
			c3.844,9.461,6.543,19.373,8.888,29.296C523.307-24.177,526.2-24.976,525.755-26.857z"/>
		<path fill="#15823C" d="M346.264-100.465c-2.166,4.22-5.037,8.297-4.705,13.257c0.003,0.053,0.017,0.1,0.025,0.15
			c-0.637-0.335-1.435-0.254-1.82,0.593c-2.954,6.5-4.949,13.239-6.409,20.221c-1.073,5.132-2.822,11.443-1.742,16.685
			c0.107,0.521,0.407,0.832,0.773,0.978c-1.208,4.364-2.085,8.807-2.805,13.314c-0.5,3.132-0.895,6.283-1.303,9.429
			c-0.547,4.213-0.31,8.575-1.166,12.731c-0.389,1.888,2.502,2.692,2.893,0.798c1.358-6.598,1.243-13.659,2.199-20.363
			c1.103-7.731,2.721-15.343,5.551-22.637c0.701-1.806-2.201-2.581-2.893-0.798c-0.219,0.564-0.419,1.131-0.623,1.699
			c0.19-4.277,1.576-8.971,2.364-12.742c1.281-6.127,3.16-12.101,5.75-17.801c0.152-0.335,0.179-0.661,0.119-0.958
			c0.915,0.393,2.171-0.033,2.086-1.299c-0.294-4.391,2.378-8.008,4.295-11.743C349.736-100.669,347.147-102.187,346.264-100.465z"
			/>
		<path fill="#15823C" d="M344.363-107.107c-3.05,8.104-9.378,15.065-13.982,22.33c-4.347,6.858-7.696,14.494-8.569,22.63
			c-1.061,9.879,0.271,19.707,0.696,29.582c0.47,10.919-0.417,21.929-0.448,32.857c-0.006,1.935,2.994,1.935,3,0
			c0.028-9.68,0.416-19.354,0.494-29.034c0.081-9.935-1.532-19.786-1.077-29.732c0.468-10.204,4.739-19.064,10.215-27.466
			c4.315-6.621,7.756-12.909,10.563-20.369C345.938-108.124,345.038-108.9,344.363-107.107z"/>
		<path fill="#15823C" d="M371.893-126.006c0.269-0.83,0.539-1.637,0.703-2.488c0.08-0.294,0.13-0.588,0.13-0.881
			c0-0.835-0.519-1.301-1.125-1.417c-0.083-0.329-0.269-0.642-0.618-0.879c-1.274-0.866-3.677-4.712-4.438-7.265
			c-0.103-0.687-0.16-1.387-0.153-2.107c0.017-1.672-2.579-2.073-2.946-0.399c-0.029,0.132-0.032,0.267-0.047,0.4
			c-0.002,0-0.004,0-0.006-0.001c0,0.014,0.001,0.027,0.001,0.042c-0.055,0.511-0.023,1.027,0.078,1.544
			c0.458,4.688,3.041,8.529,4.914,12.764c-0.364,0.67-0.739,1.335-1.132,1.989c-0.162,0.27-0.497,0.856-0.912,1.508
			c-0.529-0.41-1.271-0.484-1.843,0.176c-3.215,3.709-6.424,7.423-9.5,11.25c-1.2,1.492,0.909,3.629,2.121,2.121
			c2.157-2.684,4.387-5.306,6.632-7.916c2.195-0.179,3.736-2.211,4.987-3.938c0.411-0.567,0.789-1.158,1.152-1.759
			c1.01,1.017,2.898-0.132,2.449-1.513C372.204-125.189,372.052-125.599,371.893-126.006z"/>
		<path fill="#15823C" d="M468.188-101.132c-3.714-5.756-6.198-9.812-10.706-14.883c-3.18-3.577-3.185-7.629-3.81-12.092
			c-0.642-4.587-4.622-10.76-5.072-15.407c-0.185-1.908-0.728-1.12-0.541,0.806c0.416,4.292,1.365,9.453,2.333,13.649
			c0.795,3.446,0.376,7.936,2.147,11.134c3.985,7.195,11.613,11.418,16.059,18.308C469.643-97.999,469.241-99.501,468.188-101.132z"
			/>
		<path fill="#15823C" d="M492.135,5.33c-11.022,7.722-20.634,17.199-31.333,25.334c-1.519,1.154-0.027,0.762,1.514-0.41
			c10.698-8.133,20.316-14.615,31.333-22.333C495.221,6.819,493.724,4.217,492.135,5.33z"/>
		<path fill="#15823C" d="M504.499,2.231c-6.862,8.724-15.253,15.903-24,22.667c-1.528,1.182-1.389,2.289,0.121,1.121
			c8.747-6.764,19.138-12.943,26-21.667C507.801,2.85,505.694,0.711,504.499,2.231z"/>
		<path fill="#15823C" d="M500.005-66.44c-0.706-1.775-0.608-1.002,0.107,0.798c4.668,11.74,6.522,24.345,6.613,36.934
			c0.014,1.934,3.014,1.935,3,0C509.633-41.54,504.764-54.472,500.005-66.44z"/>
		<path fill="#15823C" d="M294.354-27.965c-3.307-6.792-10.464-11.06-15-17c-1.158-1.516-1.765-1.024-0.591,0.514
			c4.525,5.927,9.703,11.228,13,18C292.611-24.712,295.198-26.234,294.354-27.965z"/>
		<path fill="#15823C" d="M287.62-55.769c-1.246-1.483-1.357-0.35-0.121,1.121c5.134,6.111,7.333,11.928,6.561,19.939
			c-0.186,1.926,2.816,1.908,3,0C297.911-43.542,293.26-49.056,287.62-55.769z"/>
		<path fill="#15823C" d="M294.458-24.155c-6.565-2.477-14.294-2.447-21-4.5c-1.855-0.568-1.642,0.328,0.202,0.893
			c6.706,2.054,13.435,4.023,20,6.5C295.474-20.578,296.25-23.479,294.458-24.155z"/>
		<path fill="#15823C" d="M315.354-100.952c1.172-1.54,0.565-2.032-0.591-0.514c-5.358,7.039-13.121,18.461-8.208,27.204
			c-0.131,0.038-0.265,0.066-0.396,0.106c-1.842,0.569-1.056,3.466,0.798,2.893c0.507-0.157,1.023-0.281,1.542-0.385
			c0.756,0.796,1.762,0.458,2.251-0.24c1.393-0.005,2.77,0.27,4.052,0.974c1.696,0.932,3.209-1.659,1.514-2.591
			c-2.052-1.127-4.312-1.495-6.57-1.332C304.219-82.48,310.655-94.778,315.354-100.952z"/>
	</g>
	<g id="Layer_26" display="inline">
		<path fill="#2EEA93" d="M536.394-5.042l19.165-19.944c0,0,3-17.675-8-22.366c0,0-14.41-4.976-20.205,0s-8.461,20.049-8.461,20.049
			L536.394-5.042"/>
		<path fill="#2EEA93" d="M301.226-15.708l-7.565-5.554c0,0-16.77-5.565-25.101,5.554s-6.44,15.542-6.387,19.604
			s24.153,17.375,24.153,17.375L301.226-15.708z"/>
	</g>
	<g id="Layer_20" display="inline">
		<path fill="#F9A883" d="M525.559,4.292c0,0-34.233,7.089-43.245,2.423c0,0,0,0-0.711-14.211s4.289-25.545,4.289-25.545
			s11.255-1.667,25.961,0c0,0,0.039-7.667-4.961-8.667c0,0-4.999,2.333-12.666,3c0,0-7,2-7-1.333s2.36-5.6,6.347-7.966
			s7.319-3.367,7.319-3.367s4.334-2.667,10.667-0.333s4.334,6,9.667,6.333s13.666,4.333,13.666,4.333s11.001,15.334,5.334,28.667
			S528.25,2.963,525.559,4.292z"/>
		<path fill="#F9A883" d="M289.413,24.17c0,0,44.958,10.247,47.813,1.455c0,0,4.771-1.396,2.333-11.333
			c-3.39-13.82-1.887-15.386-1.887-15.386s-3.571-4.02-16.28-8.447c0,0-2.75-5.384,2.333-5c0,0,2.846,4.32,10.05,7.027
			c0,0,3.599,2.528,4.497-0.681c0.898-3.21-0.764-6.029-3.966-9.382c-3.201-3.353-5.915-7.631-5.915-7.631s-1.439-3.541-8.167-3
			c-6.728,0.541-7.181,5.583-12.333,7c-6.667,1.833-16.167,5.833-16.167,5.833s-13.812,5.177-11.947,19.543
			S287.179,22.166,289.413,24.17z"/>
	</g>
	<g id="Layer_5" display="inline">
		<path fill="#2EEA93" d="M465.322-244.244c0,0,28.572,7.497,34.608,24.164c6.036,16.667,3.622,30.883,16.5,34.841h-12.073
			c0,0-11.671-17.184-13.481-27.74c-1.812-10.556-23.182-18.315-23.182-18.315L465.322-244.244z"/>
		<path fill="#2BA954" d="M481.603-204.62c0,42.006-34.053,76.06-76.059,76.06c-15.397,0-29.726-4.576-41.701-12.44
			c-20.694-13.593-34.358-37.01-34.358-63.619c0-42.006,34.053-76.059,76.059-76.059S481.603-246.626,481.603-204.62z"/>
		<g>
			<g id="Laag_1_1_">
				<path id="XMLID_1_" fill="#FECEA2" d="M462.975-228.051c-10.442-19.839-37.173-26.871-57.43-26.871
					c-20.258,0-46.99,7.031-57.432,26.871c-10.233,19.422-1.532,42.812,21.649,42.812c1.811,0,13.783-1.253,23.32-3.132
					c8.214-1.601,16.638-1.601,24.853,0c9.606,1.879,21.51,3.132,23.32,3.132C464.506-185.308,473.208-208.628,462.975-228.051z"/>
			</g>
		</g>
		<circle fill="#EFE8E3" cx="431.772" cy="-214.043" r="19.919"/>
		<circle fill="#EFE8E3" cx="376.438" cy="-214.637" r="19.919"/>
		<circle fill="#784F30" cx="431.771" cy="-214.043" r="15.641"/>
		<circle fill="#784F30" cx="376.438" cy="-214.79" r="16.147"/>
		<circle fill="#020200" cx="431.771" cy="-214.043" r="9.001"/>
		<circle fill="#020200" cx="376.438" cy="-214.637" r="9.001"/>
		<ellipse fill="#EFE8E3" cx="369.279" cy="-222.177" rx="7.159" ry="7.171"/>
		<ellipse fill="#EFE8E3" cx="425.418" cy="-222.514" rx="7.159" ry="7.171"/>
		<path fill="#2EEA93" d="M331.525-222.177c0,0,49.725-39.509,145.686-7.958c0,0-1.85-15.54-9.997-19.003
			c-62.846-26.712-124.054,1.005-124.054,1.005S333.183-232.066,331.525-222.177z"/>
		<path fill="#2D2723" d="M406.984-230.937l4.869,7.297c0,0,29.507-17.919,41.379-19.143l-12.073-10.678
			C441.159-253.459,410.002-235.721,406.984-230.937z"/>
		<path fill="#2D2723" d="M399.375-230.26l-4.868,7.297c0,0-29.507-17.919-41.379-19.142l12.072-10.678
			C365.2-252.783,396.357-235.044,399.375-230.26z"/>
	</g>
</g>
<g id="Layer_10">
	<g id="Layer_12">
	</g>
	<g id="Layer_2">
	</g>
	<g id="Layer_11">
	</g>
	<g id="Layer_14">
	</g>
	<g id="Layer_15">
	</g>
	<g id="Layer_13">
	</g>
	<g id="Layer_45">
	</g>
	<g id="Layer_3">
	</g>
	<g id="Layer_4">
	</g>
	<g id="Layer_6">
	</g>
	<g id="Layer_7">
	</g>
	<g id="Layer_8">
	</g>
	<g id="Layer_44">
	</g>
</g>
</svg>
