<?xml version="1.0" encoding="utf-8"?>
<!-- Generator: Adobe Illustrator 16.0.0, SVG Export Plug-In . SVG Version: 6.00 Build 0)  -->
<!DOCTYPE svg PUBLIC "-//W3C//DTD SVG 1.1//EN" "http://www.w3.org/Graphics/SVG/1.1/DTD/svg11.dtd">
<svg version="1.1" xmlns="http://www.w3.org/2000/svg" xmlns:xlink="http://www.w3.org/1999/xlink" x="0px" y="0px"
	 width="850.394px" height="496.063px" viewBox="0 0 850.394 496.063" enable-background="new 0 0 850.394 496.063"
	 xml:space="preserve">
<g id="Layer_1" display="none">
	
		<image display="inline" overflow="visible" width="3684" height="3399" xlink:href="CFBF34CB.jpg"  transform="matrix(0.9586 0 0 0.9586 -1694.9204 -536.8271)">
	</image>
</g>
<g id="Layer_27">
	<g id="Layer_34">
	</g>
	<g id="Layer_35">
		<path fill="#1C8439" d="M388.251,152.042c9.315-6.113,13.517,14.884,28.166-7.474c0,0,10.792-15.418,0-25.44
			s-32.465-0.294-32.465-0.294s-13.721,7.649-39.933,7.649c-26.212,0-59.923-26.016-59.923-26.016s-38.234,14.752-37.464,27.087
			c0.77,12.335,75.994,35.675,93.918,35.675C360.209,163.229,375.531,160.39,388.251,152.042z"/>
		<path fill="#2BA954" d="M377.844,165.918c16.768-3.47,24.14-10.553,33.459-16.35c0,0,7.208-27.305,0-25.441
			c-7.636,1.975-30.068,13.877-30.068,13.877s-16.064-1.43-42.276-1.43s-57.58-16.936-57.58-16.936s-38.234,14.75-37.464,27.086
			c0.771,12.335,74.238,23.231,92.162,23.231C355.735,169.957,362.944,169.001,377.844,165.918z"/>
	</g>
	<g id="Layer_36">
		<g id="Layer_9">
			<path fill="#2EEA93" d="M239.413,33.2c0,0-29.004,1.75-33.3,13.61c-4.295,11.86-31.021,16.263-40.185,19.08l9.251,2.975
				c0,0,34.559-7.894,35.848-15.406c1.289-7.512,26.699-11.044,26.699-11.044L239.413,33.2z"/>
			<path fill="#2BA954" d="M227.828,61.396c0,29.892,24.232,54.126,54.125,54.126c10.957,0,21.154-3.256,29.674-8.854
				c14.727-9.672,24.451-26.337,24.451-45.272c0-29.892-24.233-54.124-54.125-54.124C252.06,7.272,227.828,31.504,227.828,61.396z"
				/>
			<g>
				<g id="Laag_1_3_">
					<path id="XMLID_3_" fill="#FECEA2" d="M334.548,49.427c2.259,5.038,1.745,7.164,1.325,16.703
						c-0.601,13.648-5.235,20.888-7.813,23.618c-6.838,1.335-20.372,1.174-21.661,1.174c-16.545-0.05-22.738-16.646-15.456-30.466
						c7.431-14.118,28.765-11.028,43.181-11.028"/>
				</g>
			</g>
			<circle fill="#EFE8E3" cx="319.951" cy="68.865" r="14.174"/>
			<circle fill="#784F30" cx="319.951" cy="68.865" r="11.131"/>
			<circle fill="#020200" cx="319.951" cy="68.865" r="6.406"/>
			<ellipse fill="#EFE8E3" cx="325.988" cy="64.57" rx="5.094" ry="5.102"/>
			<path fill="#2EEA93" d="M240.265,30.201c0,0-23.301,17.36-20.395,29.635s-17.034,30.604-23.155,37.981l5.588,1.66
				c0,0,28.36-29.783,25.322-36.773s16.279-23.871,16.279-23.871L240.265,30.201z"/>
		</g>
		<g id="Layer_37">
			<path fill="#2EEA93" d="M336.077,55.868c0,0-30.72-11.89-105.604-11.221c0,0,2.912-7.911,5.271-11.448
				c2.359-3.538,59.926-0.621,96.49,8.133C332.234,41.333,336.202,47.313,336.077,55.868z"/>
		</g>
	</g>
	<g id="Layer_38">
		<path fill="#2D2723" d="M336.396,69.672c0,0-10.986-12.093-35.791-20.381l7.221-7.229c0,0,22.085,11.758,31.471,21.394
			L336.396,69.672z"/>
	</g>
	<g id="Layer_40">
		<path fill="#2BA954" d="M263.063,94.731c0,0,30.549,10.56,29.856,36.311s-16.055,50.423-25.306,74.232
			c-9.698,24.96-8.095,49.147-19.792,60.177c-22.813,21.51-50.01,25.774-60.045,8.897c-10.036-16.874,14.151-100.724,36.885-152.728
			C247.393,69.619,258.129,97.131,263.063,94.731z"/>
	</g>
	<g id="Layer_41">
		<path fill="#2BA954" d="M241.016,249.795c0,0-9.325-17.083-26.148-8.982c-16.822,8.1-26.775,9.688-28.434,27.768
			s62.717,38.459,81.963,45.301c19.246,6.843,27.291,1.738,37.176,9.637c6.832,5.459,7.307,6.104,5.061,18.773
			c-4.611,26.007-0.678,47.19,1.685,53.207c2.363,6.018,8.324,23.878,8.003,30.57c-0.32,6.692-9.235,20.049,0.207,22.526
			c9.441,2.479,55.733,3.28,55.733,3.28s10.156-9.314-2.365-16.698c-12.52-7.383-24.853,1.368-31.157-10.531
			c-6.304-11.902,2.577-41.942,2.577-41.942s-3.975-49.702-0.109-56.586c3.862-6.884-6.293-30.699-17.799-32.431
			c-11.507-1.733-44.119-42.636-79.646-51.986"/>
		<path fill="#2BA954" d="M217.026,292.091c0,0,28.723-14.303,26.842-32.879c-1.88-18.578,0.02-28.475-16.413-36.196
			c-16.431-7.725-57.533,45.851-70.525,61.611c-12.995,15.758-8.255,13.872-21.733,31.663c-6.151,8.117-7.613,11.462-20.577,20.097
			c-21.982,14.639-36.549,29.855-39.633,35.539c-3.084,5.682-12.913,21.741-18.242,25.804c-5.327,4.061-21.287,5.839-17.105,14.658
			c1.904,4.019,9.878,7.991,12.813,18.892c5.547,20.596,29.061,20.525,29.061,20.525s13.665,1.775,11.255-12.56
			c-0.984-5.851-19.202-7.521-20.441-11.749c-1.798-6.131-3.051-6.14-0.063-13.527c5.051-12.487,33.756-25.029,33.756-25.029
			s25.476-29.695,33.233-31.166c7.756-1.475,15.025-3.813,20.576-14.04c5.551-10.227,46.47-18.174,67.371-48.385"/>
	</g>
	<g id="Layer_42">
		<path fill="#F9A883" d="M436.721,137.768c0,0-20.241,13.984-26.12,5.932c-6.222-8.522-6.792-26.484-7.478-27.029
			c-0.685-0.545,18.813-31.667,28.524-33.295c9.711-1.629,17.525-1.04,17.525-1.04s14.441,7.235,8.541,14.333
			c-5.896,7.096-13.811,0.041-13.811,0.041s-12.236,2.481-10.326,8.323c1.91,5.843,1.389,11.469,4.967,7.601
			c3.576-3.869,2.387-8.275,2.387-8.275s5.311-5.925,7.623,1.502C450.866,113.288,452.305,124.315,436.721,137.768z"/>
		<path fill="#FECEA2" d="M440.493,139.969c0,0-21.272-15.74-26.216-6.418c-4.945,9.322-5.604,26.76-6.263,27.336
			c-0.661,0.575,20.211,30.794,29.984,31.987c9.773,1.192,17.553,0.254,17.553,0.254s14.102-7.873,7.893-14.698
			c-6.209-6.827-13.799,0.576-13.799,0.576s-12.336-1.933-10.689-7.854c1.646-5.923,0.877-11.521,4.625-7.815
			c3.746,3.706,2.754,8.159,2.754,8.159s5.568,5.683,7.547-1.841S456.663,152.712,440.493,139.969z"/>
	</g>
	<g id="Layer_43">
		<path fill="#19CC72" d="M416.48,131.231c0,0,7.524,1.67,5.852-3.838c-0.178-0.586-15.521-8.38-17.388-14.322
			c0,0-10.14,0-25.839,6.958c0,0,6.994,28.144,13.03,33.933C392.135,153.961,411.813,143.842,416.48,131.231z"/>
		<path fill="#2EEA93" d="M411.438,163.817c0,0,2.053-25.193,5.042-32.586c0,0-19.64,0.545-35.364,4.677
			c0,0-4.859,22.841,0.789,29.009C381.904,164.917,395.655,178.508,411.438,163.817z"/>
		<path fill="#2EEA93" d="M341.003,419.209c0,0-0.238-18.942,4.203-36.121c0,0-21.564-7.124-35.599-1.396
			c0,0,0.447,7.605,2.506,13.252c2.059,5.648,7.141,22.097,8.033,27.981C320.146,422.925,332.297,416.982,341.003,419.209z"/>
		<path fill="#2EEA93" d="M72.265,413.969c0,0,5.895-11.374,30.339-23.435c0,0-10.868-17.477-24.568-23.964
			c0,0-5.888,8.179-8.666,13.511c-2.779,5.331-10.414,13.983-14.151,18.613C55.219,398.695,68.032,406.042,72.265,413.969z"/>
	</g>
</g>
<g id="Layer_39">
</g>
<g id="Layer_17" display="none">
	<g id="Layer_23" display="inline">
		<path fill="#2BA954" d="M339.559,76.333l134.542,1.959c0,0,20.907,39.519,7.433,84.019c0,0-15.949,57.5-16.212,59.5
			s-2.763,22-9.263,30c0,0-6.236,44-4.368,65.5c0,0,12.714,20,1.541,20.5s-32.773,4.5-34.973-4.5s-3.194-50.5-3.194-50.5
			s-9.036,43-9.521,52.5s-9.225,10-20.105,7s-21.755-14.5-21.755-14.5s6.839-55-3.393-68.5c0,0-5.595-17.5-7.164-28
			c0,0-4.188-18-7.628-27C345.499,204.311,315.559,152.856,339.559,76.333z"/>
		<path fill="#3B3B3B" d="M73.559,127.811"/>
		<path fill="#2BA954" d="M418.259,325.811c0,0,27.564,9.667,33.432-8.5l13.631,21.167c0,0,6.428,8.666,18.999,14.666
			c0,0,11.419,5.334,9.995,12.667s-35.701,12-35.701,12l-40.356-26.667C418.259,351.144,416.958,346.478,418.259,325.811z"/>
		<path fill="#3B3B3B" d="M554.226,245.144"/>
		<path fill="#2BA954" d="M406.712,326.255c0,0-35.581,13.39-41.449-4.777l-13.631,21.167c0,0-6.428,8.666-18.999,14.666
			c0,0-11.419,5.334-9.995,12.667s35.701,12,35.701,12l47.887-27C406.226,354.978,408.012,346.922,406.712,326.255z"/>
	</g>
	<g id="Layer_24" display="inline">
		<path fill="#15823C" d="M380.226,117.81c0,0,10.516,14,27.924,18c0,0,24.077-6,28.743-18c0,0-1,23-20.123,29l-1.706,130.668
			l-11.69-130.335C403.375,147.143,380.893,132.477,380.226,117.81z"/>
	</g>
	<g id="Layer_25" display="inline">
		<path fill="#2EEA93" d="M418.259,325.811c0,0,26.564,10.25,33.432-8.5c0,0-0.577-20.358,1.084-36.503
			c0,0-24.456,16.761-37.586,6.507C415.189,287.315,413.708,317.311,418.259,325.811z"/>
		<path fill="#2EEA93" d="M406.712,326.255c0,0-36.153,13.806-42.238-5.952c0,0,2.507-26.681,0.846-42.825
			c0,0,35.52,20.87,48.65,10.616C413.97,288.094,411.262,317.755,406.712,326.255z"/>
	</g>
	<g id="Layer_18" display="inline">
		<path fill="#3B3B3B" d="M445.559-111.689c0,0,12,21.5,10,32s58.883,31.22,56,70.5c-5.333,72.667-50.556,79.894-74,91
			c-13.018,6.167-70.123-1-70.123-1s-51.377-4-48.877-19s3.129-79.5,25.314-117.5s23.563-30.352,23.563-30.352
			s-14.255-23.148-5.316-30.148S445.559-111.689,445.559-111.689z"/>
	</g>
	<g id="Layer_16" display="inline">
		
			<image overflow="visible" width="1000" height="436" xlink:href="logo_licht.png"  transform="matrix(0.1448 0 0 0.1448 339.5562 -44.1919)">
		</image>
	</g>
	<g id="Layer_19" display="inline">
		<path fill="#2BA954" d="M457.559-114.855c0,0,61.667,18.333,76.667,37.333s11.333,31,11.333,31s9.001,6,9.667,20.333
			s8.666,37,8.666,37s-55.999,38.667-62.666,47s-6.334,18.667-6.334,18.667l-65.642,7.256c0,0,59.642-16.923,61.625-50.256
			c1.149-19.311,23.684-58.667-17.983-87.667c-12.861-8.952-19.66-24-19.66-24s-0.633-15.667-5.819-24
			S457.559-114.855,457.559-114.855z"/>
	</g>
	<g id="Layer_21" display="inline">
		<path fill="#2BA954" d="M371.893-86.041c0,0-10,1.518-29.667,38.518l-9,23c0,0-5.667,69.334,0,82.667c0,0,5.333,6.333,4,10
			L355.422,79.4h-17.197l-32.667-8.534c0,0-6.333-3.722-6.667-10.055s13.333-69.326,16-78.996l-0.333-11.004l-9.667,16.558
			c0,0-7,18.108-9,27.108v17.667c0,0,0,21.333-8.667,27.667c0,0-22-5-25.667-14.667c0,0-0.667-12.333-6.333-13
			c0,0-11.333-28.334-9-38.667c0,0,20.667-40.667,30.333-48.667c0,0,12.667-8.333,11.333-12.333c0,0,52.333-33.333,62-38
			S367.56-96.559,371.893-86.041z"/>
	</g>
	<g id="Layer_22" display="inline">
		<path fill="#15823C" d="M522.305-24.73c-0.792-3.226-1.623-6.443-2.588-9.627c-2.093-6.905-4.997-14.058-9.633-19.669
			c-5.151-6.234-14.66-11.155-16.525-19.413c-0.426-1.887-1.122-1.485-0.696,0.399c1.462,6.472,5.985,11.264,10.425,15.941
			c6.201,6.533,10.188,13.499,13.06,22.043c0.721,2.143,1.355,4.313,1.947,6.495c-0.886-0.211-1.88,0.237-1.735,1.372
			c0.332,2.616,1.586,4.11,3.304,4.808c0.821,3.415,1.601,6.841,2.452,10.238c2.295,9.157,4.883,17.646,4.994,27.204
			c0.022,1.933,3.022,1.936,3,0C530.208,6.34,528.303-1.6,525.99-9.955c-1.096-3.958-2.036-7.956-2.997-11.947"/>
		<path fill="#15823C" d="M525.755,15.662c-2.352-9.953-5.154-19.766-8.888-29.295c-3.484-8.894-8.265-17.24-12.647-25.708
			c-4.628-8.943-11.806-16.457-16.881-25.186c-2.659-4.572-5.643-8.953-8.677-13.282c-2.875-4.102-8.729-7.003-10.729-11.629
			c-0.766-1.772-1.179-0.999-0.42,0.757c1.792,4.147,4.93,7.31,7.533,10.943c2.74,3.823,5.366,7.723,7.87,11.704
			c5.41,8.6,11.548,16.65,17.008,25.192c2.504,3.917,4.288,8.299,6.476,12.394c2.744,5.14,5.375,10.2,7.574,15.613
			c3.844,9.461,6.543,19.373,8.888,29.296C523.307,18.342,526.2,17.543,525.755,15.662z"/>
		<path fill="#15823C" d="M346.264-57.946c-2.166,4.22-5.037,8.297-4.705,13.257c0.003,0.053,0.017,0.1,0.025,0.15
			c-0.637-0.335-1.435-0.254-1.82,0.593c-2.954,6.5-4.949,13.239-6.409,20.221c-1.073,5.132-2.822,11.443-1.742,16.685
			c0.107,0.521,0.407,0.832,0.773,0.978c-1.208,4.364-2.085,8.807-2.805,13.314c-0.5,3.132-0.895,6.283-1.303,9.429
			c-0.547,4.213-0.31,8.575-1.166,12.731c-0.389,1.888,2.502,2.692,2.893,0.798c1.358-6.598,1.243-13.659,2.199-20.363
			c1.103-7.731,2.721-15.343,5.551-22.637c0.701-1.806-2.201-2.581-2.893-0.798c-0.219,0.564-0.419,1.131-0.623,1.699
			c0.19-4.277,1.576-8.971,2.364-12.742c1.281-6.127,3.16-12.101,5.75-17.801c0.152-0.335,0.179-0.661,0.119-0.958
			c0.915,0.393,2.171-0.033,2.086-1.299c-0.294-4.391,2.378-8.008,4.295-11.743C349.736-58.149,347.147-59.667,346.264-57.946z"/>
		<path fill="#15823C" d="M344.363-64.588c-3.05,8.104-9.378,15.065-13.982,22.33c-4.347,6.858-7.696,14.494-8.569,22.63
			c-1.061,9.879,0.271,19.707,0.696,29.582c0.47,10.919-0.417,21.929-0.448,32.857c-0.006,1.935,2.994,1.935,3,0
			c0.028-9.68,0.416-19.354,0.494-29.034c0.081-9.935-1.532-19.786-1.077-29.732c0.468-10.204,4.739-19.064,10.215-27.466
			c4.315-6.621,7.756-12.909,10.563-20.369C345.938-65.604,345.038-66.381,344.363-64.588z"/>
		<path fill="#15823C" d="M371.893-83.486c0.269-0.83,0.539-1.637,0.703-2.488c0.08-0.294,0.13-0.588,0.13-0.881
			c0-0.835-0.519-1.301-1.125-1.417c-0.083-0.329-0.269-0.642-0.618-0.879c-1.274-0.866-3.677-4.712-4.438-7.265
			c-0.103-0.687-0.16-1.387-0.153-2.107c0.017-1.672-2.579-2.073-2.946-0.399c-0.029,0.132-0.032,0.267-0.047,0.4
			c-0.002,0-0.004,0-0.006-0.001c0,0.014,0.001,0.027,0.001,0.042c-0.055,0.511-0.023,1.027,0.078,1.544
			c0.458,4.688,3.041,8.529,4.914,12.764c-0.364,0.67-0.739,1.335-1.132,1.989c-0.162,0.27-0.497,0.856-0.912,1.508
			c-0.529-0.41-1.271-0.484-1.843,0.176c-3.215,3.709-6.424,7.423-9.5,11.25c-1.2,1.492,0.909,3.629,2.121,2.121
			c2.157-2.684,4.387-5.306,6.632-7.916c2.195-0.179,3.736-2.211,4.987-3.938c0.411-0.567,0.789-1.158,1.152-1.759
			c1.01,1.017,2.898-0.132,2.449-1.513C372.204-82.669,372.052-83.079,371.893-83.486z"/>
		<path fill="#15823C" d="M468.188-58.613c-3.714-5.756-6.198-9.812-10.706-14.883c-3.18-3.577-3.185-7.629-3.81-12.092
			c-0.642-4.587-4.622-10.76-5.072-15.407c-0.185-1.908-0.728-1.12-0.541,0.806c0.416,4.292,1.365,9.453,2.333,13.649
			c0.795,3.446,0.376,7.936,2.147,11.134c3.985,7.195,11.613,11.418,16.059,18.308C469.643-55.479,469.241-56.981,468.188-58.613z"
			/>
		<path fill="#15823C" d="M492.135,47.849c-11.022,7.722-20.634,17.199-31.333,25.334c-1.519,1.154-0.027,0.762,1.514-0.41
			c10.698-8.133,20.316-14.615,31.333-22.333C495.221,49.339,493.724,46.736,492.135,47.849z"/>
		<path fill="#15823C" d="M504.499,44.75c-6.862,8.724-15.253,15.903-24,22.667c-1.528,1.182-1.389,2.289,0.121,1.121
			c8.747-6.764,19.138-12.943,26-21.667C507.801,45.369,505.694,43.23,504.499,44.75z"/>
		<path fill="#15823C" d="M500.005-23.921c-0.706-1.775-0.608-1.002,0.107,0.798c4.668,11.74,6.522,24.345,6.613,36.934
			c0.014,1.934,3.014,1.935,3,0C509.633,0.98,504.764-11.953,500.005-23.921z"/>
		<path fill="#15823C" d="M294.354,14.554c-3.307-6.792-10.464-11.06-15-17c-1.158-1.516-1.765-1.024-0.591,0.514
			c4.525,5.927,9.703,11.228,13,18C292.611,17.807,295.198,16.286,294.354,14.554z"/>
		<path fill="#15823C" d="M287.62-13.25c-1.246-1.483-1.357-0.35-0.121,1.121c5.134,6.111,7.333,11.928,6.561,19.939
			c-0.186,1.926,2.816,1.908,3,0C297.911-1.022,293.26-6.536,287.62-13.25z"/>
		<path fill="#15823C" d="M294.458,18.365c-6.565-2.477-14.294-2.447-21-4.5c-1.855-0.568-1.642,0.328,0.202,0.893
			c6.706,2.054,13.435,4.023,20,6.5C295.474,21.942,296.25,19.041,294.458,18.365z"/>
		<path fill="#15823C" d="M315.354-58.432c1.172-1.54,0.565-2.032-0.591-0.514c-5.358,7.039-13.121,18.461-8.208,27.204
			c-0.131,0.038-0.265,0.066-0.396,0.106c-1.842,0.569-1.056,3.466,0.798,2.893c0.507-0.157,1.023-0.281,1.542-0.385
			c0.756,0.796,1.762,0.458,2.251-0.24c1.393-0.005,2.77,0.27,4.052,0.974c1.696,0.932,3.209-1.659,1.514-2.591
			c-2.052-1.127-4.312-1.495-6.57-1.332C304.219-39.96,310.655-52.259,315.354-58.432z"/>
	</g>
	<g id="Layer_26" display="inline">
		<path fill="#2EEA93" d="M536.394,37.478l19.165-19.944c0,0,3-17.675-8-22.366c0,0-14.41-4.976-20.205,0
			s-8.461,20.049-8.461,20.049L536.394,37.478"/>
		<path fill="#2EEA93" d="M301.226,26.811l-7.565-5.554c0,0-16.77-5.565-25.101,5.554s-6.44,15.542-6.387,19.604
			s24.153,17.375,24.153,17.375L301.226,26.811z"/>
	</g>
	<g id="Layer_20" display="inline">
		<path fill="#F9A883" d="M525.559,46.811c0,0-34.233,7.089-43.245,2.423c0,0,0,0-0.711-14.211s4.289-25.545,4.289-25.545
			s11.255-1.667,25.961,0c0,0,0.039-7.667-4.961-8.667c0,0-4.999,2.333-12.666,3c0,0-7,2-7-1.333s2.36-5.6,6.347-7.966
			s7.319-3.367,7.319-3.367s4.334-2.667,10.667-0.333s4.334,6,9.667,6.333s13.666,4.333,13.666,4.333s11.001,15.334,5.334,28.667
			S528.25,45.483,525.559,46.811z"/>
		<path fill="#F9A883" d="M289.413,66.689c0,0,44.958,10.247,47.813,1.455c0,0,4.771-1.396,2.333-11.333
			c-3.39-13.82-1.887-15.386-1.887-15.386s-3.571-4.02-16.28-8.447c0,0-2.75-5.384,2.333-5c0,0,2.846,4.32,10.05,7.027
			c0,0,3.599,2.528,4.497-0.681c0.898-3.21-0.764-6.029-3.966-9.382c-3.201-3.353-5.915-7.631-5.915-7.631s-1.439-3.541-8.167-3
			c-6.728,0.541-7.181,5.583-12.333,7c-6.667,1.833-16.167,5.833-16.167,5.833s-13.812,5.177-11.947,19.543
			S287.179,64.686,289.413,66.689z"/>
	</g>
	<g id="Layer_5" display="inline">
		<path fill="#2EEA93" d="M465.322-201.724c0,0,28.572,7.497,34.608,24.164c6.036,16.667,3.622,30.883,16.5,34.841h-12.073
			c0,0-11.671-17.184-13.481-27.74c-1.812-10.556-23.182-18.315-23.182-18.315L465.322-201.724z"/>
		<path fill="#2BA954" d="M481.603-162.1c0,42.006-34.053,76.06-76.059,76.06c-15.397,0-29.726-4.576-41.701-12.44
			c-20.694-13.593-34.358-37.01-34.358-63.619c0-42.006,34.053-76.059,76.059-76.059S481.603-204.106,481.603-162.1z"/>
		<g>
			<g id="Laag_1_1_">
				<path id="XMLID_1_" fill="#FECEA2" d="M462.975-185.531c-10.442-19.839-37.173-26.871-57.43-26.871
					c-20.258,0-46.99,7.031-57.432,26.871c-10.233,19.422-1.532,42.812,21.649,42.812c1.811,0,13.783-1.253,23.32-3.132
					c8.214-1.601,16.638-1.601,24.853,0c9.606,1.879,21.51,3.132,23.32,3.132C464.506-142.789,473.208-166.109,462.975-185.531z"/>
			</g>
		</g>
		<circle fill="#EFE8E3" cx="431.772" cy="-171.524" r="19.919"/>
		<circle fill="#EFE8E3" cx="376.438" cy="-172.118" r="19.919"/>
		<circle fill="#784F30" cx="431.771" cy="-171.524" r="15.641"/>
		<circle fill="#784F30" cx="376.438" cy="-172.27" r="16.147"/>
		<circle fill="#020200" cx="431.771" cy="-171.524" r="9.001"/>
		<circle fill="#020200" cx="376.438" cy="-172.118" r="9.001"/>
		<ellipse fill="#EFE8E3" cx="369.279" cy="-179.658" rx="7.159" ry="7.171"/>
		<ellipse fill="#EFE8E3" cx="425.418" cy="-179.995" rx="7.159" ry="7.171"/>
		<path fill="#2EEA93" d="M331.525-179.658c0,0,49.725-39.509,145.686-7.958c0,0-1.85-15.54-9.997-19.003
			c-62.846-26.712-124.054,1.005-124.054,1.005S333.183-189.547,331.525-179.658z"/>
		<path fill="#2D2723" d="M406.984-188.417l4.869,7.297c0,0,29.507-17.919,41.379-19.143l-12.073-10.678
			C441.159-210.94,410.002-193.202,406.984-188.417z"/>
		<path fill="#2D2723" d="M399.375-187.74l-4.868,7.297c0,0-29.507-17.919-41.379-19.142l12.072-10.678
			C365.2-210.263,396.357-192.524,399.375-187.74z"/>
	</g>
</g>
<g id="Layer_10">
	<g id="Layer_12">
	</g>
	<g id="Layer_2">
	</g>
	<g id="Layer_11">
	</g>
	<g id="Layer_14">
	</g>
	<g id="Layer_15">
	</g>
	<g id="Layer_13">
	</g>
	<g id="Layer_45">
		<path fill="#07934A" d="M633.497,68.69c0,0-21.219-8.436-66.318,0C567.178,68.69,615.397,76.444,633.497,68.69z"/>
		<path fill="#07934A" d="M624.153,89.805c0,0-24.365-17.76-87.967-3.453C536.186,86.352,585.618,92.153,624.153,89.805z"/>
		<path fill="#07934A" d="M593.059,125.483c0,0-24.107-12.143-99.852,0S593.059,125.483,593.059,125.483z"/>
		<path fill="#07934A" d="M626.219,186.993c0,0-21.219,8.436-66.318,0C559.901,186.993,608.12,179.24,626.219,186.993z"/>
		<path fill="#07934A" d="M606.936,157.807c0,0-24.365,17.76-87.967,3.453C518.969,161.26,568.403,155.459,606.936,157.807z"/>
		<path fill="#07934A" d="M598.448,108.264c0,0-24.365-17.761-87.967-3.454C510.481,104.81,559.913,110.612,598.448,108.264z"/>
		<path fill="#07934A" d="M598.448,140.565c0,0-24.365,17.76-87.967,3.453C510.481,144.018,559.913,138.217,598.448,140.565z"/>
	</g>
	<g id="Layer_3">
		<g>
			<g id="Laag_7_1_" display="none">
				<path display="inline" opacity="0.1" enable-background="new    " d="M563.237,454.723l-9.686-3.372c0,0,0.428-2.114,0.133-4.53
					c-0.262-6.495-0.973-11.508-2.377-17.767c-0.359-2.116-0.896-4.107-1.227-5.59l0,0l0,0l10.076-7.859l-15.605-34.739
					l-15.139,3.386c-14.156-17.008-32.836-25.655-56.232-30.387c-54.795-11.081-108.15,24.324-119.23,79.12
					c-11.08,54.797,24.325,108.149,79.121,119.23c1.057,0.212,2.111,0.427,3.352,0.517l4.83,15.749l35.313-3.702l0.211-13.466
					c9.578-2.308,16.957-5.372,25.301-10.122l8.654,6.146l26.539-23.229l-5.174-9.375c2.846-3.979,14.117-21.65,15.455-25.156
					l8.969-0.067l7.02-34.718l-0.303-0.063V454.723L563.237,454.723z M548.879,420.081L548.879,420.081L548.879,420.081z
					 M549.956,423.284C549.807,423.254,549.807,423.254,549.956,423.284C549.807,423.254,549.807,423.254,549.956,423.284z
					 M549.87,422.953C549.715,422.919,549.715,422.919,549.87,422.953C549.715,422.919,549.715,422.919,549.87,422.953z
					 M549.625,422.59C549.625,422.59,549.657,422.437,549.625,422.59C549.657,422.437,549.625,422.59,549.625,422.59z
					 M549.536,422.256c0.033-0.151-0.121-0.181-0.09-0.332C549.569,422.103,549.536,422.256,549.536,422.256z M549.356,421.592
					L549.356,421.592L549.356,421.592z M549.235,421.41c0.031-0.149-0.119-0.179-0.086-0.333
					C549.266,421.258,549.266,421.258,549.235,421.41z M549.208,420.773l-0.119-0.177
					C549.059,420.743,549.059,420.743,549.208,420.773z M549.088,420.596C549.118,420.445,548.965,420.416,549.088,420.596
					C548.965,420.416,549.118,420.445,549.088,420.596z M548.995,420.26L548.995,420.26L548.995,420.26z"/>
			</g>
			<g id="Laag_8_1_">
			</g>
			<g id="Laag_21_1_">
			</g>
			<g id="Laag_20_1_">
			</g>
			<g id="Laag_15_1_">
			</g>
			<g id="Laag_19_1_">
			</g>
			<g id="Laag_4_1_">
			</g>
			<g id="Laag_2_1_">
			</g>
			<g id="Laag_12_1_">
			</g>
			<g id="Laag_11_1_">
			</g>
			<g id="Laag_10_1_" display="none">
				<g display="inline">
					<g>
						<g>
							<g>
								<defs>
									
										<ellipse id="SVGID_1_" transform="matrix(0.1982 -0.9802 0.9802 0.1982 536.2668 468.1137)" cx="554.257" cy="-93.724" rx="121.665" ry="118.887"/>
								</defs>
								<clipPath id="SVGID_2_">
									<use xlink:href="#SVGID_1_"  overflow="visible"/>
								</clipPath>
								<path opacity="0.1" clip-path="url(#SVGID_2_)" enable-background="new    " d="M852.797,366.994l-0.477-0.726l0,0
									l-0.48-0.722l0,0l-0.479-0.729l0,0l-0.484-0.722l0,0l-0.479-0.729l0,0l-0.479-0.722l0,0l-0.693-1.242l0,0l-0.48-0.724l0,0
									l-0.484-0.723l0,0l-0.48-0.729l0,0l-0.479-0.72l0,0l-0.479-0.728l0,0l-0.484-0.725l0,0l-0.48-0.724l0,0l-0.479-0.727l0,0
									l-0.479-0.724l0,0l-0.484-0.724l0,0l-0.48-0.726l0,0l-0.484-0.728l0,0l-0.477-0.721l0,0l-0.48-0.727l0,0l-0.48-0.726l0,0
									l-0.482-0.723l0,0l-0.479-0.728l0,0l-0.482-0.723l0,0l-0.48-0.728l0,0l-0.482-0.725l0,0l-0.48-0.723l0,0l-0.477-0.723l0,0
									l-0.484-0.728l0,0l-0.48-0.725l0,0l-0.479-0.726l0,0l-0.494-0.745l0,0l-0.484-0.725l0,0l-0.48-0.728l0,0l-0.479-0.723l0,0
									l-0.482-0.723l0,0l-0.479-0.728l0,0l-0.48-0.725l0,0l-0.484-0.726l0,0l-0.48-0.727l0,0l-0.479-0.721l0,0l-0.48-0.729l0,0
									l-0.482-0.723l0,0l-0.48-0.724l0,0l-0.479-0.727l2.416,0.487l3.662-18.106l-0.604-0.122l0.121-0.607l-0.605-0.122
									l0.613-3.02l-0.602-0.122l0.123-0.599l-0.602-0.122l0.123-0.607l-0.604-0.122l0.121-0.601l-0.604-0.122l0.123-0.604
									l-0.605-0.121l0.121-0.603l-0.6-0.123l0.121-0.603l-0.605-0.122l0.123-0.603l-0.6-0.123l0.123-0.605l-0.605-0.121l0.119-0.6
									l-0.598-0.121l0.121-0.605l-0.602-0.121l0.061-0.301l8.451,1.709l3.668-18.145l-0.602-0.123l0.123-0.603l-0.605-0.122
									l0.121-0.605l-0.598-0.122l0.121-0.599l-0.604-0.121l0.125-0.605l-0.605-0.122l0.123-0.601l-0.604-0.122l0.121-0.603
									l-0.602-0.123l0.121-0.605l-0.604-0.121l0.123-0.604l-0.604-0.122l0.121-0.599l-0.6-0.122l0.365-1.811l-0.605-0.122
									l0.123-0.607l-0.602-0.12l0.121-0.603l-0.598-0.123l0.121-0.601l-0.605-0.121l0.121-0.604l-0.604-0.122l0.123-0.604
									l-0.602-0.121l0.121-0.608l-0.602-0.121l0.121-0.602l-0.602-0.121l0.121-0.601l-0.602-0.123l0.244-1.208l-0.605-0.122
									l0.123-0.605l-0.604-0.119l0.121-0.605l-0.596-0.12l0.123-0.603l-0.609-0.121l0.123-0.605l-0.6-0.12l0.121-0.604
									l-4.229-0.854l0.121-0.601l-0.602-0.122l0.182-0.908l-0.604-0.122l0.121-0.603l-0.602-0.123l0.123-0.604l-0.602-0.119
									l0.123-0.605l-0.605-0.122l0.121-0.603l-0.604-0.123l0.123-0.598l-0.904-0.184l0.123-0.607l-0.604-0.122l0.123-0.601
									l-0.604-0.122l0.121-0.605l-0.602-0.122l0.244-1.204l-0.602-0.121l0.121-0.605l-0.604-0.123l0.123-0.603l-0.604-0.121
									l0.121-0.601l-0.902-0.184l0.121-0.603l-0.602-0.122l0.121-0.601l-0.605-0.124l0.123-0.604l-0.602-0.122l0.121-0.604
									l-0.602-0.12l0.121-0.603l-0.602-0.122l0.244-1.208l-0.604-0.122l0.123-0.603l-0.908-0.184l0.125-0.604l-0.605-0.123
									l0.029-0.148c4.414-0.836,8.943-0.707,13.625,0.241c9.959,2.013,18.223,7.77,24.459,15.788l0.119,0.176l0,0
									c0,0,0,0,0.121,0.184c0.121,0.18,0.209,0.514,0.48,0.724l0,0c0.09,0.335,0.363,0.545,0.451,0.881l0,0
									c0.088,0.328,0.361,0.543,0.447,0.875l0,0c0.088,0.331,0.361,0.544,0.451,0.876l0,0c0.088,0.332,0.359,0.545,0.451,0.879
									l0,0c0.09,0.329,0.361,0.542,0.445,0.879l0,0c0.096,0.331,0.367,0.541,0.455,0.874l0,0c0.088,0.332,0.361,0.539,0.449,0.873
									l16.393-11.136c-1.23-2.451-2.529-4.595-3.941-6.925c-0.119-0.182-0.361-0.545-0.479-0.726
									c-0.119-0.181-0.363-0.545-0.482-0.725c-0.119-0.182-0.359-0.543-0.482-0.726c-0.117-0.181-0.359-0.542-0.48-0.723
									c-0.115-0.184-0.359-0.549-0.479-0.728c-0.117-0.178-0.359-0.544-0.482-0.723c-0.121-0.181-0.359-0.545-0.48-0.729
									c-0.119-0.176-0.361-0.542-0.48-0.72c-0.119-0.184-0.359-0.545-0.479-0.726c-0.121-0.181-0.365-0.547-0.479-0.725
									c-0.123-0.182-0.365-0.544-0.484-0.726c-0.119-0.181-0.359-0.544-0.484-0.725c-0.117-0.181-0.355-0.544-0.48-0.728
									c-0.117-0.178-0.357-0.545-0.477-0.723c-0.119-0.179-0.361-0.544-0.48-0.726c-0.119-0.18-0.359-0.544-0.48-0.725
									c-0.123-0.179-0.365-0.542-0.482-0.725c-0.119-0.178-0.363-0.545-0.482-0.723c-0.115-0.184-0.359-0.547-0.479-0.726
									c-0.119-0.18-0.359-0.547-0.479-0.727c-0.121-0.179-0.361-0.545-0.482-0.726c-0.119-0.178-0.361-0.539-0.484-0.725
									c-0.119-0.179-0.359-0.542-0.475-0.723c-0.123-0.179-0.363-0.545-0.482-0.724c-0.121-0.183-0.361-0.546-0.482-0.727
									c-0.119-0.179-0.361-0.542-0.479-0.725c-0.119-0.182-0.363-0.544-0.484-0.726c-0.117-0.178-0.357-0.544-0.479-0.725
									c-0.119-0.179-0.361-0.544-0.482-0.723c-0.117-0.181-0.357-0.545-0.48-0.728c-0.117-0.179-0.357-0.544-0.482-0.726
									c-0.119-0.178-0.359-0.542-0.477-0.722c-0.119-0.182-0.361-0.545-0.479-0.726c-0.121-0.181-0.363-0.544-0.486-0.728
									c-0.117-0.179-0.359-0.542-0.479-0.723c-0.121-0.179-0.363-0.544-0.48-0.727c-0.117-0.179-0.361-0.541-0.482-0.724
									c-0.119-0.18-0.357-0.542-0.48-0.727c-0.117-0.179-0.359-0.545-0.479-0.721c-0.123-0.181-0.361-0.547-0.482-0.726
									c-0.121-0.181-0.361-0.546-0.48-0.727c-0.119-0.179-0.361-0.542-0.479-0.723c-0.119-0.181-0.365-0.545-0.482-0.726
									c-0.117-0.183-0.361-0.544-0.48-0.725c-0.121-0.181-0.361-0.547-0.484-0.726c-0.117-0.18-0.357-0.544-0.477-0.723
									c-0.117-0.183-0.359-0.544-0.48-0.727c-0.121-0.181-0.361-0.545-0.479-0.725c-0.125-0.182-0.365-0.545-0.484-0.726
									s-0.363-0.545-0.48-0.725c-0.117-0.179-0.359-0.545-0.477-0.726c-0.125-0.181-0.363-0.542-0.484-0.725
									c-0.117-0.179-0.361-0.544-0.48-0.726c-0.121-0.181-0.361-0.544-0.482-0.723c-0.121-0.181-0.359-0.545-0.479-0.725
									c-0.121-0.181-0.361-0.547-0.482-0.728c-0.117-0.179-0.359-0.54-0.477-0.723c-0.123-0.183-0.365-0.547-0.482-0.725
									c-0.121-0.182-0.365-0.545-0.484-0.723c-0.115-0.182-0.359-0.547-0.48-0.726c-0.117-0.181-0.359-0.545-0.479-0.728
									c-0.119-0.179-0.359-0.544-0.479-0.723c-0.123-0.183-0.361-0.545-0.484-0.725c-0.119-0.183-0.361-0.55-0.48-0.728
									c-0.117-0.179-0.359-0.542-0.479-0.723c-0.121-0.181-0.361-0.544-0.477-0.725c-0.125-0.182-0.367-0.547-0.484-0.726
									c-0.121-0.18-0.363-0.544-0.482-0.725c-0.117-0.181-0.359-0.545-0.482-0.726c-0.117-0.18-0.357-0.544-0.48-0.725
									c-0.117-0.179-0.359-0.545-0.477-0.726c-0.121-0.18-0.361-0.544-0.486-0.724c-0.117-0.182-0.359-0.545-0.477-0.724
									c-0.121-0.181-0.363-0.547-0.48-0.723c-0.117-0.186-0.363-0.547-0.48-0.729c-0.123-0.178-0.361-0.543-0.484-0.726
									c-0.119-0.179-0.361-0.543-0.479-0.723c-0.117-0.181-0.359-0.543-0.48-0.725c-0.119-0.18-0.361-0.547-0.482-0.725
									c-0.119-0.18-0.357-0.544-0.477-0.724c-0.125-0.183-0.365-0.547-0.484-0.728c-0.117-0.179-0.359-0.543-0.477-0.723
									c-0.125-0.182-0.363-0.546-0.48-0.726c-0.123-0.181-0.365-0.545-0.484-0.725c-0.119-0.182-0.359-0.545-0.48-0.726
									s-0.361-0.544-0.482-0.725c-0.119-0.182-0.363-0.544-0.477-0.726c-0.121-0.18-0.363-0.545-0.482-0.723
									c-0.119-0.183-0.361-0.548-0.479-0.728c-0.125-0.179-0.363-0.544-0.484-0.724c-0.119-0.179-0.361-0.542-0.479-0.724
									c-0.121-0.181-0.363-0.545-0.48-0.727c-0.121-0.181-0.361-0.544-0.48-0.724c-0.121-0.18-0.359-0.545-0.482-0.726
									c-0.119-0.18-0.361-0.543-0.482-0.726c-0.119-0.179-0.359-0.542-0.479-0.723c-0.121-0.18-0.361-0.545-0.482-0.724
									c-0.209-0.517-0.6-0.909-0.961-1.452l-0.119-0.183c-0.121-0.18-0.365-0.545-0.482-0.724
									c-0.119-0.182-0.361-0.547-0.482-0.725c-0.117-0.18-0.361-0.543-0.479-0.727c-0.119-0.18-0.359-0.542-0.48-0.723
									c-0.121-0.182-0.359-0.544-0.48-0.724c-0.123-0.182-0.363-0.548-0.48-0.727c-0.125-0.181-0.363-0.544-0.484-0.726
									c-0.117-0.18-0.361-0.543-0.479-0.725c-0.119-0.179-0.361-0.544-0.479-0.724c-0.119-0.181-0.363-0.545-0.484-0.726
									c-0.119-0.18-0.357-0.543-0.482-0.726c-0.115-0.18-0.359-0.543-0.477-0.725c-0.121-0.18-0.363-0.543-0.48-0.723
									c-0.123-0.182-0.363-0.545-0.482-0.725c-0.119-0.183-0.361-0.547-0.479-0.726c-0.123-0.181-0.363-0.546-0.484-0.727
									c-0.119-0.178-0.361-0.544-0.479-0.725c-0.121-0.178-0.361-0.542-0.482-0.723c-0.119-0.184-0.359-0.545-0.479-0.725
									s-0.361-0.546-0.482-0.725c-0.121-0.182-0.359-0.545-0.477-0.726c-0.125-0.181-0.365-0.545-0.482-0.726
									c-0.121-0.181-0.363-0.545-0.482-0.725c-0.117-0.18-0.359-0.544-0.48-0.724c-0.121-0.183-0.361-0.545-0.482-0.727
									c-0.117-0.18-0.361-0.544-0.479-0.724c-0.117-0.181-0.361-0.543-0.48-0.725c-0.121-0.182-0.361-0.544-0.482-0.726
									c-0.119-0.182-0.359-0.544-0.48-0.726c-0.121-0.18-0.359-0.544-0.479-0.723c-0.121-0.18-0.361-0.545-0.48-0.729
									c-0.123-0.178-0.363-0.54-0.482-0.721c-0.117-0.184-0.363-0.545-0.48-0.725c-0.119-0.184-0.361-0.547-0.484-0.726
									c-0.117-0.18-0.357-0.544-0.477-0.727c-0.119-0.179-0.359-0.544-0.48-0.726c-0.121-0.178-0.361-0.541-0.48-0.722
									c-0.121-0.183-0.361-0.546-0.48-0.726c-0.123-0.18-0.365-0.545-0.484-0.725c-0.117-0.182-0.359-0.545-0.479-0.727
									c-0.119-0.18-0.361-0.543-0.479-0.723c-0.121-0.182-0.365-0.544-0.48-0.727c-0.123-0.18-0.359-0.543-0.486-0.723
									c-0.115-0.182-0.357-0.547-0.477-0.726c-0.123-0.179-0.361-0.544-0.48-0.725c-0.123-0.18-0.359-0.542-0.482-0.724
									c-0.119-0.184-0.359-0.545-0.48-0.725c-0.121-0.185-0.361-0.547-0.482-0.727c-0.115-0.179-0.361-0.545-0.48-0.726
									c-0.117-0.179-0.357-0.543-0.479-0.726c-0.117-0.178-0.361-0.543-0.48-0.722c-0.119-0.181-0.359-0.544-0.484-0.727
									c-0.117-0.181-0.359-0.544-0.477-0.724c-0.123-0.182-0.359-0.545-0.482-0.725c-0.119-0.182-0.361-0.546-0.48-0.726
									c-0.117-0.18-0.359-0.543-0.479-0.726c-0.121-0.18-0.363-0.545-0.482-0.723c-0.119-0.182-0.363-0.547-0.482-0.726
									c-0.117-0.181-0.359-0.546-0.48-0.726c-0.117-0.18-0.359-0.543-0.482-0.723c-0.117-0.184-0.355-0.545-0.479-0.726
									c-0.117-0.183-0.359-0.546-0.48-0.726c-0.117-0.179-0.361-0.545-0.482-0.725c-0.117-0.18-0.361-0.545-0.479-0.727
									c-0.121-0.178-0.361-0.543-0.48-0.723c-0.121-0.18-0.361-0.545-0.48-0.725c-0.121-0.184-0.365-0.545-0.482-0.725
									c-0.117-0.182-0.361-0.546-0.48-0.725c-0.117-0.182-0.359-0.546-0.48-0.726c-0.119-0.181-0.363-0.544-0.48-0.726
									c-0.121-0.18-0.363-0.545-0.48-0.724c-0.119-0.181-0.361-0.546-0.484-0.725c-0.115-0.181-0.357-0.545-0.475-0.727
									c-0.123-0.177-0.363-0.546-0.484-0.725c-0.117-0.181-0.361-0.542-0.48-0.724s-0.361-0.545-0.484-0.725
									c-0.115-0.18-0.359-0.545-0.477-0.725c-0.115-0.182-0.359-0.545-0.48-0.727c-0.119-0.178-0.361-0.543-0.48-0.724
									c-0.123-0.181-0.361-0.544-0.479-0.724c-0.125-0.184-0.367-0.546-0.484-0.727c-0.119-0.18-0.361-0.544-0.479-0.725
									c-0.123-0.18-0.363-0.545-0.48-0.724c-0.123-0.181-0.363-0.545-0.48-0.727c-0.123-0.181-0.365-0.544-0.484-0.724
									c-0.117-0.181-0.359-0.545-0.48-0.725s-0.359-0.544-0.48-0.726c-0.117-0.179-0.357-0.544-0.479-0.726
									c-0.119-0.18-0.363-0.541-0.484-0.723c-0.119-0.183-0.359-0.544-0.479-0.725c-0.121-0.181-0.361-0.545-0.48-0.725
									c-0.119-0.182-0.363-0.547-0.48-0.727c-0.119-0.18-0.359-0.545-0.479-0.727c-0.125-0.178-0.365-0.541-0.484-0.723
									c-0.117-0.182-0.361-0.544-0.482-0.725c-0.117-0.18-0.359-0.545-0.482-0.725c-0.115-0.18-0.357-0.545-0.475-0.725
									c-0.125-0.182-0.361-0.543-0.484-0.726c-0.117-0.18-0.361-0.545-0.479-0.726c-0.121-0.18-0.361-0.544-0.48-0.723
									c-0.123-0.181-0.361-0.546-0.482-0.727c-0.119-0.178-0.363-0.545-0.48-0.725c-0.119-0.18-0.361-0.543-0.48-0.721
									c-0.117-0.185-0.361-0.547-0.48-0.73c-0.121-0.18-0.363-0.542-0.482-0.721c-0.117-0.182-0.359-0.546-0.479-0.727
									c-0.121-0.18-0.361-0.547-0.48-0.725c-0.123-0.182-0.363-0.543-0.484-0.725c-0.209-0.514-0.6-0.906-0.809-1.422l-0.119-0.18
									c-0.119-0.182-0.361-0.545-0.48-0.724c-0.121-0.181-0.361-0.546-0.482-0.726c-0.119-0.18-0.357-0.545-0.482-0.727
									c-0.117-0.178-0.359-0.542-0.479-0.723c-0.117-0.183-0.359-0.545-0.482-0.727c-0.119-0.179-0.359-0.543-0.479-0.723
									c-0.121-0.182-0.361-0.545-0.48-0.726c-0.125-0.181-0.363-0.544-0.482-0.726c-0.119-0.18-0.359-0.544-0.48-0.724
									c-0.119-0.181-0.361-0.546-0.479-0.724c-0.119-0.182-0.363-0.547-0.482-0.725c-0.119-0.182-0.359-0.546-0.484-0.728
									c-0.117-0.179-0.357-0.544-0.48-0.726c-0.113-0.178-0.357-0.544-0.477-0.723c-0.119-0.182-0.361-0.545-0.48-0.724
									c-0.121-0.182-0.361-0.548-0.482-0.726c-0.119-0.182-0.359-0.545-0.48-0.726c-0.123-0.18-0.363-0.543-0.48-0.724
									c-0.119-0.182-0.361-0.545-0.48-0.725c-0.119-0.182-0.363-0.545-0.48-0.725c-0.119-0.181-0.361-0.549-0.482-0.727
									c-0.117-0.18-0.359-0.543-0.482-0.725c-0.119-0.18-0.357-0.544-0.477-0.724c-0.123-0.181-0.359-0.544-0.482-0.726
									c-0.117-0.182-0.359-0.544-0.482-0.725c-0.117-0.181-0.359-0.545-0.477-0.725c-0.123-0.18-0.365-0.546-0.482-0.725
									c-0.119-0.182-0.363-0.545-0.48-0.726c-0.119-0.181-0.361-0.544-0.479-0.723c-0.123-0.183-0.365-0.547-0.484-0.726
									c-0.117-0.182-0.357-0.545-0.48-0.725c-0.121-0.181-0.361-0.545-0.482-0.729c-0.119-0.178-0.363-0.541-0.48-0.721
									c-0.117-0.182-0.361-0.545-0.479-0.726c-0.119-0.181-0.359-0.547-0.48-0.726c-0.119-0.18-0.361-0.544-0.482-0.725
									s-0.361-0.545-0.48-0.725c-0.119-0.182-0.361-0.545-0.48-0.726s-0.359-0.543-0.48-0.726
									c-0.121-0.178-0.361-0.543-0.48-0.725c-0.119-0.178-0.361-0.544-0.482-0.725c-0.117-0.18-0.359-0.545-0.48-0.725
									c-0.121-0.181-0.359-0.545-0.477-0.721c-0.125-0.185-0.363-0.548-0.484-0.728c-0.119-0.181-0.359-0.544-0.479-0.725
									c-0.121-0.181-0.363-0.544-0.48-0.725c-0.123-0.18-0.365-0.544-0.482-0.725c-0.119-0.181-0.363-0.544-0.482-0.723
									c-0.117-0.182-0.359-0.547-0.48-0.728s-0.359-0.544-0.479-0.725c-0.121-0.178-0.361-0.542-0.482-0.725
									c-0.119-0.178-0.361-0.543-0.479-0.722c-0.121-0.183-0.363-0.544-0.482-0.725c-0.123-0.181-0.363-0.547-0.482-0.725
									c-0.119-0.18-0.363-0.544-0.48-0.725c-0.121-0.181-0.361-0.544-0.479-0.725c-0.119-0.181-0.363-0.544-0.48-0.725
									c-0.119-0.181-0.359-0.544-0.482-0.724c-0.119-0.181-0.361-0.547-0.482-0.726c-0.121-0.178-0.359-0.544-0.48-0.725
									c-0.121-0.178-0.357-0.542-0.48-0.724c-0.117-0.179-0.361-0.544-0.479-0.724c-0.121-0.183-0.361-0.546-0.48-0.725
									c-0.123-0.182-0.363-0.545-0.484-0.726c-0.117-0.18-0.359-0.544-0.48-0.726c-0.117-0.179-0.359-0.542-0.479-0.723
									c-0.117-0.181-0.361-0.544-0.482-0.724c-0.119-0.182-0.359-0.545-0.48-0.725c-0.119-0.182-0.359-0.545-0.479-0.725
									c-0.123-0.182-0.363-0.545-0.48-0.727c-0.123-0.181-0.363-0.544-0.484-0.724c-0.117-0.181-0.359-0.545-0.477-0.724
									c-0.123-0.181-0.363-0.547-0.482-0.725c-0.121-0.181-0.361-0.544-0.484-0.726c-0.117-0.178-0.357-0.543-0.479-0.724
									c-0.117-0.181-0.359-0.543-0.477-0.725c-0.121-0.181-0.365-0.544-0.482-0.725c-0.121-0.18-0.361-0.544-0.484-0.725
									c-0.119-0.178-0.359-0.544-0.48-0.725c-0.117-0.18-0.361-0.542-0.479-0.724c-0.119-0.182-0.363-0.546-0.48-0.724
									c-0.121-0.182-0.359-0.546-0.48-0.725c-0.121-0.182-0.363-0.544-0.482-0.726c-0.117-0.18-0.361-0.545-0.482-0.726
									c-0.119-0.18-0.357-0.542-0.48-0.723c-0.117-0.181-0.357-0.544-0.479-0.724c-0.117-0.181-0.359-0.546-0.48-0.727
									c-0.119-0.181-0.361-0.544-0.484-0.725c-0.117-0.179-0.359-0.543-0.477-0.725c-0.121-0.181-0.363-0.542-0.48-0.724
									c-0.09-0.333-0.361-0.545-0.484-0.725c-0.088-0.333-0.359-0.545-0.479-0.724c-0.121-0.181-0.361-0.545-0.48-0.726
									c-0.119-0.18-0.363-0.543-0.482-0.724c-0.119-0.182-0.359-0.544-0.48-0.726c-0.117-0.18-0.357-0.543-0.48-0.723
									c-0.119-0.182-0.359-0.543-0.48-0.726c-0.121-0.18-0.359-0.544-0.48-0.726c-0.117-0.179-0.361-0.542-0.482-0.723
									c-0.088-0.334-0.359-0.545-0.479-0.725c-0.088-0.334-0.363-0.546-0.48-0.725c-0.121-0.181-0.361-0.544-0.48-0.726
									c-0.086-0.333-0.365-0.545-0.482-0.725c-0.088-0.333-0.359-0.543-0.48-0.724c-0.119-0.181-0.359-0.545-0.48-0.725
									s-0.363-0.546-0.482-0.724c-0.211-0.516-0.602-0.91-0.963-1.454l-0.119-0.181c-0.119-0.181-0.361-0.545-0.48-0.724
									c-0.088-0.333-0.361-0.546-0.48-0.725c-0.09-0.333-0.361-0.545-0.482-0.725c-0.117-0.18-0.359-0.543-0.479-0.724
									c-0.119-0.181-0.359-0.544-0.482-0.725c-0.088-0.333-0.359-0.544-0.48-0.725c-0.119-0.181-0.361-0.546-0.477-0.726
									c-0.123-0.179-0.365-0.545-0.484-0.726c-0.117-0.178-0.361-0.542-0.48-0.725c-0.117-0.18-0.361-0.543-0.48-0.724
									c-0.119-0.181-0.363-0.545-0.482-0.725c-0.086-0.332-0.359-0.544-0.479-0.724c-0.121-0.18-0.359-0.544-0.482-0.727
									c-0.09-0.332-0.363-0.543-0.48-0.725c-0.09-0.333-0.361-0.544-0.48-0.723c-0.119-0.181-0.361-0.547-0.479-0.725
									c-0.123-0.182-0.365-0.545-0.482-0.726c-0.121-0.179-0.363-0.544-0.482-0.725c-0.117-0.18-0.361-0.544-0.482-0.724
									c-0.119-0.182-0.359-0.546-0.477-0.724c-0.121-0.182-0.361-0.547-0.482-0.727c-0.117-0.18-0.359-0.544-0.48-0.725
									c-0.088-0.333-0.361-0.542-0.48-0.725c-0.088-0.333-0.363-0.544-0.48-0.724c-0.092-0.333-0.363-0.545-0.482-0.724
									c-0.117-0.181-0.359-0.546-0.477-0.724c-0.125-0.181-0.363-0.545-0.482-0.727c-0.123-0.181-0.363-0.543-0.482-0.725
									c-0.119-0.181-0.361-0.544-0.482-0.725c-0.119-0.181-0.359-0.545-0.48-0.725c-0.119-0.18-0.361-0.544-0.48-0.725
									c-0.117-0.178-0.359-0.544-0.479-0.725c-0.119-0.179-0.361-0.544-0.48-0.723c-0.123-0.183-0.363-0.546-0.484-0.725
									c-0.119-0.182-0.361-0.547-0.479-0.727c-0.119-0.18-0.361-0.544-0.479-0.724c-0.123-0.18-0.363-0.543-0.48-0.726
									c-0.123-0.18-0.363-0.544-0.484-0.724c-0.117-0.179-0.361-0.544-0.479-0.723c-0.121-0.181-0.361-0.546-0.486-0.726
									c-0.115-0.181-0.355-0.545-0.477-0.725c-0.119-0.18-0.361-0.543-0.48-0.726c-0.119-0.18-0.361-0.545-0.48-0.724
									c-0.121-0.181-0.361-0.545-0.48-0.725c-0.121-0.181-0.361-0.546-0.482-0.725c-0.117-0.178-0.359-0.543-0.48-0.726
									c-0.119-0.179-0.361-0.543-0.479-0.723c-0.121-0.182-0.365-0.545-0.484-0.725c-0.119-0.183-0.359-0.545-0.479-0.726
									c-0.119-0.18-0.361-0.544-0.479-0.725c-0.121-0.179-0.363-0.545-0.482-0.726c-0.123-0.18-0.359-0.543-0.482-0.724
									c-0.119-0.18-0.359-0.544-0.479-0.722c-0.121-0.182-0.363-0.547-0.484-0.726c-0.117-0.181-0.357-0.545-0.48-0.726
									c-0.119-0.18-0.357-0.543-0.479-0.727c-0.119-0.178-0.361-0.542-0.482-0.723c-0.117-0.181-0.357-0.545-0.48-0.724
									c-0.117-0.181-0.357-0.546-0.48-0.725c-0.117-0.179-0.359-0.545-0.479-0.725c-0.123-0.18-0.363-0.545-0.484-0.724
									c-0.121-0.182-0.359-0.544-0.479-0.726c-0.121-0.182-0.361-0.545-0.479-0.724c-0.121-0.181-0.363-0.547-0.48-0.726
									c-0.123-0.179-0.363-0.545-0.484-0.726c-0.119-0.18-0.359-0.542-0.482-0.725c-0.117-0.179-0.359-0.543-0.479-0.723
									c-0.117-0.183-0.359-0.545-0.48-0.725c-0.121-0.182-0.357-0.544-0.482-0.727c-0.117-0.179-0.359-0.544-0.477-0.726
									c-0.213-0.513-0.605-0.906-0.814-1.419l-0.117-0.18c-0.121-0.181-0.361-0.544-0.48-0.724
									c-0.121-0.183-0.363-0.545-0.482-0.726c-0.119-0.181-0.359-0.545-0.484-0.726c-0.117-0.179-0.357-0.544-0.48-0.725
									c-0.115-0.18-0.359-0.544-0.477-0.724c-0.119-0.181-0.359-0.543-0.48-0.725c-0.119-0.182-0.361-0.545-0.48-0.724
									c-0.121-0.181-0.361-0.546-0.482-0.725c-0.121-0.181-0.361-0.545-0.48-0.727c-0.119-0.18-0.367-0.543-0.482-0.724
									c-0.117-0.18-0.361-0.544-0.477-0.725c-0.121-0.181-0.361-0.545-0.484-0.725c-0.117-0.181-0.359-0.543-0.48-0.725
									c-0.121-0.179-0.359-0.544-0.482-0.726c-0.119-0.179-0.359-0.543-0.479-0.723c-0.119-0.182-0.359-0.544-0.482-0.726
									c-0.117-0.181-0.357-0.544-0.477-0.725c-0.125-0.18-0.363-0.544-0.484-0.725c-0.119-0.18-0.363-0.546-0.48-0.726
									c-0.117-0.179-0.359-0.543-0.479-0.724c-0.119-0.181-0.361-0.544-0.482-0.724c-0.119-0.181-0.363-0.546-0.48-0.725
									c-0.119-0.181-0.361-0.545-0.482-0.727c-0.119-0.18-0.359-0.544-0.479-0.726c-0.121-0.179-0.361-0.543-0.48-0.723
									c-0.121-0.182-0.363-0.544-0.48-0.724c-0.121-0.181-0.363-0.546-0.48-0.725c-0.123-0.183-0.365-0.545-0.482-0.726
									c-0.117-0.179-0.363-0.543-0.48-0.724c-0.117-0.182-0.359-0.543-0.48-0.726c-0.119-0.181-0.361-0.545-0.48-0.725
									c-0.123-0.18-0.359-0.545-0.482-0.725c-0.117-0.179-0.361-0.544-0.48-0.725c-0.117-0.179-0.361-0.543-0.477-0.723
									c-0.125-0.182-0.363-0.545-0.484-0.726c-0.121-0.181-0.363-0.545-0.48-0.724c-0.119-0.181-0.361-0.547-0.48-0.726
									c-0.123-0.179-0.361-0.545-0.48-0.726c-0.119-0.177-0.365-0.543-0.482-0.724s-0.359-0.544-0.48-0.723
									c-0.121-0.183-0.359-0.546-0.482-0.726c-0.119-0.182-0.359-0.545-0.48-0.726c-0.117-0.179-0.359-0.545-0.479-0.725
									s-0.361-0.544-0.48-0.725c-0.121-0.181-0.361-0.545-0.482-0.724c-0.119-0.18-0.361-0.546-0.48-0.725
									c-0.117-0.182-0.361-0.544-0.48-0.726c-0.121-0.181-0.361-0.544-0.479-0.725c-0.119-0.18-0.361-0.542-0.482-0.724
									s-0.357-0.545-0.482-0.725c-0.117-0.181-0.359-0.546-0.479-0.726c-0.215-0.515-0.604-0.907-0.811-1.421l-0.117-0.179
									c-0.123-0.18-0.365-0.545-0.482-0.725c-0.121-0.18-0.363-0.544-0.482-0.725c-0.121-0.18-0.365-0.544-0.484-0.725
									c-0.117-0.181-0.357-0.543-0.479-0.724c-0.117-0.181-0.359-0.544-0.479-0.724s-0.359-0.544-0.482-0.726
									c-0.119-0.18-0.359-0.543-0.48-0.725s-0.361-0.544-0.48-0.724c-0.123-0.183-0.361-0.546-0.48-0.726
									s-0.363-0.545-0.477-0.724c-0.123-0.181-0.367-0.546-0.484-0.727c-0.121-0.181-0.363-0.543-0.482-0.725
									c-0.117-0.179-0.359-0.543-0.482-0.723c-0.115-0.181-0.359-0.546-0.479-0.726c-0.119-0.181-0.363-0.544-0.48-0.725
									c-0.119-0.18-0.359-0.542-0.482-0.726c-0.119-0.179-0.357-0.542-0.48-0.724c-0.119-0.181-0.361-0.544-0.48-0.725
									c-0.119-0.181-0.361-0.545-0.479-0.726c-0.123-0.179-0.363-0.543-0.484-0.724c-0.117-0.18-0.359-0.543-0.48-0.725
									c-0.117-0.18-0.359-0.544-0.479-0.725c-0.121-0.18-0.359-0.544-0.482-0.724c-0.119-0.18-0.359-0.545-0.48-0.725
									c-0.119-0.18-0.361-0.544-0.48-0.726c-0.121-0.18-0.357-0.543-0.48-0.725c-0.119-0.18-0.359-0.544-0.48-0.724
									c-0.119-0.182-0.361-0.546-0.477-0.725c-0.125-0.181-0.365-0.546-0.484-0.725c-0.119-0.18-0.359-0.544-0.484-0.726
									c-0.117-0.18-0.357-0.542-0.479-0.723c-0.117-0.182-0.363-0.546-0.48-0.726c-0.117-0.181-0.359-0.544-0.479-0.725
									c-0.121-0.18-0.361-0.544-0.482-0.724s-0.359-0.546-0.482-0.727c-0.119-0.18-0.359-0.544-0.48-0.724
									c-0.117-0.181-0.357-0.544-0.477-0.725c-0.123-0.181-0.363-0.545-0.482-0.726c-0.119-0.182-0.361-0.543-0.482-0.726
									c-0.117-0.181-0.359-0.544-0.482-0.726c-0.117-0.182-0.357-0.544-0.477-0.726c-0.119-0.18-0.361-0.543-0.482-0.724
									c-0.117-0.181-0.359-0.545-0.48-0.726c-0.119-0.182-0.359-0.545-0.479-0.726c-0.123-0.182-0.365-0.545-0.482-0.726
									c-0.121-0.181-0.363-0.545-0.48-0.727c-0.119-0.179-0.359-0.544-0.479-0.724c-0.121-0.18-0.363-0.545-0.482-0.725
									s-0.363-0.545-0.48-0.726c-0.121-0.182-0.363-0.544-0.482-0.727c-0.117-0.179-0.361-0.542-0.479-0.724
									c-0.123-0.18-0.359-0.543-0.48-0.725c-0.121-0.18-0.361-0.544-0.482-0.725c-0.119-0.181-0.359-0.544-0.48-0.726
									c-0.123-0.182-0.361-0.545-0.482-0.726c-0.117-0.181-0.361-0.545-0.479-0.725c-0.119-0.18-0.359-0.543-0.479-0.725
									c-8.793-14.034-21.82-24.208-37.818-27.444c-28.83-5.83-54.963,13.082-68.23,43.709l-42.873-8.67l-3.662,18.115l0.604,0.122
									l5.982-29.592l0.604,0.122l-0.123,0.604l0.6,0.121l-0.121,0.603l0.76,0.153l-0.123,0.602l0.604,0.122l-0.121,0.604
									l0.6,0.121l-0.121,0.604l0.605,0.122l-0.123,0.603l0.604,0.122l-0.123,0.604l0.602,0.121l-0.121,0.603l0.602,0.122
									l-0.121,0.604l0.902,0.183l-0.121,0.604l0.605,0.122l-0.119,0.602l0.602,0.122l-0.184,0.907l-8.455-1.71l-3.662,18.114
									l0.605,0.122l-0.123,0.604l0.604,0.122l-0.123,0.603l0.604,0.122l-0.123,0.602l0.906,0.183l-0.121,0.603l0.604,0.123
									l-0.123,0.603l0.602,0.122l-0.119,0.602l0.602,0.122l-0.121,0.604l0.6,0.122l-0.121,0.602l0.604,0.122l-0.123,0.604
									l0.604,0.122l-0.121,0.603l0.904,0.183l-0.121,0.604l0.602,0.122l-0.121,0.603l0.604,0.122l-0.123,0.602l0.605,0.123
									l-0.121,0.603l0.602,0.122l-0.123,0.603l0.605,0.123l-0.121,0.603l0.6,0.122l-0.121,0.603l0.908,0.183l-0.123,0.603
									l0.602,0.122l-0.123,0.604l0.605,0.122l-0.121,0.604l0.6,0.122l-0.121,0.601l0.605,0.123l-0.121,0.601l0.602,0.122
									l-0.121,0.604l0.602,0.122l-0.121,0.604l0.906,0.183l-0.125,0.604l0.604,0.121l-0.123,0.602l0.604,0.122l-0.121,0.603
									l0.602,0.122l-0.121,0.604l0.605,0.122l-0.123,0.603l0.602,0.122l-0.121,0.604l0.605,0.122l-0.123,0.603l0.602,0.121
									l-0.123,0.602l0.604,0.122l-0.121,0.604l0.604,0.122l-0.123,0.604l0.605,0.123l-0.123,0.603l0.6,0.121l-0.123,0.603
									l0.605,0.123l-0.119,0.603l0.602,0.122l-0.123,0.603L498.811-58l-0.121,0.604l0.602,0.122l-0.121,0.601l0.6,0.122
									l-0.119,0.602l0.604,0.122l-0.123,0.604l0.604,0.122l-0.121,0.602l0.604,0.122l-0.123,0.604l0.604,0.123l-0.123,0.602
									l0.604,0.122l-0.121,0.602l0.6,0.122l-0.121,0.604l0.605,0.122l-0.123,0.604l0.604,0.122l-0.121,0.604l0.602,0.122
									l-0.121,0.601l0.602,0.122l-0.121,0.603l0.604,0.122l-0.123,0.604l0.602,0.121l-0.133,0.66l0.605,0.122l-0.123,0.604
									l0.604,0.121l-0.121,0.603l0.602,0.122l-0.121,0.604l0.602,0.122l-0.123,0.602l0.604,0.122l-0.121,0.604l0.602,0.122
									l-0.121,0.604l0.607,0.123l-0.123,0.602l0.6,0.122l-0.123,0.601l2.418,0.489l-0.123,0.603l0.604,0.122l-0.121,0.604
									l0.605,0.122l-0.123,0.604l0.604,0.122L513-38.128l0.6,0.122l-0.123,0.602l0.605,0.123l-0.121,0.603l0.602,0.122
									l-0.123,0.603l0.908,0.184l-0.121,0.602l0.604,0.122l-0.123,0.604l0.6,0.122l-0.121,0.602l0.604,0.122l-0.123,0.604
									l0.604,0.122l-0.121,0.604l0.602,0.122l-0.121,0.602l0.604,0.122l-0.123,0.603l0.906,0.183l-0.123,0.603l0.605,0.122
									l-0.123,0.604l0.605,0.122l-0.125,0.604l0.604,0.122l-0.121,0.601l0.602,0.123l-0.121,0.602l0.604,0.122l-0.123,0.604
									l0.602,0.122l-0.123,0.602l0.908,0.184l-0.121,0.603l0.602,0.122l-0.121,0.604l0.604,0.122l-0.123,0.602l0.604,0.122
									l-0.121,0.604l0.604,0.122l-0.123,0.604l0.6,0.122l-0.117,0.602l0.602,0.123l-0.121,0.602l0.904,0.183l-0.121,0.602
									l0.604,0.122l-0.123,0.604l0.604,0.122l-0.121,0.604l0.602,0.122l-0.121,0.601l0.604,0.122l-0.123,0.603l0.605,0.123
									l-0.121,0.603l0.6,0.121l-0.121,0.603l0.906,0.183l-0.123,0.603l0.604,0.122l-0.121,0.604l0.6,0.121l-0.119,0.602
									l0.602,0.122l-0.121,0.604l0.604,0.122l-0.123,0.604l0.604,0.122l-0.121,0.603l0.6,0.122l-0.121,0.601l0.908,0.183
									l-0.123,0.603l0.604,0.122l-0.123,0.604l0.604,0.122l-0.121,0.604l0.604,0.122l-0.123,0.602l0.604,0.122L535.5-6.593
									l0.037,0.007l-0.121,0.603l0.602,0.121l-0.121,0.604l0.904,0.183l-0.121,0.603l0.602,0.122l-0.123,0.604l0.604,0.122
									l-0.121,0.602l0.602,0.123l-0.121,0.604l0.604,0.122l-0.123,0.604l0.604,0.122l-0.121,0.603l0.6,0.122l-0.121,0.602
									l0.908,0.184l-0.123,0.602l0.602,0.122l-0.123,0.604l0.605,0.123l-0.121,0.603l0.602,0.122l-0.123,0.603l0.6,0.122
									l-0.121,0.603l0.605,0.122l-0.123,0.602l0.604,0.123l-0.121,0.603l0.906,0.183l-0.123,0.604l0.604,0.122l-0.121,0.603
									l0.6,0.122l-0.123,0.604l0.605,0.123l-0.121,0.602l0.602,0.122l-0.123,0.604l0.604,0.122l-0.121,0.603l0.602,0.122
									l-0.121,0.602l0.602,0.121l-0.123,0.602l0.604,0.122l-0.123,0.604l0.605,0.123l-0.121,0.604l0.6,0.122l-0.121,0.603
									l0.604,0.122l-0.121,0.603l0.602,0.122l-0.121,0.601l0.602,0.122l-0.121,0.603l0.602,0.122l-0.123,0.604l0.604,0.122
									l-0.121,0.605l0.604,0.123l-0.121,0.602l0.6,0.122l-0.121,0.602l0.604,0.122l-0.123,0.604l0.604,0.122l-0.121,0.603
									l0.604,0.123l-0.121,0.602l0.602,0.122l-0.123,0.604l0.602,0.122l-0.123,0.603l0.605,0.122l-0.121,0.604l0.6,0.121
									l-0.121,0.603l0.604,0.122l-0.123,0.603l0.604,0.122l-0.123,0.602l0.605,0.122l-0.121,0.604l0.602,0.122l-0.123,0.604
									l0.604,0.122l-0.121,0.604l0.602,0.122l-0.121,0.602l0.598,0.121l-0.121,0.602l0.605,0.123l-0.123,0.604l0.605,0.123
									l-0.121,0.603l0.6,0.122l-0.121,0.602l0.602,0.121l-0.123,0.604l0.605,0.123l-0.121,0.602l0.6,0.122l-0.121,0.604
									l0.604,0.123l-0.121,0.603l0.602,0.121l-0.121,0.604l0.602,0.122l-0.121,0.603l0.6,0.122l-0.121,0.601l0.605,0.122
									l-0.123,0.604l0.604,0.122l-0.121,0.606l0.604,0.122l-0.123,0.601l0.6,0.122l-0.121,0.602l0.604,0.122l-0.123,0.602
									l0.605,0.123l-0.121,0.603l0.598,0.121l-0.121,0.604l0.604,0.122l-0.123,0.603l0.605,0.123l-0.123,0.603l0.602,0.122
									l-0.121,0.603l0.602,0.122l-0.121,0.604l0.605,0.122l-0.121,0.603l0.6,0.122l-0.121,0.602l0.605,0.124l-0.123,0.6
									l0.602,0.122l-0.123,0.603l0.605,0.122l-0.121,0.605l0.598,0.122l-0.121,0.602l0.604,0.122l-0.123,0.604l0.604,0.122
									l-0.119,0.602l0.602,0.122l-0.121,0.604l0.602,0.122l-0.123,0.603l0.604,0.122l-0.121,0.604l0.602,0.122l-0.121,0.603
									l0.602,0.122l-0.121,0.604l0.602,0.122l-0.123,0.603l0.605,0.122l-0.121,0.603l0.598,0.122l-0.121,0.602l0.604,0.124
									l-0.121,0.6l0.604,0.122l-0.123,0.603l0.605,0.122l-0.121,0.606l0.6,0.122l-0.121,0.601l0.604,0.122l-0.123,0.603
									l0.604,0.122l-0.121,0.603l0.6,0.121l-0.121,0.604l0.602,0.122l-0.121,0.604l0.604,0.122l-0.119,0.603l0.598,0.12
									l-0.121,0.603l0.605,0.122l-0.123,0.604l0.604,0.122l-0.123,0.603l0.602,0.122l-0.121,0.602l0.602,0.122l-0.121,0.603
									l0.604,0.122l-0.123,0.602l0.605,0.122l-0.121,0.602l0.6,0.122l-0.121,0.605l0.604,0.122l-0.123,0.603l0.602,0.122
									l-0.123,0.604l0.605,0.122l-0.119,0.601l0.6,0.122l-0.143,0.695l0.604,0.122l-0.121,0.604l0.604,0.122l-0.121,0.602
									l0.6,0.122l-0.123,0.603l0.605,0.123l-0.121,0.603l0.602,0.122l-0.121,0.603l0.598,0.122l-0.121,0.604l0.607,0.121
									l-0.121,0.604l0.604,0.122l-0.123,0.601l0.602,0.121l-0.121,0.603l0.6,0.121l-0.123,0.605l0.605,0.122l-0.121,0.604
									l0.6,0.122l-0.121,0.602l0.604,0.121l-0.123,0.602l0.604,0.121l-0.121,0.604l0.605,0.123l-0.123,0.604l0.604,0.122
									l-0.123,0.604l0.602,0.12l-0.121,0.603l0.6,0.121l-0.121,0.604l0.607,0.123l-0.123,0.604l0.602,0.121l-0.123,0.604
									l0.602,0.121l-0.121,0.603l0.6,0.122l-0.121,0.604l0.604,0.121l-0.121,0.602l0.604,0.121l-0.123,0.605l0.604,0.122
									l-0.121,0.603l0.604,0.123l-0.123,0.603l0.602,0.122l-0.123,0.601l0.605,0.122l-0.121,0.604l0.602,0.121l-0.121,0.604
									l0.598,0.12l-0.121,0.604l0.605,0.122l-0.121,0.603l0.6,0.121l-0.121,0.604l0.604,0.122l-0.123,0.604l0.605,0.121
									l-0.121,0.604l0.6,0.121l-0.121,0.604l0.602,0.122l-0.121,0.603l0.604,0.123l-0.123,0.6l0.605,0.123l-0.123,0.603l0.6,0.122
									l-0.123,0.604l0.605,0.123l-0.123,0.602l0.605,0.121l-0.121,0.605l0.6,0.121l-0.121,0.6l0.602,0.122l-0.121,0.605
									l0.604,0.122l-0.123,0.601l0.604,0.122l-0.121,0.604l0.604,0.124l-0.123,0.602l0.602,0.12l-0.123,0.606l0.605,0.122
									l-0.119,0.602l0.598,0.121l-0.121,0.604l0.6,0.121l-0.121,0.604l0.605,0.123l-0.119,0.6l0.602,0.122l-0.121,0.604
									l0.598,0.121l-0.121,0.605l0.605,0.122l-0.123,0.602l0.602,0.122l-0.123,0.604l0.604,0.121l-0.121,0.602l0.605,0.121
									l-0.123,0.604l0.602,0.122l-0.123,0.602l0.602,0.123l-0.121,0.603l0.604,0.122l-0.121,0.603l0.604,0.122l-0.121,0.604
									l0.602,0.121l-0.121,0.604l0.6,0.122l-0.121,0.603l0.604,0.123l-0.123,0.603l0.604,0.122l-0.123,0.601l0.604,0.122
									l-0.121,0.604l0.602,0.123l-0.121,0.604l0.604,0.122l-0.123,0.603l0.602,0.123l-0.123,0.602l0.605,0.121l-0.121,0.602
									l0.602,0.122l-0.123,0.604l0.605,0.123l-0.123,0.601l0.602,0.12l-0.121,0.604l0.605,0.123l-0.123,0.603l0.602,0.121
									l-0.123,0.604l0.602,0.121l-0.119,0.604l0.604,0.122l-0.123,0.603l0.6,0.123l-0.121,0.603l0.604,0.122l-0.123,0.604
									l0.602,0.121l-0.119,0.602l0.605,0.123l-0.125,0.604l0.604,0.122l-0.123,0.603l0.602,0.121l-0.121,0.604l0.602,0.123
									l-0.119,0.6l0.604,0.122L627.649,132l0.604,0.123l-0.123,0.601l0.604,0.122l-0.121,0.605l0.604,0.123l-0.123,0.6
									l0.602,0.122l-0.123,0.603l0.605,0.122l-0.121,0.603l0.602,0.122l-0.123,0.604l0.605,0.122l-0.123,0.602l0.602,0.122
									l-0.121,0.604l0.602,0.123l-0.121,0.601l0.604,0.122l-0.123,0.604l0.602,0.122l-0.123,0.604l0.604,0.122l-0.123,0.602
									l0.605,0.122l-0.121,0.603l0.604,0.123l-0.123,0.603l0.602,0.122l-0.121,0.602l0.605,0.123l-0.125,0.604l0.602,0.122
									l-0.121,0.601l0.604,0.122l-0.123,0.602l0.604,0.123l-0.121,0.604l0.598,0.121l-0.119,0.604l0.604,0.121l-0.125,0.604
									l0.605,0.123l-0.121,0.602l0.602,0.122l-0.121,0.603l0.725,0.146l-0.121,0.603l0.598,0.122l-0.121,0.604l0.605,0.123
									l-0.123,0.602l0.602,0.121l-0.123,0.602l0.605,0.123l-0.121,0.604l0.604,0.123l-0.123,0.601l0.6,0.122l-0.121,0.605
									l0.602,0.121l-0.123,0.602l0.605,0.121l-0.121,0.604l0.604,0.122l-0.123,0.602l0.607,0.123l-0.121,0.604l0.598,0.121
									l-0.121,0.604l0.602,0.121l-0.123,0.604l0.604,0.121l-0.123,0.603l0.605,0.122l-0.121,0.604l0.6,0.122l-0.121,0.603
									l0.604,0.123L647,161.017l0.604,0.122l-0.121,0.602l0.602,0.121l-0.121,0.605l0.602,0.122l-0.119,0.603l0.6,0.121
									l-0.123,0.604l0.602,0.122l-0.123,0.602l0.605,0.123l-0.121,0.603l0.602,0.12l-0.123,0.605l0.605,0.122l-0.123,0.6
									l0.604,0.122l-0.121,0.604l0.604,0.122l-0.123,0.605l0.602,0.122l-0.123,0.6l0.605,0.122l-0.121,0.604l0.6,0.12
									l-0.121,0.604l0.6,0.122l-0.121,0.602l0.605,0.122l-0.123,0.605l0.605,0.122l-0.121,0.602l0.598,0.121l-0.121,0.604
									l0.604,0.122l-0.123,0.602l0.605,0.122l-0.123,0.604l0.604,0.122l-0.123,0.603l0.604,0.121l-0.123,0.604l0.604,0.122
									l-0.123,0.601l0.604,0.122l-0.121,0.604l0.602,0.121l-0.123,0.604l0.605,0.123l-0.121,0.604l0.6,0.122l-0.123,0.6
									l0.604,0.12l-0.121,0.604l0.604,0.122l-0.123,0.603l0.604,0.122l-0.121,0.604l0.602,0.122l-0.121,0.604l0.602,0.121
									l-0.123,0.601l0.605,0.122l-0.121,0.604l0.6,0.121l-0.121,0.603l0.6,0.122l-0.121,0.604l0.605,0.123l-0.123,0.602
									l0.605,0.122l-0.123,0.604l0.6,0.122l-0.121,0.601l0.602,0.122l-0.121,0.605l0.605,0.122l-0.123,0.602l0.602,0.122
									l-0.121,0.603l0.602,0.122l-0.121,0.604l0.604,0.122l-0.123,0.602l0.6,0.12l-0.123,0.604l0.605,0.122l-0.121,0.606
									l0.605,0.122l-0.123,0.602l0.604,0.122l-0.121,0.604l0.602,0.122l-0.121,0.601l0.602,0.122l-0.123,0.603l0.604,0.122
									l-0.123,0.602l0.604,0.122l-0.123,0.605l0.602,0.122l-0.121,0.601l0.602,0.122l-0.121,0.604l0.602,0.12l-0.123,0.604
									l0.605,0.123l-0.121,0.603l0.604,0.122l-0.123,0.603l0.604,0.123l-0.121,0.603l0.602,0.121l-0.121,0.601l0.6,0.123
									l-0.121,0.605l0.605,0.121l-0.123,0.604l0.6,0.122l-0.123,0.601l0.605,0.122l-0.123,0.605l0.604,0.122l-0.121,0.601
									l0.604,0.121l-0.121,0.604l0.602,0.122l-0.121,0.605l0.602,0.122l-0.121,0.601l0.602,0.122l-0.123,0.604l0.604,0.121
									l-0.121,0.604l0.602,0.122l-0.121,0.601l0.605,0.124l-0.123,0.604l0.6,0.122l-0.121,0.601l0.602,0.121l-0.121,0.604
									l0.605,0.125l-0.123,0.603l0.604,0.122l-0.123,0.603l0.602,0.123l-0.121,0.603l0.602,0.122l-0.121,0.6l0.605,0.123
									l-0.123,0.603l0.602,0.122l-0.123,0.601l0.605,0.122l-0.123,0.608l0.598,0.119l-0.119,0.603l0.602,0.123l-0.123,0.603
									l0.605,0.121l-0.123,0.604l0.604,0.122l-0.121,0.601l0.605,0.122l-0.123,0.605l0.602,0.122l-0.123,0.601l0.604,0.122
									l-0.121,0.603l0.604,0.123l-0.123,0.603l0.602,0.122l-0.119,0.603l0.602,0.122l-0.121,0.605l0.6,0.122l-0.121,0.601
									l0.602,0.122l-0.123,0.604l0.605,0.121l-0.121,0.601l0.602,0.123l-0.121,0.605l0.602,0.121l-0.121,0.604l0.602,0.122
									l-0.123,0.603l0.604,0.122l-0.123,0.603l0.602,0.123l-0.121,0.598l0.605,0.123l-0.123,0.606l0.604,0.123l-0.121,0.603
									l0.6,0.122l-0.123,0.603l0.604,0.12l-0.121,0.605l0.604,0.121l-0.121,0.601l0.602,0.123l-0.121,0.603l0.605,0.122
									l-0.123,0.603l0.6,0.123l-0.121,0.603l0.604,0.122l-0.123,0.603l0.602,0.122l-0.121,0.601l0.602,0.122l-0.121,0.603
									l0.604,0.123l-0.123,0.603l0.605,0.124l-0.121,0.604l0.6,0.12l-0.121,0.603l0.604,0.122l-0.123,0.605l0.604,0.122
									l-0.123,0.601l0.602,0.121l-0.121,0.604l0.605,0.122l-0.123,0.604l0.604,0.121l-0.121,0.601l0.6,0.123l-0.121,0.603
									l0.604,0.122l-0.125,0.605l0.605,0.124l-0.121,0.599l0.602,0.121l-0.121,0.608l0.605,0.122l-0.123,0.599l0.602,0.121
									l-0.123,0.604l0.604,0.122l-0.125,0.605l0.602,0.122l-0.121,0.601l0.604,0.122l-0.121,0.604l0.604,0.121l-0.123,0.603
									l0.602,0.123l-0.123,0.603l0.604,0.122l-0.121,0.601l0.604,0.125l-0.123,0.603l0.605,0.122l-0.123,0.603l0.602,0.123
									l-0.121,0.6l0.602,0.122l-0.121,0.605l0.604,0.122l-0.123,0.599l0.602,0.122l-0.121,0.607l0.602,0.122l-0.119,0.599
									l0.604,0.124l-0.123,0.603l0.602,0.12l-0.123,0.608l0.602,0.121l-0.123,0.599l0.609,0.124l-0.123,0.601l0.604,0.122
									l-0.121,0.605l0.598,0.12l-0.121,0.603l0.602,0.122l-0.121,0.603l0.602,0.123l-0.121,0.603l0.604,0.121l-0.123,0.604
									l0.605,0.125l-0.121,0.598l0.604,0.123l-0.125,0.606l0.604,0.123l-0.123,0.598l0.604,0.123l-0.123,0.606l0.604,0.123
									l-0.121,0.601l0.605,0.121l-0.123,0.603l0.602,0.12l-0.125,0.605l0.602,0.122l-0.119,0.601l0.6,0.122l-0.121,0.604
									l0.605,0.122l-0.121,0.604l0.6,0.123l-0.123,0.601l0.605,0.121l-0.121,0.604l0.604,0.122l-0.123,0.603l0.602,0.122
									l-0.123,0.603l0.605,0.123l-0.121,0.605l0.6,0.121l-0.121,0.601l0.604,0.123l-0.123,0.603l0.604,0.121l-0.121,0.604
									l2.113,0.428c0.119,0.18,0.359,0.546,0.479,0.725c0.123,0.18,0.363,0.544,0.484,0.725c0.119,0.184,0.361,0.545,0.477,0.726
									c0.121,0.183,0.363,0.544,0.48,0.723c0.123,0.183,0.363,0.544,0.482,0.725c0.117,0.183,0.361,0.547,0.482,0.728
									c0.119,0.181,0.359,0.542,0.48,0.725c0.119,0.181,0.361,0.545,0.479,0.724c0.121,0.178,0.361,0.546,0.479,0.725
									c0.123,0.183,0.365,0.544,0.486,0.726c0.117,0.183,0.359,0.545,0.477,0.727c0.125,0.181,0.365,0.542,0.482,0.725
									c0.119,0.182,0.365,0.543,0.477,0.723c0.125,0.179,0.365,0.547,0.484,0.726c0.121,0.181,0.361,0.542,0.482,0.725
									c0.119,0.183,0.357,0.547,0.482,0.726c0.117,0.178,0.357,0.542,0.479,0.728c0.119,0.18,0.361,0.541,0.479,0.72
									c0.121,0.181,0.361,0.547,0.482,0.723c0.119,0.185,0.359,0.547,0.48,0.729c0.121,0.179,0.361,0.544,0.482,0.723
									c0.121,0.182,0.361,0.547,0.482,0.724c0.117,0.183,0.361,0.546,0.477,0.727c0.121,0.181,0.363,0.542,0.482,0.723
									c0.119,0.184,0.361,0.549,0.48,0.728c0.117,0.181,0.359,0.547,0.482,0.727c0.117,0.179,0.357,0.541,0.482,0.721
									c0.117,0.182,0.357,0.55,0.477,0.729c0.123,0.177,0.361,0.54,0.484,0.721c0.115,0.183,0.359,0.549,0.479,0.726
									c0.119,0.181,0.361,0.547,0.479,0.727c0.121,0.181,0.363,0.542,0.48,0.724c0.119,0.18,0.361,0.546,0.484,0.727
									c0.119,0.179,0.359,0.542,0.479,0.724c0.119,0.183,0.363,0.544,0.48,0.725c0.121,0.179,0.361,0.544,0.482,0.725
									c0.119,0.181,0.359,0.545,0.477,0.725c0.125,0.181,0.365,0.545,0.484,0.726s0.363,0.545,0.48,0.725
									c0.123,0.181,0.361,0.545,0.48,0.726c0.121,0.181,0.361,0.542,0.48,0.725c0.119,0.181,0.363,0.544,0.48,0.726
									c0.119,0.178,0.359,0.544,0.484,0.722c0.119,0.183,0.357,0.547,0.482,0.726c0.117,0.181,0.359,0.547,0.477,0.728
									c0.117,0.179,0.361,0.542,0.48,0.725c0.119,0.181,0.357,0.544,0.48,0.726c0.121,0.178,0.363,0.541,0.48,0.723
									c0.121,0.183,0.363,0.544,0.482,0.725c0.117,0.179,0.359,0.547,0.477,0.723c0.123,0.183,0.367,0.545,0.484,0.729
									c0.119,0.177,0.361,0.542,0.48,0.721c0.117,0.181,0.359,0.544,0.484,0.728c0.119,0.18,0.359,0.544,0.479,0.725
									c0.119,0.179,0.363,0.542,0.479,0.725c0.117,0.179,0.361,0.542,0.482,0.728c0.117,0.174,0.359,0.542,0.477,0.723
									c0.125,0.179,0.367,0.545,0.484,0.721c0.119,0.183,0.363,0.547,0.48,0.729c7.916,12.126,19.379,20.728,34.018,23.687
									c18.115,3.663,36.432-2.216,51.078-14.809L852.797,366.994L852.797,366.994z"/>
							</g>
						</g>
					</g>
				</g>
			</g>
			<g id="Laag_13_1_">
				<g id="path3924_1_">
					<g>
						<circle fill="#FFFFFF" cx="643.567" cy="133.19" r="73.922"/>
					</g>
				</g>
				<g id="path3089_2_">
					<g>
						<g>
							<path fill="#56E295" d="M673.049,74.418l-1.846,0.569c0,0,0.844,0.485,0.938,0.817c0.273,0.211,0.934,0.031,0.934,0.031
								l-0.184,0.908c0,0,1.357,1.061,1.145,1.33c-0.213,0.271,2.479,0.186,2.479,0.186l2.75-0.386l0.816-0.935l-0.873-1.119
								l-4.949-0.375L673.049,74.418z"/>
							<path fill="#56E295" d="M615.108,65.687l1.088,0.064l2.627-0.568l2.057-0.842L621,64.523l-1.604,0.932l-0.395,0.393
								l-1.33,0.359l0.877,0.333l-0.273,0.575l1.084,0.062l1.242-0.692l0.846,0.486l0.359,0.544l1.207,0.245l0.184-0.905
								l-1.535-1.726l-0.363-0.544l-0.059-0.483l0.729,0.303l0.48,0.725l0.906-0.601l1.391,0.125l1.572-0.782l0.15-0.754
								l1.273-0.843l-0.604-0.908l1.813,0.366l1.658,0.335c0,0,0.813-0.149,0.936,0.034c0.09,0.333,1.143,1.331,1.143,1.331
								l-0.541,0.361l-2.027-0.094l-0.635,0.814l1.328,0.425l1.27-0.842l1.238,0.093l-0.064,1.088c0,0-1.51,0.481-1.664,0.449
								c-0.148-0.029-0.994,0.27-0.994,0.27l-0.186,0.907l-1.236-0.095l-1.299-0.578l-0.604-0.122l-1.203,0.544l0.598,0.903
								c0,0,1.301-0.208,1.484-0.328c0.182-0.118,0.844-0.3,0.936,0.034c0.09,0.333,0.725,1.09,0.725,1.09l0.357,1.33l0.813,0.636
								l1.689,0.969c0,0,1.299,0.578,1.268,0.729c-0.029,0.15,0.002-0.787,0.002-0.787l-0.814-1.418c0,0,0.064-0.303,0.367-0.241
								c0.273,0.211,0.904,0.969,0.904,0.969c0.146,0.029,0.932,0.815,0.932,0.815l0.67-0.962l0.992-0.271l-0.18-0.664l-0.359-0.544
								l-0.332-0.695l0.152-0.756c0,0,0.182-0.12,0.334-0.089c0.182-0.12,0.693-0.331,0.662-0.18
								c0.121,0.18,0.783,1.571,0.783,1.571l0.875,0.334l0.607-0.662l1.236,0.094l0.273-0.572l1.115-0.091l-1.236-1.663
								l-1.025-0.364l-0.635,0.028l-0.451-0.878l0.727-0.481l0.488-0.845l-0.604-0.905l-1.178-0.395l-0.18-0.666
								c0,0-1.023-0.365-1.057-0.213c-0.178,0.122-0.719-1.089-0.719-1.089l-0.301-0.846c-3.684,0.355-7.434,1.012-10.941,2.032
								l-0.209,0.271l-1.18,0.391L622.27,62.9l-1.148,0.238l-0.09-0.332c-4.016,1.231-7.828,2.974-11.518,4.898
								c1.814-0.417,4.838-1.378,4.838-1.378L615.108,65.687z"/>
							<path fill="#56E295" d="M678.807,93.338l0.785,0.002l0.662-0.182l0.186-0.118l1.082,0.062l0.24-0.422l0.396-0.395
								l0.277-1.357l0.662-0.18l0.033-0.936l-0.844-0.486l-0.73-0.305l0,0l-0.479,0.06l-0.545,0.362l-0.543,0.361
								c0.334-0.089,0.482-0.059,0.422,0.242c-0.033,0.152-0.363,0.24-0.363,0.24l-0.303-0.061l-0.271-0.211l-0.455-0.091
								l-0.213,0.27l0.063,0.483l-0.514,0.211l0.238,0.364l0.422,0.24l-0.09,0.454l-0.455-0.092l-0.66,0.181l-0.273,0.573
								l0.393,0.395L678.807,93.338z"/>
							<path fill="#56E295" d="M682.987,88.997c0.117,0.18,0.24,0.363,0.24,0.363c-0.029,0.15,0.424,0.243,0.424,0.243l0.48-0.059
								l-0.541,0.362c0,0-0.063,0.303,0.059,0.482c0.117,0.18,0.449,0.09,0.449,0.09s0.787,0.003,0.938,0.034
								c0.148,0.03-0.061,0.302-0.061,0.302l0.209,0.516c0,0,0.027,0.633-0.004,0.785s-0.33,0.09-0.33,0.09
								s-0.635,0.027-0.762-0.154c-0.146-0.029-0.328,0.09-0.689,0.332c-0.209,0.273-0.031,0.15-0.031,0.15l0.453,0.092
								c0,0-0.061,0.303-0.094,0.453c-0.029,0.148-0.363,0.24-0.48,0.057c-0.146-0.029-0.816,0.152-0.816,0.152l-0.092,0.453
								l0.727,0.302l0.721,0.304l0.121,0.181c0,0-0.484,0.057-0.602-0.122c-0.119-0.181-0.543,0.361-0.543,0.361l-0.365,0.242
								l-0.879,0.449l0.422,0.243l0.365-0.241l0.6,0.122l0.635-0.028l0.545-0.361c0.15,0.031,1.055,0.213,1.055,0.213
								s0.789,0.003,0.938,0.033c0.15,0.031,0.727,0.304,0.727,0.304c0.15,0.03,1.42-0.026,1.42-0.026s0.393-0.393,0.422-0.545
								c0.031-0.148-0.24-0.363-0.391-0.395c-0.121-0.18,0.334-0.089,0.512-0.209c0.184-0.121,0.396-0.391,0.428-0.543
								c0.18-0.121-0.059-0.484-0.029-0.633c0.029-0.151-0.455-0.092-0.574-0.273c-0.146-0.029-0.602-0.121-0.602-0.121l0.123-0.604
								c0,0-1.111-2.266-0.932-2.387c0.029-0.15-0.148-0.816-0.301-0.848c-0.148-0.029-0.271-0.211-0.51-0.574
								c-0.09-0.334,0.424-0.542,0.424-0.542s0.574-0.512,0.756-0.634c0.031-0.15,0.092-0.452-0.027-0.633
								c-0.152-0.032-1.209-0.246-1.209-0.246l-0.238-0.363c0.029-0.149,0.332-0.089,0.48-0.059c0.15,0.031,0.814-0.934,0.969-0.902
								c0.152,0.029-0.092-0.333-0.092-0.333l0,0l-0.482,0.06l-0.574,0.511c0,0-0.482,0.059-0.6-0.122
								c-0.121-0.182-0.453-0.092-0.602-0.121c-0.152-0.029-0.514,0.209-0.514,0.209s-0.547,0.361-0.695,0.332
								c-0.15-0.03-0.727,0.482-0.727,0.482l-0.094,0.453c0,0-0.178,0.119-0.332,0.088c-0.148-0.029,0.029,0.633,0.029,0.633
								l0.422,0.244c0,0-0.209,0.272-0.332,0.09C683.077,88.543,682.715,88.786,682.987,88.997z"/>
							<path fill="#56E295" d="M632.702,157.39c0,0-1.447-0.607-1.418-0.758c0.031-0.153-2.078-2.937-2.225-2.966
								c0,0-0.846-1.268-1.059-1.002c-0.209,0.277-2.172-0.12-2.172-0.12l-1.873-0.853c0,0-1.027,0.422-0.814,0.15
								c0.213-0.268,0.365-1.809,0.305-1.51c-0.061,0.303-2.895-2-2.895-2l-1.238,0.693l0.184-0.906l-1.447-1.391l0.428-1.33
								l-0.484-0.723c0,0-0.18,0.119-0.148-0.03c0.029-0.151,0.066-2.657,0.066-2.657l-2.02-2.455l-2.84-0.729l-2.291-1.877
								l-0.328-1.48c0,0-1.357-1.061-1.326-1.211c0.029-0.15-0.453-0.092-0.574-0.273c-0.148-0.029,0.154-0.752,0.154-0.752
								l-0.631-0.755l-0.271-0.212l-0.574-0.275l-0.182-0.661c0,0,1.482-0.327,1.334-0.357c-0.154-0.031-3.115-0.16-3.115-0.16
								l-0.422,0.543l-1.209-1.029l-2.236-0.606c0,0-1.537-0.941-1.477-1.241c0.031-0.153-0.268-0.999-0.268-0.999
								s-0.484,0.847-0.668,0.965c-0.238,0.424-1.48,1.115-1.48,1.115l-0.16,1.542l-0.568-1.06l0.758-0.635l0.211-1.057
								c0.031-0.148,0.85-0.301,0.85-0.301l-0.184-0.661c0,0-0.932-0.036-0.963,0.12c-0.033,0.152-1.211,0.539-1.211,0.539
								l-1.451,0.178l-0.602-0.122c0,0-0.816,0.935-0.967,0.904s-0.332,0.878-0.332,0.878s-1.848,1.354-1.967,1.172
								c-0.123-0.182-1.357-1.844-1.357-1.844l-2.025-0.096l-1.176,0.389l-1.172-1.179l-0.723-1.873l0.52-1.781l1.027-1.994
								l0.578-1.297l-1.146-1.332c0,0-2.928-0.275-2.898-0.426c0.031-0.153-1.512-0.306-1.48-0.46
								c0.031-0.148,0.818-0.931,0.85-1.085c0.031-0.149,0.699-1.114,0.699-1.114l0.844-1.088l1.213-2.11l0.605-0.663l-2.533-0.67
								l-1.484,0.33l-1.393,2.233l-4.137,0.26l-0.906-0.967c0,0-0.24,0.425-0.029,0.149c0.061-0.302-0.84-2.056-0.84-2.056
								l-0.145-2.386c0,0,2.605-4.343,2.455-4.373c-0.029,0.15,0.334-1.658,0.334-1.658l5.654-2.318l1.904,0.703l0.359,0.542
								l1.238,0.095l1.453-0.963l1.479,0.456l1.572,0.005l0.689,1.239l1.451-0.177l0.604,0.907l0.361,0.544l-0.15,0.758
								l-0.457,0.691l-0.033,1.724l0.629,1.54l0.545,0.425l1.182-1.962l0.246-1.992l0.002-1.569l0.215-1.058l2.451-2.018
								l2.783-1.322l2.178-0.659l2.023-1.478l0.217-1.84l0.787,0.002l1.088-1.508l0.725,0.302l1.877-1.505l2.6-0.418l1.57,0.003
								l0.543-0.362l-0.48-0.725l1.545-1.416l3.926-0.777l2.387-0.146l-2.055,0.84l0.119,0.967l1.447-0.178l1.031-0.42l2.717-0.236
								l0.605-0.66c-0.211,0.271,1.42-0.029,1.42-0.029l-0.178-0.664l0.303-0.725l-0.82,0.148l-1.299,0.994l-1.781-0.518
								l-0.508-1.357l0.965-0.908c0,0,1.092-1.506,1.061-1.355c-0.029,0.148-1.117-0.697-1.117-0.697l-1.932,0.236
								c-0.15-0.029-2.174,0.661-1.998,0.54c0.031-0.151-0.996,0.269-0.996,0.269l2.813-1.473l1.09,0.063l1.268-0.843l5.436,1.1
								l1.873,0.064l2.691-0.872l0.088,0.335l-1.27,0.842l-1.48,1.113l-1.637,1.086l-0.756,0.633l1.934,0.547
								c0,0,1.508,0.305,1.664,0.336c0.146,0.029,0.174,0.664,0.174,0.664l0.879-0.451l0.238,1.15l1.574-0.783l-0.209-1.3
								l0.699-1.114l-1.662-0.336l0.123-0.604c0,0-0.453-0.879-0.484-0.727c-0.029,0.15,1.063-0.572,1.063-0.572
								c-0.033,0.152-0.363-0.543-0.363-0.543l1.332-1.146l-0.299-1.631l-0.148-0.816l-1.357-1.06l-0.301-0.847l-0.51-0.574
								l0.695-1.115l-0.123-0.967l0.127-2.96c-0.029,0.149-2.297,1.264-2.297,1.264l-2.148,0.508l-0.752-0.937l0.396-1.178
								l1.088-0.723l-1.416-0.759l-0.061-0.483c0,0-1.084-1.633-1.115-1.479c-0.18,0.117-0.543,0.359-0.543,0.359l-2.959-0.913
								l-1.42,1.599l-0.518,0.994c0,0-1.996,1.326-2.33,1.415c0.15,0.03,0.754,0.938,0.754,0.938l-1.092,1.506l-3.021,0.961
								l-1.389-0.125c0,0-1.336,2.719-1.365,2.868c-0.031,0.149-1.207,0.541-1.207,0.541l-0.787,0.782l-0.09-1.117
								c0,0-0.152-0.813-0.24-1.147c0.121,0.181,0.875,0.333,0.875,0.333l0.273-0.572l-0.764-0.154l0.518-0.996l0.996-1.053
								l-2.383-0.639l-0.484-0.727l-1.174-0.396l-0.059-0.483l-0.816-0.636l-0.783-0.787l-1.086-0.063l0.184-0.905l0.488-0.844
								l-1.148-0.546c-17.119,10.039-30.143,27.047-34.656,47.815l1.146,0.547l1.932-0.235l1.088,0.846l1.381,2.479l1.723,0.818
								l1.688,0.971l0.906,0.184l0.09,1.114c0,0,0.691,1.241,0.813,1.422c0.119,0.181-0.277,1.358-0.277,1.358l0.664,0.607
								l0.691,1.238l0.482,0.727l0.449,0.877l0.516-0.213l0.844,0.486l0.994,1.298l0.846-0.299l-0.119-0.967l0.91-0.605l0.604,0.122
								l0.633,0.757l-0.123,0.607l0.631,1.539l-0.764,3.775l-0.996,1.056l-1.211,0.541l-0.213,1.057l-1.117,0.091l-0.758,1.415
								l-0.877,1.238l-0.063,1.087l0.719,1.09l-1.086,0.721l-0.787,0.784l0.236,1.934c0,0,0.119,0.967,0.148,0.815
								c0.033-0.149,0.787,0.787,0.787,0.787l0.986,3.659l1.055,2.568c0,0,1.316,5.137,1.469,5.168
								c0.662,0.604,4.879,5.386,4.879,5.386l-0.012,4.71l-1.648,9.725l0.207,2.868l-0.396,1.178
								c3.377,3.512,7.115,6.782,11.277,9.506c0.453,0.091,1.027,0.364,1.027,0.364l2.234-0.176c0,0,1.061-1.356,1.09-1.507
								c0.061-0.303,0.213-1.056,0.213-1.056s0.123-0.604-0.328-0.693c-0.457-0.093-0.396-0.394-0.451-0.876
								c-0.059-0.482-0.238-1.146-0.238-1.146l-0.633,0.028l0.723-0.479l1.025,1.144l1.748,0.673l1.82-1.204l1.541-2.204l0.82-1.719
								l0.902,0.182l1.424-1.598l0.791-1.567l-0.359-2.116l0.605-0.661l3.75-1.445l2.566-0.266l0.877-0.45
								c0,0,1.545-1.414,1.576-1.567c0.029-0.151,0.971-2.476,0.971-2.476s1.182-2.744,1.063-2.925
								c0.031-0.15,0.699-2.687,0.549-2.717c-0.146-0.03,0.154-0.755,0.154-0.755l3.086-2.834l1.574-2.351
								c0,0,1.033-1.207,1.063-1.359C633.03,159.655,632.702,157.39,632.702,157.39z"/>
							<path fill="#56E295" d="M674.446,70.616l1.479,0.456c0,0,0.818-1.721,0.578-2.085c-0.27-0.209,1.332-1.145,1.332-1.145
								s0.182-0.12,0.336-0.088c-6.096-3.275-12.709-5.554-19.805-6.99l0,0c-2.865-0.579-5.764-1.008-8.695-1.287l0.725,0.304
								c0,0,1.51,1.089,1.748,1.454c0.244,0.362-0.061,1.087-0.184,1.69c-0.242,0.422-0.426,0.542-0.971,0.903
								c-0.422,0.542,0.695,0.455,0.695,0.455l1.238,0.876c0,0-0.453-0.09-0.938-0.03c-0.637,0.028-1.418,0.025-1.418,0.025
								l-0.365,1.028l1.904-0.087l-0.273,0.573l-1.42,0.027l-1.664,1.235l-0.758,2.989l-0.223,2.625l0.332,2.266l1.178,0.397
								l1.172,1.18l1.846,0.214l2.33-2.197l2.328-1.417l0.818-0.934l1.027-0.416l2.205-0.027l2.689-0.084
								c0,0,2.752-1.171,3.084-1.262C667.256,71.205,674.446,70.616,674.446,70.616z"/>
							<path fill="#56E295" d="M717.493,137.456l-0.686-2.024c0,0-0.631-3.114-0.748-3.293c-0.119-0.181-0.422-1.028-0.268-0.997
								c0.148,0.029,1.234,0.092,1.234,0.092s0.213,0.516,0.48,0.727c-0.088-1.905-0.174-3.805-0.256-5.709
								c-0.031,0.15-0.211,0.271-0.396,0.392c-0.363,0.241-1.027,0.422-1.27,0.058c-0.242-0.361-1.627-0.486-1.781-0.516
								c-0.146-0.03-1.658-0.336-2.025-0.096c-0.209,0.271-1.385-0.122-1.508-0.305c-0.121-0.181-2.355-1.576-2.504-1.605
								c-0.15-0.029-1.236-0.878-1.357-1.061c-0.121-0.185-1.297-0.578-1.266-0.728c0.029-0.151,0.211-0.272-0.09-0.332
								c-0.152-0.032-1.6,0.146-1.779,0.265c-0.186,0.121-0.699,0.332-0.699,0.332s-0.725,0.481-0.668,0.965
								c-0.09,0.453,0.451,0.877,0.242,1.149c-0.215,0.271-0.998,0.271-0.998,0.271s-0.631-0.756-0.752-0.939
								c-0.275-0.211-2.324-0.942-2.324-0.942l-0.691-1.239c0,0-1.178-1.18-1.295-1.363c-0.152-0.031-1.664-0.337-1.936-0.547
								c-0.273-0.21-0.662-1.392-1.143-1.33c-0.305-0.062-0.182-0.664-0.029-0.634c0.182-0.121,0.787-0.784,0.666-0.966
								c0.031-0.148,0.482-0.845-0.059-1.268c-0.393-0.394,0.064-1.086,0.064-1.086s0.482-0.06,0.33-0.09
								c-0.15-0.031-0.904-0.184-1.025-0.363c-0.084-0.332-0.238-0.363-0.387-0.394c-0.184,0.12-1.422,0.027-1.574-0.003
								c-0.152-0.031-1.238-0.094-1.537-0.155c-0.154-0.032,0,0-0.154-0.032c-0.299-0.061-1.299,0.211-1.33,0.359
								c-0.029,0.15-1.055-0.212-1.055-0.212c-0.146-0.03-1.51-0.306-1.51-0.306l-2.355-0.005c0,0-1.662,0.448-1.725,0.751
								c-0.061,0.301-0.574,0.513-0.756,0.633c-0.178,0.119-1.055-0.215-1.025-0.365c0.031-0.15-1.508-0.305-1.508-0.305
								s-0.545-0.426-0.727-0.303c-0.18,0.119-0.029-0.636-0.029-0.636l0.426-0.542l1.027-0.419l2.025,0.095l1.18-0.39l0.664-0.181
								l0.484-0.846c0,0,0.787,0.001,0.662-0.182c0.031-0.15-0.15-0.818-0.15-0.818l1.783-1.836l2.15-0.51l0.424-0.541
								c0,0,0.033-0.938,0.184-0.907c0.18-0.12,1.449-0.179,1.449-0.179l1.568,0.789c0,0,1.027-0.42,1.176-0.389
								c0.184-0.12,1.18-0.391,1.18-0.391s0.242-0.423,0.396-0.391c0.15,0.031,1.084,0.063,0.992,0.515
								c0.09,0.334,0.449,1.662,0.449,1.662l0.846,1.27l0.898,0.97l1.119,0.697c0,0,0.631,0.756,0.754,0.936
								c0.152,0.031,0.721,1.09,0.721,1.09l0.18,0.664c0,0-0.238,0.424-0.602,0.664c-0.213,0.273-0.941,0.754-1.061,0.571
								c-0.148-0.028-1.146-0.544-1.146-0.544l-1.238-0.095c0,0-0.213,0.272,0.059,0.483c0.236,0.363,0.725,0.303,0.963,0.666
								c0.271,0.211,1.084,0.847,1.084,0.847s0.576,0.272,0.545,0.425s0.213-0.271,0.305-0.722c0.061-0.304,0-0.787,0.484-0.847
								c0.33-0.09,0.904,0.183,0.934,0.032c0.031-0.151,0.213-0.271,0.213-0.271l0.543-0.361l0.061-0.303l0.514-0.213
								c0,0-0.24-0.361-0.359-0.542c-0.088-0.331-0.393-0.393-0.178-0.666c0.207-0.271,0.723-0.481,0.996-0.269
								c0.27,0.212,0.844,0.485,0.814,0.636c-0.063,0.304-0.123,0.604,0.057,0.482c0.178-0.12,0.184-0.906,0.184-0.906
								s-0.213-0.513-0.637-0.755c-0.303-0.063-1.117-0.697-1.234-0.877c-0.271-0.213-0.541-0.426-0.541-0.426
								s0.238-0.424-0.057-0.483c-0.305-0.062-1.027-0.363-0.996-0.515s-0.754-0.938-0.723-1.091c0.029-0.151-0.51-1.358-0.51-1.358
								s-0.363-0.545-0.332-0.695s-0.09-0.334,0-0.785c-0.084-0.332,1.184-1.175,1.152-1.025c-0.029,0.152,0.242,0.365,0.299,0.847
								c0.059,0.483,0.662,1.392,0.783,1.574c0.088,0.332,0.838,1.27,1.115,1.481c0.268,0.21,0.389,0.394,0.779,0.786
								c0.426,0.241,0.395,0.396,0.936,0.816c0.541,0.424,0.664,0.605,0.664,0.605c0.115,0.182,0.42,0.243,0.537,0.424
								c0.094,0.334,0.244,0.366,0.217,0.516c-0.063,0.302,0.086,0.333-0.004,0.782c-0.24,0.423-0.424,0.545-0.303,0.727
								c-0.031,0.15,0.539,1.995,0.84,2.057c0.305,0.061,1.27,0.728,1.025,1.15c-0.271,0.572,0.328,1.479,0.328,1.479
								s0.602,0.122,1.023,0.364c0.061-0.302,0.184-0.904,0.518-0.996c0.514-0.209,1.148-0.238,1.059-0.57s-0.027-0.635-0.418-1.028
								c-0.244-0.366-0.666-0.606-0.723-1.091c-0.059-0.483-0.09-1.115,0.332-0.875c0.42,0.242,0.543,1.209,0.961,0.666
								c0.277-0.57,0.818-0.934,1.09-0.723c0.273,0.213,0.848,0.486,0.787,0.789c-0.031,0.15,0.115,1.75,0.115,1.75
								s0.117,0.182,0.117,0.967c0,0.789,0.572,1.061,0.391,1.18c-0.211,0.272-0.361,0.242,0.363,0.545s1.477,0.453,1.416,0.757
								c-0.031,0.15,0.545,0.424,0.664,0.606c0.123,0.182,0.516,0.575,0.727,0.305c0.211-0.275,0.488-0.847,0.604-0.666
								c0.119,0.182,1.328,0.425,1.268,0.728s0.541,0.425,0.666,0.605c-0.479-2.295-0.959-4.592-1.59-6.919l-1.568-0.79
								l-0.965-0.665l-0.48-0.725l0.455,0.091v-0.786l0.244-0.422l0.514-0.212l0.486-0.845c-1.801-5.076-4.121-9.942-6.797-14.572
								c-0.18,0.121-0.697,0.333-0.848,0.303c-0.15-0.031-0.66,0.178-0.754-0.152c-0.119-0.182-0.182-0.667-0.182-0.667
								s-0.088-0.333-0.119-0.182c-0.031,0.153-0.482,0.062-0.482,0.062l-0.818,0.146c0,0-0.516,0.212-0.695,0.334
								c-0.146-0.031-0.598-0.122-0.783-0.004c-0.18,0.121-0.879,0.451-0.967,0.12c-0.117-0.183-0.334,0.089-0.42-0.243
								c-0.092-0.329,0-0.783-0.186-0.664c-0.146-0.031-0.783-0.002-0.814,0.15c-0.031,0.149-0.18,0.119-0.361,0.238
								c-0.182,0.122-1.119,0.09-1.119,0.09l0.029-0.15l1.24-0.692l0.486-0.845c0,0,0.873,0.334,0.992,0.516
								c-0.031,0.149,0.365-0.241,0.457,0.091c0.27,0.212,0.57,0.272,0.508,0.575c-0.031,0.15,0.059,0.482,0.244,0.364
								c0.029-0.149,0.123-0.603,0.123-0.603s-0.277-0.213-0.393-0.394c-0.121-0.183-0.059-0.483,0.09-0.454
								c0.18-0.121,0.664-0.18,0.816-0.148c0.121,0.18,0.785,0.002,0.785,0.002s0.182-0.12,0.211-0.273
								c0.033-0.15,0.637-0.813,0.637-0.813s-0.275-0.213-0.215-0.516l0.033-0.15c-1.928-2.902-4.217-5.564-6.535-8.077
								c-0.482,0.06-0.967,0.119-0.967,0.119l-1.451,0.964c0,0-0.426,0.542-0.605,0.662c-0.029,0.149-0.217,1.842-0.217,1.842
								s0.756,0.153,0.539,0.424c-0.178,0.12-0.393,1.177-0.393,1.177l0.783,0.786c0,0,1.119,0.697,1.299,0.578
								c0.15,0.029,0.846-0.301,0.846-0.301c0.148,0.03,0.91-0.601,1.207-0.539c0.15,0.029,0.879-0.451,0.967-0.12
								c-0.029,0.149-0.063,1.085,0.059,1.268c0.123,0.182,0.514,0.573,0.572,1.058c0.061,0.483,0.271,0.998,0.123,0.969
								c-0.033,0.15-0.547,0.36-0.547,0.36s-0.934-0.031-1.119,0.089c-0.178,0.12-0.33,0.09-0.48,0.06
								c-0.148-0.03,0.393-0.392,0.572-0.515c0.184-0.119-0.025-0.632-0.178-0.663c-0.152-0.03-0.242-0.364-0.09-0.333
								c0.18-0.121,0.303-0.725,0.303-0.725s-0.119-0.181-0.301-0.061c-0.152-0.031-1.301,0.207-1.301,0.207
								s-0.725,0.484-0.756,0.635c-0.029,0.15-0.455,0.693-0.395,1.177c0.059,0.482,0.359,1.329,0.359,1.329
								s0.391,0.393,0.211,0.516c-0.184,0.121-0.576,0.512-0.576,0.512l-0.754-0.154c0,0-1.387-0.123-1.572-0.002
								c-0.148-0.029-1.449,0.178-1.48,0.328s-0.607,1.449-0.607,1.449s-1.541,0.633-1.693,0.603
								c-0.15-0.03-1.117,0.087-1.117,0.087s-0.697,1.117-0.666,0.964l-1.664,0.451c0,0-2.266-1.245-2.232-1.396
								c0.029-0.15-0.361-0.544-0.395-0.394c-0.029,0.149,0.24,1.147,0.209,1.3c-0.029,0.15-0.123,0.604-0.09,0.453
								c-0.119-0.18-0.693-0.455-0.816-0.636c-0.148-0.03-1.207-0.244-1.207-0.244l-0.453-0.093l-0.691,0.332l-0.09,0.453
								l0.238,0.363l0.965,0.666l0.934,0.816l0.236,1.148l0.271,0.998l-0.697,1.901c-0.029,0.15-0.879,0.449-0.879,0.449
								l-2.084-0.577c0,0-1.025-0.364-0.996-0.516c-0.148-0.031-1.539-0.154-1.51-0.305c0.033-0.151-0.422-0.242-0.422-0.242
								l-0.086-0.333l-0.605-0.123l-0.754,0.634l-0.76-0.152l-0.121,0.603l0.063,1.269c0.033-0.15-0.457,1.48-0.457,1.48
								s-0.879,1.237-1.059,1.357l-0.182,0.906l0.326,0.693l-0.15,0.754c0,0-0.457,0.693-0.273,0.573
								c0.15,0.03,1.057,0.215,1.24,0.095c0.031-0.15,0.695-0.332,0.785,0.002c0.123,0.182,0.455,0.091,0.541,0.423
								c0.088,0.332,0.268,0.998,0.236,1.148c-0.029,0.149,0.275,0.212,0.275,0.212l0.088,0.332l-0.18,0.121l-1.121,1.658
								l-1.904,0.871l-1.176,0.393l-0.459,0.691l-0.545,0.361l-0.332,0.876c0,0-0.094,1.238-0.242,1.208l-2.723,1.805l-1.27,0.059
								l-0.998,1.055c0,0-1.088,0.723-1.271,0.843c-0.031,0.151-0.756,0.635-0.756,0.635s0.121,0.966,0.152,0.815
								c0,0,0.418,1.027,0.512,1.36c0.443,3.232,0.625,4.684-0.441,7.609c-0.822,2.504-3.756,5.368-5.752,6.693l-0.242,0.423
								c0,0,0.359,0.543,0.539,0.423c0.184-0.118,0.936,0.819,1.059,1.001c0.119,0.184,0.871,1.904,0.871,1.904l0.088,0.332
								l0.205,2.084c0,0,2.262,2.817,2.291,2.665c0.031-0.152,2.441,2.693,2.441,2.693l2.479-0.6
								c-0.031,0.153,1.994,0.247,1.994,0.247l1.174,0.393l0.814,0.641l3.475-0.87l0.693-0.329l2.447,0.336l1.117,0.697
								c0,0,0.512,1.357,0.48,1.512c-0.029,0.15,0.24,1.146,0.422,1.026c0.029-0.148,2.775,0.247,2.898,0.432
								c0.148,0.03,0.959,1.448,0.959,1.448l-0.211,1.06l-0.547,1.934l-0.635,0.813l-0.486,0.844l-0.27,0.573
								c0,0,2.043,4.655,2.014,4.809c-0.031,0.147,0.42,1.812,0.42,1.812l0.477,2.294l0.209,1.299l-0.604,0.663l0.324,2.269
								l-0.727,2.048l-1.754,2.475l-1.004,1.841l-0.371,2.597l0.902,3.326l0.809,3.777l-0.613,3.802l0.482,1.513
								c16.57-10.476,29.082-27.271,33.295-48.105C716.877,144.401,717.247,141.018,717.493,137.456z"/>
							<path fill="#56E295" d="M597.653,120.137c0.275,0.211,0.605,0.121,0.756,0.152c0.154,0.03,0.785,0.001,0.785,0.001
								s0.061,0.482,0.029,0.634c-0.029,0.151,0.906,0.184,0.938,0.031c0.029-0.147,0.395-0.39,0.395-0.39l1.268-0.059l1.658,0.335
								c0.152,0.031,0.367-0.24,0.152-0.754c-0.209-0.514-0.932-0.817-0.99-1.3c-0.092-0.332-1.027-0.363-1.363-0.274
								c-0.326,0.091-1.445-0.607-1.902-0.699c-0.299-0.061-0.09,0.453-0.09,0.453l-0.246,1.208l-1.508-0.306l-0.029,0.151
								c0,0-0.486,0.059-0.547,0.36C596.897,119.985,597.383,119.924,597.653,120.137z"/>
							<path fill="#56E295" d="M598.446,116.997c0.031-0.15-0.691-0.454-0.994-0.516c-0.301-0.061-1.385-1.694-1.477-2.027
								c-0.088-0.329-2.953-1.695-2.953-1.695s-3.441-0.854-3.408-1.006c0.027-0.149-1.908,0.873-1.908,0.873l-0.029,0.15
								c0,0,0.027,0.633-0.004,0.784c-0.031,0.152,1.211-0.541,1.42-0.813c0.213-0.269,0.998-0.269,1.18-0.389
								c0.18-0.119,0.211,0.514,0.359,0.545c0.156,0.031,0.996,0.516,0.996,0.516l1.537,0.939l0.482,0.725
								c0,0-0.002,1.572-0.033,1.723c-0.031,0.147,1.18,0.391,1.18,0.391l2.475,0.19
								C597.571,117.45,598.417,117.149,598.446,116.997z"/>
						</g>
					</g>
				</g>
			</g>
			<g id="Laag_22_1_">
				<g>
					<g>
						<path fill="#FFFFFF" d="M614.415,137.787l19.42,22.755c0.559,0.84,1.395,1.49,2.551,1.724
							c0.928,0.188,2.189-0.038,3.025-0.597c9.537-6.531,24.053-16.166,25.727-17.274c0.229,0.046,0.275-0.185,0.563-0.369
							c3.723-2.878,7.539-6.215,8.994-13.409c2.205-10.92-6.375-19.154-16.363-21.176c-4.875-0.984-9.711,0.215-13.664,3.038
							c-2.547-4.14-6.768-7.169-11.414-8.108c-9.984-2.02-19.9,5.163-22.107,16.074
							C609.555,127.137,610.934,133.458,614.415,137.787z"/>
					</g>
					<path fill="#07934A" d="M670.698,130.049c1.74-8.591-5.316-14.828-13.207-16.424c-5.572-1.127-10.926,1.415-14.232,5.822
						c-1.289-5.578-5.512-9.814-10.852-10.895c-7.893-1.596-15.574,4.102-17.357,12.924c-1.08,5.341-0.209,10.592,2.943,14.133
						l19.373,22.989c0,0,26.85-18.015,25.965-17.231C666.874,138.221,669.571,135.624,670.698,130.049z"/>
				</g>
			</g>
		</g>
	</g>
	<g id="Layer_4">
	</g>
	<g id="Layer_6">
	</g>
	<g id="Layer_7">
	</g>
	<g id="Layer_8">
	</g>
	<g id="Layer_44">
		<path fill="#56E295" d="M689.26,62.459c0,0,3.568-40.474-53.457-48.568c-57.021-8.095-72.057,20.879-77.838,28.171
			c-5.781,7.292-32.379,46.138-64.758,40.977c0,0,28.139,14.805,63.215-27.171c35.078-41.977,63.936-39.664,79.381-35.039
			C651.247,25.455,674.776,29.837,689.26,62.459z"/>
		<path fill="#56E295" d="M692.108,207.126c0,0-7.721,32.198-33.945,31.508c-44.498-1.175-69.822-24.5-95.57-67.989
			c-12.549-21.191-23.129-36.572-53.773-31.037c0,0,20.723-26.787,60.811,30.349c42.492,60.564,56.354,63.862,88.533,62.493
			C673.682,231.788,678.17,225.317,692.108,207.126z"/>
		<path fill="#56E295" d="M728.997,104.262c0,0,30.449-67.336-18.119-82.302c-48.568-14.967-79.41-18.821-119.861,27.499
			c-30.355,34.762-16.016,54.252-54.367,64.705c0,0,21.584,18.334,58.26-59.373c17.307-36.668,83.957-43.921,113.273-27.626
			C734.491,41.792,737.918,54.328,728.997,104.262z"/>
		<path fill="#56E295" d="M763.731,154.258c0,0-4.32,40.678-66.906,36.053s-25.408-47.365-52.564-57.18
			c-27.463-9.924-46.254,5.912-51.652,14.393c0,0,22.229-31.691,54.736-17.215c32.506,14.477,4.883,52.107,45.896,56.532
			C734.254,191.267,747.516,177.952,763.731,154.258z"/>
		<path fill="#56E295" d="M754.459,88.016c0,0,10.057-31.49-100.957,1.885C653.502,89.901,745.358,71.004,754.459,88.016z"/>
		<path fill="#56E295" d="M741.731,187.42c-6.939,21.839-6.939,32.632-37.006,41.113c-30.066,8.479-74.578-11.094-151.002-29.832
			c-76.42-18.737-41.729-14.619-76.42-11.281c0,0,29.271-11.607,76.42,6.09c47.15,17.698,122.59,29.659,151.002,23.622
			C733.141,211.093,741.731,187.42,741.731,187.42z"/>
	</g>
</g>
</svg>
