<?xml version="1.0" encoding="utf-8"?>
<!-- Generator: Adobe Illustrator 16.0.0, SVG Export Plug-In . SVG Version: 6.00 Build 0)  -->
<!DOCTYPE svg PUBLIC "-//W3C//DTD SVG 1.1//EN" "http://www.w3.org/Graphics/SVG/1.1/DTD/svg11.dtd">
<svg version="1.1" xmlns="http://www.w3.org/2000/svg" xmlns:xlink="http://www.w3.org/1999/xlink" x="0px" y="0px"
	 width="850.394px" height="850.394px" viewBox="0 0 850.394 850.394" enable-background="new 0 0 850.394 850.394"
	 xml:space="preserve">
<g id="Layer_1" display="none">
	
		<image display="inline" overflow="visible" width="3684" height="3399" xlink:href="8CDC74A3.jpg"  transform="matrix(0.9586 0 0 0.9586 99.5605 4.882813e-004)">
	</image>
</g>
<g id="Layer_17">
	<g id="Layer_23">
		<path fill="#2BA954" d="M325.967,431.584l162.528,2.367c0,0,25.256,47.738,8.979,101.495c0,0-19.267,69.46-19.584,71.876
			s-3.338,26.576-11.189,36.24c0,0-7.534,53.152-5.277,79.125c0,0,15.358,24.16,1.862,24.764
			c-13.497,0.604-39.591,5.437-42.248-5.436s-3.859-61.005-3.859-61.005s-10.915,51.944-11.501,63.421
			c-0.585,11.476-11.144,12.08-24.287,8.456s-26.281-17.517-26.281-17.517s8.262-66.44-4.098-82.748c0,0-6.759-21.141-8.654-33.824
			c0,0-5.06-21.744-9.215-32.616C333.143,586.183,296.975,524.024,325.967,431.584z"/>
		<path fill="#3B3B3B" d="M73.559,482.142"/>
		<path fill="#2BA954" d="M421.038,732.955c0,0,33.297,11.678,40.386-10.268l16.467,25.569c0,0,7.765,10.469,22.951,17.717
			c0,0,13.794,6.443,12.074,15.302c-1.721,8.858-43.128,14.496-43.128,14.496l-48.75-32.214
			C421.038,763.558,419.467,757.921,421.038,732.955z"/>
		<path fill="#3B3B3B" d="M585.288,635.509"/>
		<path fill="#2BA954" d="M407.089,733.492c0,0-42.982,16.175-50.071-5.771l-16.466,25.57c0,0-7.765,10.469-22.951,17.717
			c0,0-13.794,6.443-12.074,15.302c1.72,8.858,43.127,14.496,43.127,14.496l57.847-32.616
			C406.501,768.189,408.659,758.458,407.089,733.492z"/>
	</g>
	<g id="Layer_24">
		<path fill="#15823C" d="M375.094,481.688c0,0,12.703,16.912,33.732,21.744c0,0,29.085-7.248,34.721-21.744
			c0,0-1.208,27.784-24.309,35.032l-2.06,157.848l-14.122-157.445C403.057,517.123,375.899,499.406,375.094,481.688z"/>
	</g>
	<g id="Layer_25">
		<path fill="#2EEA93" d="M421.038,732.955c0,0,32.089,12.383,40.386-10.268c0,0-0.697-24.594,1.31-44.096
			c0,0-29.543,20.247-45.404,7.86C417.329,686.452,415.541,722.688,421.038,732.955z"/>
		<path fill="#2EEA93" d="M407.089,733.492c0,0-43.673,16.678-51.024-7.19c0,0,3.029-32.23,1.022-51.733
			c0,0,42.909,25.212,58.77,12.825C415.856,687.394,412.585,723.224,407.089,733.492z"/>
	</g>
	<g id="Layer_18">
		<path fill="#3B3B3B" d="M454.016,204.451c0,0,14.496,25.973,12.08,38.656c-2.416,12.685,71.131,37.714,67.648,85.165
			c-6.442,87.782-61.071,96.512-89.393,109.929c-15.725,7.45-84.709-1.208-84.709-1.208s-62.064-4.832-59.044-22.952
			s3.78-96.037,30.58-141.941c26.8-45.904,28.464-36.665,28.464-36.665s-17.22-27.963-6.422-36.419S454.016,204.451,454.016,204.451
			z"/>
	</g>
	<g id="Layer_16">
		
			<image overflow="visible" width="1000" height="436" xlink:href="logo_licht.png"  transform="matrix(0.1749 0 0 0.1749 325.9639 285.9883)">
		</image>
	</g>
	<g id="Layer_19">
		<path fill="#2BA954" d="M468.512,200.626c0,0,74.494,22.146,92.615,45.099c18.12,22.952,13.689,37.448,13.689,37.448
			s10.874,7.248,11.679,24.563c0.804,17.315,10.468,44.696,10.468,44.696s-67.646,46.709-75.701,56.776
			c-8.054,10.067-7.651,22.55-7.651,22.55l-79.295,8.766c0,0,72.047-20.443,74.443-60.71c1.389-23.328,28.609-70.87-21.725-105.902
			c-15.536-10.814-23.749-28.992-23.749-28.992s-0.765-18.926-7.03-28.992C449.99,205.86,468.512,200.626,468.512,200.626z"/>
	</g>
	<g id="Layer_21">
		<path fill="#2BA954" d="M365.027,235.435c0,0-12.081,1.833-35.838,46.53l-10.872,27.784c0,0-6.846,83.756,0,99.863
			c0,0,6.442,7.651,4.832,12.08l21.982,13.596h-20.774l-39.461-10.309c0,0-7.65-4.496-8.053-12.146s16.107-83.746,19.328-95.428
			l-0.403-13.292l-11.677,20.002c0,0-8.456,21.875-10.872,32.748v21.342c0,0,0,25.771-10.47,33.421c0,0-26.576-6.04-31.005-17.717
			c0,0-0.806-14.898-7.651-15.704c0,0-13.691-34.228-10.872-46.71c0,0,24.966-49.125,36.643-58.79c0,0,15.302-10.067,13.691-14.899
			c0,0,63.219-40.267,74.896-45.904C350.127,206.264,359.792,222.729,365.027,235.435z"/>
	</g>
	<g id="Layer_22">
		<path fill="#15823C" d="M546.726,309.498c-0.956-3.897-1.96-7.784-3.126-11.629c-2.528-8.341-6.036-16.982-11.637-23.76
			c-6.223-7.531-17.709-13.475-19.963-23.451c-0.514-2.279-1.355-1.794-0.841,0.482c1.766,7.818,7.23,13.606,12.594,19.257
			c7.49,7.892,12.307,16.306,15.775,26.628c0.871,2.588,1.638,5.209,2.353,7.846c-1.07-0.255-2.271,0.287-2.097,1.658
			c0.401,3.16,1.916,4.965,3.991,5.808c0.992,4.125,1.934,8.264,2.962,12.368c2.772,11.062,5.898,21.316,6.033,32.863
			c0.027,2.335,3.651,2.338,3.624,0c-0.122-10.535-2.423-20.126-5.218-30.22c-1.323-4.782-2.46-9.61-3.62-14.432"/>
		<path fill="#15823C" d="M550.894,358.292c-2.841-12.023-6.227-23.877-10.736-35.389c-4.209-10.743-9.983-20.826-15.278-31.056
			c-5.591-10.803-14.261-19.88-20.392-30.425c-3.213-5.523-6.816-10.815-10.482-16.044c-3.473-4.955-10.544-8.459-12.96-14.048
			c-0.925-2.141-1.424-1.207-0.507,0.915c2.164,5.01,5.955,8.83,9.1,13.219c3.311,4.618,6.482,9.329,9.508,14.139
			c6.535,10.389,13.949,20.114,20.545,30.433c3.025,4.732,5.181,10.025,7.823,14.972c3.314,6.209,6.493,12.322,9.149,18.86
			c4.644,11.429,7.904,23.402,10.736,35.39C547.937,361.53,551.431,360.565,550.894,358.292z"/>
		<path fill="#15823C" d="M331.771,261.35c-3.684,9.79-11.329,18.199-16.891,26.975c-5.25,8.284-9.296,17.509-10.352,27.338
			c-1.281,11.934,0.327,23.806,0.84,35.735c0.568,13.19-0.503,26.491-0.542,39.691c-0.007,2.337,3.617,2.337,3.624,0
			c0.034-11.694,0.502-23.38,0.597-35.074c0.097-12.001-1.851-23.902-1.301-35.917c0.565-12.327,5.725-23.029,12.34-33.18
			c5.212-7.998,9.37-15.594,12.761-24.605C333.673,260.122,332.585,259.184,331.771,261.35z"/>
		<path fill="#15823C" d="M481.352,268.568c-4.486-6.953-7.487-11.853-12.933-17.979c-3.841-4.321-3.847-9.216-4.603-14.608
			c-0.774-5.542-5.583-12.998-6.127-18.611c-0.223-2.305-0.879-1.353-0.653,0.974c0.502,5.185,1.649,11.418,2.818,16.488
			c0.96,4.163,0.454,9.587,2.594,13.45c4.814,8.691,14.029,13.793,19.399,22.116C483.11,272.354,482.625,270.539,481.352,268.568z"
			/>
		<path fill="#15823C" d="M510.281,397.175c-13.315,9.328-24.926,20.776-37.851,30.604c-1.834,1.395-0.033,0.92,1.829-0.495
			c12.923-9.825,24.542-17.655,37.851-26.979C514.008,398.975,512.201,395.831,510.281,397.175z"/>
		<path fill="#15823C" d="M525.215,393.432c-8.289,10.538-18.425,19.211-28.992,27.382c-1.846,1.428-1.677,2.765,0.146,1.354
			c10.566-8.17,23.119-15.635,31.408-26.174C529.206,394.179,526.66,391.596,525.215,393.432z"/>
		<path fill="#15823C" d="M519.788,310.476c-0.853-2.144-0.734-1.21,0.13,0.964c5.64,14.182,7.88,29.409,7.989,44.617
			c0.017,2.336,3.641,2.337,3.624,0C531.418,340.557,525.537,324.934,519.788,310.476z"/>
		<path fill="#15823C" d="M271.36,356.954c-3.995-8.204-12.641-13.36-18.12-20.536c-1.398-1.831-2.132-1.237-0.714,0.621
			c5.467,7.16,11.721,13.563,15.704,21.744C269.253,360.884,272.378,359.046,271.36,356.954z"/>
		<path fill="#15823C" d="M263.224,323.367c-1.505-1.792-1.639-0.422-0.146,1.354c6.202,7.382,8.858,14.409,7.925,24.087
			c-0.224,2.326,3.402,2.304,3.624,0C275.656,338.138,270.038,331.477,263.224,323.367z"/>
		<path fill="#15823C" d="M271.485,361.558c-7.931-2.993-17.268-2.956-25.368-5.436c-2.241-0.687-1.983,0.396,0.244,1.078
			c8.101,2.481,16.229,4.86,24.16,7.852C272.712,365.879,273.65,362.374,271.485,361.558z"/>
		<path fill="#15823C" d="M296.728,268.786c1.416-1.86,0.683-2.454-0.714-0.621c-6.473,8.503-15.85,22.302-9.915,32.863
			c-0.159,0.045-0.32,0.08-0.479,0.129c-2.226,0.688-1.275,4.187,0.964,3.494c0.612-0.189,1.236-0.34,1.862-0.465
			c0.913,0.962,2.129,0.553,2.719-0.29c1.683-0.007,3.346,0.326,4.895,1.177c2.049,1.126,3.877-2.004,1.829-3.13
			c-2.479-1.362-5.208-1.806-7.937-1.609C283.276,291.1,291.051,276.244,296.728,268.786z"/>
	</g>
	<g id="Layer_26">
		<path fill="#2EEA93" d="M563.746,384.646l23.151-24.092c0,0,3.624-21.352-9.664-27.018c0,0-17.407-6.011-24.407,0
			c-7.001,6.011-10.221,24.219-10.221,24.219L563.746,384.646"/>
		<path fill="#2EEA93" d="M279.66,371.761l-9.139-6.709c0,0-20.258-6.723-30.322,6.709c-10.064,13.431-7.779,18.774-7.715,23.682
			c0.064,4.908,29.177,20.99,29.177,20.99L279.66,371.761z"/>
	</g>
	<g id="Layer_20">
		<path fill="#F9A883" d="M550.657,395.921c0,0-41.354,8.564-52.24,2.927c0,0,0,0-0.858-17.167
			c-0.859-17.167,5.181-30.858,5.181-30.858s13.597-2.014,31.361,0c0,0,0.047-9.261-5.993-10.469c0,0-6.038,2.819-15.301,3.624
			c0,0-8.456,2.416-8.456-1.611s2.852-6.765,7.667-9.624s8.842-4.067,8.842-4.067s5.235-3.222,12.886-0.403
			s5.236,7.249,11.678,7.651c6.442,0.402,16.509,5.234,16.509,5.234s13.29,18.523,6.444,34.63
			C561.529,391.894,553.909,394.316,550.657,395.921z"/>
		<path fill="#F9A883" d="M265.391,419.934c0,0,54.31,12.378,57.758,1.758c0,0,5.764-1.687,2.819-13.691
			c-4.095-16.694-2.279-18.587-2.279-18.587s-4.314-4.855-19.667-10.204c0,0-3.322-6.504,2.819-6.04c0,0,3.438,5.218,12.141,8.489
			c0,0,4.348,3.054,5.433-0.823s-0.923-7.283-4.791-11.333c-3.867-4.051-7.146-9.218-7.146-9.218s-1.738-4.278-9.865-3.624
			c-8.127,0.653-8.675,6.744-14.899,8.456c-8.053,2.215-19.529,7.047-19.529,7.047s-16.684,6.253-14.432,23.608
			C256.005,413.127,262.692,417.513,265.391,419.934z"/>
	</g>
	<g id="Layer_5">
		<path fill="#2EEA93" d="M477.89,95.688c0,0,34.516,9.057,41.807,29.19c7.292,20.134,4.376,37.307,19.933,42.089h-14.585
			c0,0-14.099-20.759-16.285-33.511c-2.188-12.752-28.004-22.125-28.004-22.125L477.89,95.688z"/>
		<path fill="#2BA954" d="M497.558,143.554c0,50.744-41.137,91.881-91.88,91.881c-18.6,0-35.909-5.528-50.375-15.028
			c-24.999-16.42-41.505-44.708-41.505-76.853c0-50.744,41.136-91.879,91.88-91.879C456.421,51.675,497.558,92.81,497.558,143.554z"
			/>
		<g>
			<g id="Laag_1_1_">
				<path id="XMLID_1_" fill="#FECEA2" d="M475.055,115.249c-12.614-23.966-44.905-32.46-69.375-32.46
					c-24.472,0-56.764,8.494-69.378,32.46c-12.362,23.462-1.851,51.718,26.152,51.718c2.188,0,16.65-1.514,28.171-3.784
					c9.923-1.934,20.099-1.934,30.022,0c11.605,2.271,25.984,3.784,28.171,3.784C476.905,166.883,487.417,138.711,475.055,115.249z"
					/>
			</g>
		</g>
		<circle fill="#EFE8E3" cx="437.361" cy="132.17" r="24.062"/>
		<circle fill="#EFE8E3" cx="370.517" cy="131.453" r="24.063"/>
		<circle fill="#784F30" cx="437.361" cy="132.17" r="18.895"/>
		<circle fill="#784F30" cx="370.517" cy="131.269" r="19.505"/>
		<circle fill="#020200" cx="437.361" cy="132.17" r="10.874"/>
		<circle fill="#020200" cx="370.517" cy="131.453" r="10.874"/>
		<ellipse fill="#EFE8E3" cx="361.869" cy="122.345" rx="8.648" ry="8.663"/>
		<ellipse fill="#EFE8E3" cx="429.686" cy="121.938" rx="8.648" ry="8.663"/>
		<path fill="#2EEA93" d="M316.263,122.345c0,0,60.068-47.728,175.99-9.613c0,0-2.234-18.772-12.076-22.956
			c-75.918-32.268-149.859,1.214-149.859,1.214S318.265,110.398,316.263,122.345z"/>
		<path fill="#2D2723" d="M407.417,111.763l5.882,8.815c0,0,35.645-21.646,49.986-23.125l-14.585-12.899
			C448.701,84.555,411.063,105.983,407.417,111.763z"/>
		<path fill="#2D2723" d="M398.225,112.581l-5.881,8.815c0,0-35.645-21.646-49.986-23.124l14.583-12.899
			C356.941,85.373,394.58,106.801,398.225,112.581z"/>
	</g>
</g>
<g id="Layer_10" display="none">
	<g id="Layer_12" display="inline">
		<path fill="#2EEA93" d="M530.226,185.502c0,0,47.333,12.419,57.333,40.029s6.001,51.161,27.334,57.719h-20
			c0,0-19.334-28.468-22.334-45.955s-38.403-30.34-38.403-30.34L530.226,185.502z"/>
	</g>
	<g id="Layer_2" display="inline">
		<path fill="#2BA954" d="M557.198,251.143c0,69.588-56.412,126-126,126c-25.507,0-49.244-7.579-69.082-20.608
			c-34.282-22.518-56.918-61.312-56.918-105.392c0-69.588,56.412-126,126-126S557.198,181.555,557.198,251.143z"/>
		<path fill="#2BA954" d="M339.154,488.229c10.405,55.912,38.257,86.411,47.998,97.495s71.33,9.667,80.074,3.084
			s60.918-67.58,63.918-100.579s8.096-122.961-3.918-135.421c-9-9.333-23.333-23.011-23.333-23.011l-147.237,9.941
			C356.656,339.739,331.104,444.978,339.154,488.229z"/>
	</g>
	<g id="Layer_11" display="inline">
		<path fill="#2BA954" d="M510.198,338.142c0,0,94.361,99,148.361-6l54,7c0,0-26,110.422-83,117.711s-140-45.711-140-45.711
			L510.198,338.142z"/>
		<path fill="#2BA954" d="M362.813,343.142c0,0-90.361,100-144.361-5l-54,7c0,0,22,104.422,79,111.711s140-40.711,140-40.711
			L362.813,343.142z"/>
		<path fill="#2BA954" d="M507.645,528.728c0,0,59.498,67.496,75.997,104.994s38.997,73.496,46.497,119.994
			c0,0,9.351,6,35.424,28.499c0,0-9.924,23.999-57.922,16.499l-50.443-35.998v-22.499c0,0-56.229-107.91-89.972-151.408
			S507.645,528.728,507.645,528.728z"/>
	</g>
	<g id="Layer_14" display="inline">
		<path fill="#2EEA93" d="M647.84,331.885c0,0-4.781,32.506-26.51,45.158c0,0,60.671-11.093,63.673,32.989
			c0.094,1.376,35.806-62.89,27.556-84.146C707.822,313.68,647.84,331.885,647.84,331.885"/>
		<path fill="#2EEA93" d="M222.912,328.778c0,0,4.781,32.506,26.51,45.158c0,0-56.671-5.093-59.673,38.989
			c-0.094,1.376-35.806-62.891-27.556-84.147C166.931,316.573,222.912,328.778,222.912,328.778"/>
		<path fill="#2EEA93" d="M557.198,740.217c0,0,42.546-14.401,71.12,3.762c0,0-14.834-59.483-25.13-68.993
			c0,0-52.075-2.224-72.186,16.8L557.198,740.217z"/>
		<path fill="#2BA954" d="M359.547,535.187c0,0-59.498,67.496-75.997,104.994s-38.997,73.496-46.497,119.994
			c0,0-9.351,6-35.424,28.499c0,0,9.924,23.999,57.922,16.499l50.443-35.998v-22.499c0,0,56.229-107.91,89.972-151.408
			C433.708,551.77,359.547,535.187,359.547,535.187z"/>
		<path fill="#2EEA93" d="M309.994,746.676c0,0-42.546-14.401-71.12,3.762c0,0,14.834-59.483,25.13-68.993
			c0,0,52.075-2.224,72.186,16.8L309.994,746.676z"/>
	</g>
	<g id="Layer_15" display="inline">
	</g>
	<g id="Layer_13" display="inline">
		<path fill="#FECEA2" d="M103.584,273.142c0,0-14.692,45.333,34.641,65s32.143,15.667,32.143,15.667s46.298-0.333,47.191-8
			s19.333-40.667,16-56"/>
		<path fill="#FECEA2" d="M656.561,335.902c0,0-19.807-23.929-19.002-44.761s7.486-41.596,7.486-41.596l67.514-9.478
			c0,0,27,30.074,27,34.074s5,22.409-7,38.205s-27,35.796-27,35.796S661.183,345.693,656.561,335.902z"/>
	</g>
	<g id="Layer_3" display="inline">
		<g>
			<g id="Laag_7_1_" display="none">
				<path display="inline" opacity="0.1" enable-background="new    " d="M653.753,866.068l-11.507-1.569c0,0,0-2.441-0.872-5.058
					c-1.746-7.147-3.66-12.554-6.625-19.184c-0.872-2.267-1.917-4.359-2.615-5.929l0,0l0,0l9.418-10.985l-25.115-35.052
					l-16.041,7.151c-19.529-15.698-42.199-21.104-69.232-21.104c-63.301,0-114.569,51.271-114.569,114.572
					c0,63.304,51.27,114.572,114.569,114.572c1.223,0,2.442,0,3.838-0.176l8.896,16.393l38.362-12.033l-2.789-14.994
					c10.112-4.708,17.612-9.766,25.808-16.914l10.986,4.882l24.238-31.738l-7.846-9.242c2.266-5.058,10.81-27.202,11.508-31.39
					l9.938-2.087v-40.109h-0.349V866.068L653.753,866.068z M630.04,830.844L630.04,830.844L630.04,830.844z M631.957,834.156
					C631.783,834.156,631.783,834.156,631.957,834.156C631.783,834.156,631.783,834.156,631.957,834.156z M631.783,833.808
					C631.607,833.808,631.607,833.808,631.783,833.808C631.607,833.808,631.607,833.808,631.783,833.808z M631.432,833.459
					C631.432,833.459,631.432,833.283,631.432,833.459C631.432,833.283,631.432,833.459,631.432,833.459z M631.26,833.11
					c0-0.174-0.176-0.174-0.176-0.35C631.26,832.934,631.26,833.11,631.26,833.11z M630.911,832.412L630.911,832.412
					L630.911,832.412z M630.736,832.236c0-0.17-0.173-0.17-0.173-0.35C630.736,832.063,630.736,832.063,630.736,832.236z
					 M630.561,831.538l-0.171-0.173C630.39,831.538,630.39,831.538,630.561,831.538z M630.39,831.365
					C630.39,831.192,630.21,831.192,630.39,831.365C630.21,831.192,630.39,831.192,630.39,831.365z M630.21,831.017L630.21,831.017
					L630.21,831.017z"/>
			</g>
			<g id="Laag_8_1_">
			</g>
			<g id="Laag_21_1_">
			</g>
			<g id="Laag_20_1_">
			</g>
			<g id="Laag_15_1_">
			</g>
			<g id="Laag_19_1_">
			</g>
			<g id="Laag_4_1_">
			</g>
			<g id="Laag_2_1_">
			</g>
			<g id="Laag_12_1_">
			</g>
			<g id="Laag_11_1_">
			</g>
			<g id="Laag_10_1_" display="none">
				<g display="inline">
					<g>
						<g>
							<g>
								<defs>
									<ellipse id="SVGID_1_" cx="520.701" cy="259.385" rx="134.619" ry="137.763"/>
								</defs>
								<clipPath id="SVGID_2_">
									<use xlink:href="#SVGID_1_"  overflow="visible"/>
								</clipPath>
								<path opacity="0.1" clip-path="url(#SVGID_2_)" enable-background="new    " d="M955.436,703.717l-0.692-0.698l0,0
									l-0.697-0.694l0,0l-0.694-0.698l0,0l-0.698-0.694l0,0l-0.694-0.698l0,0l-0.695-0.697l0,0l-1.047-1.22l0,0l-0.697-0.698l0,0
									l-0.698-0.694l0,0l-0.697-0.698l0,0l-0.692-0.694l0,0l-0.697-0.698l0,0l-0.695-0.694l0,0l-0.697-0.698l0,0l-0.695-0.697l0,0
									l-0.694-0.695l0,0l-0.698-0.697l0,0l-0.697-0.695l0,0l-0.698-0.697l0,0l-0.691-0.695l0,0l-0.698-0.697l0,0l-0.694-0.698l0,0
									l-0.698-0.694l0,0l-0.694-0.698l0,0l-0.698-0.694l0,0l-0.697-0.698l0,0l-0.695-0.697l0,0l-0.697-0.695l0,0l-0.691-0.697l0,0
									l-0.698-0.695l0,0l-0.697-0.697l0,0l-0.695-0.695l0,0l-0.716-0.719l0,0l-0.698-0.698l0,0l-0.698-0.694l0,0l-0.694-0.698l0,0
									l-0.694-0.694l0,0l-0.695-0.698l0,0l-0.697-0.697l0,0l-0.698-0.695l0,0l-0.698-0.697l0,0l-0.694-0.695l0,0l-0.694-0.697l0,0
									l-0.698-0.698l0,0l-0.694-0.694l0,0l-0.695-0.698h2.792v-20.922h-0.698v-0.698h-0.698v-3.489h-0.694v-0.694h-0.694v-0.698
									h-0.695v-0.697h-0.697v-0.695h-0.698v-0.697h-0.694v-0.695h-0.698v-0.697h-0.694v-0.698h-0.698v-0.694h-0.694v-0.698h-0.695
									v-0.349h9.764v-20.96h-0.694v-0.697h-0.698v-0.698h-0.694v-0.694h-0.695v-0.695h-0.697v-0.697h-0.695v-0.698h-0.697v-0.694
									h-0.698v-0.698h-0.694v-0.694h-0.695v-2.094h-0.697v-0.697h-0.695v-0.698h-0.694v-0.694h-0.698v-0.695h-0.697v-0.697h-0.695
									v-0.698h-0.697v-0.697h-0.695v-0.695h-0.694v-1.396h-0.698v-0.697h-0.697v-0.695h-0.691v-0.697h-0.698v-0.698h-0.698v-0.694
									h-4.881v-0.695h-0.698v-1.047h-0.698v-0.697h-0.695v-0.698h-0.693v-0.697h-0.698v-0.696h-0.698v-0.694h-1.043v-0.698h-0.696
									v-0.696h-0.696v-0.697h-0.695v-1.393h-0.697v-0.698h-0.696v-0.696h-0.696v-0.697h-1.044v-0.695h-0.697v-0.696h-0.698v-0.697
									h-0.693v-0.696h-0.696v-0.696h-0.694v-1.395h-0.698v-0.697h-1.047v-0.696h-0.697v-0.173
									c4.71-1.918,9.768-2.792,15.176-2.792c11.505,0,21.966,4.534,30.688,12.033l0.173,0.171l0,0c0,0,0,0,0.173,0.177
									c0.177,0.171,0.35,0.521,0.698,0.694l0,0c0.173,0.351,0.525,0.523,0.698,0.874l0,0c0.17,0.349,0.521,0.523,0.691,0.87l0,0
									c0.173,0.35,0.524,0.525,0.697,0.874l0,0c0.174,0.348,0.522,0.522,0.698,0.872l0,0c0.173,0.349,0.521,0.521,0.694,0.873l0,0
									c0.177,0.35,0.525,0.522,0.698,0.871l0,0c0.173,0.349,0.521,0.521,0.694,0.871l15.695-16.04
									c-1.918-2.442-3.838-4.534-5.929-6.803c-0.173-0.173-0.521-0.522-0.694-0.696c-0.173-0.173-0.525-0.523-0.698-0.697
									c-0.173-0.173-0.521-0.521-0.697-0.695c-0.173-0.174-0.522-0.522-0.695-0.695c-0.17-0.177-0.521-0.525-0.694-0.698
									s-0.521-0.523-0.698-0.696c-0.173-0.173-0.521-0.523-0.694-0.698c-0.176-0.172-0.525-0.521-0.698-0.695
									c-0.173-0.174-0.521-0.523-0.694-0.695c-0.173-0.174-0.525-0.525-0.695-0.697c-0.173-0.174-0.524-0.523-0.697-0.697
									c-0.173-0.173-0.521-0.521-0.698-0.696c-0.173-0.173-0.521-0.522-0.697-0.696c-0.17-0.174-0.522-0.522-0.691-0.696
									c-0.173-0.173-0.522-0.524-0.698-0.696c-0.173-0.174-0.521-0.523-0.694-0.697c-0.177-0.172-0.525-0.521-0.698-0.697
									c-0.173-0.172-0.525-0.521-0.698-0.695c-0.169-0.175-0.521-0.523-0.694-0.696c-0.173-0.174-0.521-0.524-0.694-0.697
									c-0.173-0.174-0.522-0.523-0.698-0.697c-0.173-0.172-0.521-0.521-0.698-0.696c-0.173-0.173-0.521-0.522-0.691-0.696
									c-0.176-0.173-0.524-0.523-0.697-0.695c-0.173-0.174-0.522-0.524-0.695-0.697c-0.176-0.174-0.524-0.523-0.697-0.697
									c-0.173-0.172-0.525-0.521-0.698-0.697c-0.17-0.172-0.521-0.521-0.694-0.695s-0.522-0.523-0.698-0.695
									c-0.173-0.174-0.519-0.525-0.694-0.697c-0.173-0.173-0.522-0.523-0.698-0.698c-0.173-0.172-0.521-0.521-0.694-0.695
									c-0.173-0.174-0.522-0.522-0.695-0.697c-0.173-0.173-0.524-0.523-0.697-0.695c-0.173-0.174-0.522-0.524-0.695-0.697
									c-0.176-0.172-0.524-0.523-0.697-0.696c-0.17-0.173-0.522-0.522-0.695-0.696s-0.521-0.522-0.697-0.697
									c-0.173-0.174-0.522-0.523-0.695-0.695c-0.176-0.174-0.524-0.525-0.697-0.697s-0.522-0.523-0.695-0.697
									c-0.173-0.172-0.524-0.521-0.694-0.695c-0.173-0.175-0.525-0.523-0.698-0.697c-0.173-0.175-0.521-0.523-0.697-0.696
									c-0.173-0.174-0.521-0.524-0.698-0.697c-0.17-0.172-0.519-0.523-0.691-0.696s-0.521-0.522-0.697-0.696
									c-0.174-0.174-0.522-0.523-0.695-0.696c-0.176-0.174-0.524-0.523-0.697-0.696c-0.174-0.174-0.525-0.523-0.698-0.697
									c-0.17-0.172-0.521-0.522-0.691-0.697c-0.177-0.172-0.525-0.521-0.698-0.695s-0.521-0.523-0.697-0.697
									c-0.174-0.174-0.522-0.523-0.698-0.695c-0.173-0.174-0.521-0.523-0.691-0.697c-0.176-0.173-0.525-0.523-0.698-0.697
									c-0.173-0.173-0.521-0.521-0.694-0.696c-0.176-0.174-0.525-0.523-0.698-0.695c-0.173-0.175-0.524-0.524-0.697-0.697
									c-0.17-0.173-0.522-0.523-0.695-0.696s-0.521-0.523-0.697-0.697c-0.17-0.173-0.52-0.522-0.695-0.696
									c-0.173-0.174-0.521-0.522-0.697-0.695c-0.173-0.176-0.522-0.525-0.695-0.697c-0.173-0.174-0.521-0.523-0.694-0.697
									c-0.173-0.172-0.525-0.523-0.694-0.697c-0.177-0.172-0.525-0.521-0.698-0.695c-0.176-0.175-0.525-0.523-0.698-0.695
									c-0.171-0.175-0.52-0.525-0.696-0.698c-0.171-0.174-0.52-0.523-0.696-0.697c-0.173-0.172-0.521-0.522-0.694-0.696
									c-0.173-0.173-0.521-0.522-0.698-0.695c-0.171-0.174-0.521-0.523-0.692-0.696c-0.175-0.174-0.525-0.524-0.696-0.696
									c-0.174-0.175-0.525-0.523-0.698-0.698c-0.173-0.172-0.521-0.522-0.698-0.697c-0.173-0.172-0.521-0.521-0.694-0.695
									c-0.171-0.174-0.521-0.523-0.696-0.695c-0.171-0.174-0.521-0.525-0.696-0.697c-0.173-0.174-0.521-0.523-0.694-0.697
									c-0.177-0.173-0.525-0.521-0.698-0.697c-0.171-0.173-0.521-0.521-0.693-0.695c-0.176-0.174-0.524-0.523-0.696-0.696
									c-0.176-0.174-0.524-0.524-0.697-0.696c-0.173-0.174-0.522-0.523-0.698-0.697c-0.173-0.173-0.521-0.522-0.697-0.697
									c-0.172-0.173-0.522-0.521-0.693-0.696c-0.172-0.174-0.522-0.522-0.696-0.695c-0.173-0.174-0.522-0.525-0.695-0.697
									c-0.176-0.174-0.524-0.523-0.697-0.697c-0.173-0.172-0.525-0.521-0.696-0.695c-0.173-0.174-0.522-0.523-0.696-0.697
									c-0.173-0.174-0.522-0.523-0.695-0.696c-0.173-0.174-0.521-0.523-0.697-0.697c-0.173-0.172-0.522-0.522-0.698-0.696
									c-0.171-0.173-0.521-0.522-0.693-0.696c-0.174-0.173-0.524-0.522-0.696-0.696c-0.35-0.523-0.872-0.873-1.396-1.395
									l-0.173-0.173c-0.173-0.174-0.524-0.524-0.697-0.697c-0.173-0.174-0.522-0.523-0.698-0.696
									c-0.171-0.173-0.521-0.522-0.693-0.697c-0.174-0.173-0.521-0.522-0.696-0.695c-0.173-0.175-0.521-0.523-0.694-0.696
									c-0.176-0.174-0.525-0.524-0.698-0.696c-0.176-0.173-0.524-0.523-0.697-0.698c-0.172-0.172-0.522-0.521-0.696-0.695
									c-0.172-0.174-0.522-0.523-0.693-0.697c-0.173-0.174-0.525-0.523-0.698-0.695c-0.173-0.174-0.521-0.525-0.697-0.697
									c-0.172-0.173-0.522-0.523-0.693-0.697c-0.176-0.173-0.525-0.521-0.696-0.695c-0.176-0.175-0.525-0.523-0.694-0.696
									c-0.177-0.175-0.525-0.524-0.698-0.697c-0.176-0.173-0.524-0.523-0.698-0.696c-0.171-0.173-0.524-0.523-0.696-0.697
									c-0.171-0.172-0.521-0.522-0.696-0.695c-0.173-0.175-0.521-0.523-0.694-0.696c-0.173-0.174-0.521-0.524-0.698-0.696
									c-0.173-0.175-0.521-0.523-0.692-0.698c-0.177-0.172-0.525-0.521-0.696-0.697c-0.177-0.172-0.525-0.521-0.698-0.695
									s-0.521-0.523-0.698-0.695c-0.173-0.174-0.521-0.525-0.694-0.697c-0.171-0.173-0.524-0.523-0.696-0.697
									c-0.171-0.173-0.521-0.521-0.696-0.695c-0.173-0.175-0.521-0.523-0.694-0.698c-0.176-0.173-0.525-0.522-0.698-0.695
									c-0.176-0.174-0.521-0.524-0.694-0.696c-0.175-0.173-0.523-0.523-0.696-0.697c-0.175-0.173-0.523-0.522-0.696-0.695
									c-0.173-0.175-0.525-0.523-0.698-0.696c-0.173-0.176-0.521-0.524-0.697-0.696c-0.172-0.175-0.522-0.523-0.693-0.698
									c-0.172-0.172-0.522-0.523-0.696-0.697c-0.173-0.172-0.522-0.521-0.695-0.695c-0.176-0.174-0.524-0.523-0.697-0.695
									c-0.176-0.174-0.525-0.525-0.698-0.697c-0.171-0.175-0.521-0.523-0.693-0.697c-0.174-0.173-0.524-0.521-0.696-0.697
									c-0.173-0.173-0.524-0.521-0.697-0.695s-0.521-0.523-0.698-0.696c-0.171-0.173-0.521-0.524-0.692-0.696
									c-0.177-0.173-0.525-0.523-0.697-0.697c-0.176-0.172-0.521-0.522-0.694-0.695c-0.176-0.175-0.524-0.523-0.698-0.697
									c-0.176-0.175-0.524-0.523-0.697-0.695c-0.172-0.175-0.525-0.523-0.696-0.698c-0.171-0.172-0.521-0.523-0.696-0.697
									c-0.17-0.172-0.521-0.521-0.694-0.695s-0.522-0.523-0.698-0.695c-0.173-0.176-0.521-0.525-0.693-0.697
									c-0.176-0.175-0.524-0.523-0.697-0.697c-0.175-0.173-0.523-0.523-0.696-0.697c-0.173-0.173-0.522-0.521-0.695-0.695
									c-0.176-0.174-0.524-0.523-0.697-0.696c-0.172-0.174-0.525-0.524-0.696-0.696c-0.172-0.174-0.522-0.523-0.696-0.697
									c-0.173-0.173-0.522-0.522-0.698-0.695c-0.173-0.175-0.519-0.523-0.694-0.697c-0.173-0.175-0.522-0.523-0.698-0.695
									c-0.171-0.175-0.521-0.525-0.693-0.698c-0.174-0.172-0.524-0.523-0.696-0.697c-0.176-0.172-0.524-0.521-0.697-0.695
									s-0.522-0.523-0.695-0.697c-0.176-0.174-0.524-0.523-0.697-0.695c-0.172-0.175-0.523-0.523-0.696-0.697
									c-0.172-0.173-0.521-0.523-0.696-0.697c-0.173-0.172-0.522-0.521-0.695-0.695c-0.176-0.174-0.524-0.523-0.697-0.696
									c-0.172-0.173-0.522-0.524-0.696-0.696c-0.173-0.174-0.521-0.523-0.693-0.697c-0.176-0.172-0.525-0.523-0.698-0.697
									c-0.173-0.173-0.524-0.521-0.697-0.695c-0.173-0.175-0.522-0.523-0.698-0.695c-0.171-0.175-0.521-0.525-0.693-0.698
									c-0.171-0.174-0.521-0.523-0.695-0.697c-0.174-0.172-0.522-0.521-0.698-0.695c-0.173-0.174-0.521-0.523-0.694-0.697
									c-0.177-0.174-0.525-0.523-0.698-0.695c-0.175-0.175-0.521-0.524-0.693-0.697c-0.175-0.173-0.524-0.523-0.696-0.697
									c-0.176-0.173-0.524-0.521-0.697-0.695c-0.174-0.174-0.525-0.523-0.698-0.697s-0.521-0.523-0.696-0.695
									c-0.173-0.174-0.521-0.523-0.693-0.697c-0.173-0.173-0.521-0.523-0.697-0.697c-0.174-0.173-0.522-0.521-0.698-0.695
									c-0.173-0.175-0.521-0.523-0.694-0.695c-0.175-0.175-0.525-0.525-0.696-0.698c-0.172-0.174-0.525-0.523-0.696-0.697
									c-0.173-0.172-0.522-0.523-0.695-0.697c-0.176-0.172-0.524-0.521-0.697-0.695s-0.522-0.523-0.698-0.695
									c-0.171-0.175-0.521-0.524-0.696-0.697c-0.171-0.174-0.521-0.523-0.693-0.697c-0.176-0.172-0.521-0.521-0.697-0.695
									c-0.173-0.174-0.522-0.523-0.695-0.697c-0.176-0.174-0.524-0.523-0.696-0.695c-0.176-0.174-0.524-0.525-0.697-0.697
									c-0.172-0.172-0.525-0.523-0.696-0.697c-0.173-0.173-0.522-0.521-0.695-0.695c-0.173-0.175-0.524-0.523-0.697-0.698
									c-0.172-0.174-0.522-0.522-0.696-0.695c-0.172-0.174-0.522-0.523-0.696-0.697c-0.173-0.172-0.522-0.523-0.695-0.696
									c-0.176-0.173-0.524-0.522-0.697-0.696c-0.349-0.523-0.871-0.871-1.22-1.395l-0.172-0.174
									c-0.174-0.174-0.524-0.523-0.696-0.695c-0.173-0.174-0.521-0.525-0.697-0.697c-0.173-0.172-0.521-0.523-0.698-0.697
									c-0.17-0.172-0.521-0.521-0.694-0.695c-0.172-0.175-0.521-0.523-0.696-0.697c-0.172-0.174-0.521-0.523-0.693-0.696
									c-0.176-0.174-0.524-0.523-0.698-0.696c-0.176-0.173-0.524-0.523-0.697-0.697c-0.172-0.172-0.521-0.522-0.693-0.695
									c-0.176-0.174-0.524-0.523-0.696-0.696c-0.173-0.174-0.524-0.524-0.697-0.696c-0.173-0.175-0.522-0.523-0.698-0.697
									c-0.173-0.173-0.521-0.523-0.698-0.698c-0.168-0.172-0.519-0.522-0.692-0.696c-0.172-0.174-0.522-0.523-0.696-0.695
									c-0.173-0.174-0.522-0.525-0.695-0.697c-0.176-0.174-0.524-0.523-0.697-0.697c-0.177-0.172-0.525-0.522-0.698-0.696
									c-0.171-0.174-0.521-0.523-0.693-0.697c-0.174-0.174-0.524-0.523-0.696-0.696c-0.173-0.174-0.524-0.525-0.697-0.697
									c-0.173-0.172-0.522-0.523-0.698-0.697c-0.173-0.172-0.521-0.522-0.693-0.696c-0.176-0.173-0.521-0.523-0.697-0.697
									c-0.172-0.175-0.521-0.523-0.696-0.696c-0.173-0.174-0.522-0.523-0.695-0.697c-0.176-0.173-0.524-0.523-0.697-0.698
									c-0.172-0.172-0.525-0.522-0.696-0.696c-0.172-0.174-0.522-0.523-0.693-0.695c-0.176-0.174-0.525-0.525-0.698-0.697
									c-0.173-0.174-0.521-0.523-0.697-0.697c-0.173-0.172-0.522-0.522-0.698-0.697c-0.171-0.172-0.521-0.522-0.693-0.695
									c-0.174-0.174-0.524-0.523-0.696-0.696c-0.173-0.174-0.521-0.525-0.694-0.697c-0.176-0.173-0.525-0.523-0.698-0.697
									c-0.176-0.172-0.524-0.522-0.697-0.696c-0.172-0.173-0.523-0.523-0.696-0.697c-0.172-0.175-0.521-0.523-0.696-0.696
									c-0.173-0.174-0.521-0.525-0.694-0.697c-0.174-0.173-0.522-0.523-0.698-0.698c-0.172-0.172-0.521-0.522-0.696-0.696
									c-0.173-0.174-0.521-0.523-0.693-0.695c-0.176-0.175-0.524-0.525-0.697-0.697c-0.174-0.173-0.522-0.523-0.695-0.697
									c-0.176-0.172-0.524-0.523-0.697-0.697c-0.175-0.172-0.525-0.522-0.696-0.695c-0.172-0.174-0.522-0.523-0.696-0.696
									c-0.174-0.174-0.522-0.525-0.698-0.697c-0.173-0.173-0.521-0.523-0.694-0.697c-0.173-0.172-0.522-0.522-0.698-0.697
									c-0.171-0.172-0.521-0.522-0.693-0.695c-0.174-0.175-0.524-0.523-0.696-0.696c-0.176-0.174-0.524-0.525-0.697-0.697
									c-0.173-0.173-0.525-0.523-0.698-0.698c-0.173-0.172-0.521-0.522-0.693-0.696c-0.173-0.174-0.524-0.523-0.696-0.697
									c-0.173-0.174-0.521-0.523-0.697-0.696c-0.173-0.173-0.522-0.525-0.698-0.697c-0.173-0.172-0.521-0.523-0.694-0.697
									c-0.175-0.172-0.522-0.522-0.696-0.695c-0.172-0.174-0.522-0.523-0.693-0.696c-0.176-0.175-0.525-0.525-0.698-0.697
									c-0.176-0.173-0.524-0.523-0.697-0.697c-0.173-0.172-0.522-0.523-0.698-0.697c-0.171-0.172-0.521-0.522-0.693-0.695
									c-0.171-0.175-0.524-0.523-0.696-0.696c-0.173-0.174-0.521-0.525-0.697-0.697c-0.173-0.175-0.521-0.523-0.695-0.698
									c-0.176-0.172-0.524-0.522-0.696-0.697c-0.176-0.172-0.524-0.522-0.697-0.695c-0.172-0.174-0.521-0.523-0.693-0.696
									c-0.176-0.173-0.524-0.525-0.698-0.697c-0.173-0.172-0.524-0.523-0.697-0.697c-0.172-0.172-0.521-0.522-0.696-0.695
									c-0.172-0.174-0.521-0.523-0.693-0.698c-0.173-0.174-0.524-0.523-0.698-0.696c-0.173-0.173-0.521-0.525-0.697-0.697
									c-0.173-0.172-0.521-0.523-0.695-0.697c-0.174-0.172-0.524-0.521-0.695-0.695c-0.175-0.175-0.525-0.523-0.696-0.696
									c-0.173-0.176-0.522-0.525-0.695-0.697c-0.176-0.175-0.524-0.523-0.697-0.698c-0.173-0.172-0.525-0.523-0.698-0.697
									c-0.172-0.172-0.521-0.522-0.696-0.695c-0.171-0.174-0.521-0.523-0.693-0.696c-0.173-0.173-0.521-0.525-0.697-0.697
									c-0.173-0.174-0.522-0.523-0.698-0.697c-0.171-0.172-0.521-0.522-0.693-0.697c-0.176-0.173-0.524-0.522-0.696-0.696
									c-0.173-0.349-0.524-0.523-0.697-0.696c-0.173-0.35-0.522-0.525-0.695-0.697c-0.176-0.172-0.524-0.523-0.697-0.697
									c-0.172-0.172-0.525-0.521-0.696-0.695c-0.172-0.175-0.522-0.523-0.696-0.697c-0.173-0.174-0.522-0.523-0.695-0.695
									c-0.176-0.175-0.521-0.523-0.697-0.698c-0.173-0.172-0.522-0.523-0.698-0.697c-0.171-0.172-0.521-0.522-0.693-0.695
									c-0.174-0.351-0.524-0.523-0.696-0.696c-0.173-0.351-0.524-0.525-0.697-0.697c-0.173-0.174-0.522-0.523-0.695-0.697
									c-0.171-0.35-0.524-0.523-0.696-0.697c-0.173-0.35-0.521-0.522-0.697-0.696c-0.172-0.174-0.521-0.523-0.696-0.696
									c-0.173-0.173-0.522-0.525-0.695-0.697c-0.352-0.523-0.87-0.874-1.396-1.396l-0.173-0.174
									c-0.176-0.174-0.524-0.523-0.697-0.695c-0.172-0.351-0.525-0.525-0.696-0.697c-0.172-0.349-0.522-0.523-0.696-0.697
									c-0.173-0.172-0.522-0.522-0.695-0.696s-0.521-0.523-0.697-0.697c-0.173-0.348-0.522-0.523-0.696-0.696
									c-0.173-0.174-0.522-0.525-0.693-0.698c-0.176-0.172-0.525-0.523-0.698-0.697c-0.173-0.172-0.524-0.521-0.697-0.696
									c-0.173-0.173-0.522-0.523-0.695-0.697c-0.174-0.174-0.524-0.523-0.696-0.696c-0.171-0.35-0.521-0.523-0.696-0.697
									c-0.173-0.172-0.521-0.523-0.697-0.697c-0.173-0.35-0.522-0.522-0.695-0.696c-0.176-0.351-0.521-0.523-0.697-0.695
									c-0.172-0.174-0.522-0.525-0.693-0.697c-0.175-0.174-0.524-0.523-0.696-0.697c-0.176-0.172-0.525-0.523-0.698-0.697
									c-0.173-0.172-0.524-0.522-0.697-0.695c-0.173-0.174-0.522-0.523-0.693-0.696c-0.173-0.174-0.524-0.525-0.698-0.698
									c-0.171-0.173-0.52-0.523-0.695-0.697c-0.174-0.349-0.522-0.521-0.698-0.696c-0.173-0.35-0.521-0.523-0.694-0.697
									c-0.175-0.35-0.525-0.523-0.697-0.696c-0.171-0.173-0.521-0.525-0.692-0.697c-0.177-0.172-0.525-0.523-0.698-0.697
									c-0.176-0.173-0.524-0.521-0.697-0.696c-0.174-0.174-0.522-0.523-0.698-0.697c-0.171-0.174-0.521-0.523-0.696-0.696
									c-0.172-0.174-0.521-0.523-0.693-0.697c-0.173-0.172-0.521-0.523-0.697-0.697c-0.173-0.172-0.522-0.522-0.695-0.695
									c-0.176-0.174-0.524-0.523-0.697-0.696c-0.175-0.174-0.525-0.525-0.696-0.698c-0.172-0.173-0.522-0.523-0.693-0.697
									c-0.176-0.172-0.525-0.521-0.698-0.697c-0.173-0.172-0.524-0.522-0.697-0.695c-0.172-0.174-0.522-0.523-0.696-0.696
									c-0.173-0.173-0.522-0.525-0.698-0.697c-0.171-0.174-0.521-0.523-0.693-0.697c-0.173-0.173-0.521-0.521-0.697-0.696
									c-0.173-0.174-0.522-0.523-0.695-0.697c-0.174-0.174-0.524-0.523-0.696-0.696c-0.174-0.174-0.524-0.525-0.696-0.697
									c-0.173-0.172-0.521-0.523-0.697-0.697c-0.173-0.172-0.522-0.522-0.695-0.695c-0.173-0.174-0.524-0.523-0.697-0.696
									c-0.172-0.176-0.522-0.525-0.696-0.698c-0.172-0.173-0.522-0.523-0.693-0.697c-0.176-0.172-0.524-0.523-0.698-0.697
									c-0.176-0.172-0.521-0.522-0.697-0.695c-0.173-0.174-0.521-0.523-0.693-0.696c-0.176-0.173-0.525-0.525-0.698-0.697
									c-0.171-0.174-0.522-0.523-0.696-0.697c-0.173-0.173-0.521-0.521-0.697-0.698c-0.173-0.172-0.521-0.522-0.695-0.695
									c-0.171-0.174-0.521-0.523-0.695-0.696c-0.172-0.174-0.522-0.525-0.697-0.697c-0.173-0.172-0.521-0.523-0.694-0.697
									c-0.176-0.172-0.524-0.522-0.697-0.695c-0.177-0.174-0.522-0.523-0.695-0.697c-0.175-0.174-0.524-0.523-0.696-0.696
									c-0.174-0.173-0.524-0.525-0.696-0.697c-0.173-0.172-0.524-0.523-0.697-0.697c-0.173-0.172-0.522-0.522-0.698-0.695
									c-0.173-0.174-0.521-0.523-0.694-0.696c-0.172-0.176-0.521-0.525-0.696-0.697c-0.172-0.175-0.521-0.523-0.696-0.697
									c-0.173-0.173-0.522-0.523-0.695-0.698c-0.349-0.522-0.874-0.871-1.223-1.393l-0.168-0.174
									c-0.175-0.173-0.525-0.523-0.696-0.697c-0.176-0.175-0.525-0.523-0.698-0.696c-0.173-0.174-0.521-0.525-0.697-0.697
									c-0.173-0.172-0.522-0.522-0.698-0.697c-0.171-0.172-0.521-0.522-0.693-0.696c-0.171-0.173-0.521-0.523-0.696-0.697
									c-0.173-0.174-0.521-0.523-0.694-0.696c-0.176-0.173-0.525-0.525-0.698-0.697c-0.176-0.173-0.524-0.523-0.697-0.698
									c-0.172-0.172-0.525-0.522-0.696-0.696c-0.172-0.173-0.522-0.523-0.693-0.697c-0.173-0.174-0.525-0.523-0.698-0.696
									c-0.173-0.173-0.521-0.523-0.697-0.697c-0.173-0.173-0.522-0.523-0.696-0.697c-0.173-0.173-0.521-0.521-0.693-0.695
									c-0.176-0.175-0.521-0.523-0.698-0.696c-0.173-0.175-0.521-0.525-0.694-0.697c-0.176-0.173-0.525-0.523-0.698-0.697
									c-0.174-0.172-0.524-0.523-0.696-0.697c-0.171-0.172-0.521-0.522-0.695-0.695c-0.174-0.174-0.522-0.523-0.695-0.696
									c-0.173-0.174-0.524-0.525-0.697-0.697c-0.174-0.174-0.522-0.523-0.698-0.698c-0.171-0.172-0.521-0.522-0.693-0.697
									c-0.175-0.172-0.524-0.522-0.696-0.695c-0.176-0.174-0.524-0.523-0.697-0.696c-0.174-0.173-0.522-0.525-0.695-0.697
									c-0.176-0.175-0.524-0.523-0.696-0.698c-0.173-0.172-0.524-0.521-0.697-0.696c-0.172-0.174-0.521-0.522-0.696-0.697
									c-0.174-0.174-0.522-0.523-0.698-0.696c-0.173-0.173-0.519-0.525-0.694-0.697c-0.172-0.172-0.522-0.523-0.696-0.697
									c-0.172-0.172-0.522-0.522-0.693-0.695c-0.176-0.174-0.525-0.523-0.698-0.698c-0.176-0.174-0.524-0.523-0.697-0.696
									c-0.173-0.173-0.522-0.525-0.695-0.697c-0.174-0.172-0.524-0.523-0.696-0.697c-0.171-0.172-0.524-0.521-0.696-0.695
									c-0.173-0.175-0.521-0.523-0.697-0.696c-0.173-0.176-0.522-0.525-0.695-0.697c-0.176-0.175-0.524-0.523-0.697-0.698
									c-0.172-0.172-0.521-0.523-0.696-0.697c-0.172-0.172-0.522-0.522-0.693-0.695c-0.176-0.174-0.525-0.523-0.698-0.696
									c-0.173-0.173-0.524-0.525-0.697-0.697c-0.172-0.174-0.522-0.523-0.696-0.697c-0.173-0.173-0.522-0.523-0.693-0.697
									c-0.173-0.173-0.521-0.522-0.698-0.696c-0.173-0.174-0.521-0.523-0.697-0.696c-0.173-0.173-0.521-0.525-0.695-0.697
									c-0.352-0.523-0.873-0.871-1.218-1.396l-0.171-0.173c-0.177-0.172-0.525-0.523-0.698-0.697
									c-0.176-0.172-0.524-0.522-0.698-0.696c-0.173-0.173-0.524-0.523-0.697-0.697c-0.172-0.174-0.521-0.523-0.696-0.696
									c-0.172-0.174-0.521-0.523-0.693-0.697c-0.173-0.173-0.521-0.523-0.697-0.697c-0.174-0.173-0.522-0.521-0.698-0.696
									c-0.173-0.173-0.521-0.523-0.693-0.695c-0.176-0.175-0.524-0.525-0.697-0.697c-0.172-0.173-0.523-0.523-0.693-0.697
									c-0.176-0.172-0.525-0.523-0.698-0.697c-0.176-0.173-0.524-0.522-0.697-0.696c-0.172-0.173-0.522-0.522-0.696-0.695
									c-0.172-0.174-0.522-0.525-0.696-0.698c-0.173-0.173-0.522-0.523-0.695-0.697c-0.173-0.172-0.521-0.522-0.697-0.697
									c-0.173-0.172-0.522-0.521-0.695-0.695c-0.174-0.174-0.524-0.523-0.696-0.696c-0.174-0.174-0.524-0.525-0.696-0.698
									c-0.173-0.173-0.524-0.522-0.697-0.697c-0.173-0.172-0.522-0.521-0.695-0.696c-0.173-0.173-0.524-0.523-0.697-0.697
									c-0.172-0.174-0.521-0.523-0.696-0.696c-0.172-0.173-0.521-0.525-0.696-0.697c-0.173-0.172-0.522-0.523-0.695-0.697
									c-0.176-0.173-0.521-0.522-0.697-0.696c-0.172-0.173-0.522-0.523-0.693-0.697c-0.175-0.174-0.525-0.523-0.696-0.696
									c-0.176-0.173-0.525-0.525-0.698-0.697c-0.173-0.172-0.521-0.523-0.697-0.697c-0.173-0.173-0.522-0.521-0.695-0.695
									c-0.171-0.175-0.524-0.523-0.696-0.697c-0.171-0.174-0.521-0.523-0.696-0.696c-0.173-0.173-0.521-0.523-0.694-0.697
									c-0.176-0.172-0.525-0.523-0.698-0.697c-0.176-0.172-0.521-0.523-0.697-0.695c-0.172-0.174-0.521-0.523-0.693-0.697
									c-0.175-0.174-0.524-0.523-0.696-0.698c-0.173-0.174-0.524-0.522-0.697-0.697c-0.174-0.173-0.522-0.522-0.698-0.697
									c-0.173-0.174-0.521-0.523-0.693-0.697c-0.173-0.173-0.521-0.523-0.696-0.697c-0.173-0.174-0.521-0.523-0.697-0.697
									c-0.174-0.174-0.522-0.523-0.695-0.697c-0.176-0.174-0.524-0.523-0.697-0.698c-0.175-0.174-0.525-0.523-0.696-0.697
									c-0.172-0.174-0.522-0.523-0.693-0.697c-0.176-0.173-0.525-0.523-0.698-0.697c-0.173-0.174-0.524-0.523-0.697-0.697
									c-0.173-0.174-0.522-0.523-0.698-0.698c-0.171-0.174-0.521-0.522-0.693-0.697c-0.174-0.174-0.521-0.523-0.696-0.697
									c-0.173-0.173-0.521-0.523-0.697-0.697c-0.173-0.174-0.522-0.523-0.695-0.697c-0.176-0.174-0.524-0.523-0.696-0.697
									c-0.173-0.174-0.524-0.523-0.697-0.697c-0.172-0.174-0.521-0.523-0.693-0.698c-12.907-13.603-29.648-21.972-48.131-21.972
									c-33.308,0-58.067,26.854-65.917,63.825h-49.529v20.926h0.696v-34.187h0.696v0.698h0.696v0.696h0.875v0.695h0.694v0.697
									h0.695v0.697h0.697v0.696h0.698v0.698h0.694v0.695h0.698v0.697h1.044v0.697h0.697v0.695h0.698v1.047h-9.767v20.926h0.696
									v0.697h0.698v0.696h0.695v0.696h1.047v0.697h0.696v0.697h0.696v0.695h0.696v0.697h0.696v0.695h0.696v0.698h0.696v0.697
									h1.047v0.696h0.696v0.697h0.696v0.695h0.698v0.697h0.696v0.697h0.696v0.696h0.696v0.696h1.047v0.697h0.695v0.697h0.698
									v0.697h0.694v0.695h0.698v0.695h0.696v0.698h0.696v0.697h1.047v0.697h0.696v0.695h0.696v0.695h0.696v0.698h0.696v0.697
									h0.697v0.697h0.696v0.695h0.696v0.695H463v0.697h0.696v0.697h0.698v0.696h0.694v0.697h0.698v0.696h0.696v0.697h0.696v0.697
									h0.697v0.695h0.695v0.695h0.696v0.698h0.696v0.697h0.697v0.697h0.698v0.695h0.694v0.695h0.696v0.697h0.696v0.697h0.698
									v0.698h0.697v0.695h0.695v0.696h0.696v0.697h0.696v0.762h0.697v0.697h0.698v0.695h0.694v0.698h0.696v0.695h0.696v0.698
									h0.698v0.697h0.698v0.695h0.694v0.696h2.791v0.697h0.696v0.698h0.698v0.697h0.696v0.696h0.694v0.695h0.698v0.697h0.696
									v0.697h1.047v0.695h0.696v0.698h0.696v0.695h0.696v0.698h0.697v0.697h0.696v0.695h0.696v0.697h1.047v0.695h0.696v0.698
									h0.696v0.697h0.696v0.695h0.696v0.696h0.697v0.697h0.695v0.697h1.047v0.697h0.697v0.696h0.696v0.695h0.696v0.698h0.696
									v0.697h0.696v0.695h0.696v0.697h1.047v0.695h0.696v0.698h0.698v0.697h0.696v0.695h0.696v0.696h0.696v0.697h0.696v0.697
									h1.046v0.697h0.696v0.696h0.696v0.695h0.696v0.698h0.696v0.697h0.698v0.697h0.696v0.695h1.047v0.695h0.696v0.698h0.696
									v0.697h0.696v0.695h0.697v0.697h0.044v0.695h0.696v0.697h1.046v0.697h0.693v0.696h0.698v0.695h0.697v0.698h0.698v0.697
									h0.693v0.697h0.696v0.695h1.047v0.695h0.694v0.698h0.698v0.697h0.696v0.697h0.692v0.695h0.698v0.695h0.698v0.697h1.046
									v0.697h0.696v0.696h0.693v0.697h0.698v0.695h0.697v0.697h0.695v0.697h0.696v0.695h0.693v0.695h0.697v0.698h0.698v0.697
									h0.697v0.697h0.696v0.696h0.693v0.695h0.698v0.697h0.694v0.697h0.696v0.698h0.698v0.695h0.696v0.695h0.694v0.697h0.698
									v0.697h0.696v0.695h0.696v0.697h0.694v0.696h0.698v0.697h0.694v0.697h0.696v0.696h0.696v0.695h0.698v0.697h0.697v0.697
									h0.694v0.698h0.697v0.695h0.692v0.695h0.698v0.697h0.697v0.697h0.696v0.695h0.693v0.697h0.698v0.696h0.697v0.697h0.698
									v0.697h0.693v0.696h0.696v0.697h0.694v0.696h0.698v0.697h0.697v0.698h0.696v0.695h0.693v0.695h0.698v0.697h0.697v0.697
									h0.693v0.697h0.696v0.696h0.698v0.696h0.694v0.697h0.698v0.697h0.696v0.696h0.696v0.697h0.697v0.696h0.695v0.697h0.697
									v0.698h0.693v0.695h0.696v0.697h0.698v0.695h0.697v0.697h0.693v0.697h0.698v0.695h0.696v0.696h0.694v0.697h0.697v0.697
									h0.696v0.697h0.693v0.695h0.698v0.696h0.697v0.697h0.698v0.698h0.696v0.695h0.693v0.697h0.697v0.695h0.695v0.697h0.697
									v0.697h0.696v0.695h0.693v0.697h0.698v0.695h0.697v0.697h0.696v0.697h0.693v0.695h0.698v0.695h0.697v0.697h0.695v0.698
									h0.696v0.697h0.696v0.695h0.697v0.695h0.695v0.804h0.697v0.697h0.696v0.695h0.693v0.697h0.698v0.696h0.697v0.696h0.693
									v0.697h0.698v0.695h0.696v0.695h0.697v0.697h0.694v0.697h0.697v0.698h0.695v0.695h0.695v0.695h0.697v0.697h0.698v0.697
									h0.696v0.696h0.693v0.696h0.697v0.696h0.698v0.696h0.694v0.697h0.696v0.695h0.693v0.697h0.698v0.695h0.697v0.697h0.696
									v0.698h0.696v0.695h0.695v0.695h0.697v0.697h0.698v0.697h0.693v0.696h0.696v0.696h0.694v0.696h0.698v0.696h0.697v0.697
									h0.696v0.697h0.696v0.695h0.695v0.695h0.697v0.697h0.693v0.698h0.696v0.695h0.698v0.697h0.694v0.695h0.698v0.697h0.696
									v0.696h0.696v0.696h0.697v0.696h0.695v0.696h0.697v0.697h0.693v0.697h0.696v0.695h0.697v0.695h0.698v0.697h0.693v0.698
									h0.697v0.696h0.696v0.696h0.695v0.695h0.697v0.697h0.696v0.696h0.693v0.696h0.698v0.697h0.697v0.695h0.698v0.697h0.693
									v0.697h0.696v0.695h0.697v0.695h0.695v0.697h0.697v0.698h0.696v0.696h0.693v0.696h0.698v0.695h0.697v0.697h0.696v0.696
									h0.693v0.696h0.698v0.697h0.697v0.695h0.695v0.697h0.696v0.697h0.695v0.695h0.695v0.697h0.697v0.695h0.698v0.698h0.696
									v0.696h0.693v0.696h0.697v0.695h0.698v0.697h0.693v0.696h0.697v0.698h0.696v0.695h0.695v0.695h0.697v0.697h0.696v0.697
									h0.696v0.695h0.695v0.697h0.697v0.695h0.695v0.698h0.696v0.696h0.696v0.696h0.697v0.696h0.698v0.696h0.694v0.696h0.696
									v0.698h0.696v0.695h0.695v0.695h0.697v0.697h0.693v0.697h0.696v0.697h0.698v0.695h0.697v0.695h0.837v0.698h0.693v0.696
									h0.696v0.696h0.694v0.696h0.698v0.696h0.697v0.696h0.693v0.698h0.696v0.695h0.698v0.697h0.697v0.695h0.698v0.697h0.693
									v0.697h0.696v0.696h0.694v0.696h0.698v0.696h0.696v0.696h0.696v0.697h0.694v0.695h0.698v0.698h0.697v0.695h0.693v0.697
									h0.696v0.697h0.698v0.695h0.694v0.697h0.698v0.695h0.696v0.697h0.696v0.697h0.694v0.695h0.698v0.697h0.696v0.695h0.692
									v0.698h0.698v0.697h0.698v0.695h0.694v0.695h0.696v0.697h0.696v0.697h0.697v0.696h0.695v0.696h0.697v0.696h0.696v0.696
									h0.693v0.697h0.698v0.697h0.697v0.695h0.693v0.696h0.696v0.697h0.698v0.697h0.697v0.696h0.695v0.696h0.696v0.695h0.693
									v0.697h0.697v0.697h0.698v0.697h0.697v0.695h0.693v0.695h0.696v0.697h0.698v0.698h0.697v0.697h0.693v0.695h0.698v0.695
									h0.692v0.697h0.698v0.697h0.698v0.697h0.696v0.695h0.696v0.695h0.694v0.697h0.697v0.697h0.695v0.697h0.696v0.695h0.696
									v0.696h0.694v0.697h0.698v0.697h0.697v0.695h0.696v0.696h0.696V561h0.695v0.697h0.697v0.697h0.693v0.695h0.696v0.697h0.698
									v0.695h0.694v0.697h0.698v0.698h0.696v0.695h0.696v0.697h0.694v0.695h0.698v0.697h0.697v0.696h0.693v0.696h0.696v0.697
									h0.698v0.695h0.697v0.697h0.693v0.698h0.698v0.694h0.696v0.696h0.694v0.696h0.698v0.698h0.692v0.697h0.696v0.695h0.698
									v0.696h0.698v0.695h0.697v0.698h0.693v0.696h0.696v0.696h0.698v0.696h0.694v0.696h0.698v0.698h0.695v0.696h0.693v0.696
									h0.698v0.694h0.697v0.698h0.696v0.697h0.693v0.696h0.698v0.696h0.694v0.695h0.698v0.697h0.696v0.698h0.696v0.696h0.694
									v0.696h0.698v0.694h0.697v0.698h0.696v0.696h0.693v0.697h0.698v0.696h0.694v0.695h0.696v0.698h0.696v0.694h0.698v0.698
									h0.694v0.697h0.698v0.695h0.696v0.697h0.692v0.695h0.698v0.697h0.698v0.695h0.694v0.697h0.696v0.698h0.696v0.694h0.698
									v0.698h0.697v0.694h0.693v0.698h0.698v0.698h0.692v0.694h0.698v0.697h0.697v0.695h0.693v0.697h0.696v0.695h0.698v0.697
									h0.697v0.698h0.695v0.694h0.696v0.698h0.696v0.694h0.694v0.698h0.698v0.694h0.697v0.698h0.693v0.697h0.696v0.695h0.698
									v0.697h0.697v0.695h0.693v0.697h0.696v0.698h0.694v0.694h0.698v0.698h0.698v0.694h0.696v0.698h0.696v0.694h0.694v0.698
									h0.698v0.698h0.697v0.694h0.693v0.698h0.696v0.694h0.694v0.697h0.698v0.698h0.696v0.694h0.697v0.698h0.697v0.694h0.694
									v0.698h0.698v0.698h0.692v0.694h0.696v0.697h0.698v0.695h2.442c0.173,0.176,0.521,0.524,0.694,0.697
									c0.177,0.174,0.525,0.522,0.698,0.698c0.174,0.173,0.524,0.521,0.693,0.694c0.174,0.177,0.524,0.525,0.696,0.695
									c0.176,0.176,0.524,0.524,0.697,0.697c0.173,0.177,0.525,0.525,0.698,0.698s0.521,0.521,0.697,0.698
									c0.172,0.173,0.522,0.521,0.693,0.694c0.172,0.173,0.522,0.524,0.696,0.694c0.173,0.177,0.522,0.525,0.698,0.698
									c0.173,0.176,0.521,0.524,0.694,0.698c0.176,0.173,0.525,0.521,0.696,0.697c0.173,0.173,0.525,0.521,0.693,0.695
									c0.176,0.173,0.525,0.524,0.698,0.694c0.176,0.176,0.524,0.524,0.697,0.698c0.173,0.176,0.521,0.524,0.698,0.697
									c0.171,0.173,0.521,0.521,0.696,0.698c0.171,0.173,0.521,0.521,0.692,0.694c0.174,0.173,0.522,0.525,0.698,0.694
									c0.173,0.177,0.521,0.525,0.694,0.698c0.177,0.173,0.525,0.525,0.698,0.698c0.175,0.173,0.525,0.521,0.696,0.694
									c0.172,0.176,0.525,0.525,0.696,0.698c0.173,0.173,0.521,0.521,0.694,0.694c0.174,0.176,0.525,0.525,0.698,0.698
									s0.521,0.524,0.698,0.697c0.171,0.173,0.52,0.521,0.696,0.694c0.171,0.174,0.52,0.525,0.692,0.698
									c0.177,0.173,0.522,0.521,0.698,0.694c0.173,0.177,0.521,0.525,0.694,0.698c0.175,0.173,0.525,0.525,0.696,0.698
									c0.175,0.173,0.525,0.521,0.696,0.694c0.173,0.173,0.522,0.525,0.698,0.698c0.173,0.173,0.521,0.521,0.694,0.694
									c0.173,0.176,0.525,0.524,0.698,0.698c0.171,0.173,0.521,0.521,0.696,0.697c0.171,0.173,0.521,0.521,0.693,0.695
									c0.176,0.173,0.524,0.524,0.697,0.697c0.176,0.173,0.525,0.521,0.698,0.695c0.173,0.173,0.521,0.524,0.694,0.697
									c0.175,0.173,0.523,0.521,0.696,0.698c0.172,0.173,0.525,0.521,0.696,0.694c0.173,0.173,0.522,0.525,0.698,0.695
									c0.173,0.176,0.521,0.524,0.697,0.697c0.173,0.173,0.522,0.525,0.693,0.698c0.173,0.173,0.522,0.521,0.696,0.697
									c0.173,0.173,0.521,0.522,0.695,0.695c0.176,0.173,0.524,0.521,0.697,0.694c0.176,0.176,0.525,0.525,0.698,0.698
									c0.171,0.173,0.521,0.524,0.692,0.697c0.175,0.173,0.525,0.522,0.697,0.698c0.173,0.17,0.524,0.521,0.697,0.694
									s0.521,0.522,0.698,0.695c0.173,0.176,0.521,0.524,0.694,0.697c0.175,0.173,0.525,0.521,0.696,0.698
									c0.171,0.173,0.521,0.521,0.696,0.697c0.173,0.17,0.521,0.522,0.694,0.695c0.177,0.173,0.525,0.521,0.698,0.694
									c0.173,0.176,0.525,0.525,0.696,0.698c11.508,11.684,26.16,18.658,43.07,18.658c20.927,0,39.938-10.637,53.363-27.9
									L955.436,703.717L955.436,703.717z"/>
							</g>
						</g>
					</g>
				</g>
			</g>
			<g id="Laag_13_1_">
				<g id="path3924_1_">
					<g>
						<circle fill="#FFFFFF" cx="170.195" cy="241.094" r="83.704"/>
					</g>
				</g>
				<g id="path3089_2_">
					<g>
						<g>
							<path fill="#56E295" d="M189.728,169.248l-1.92,1.047c0,0,1.047,0.35,1.223,0.697c0.349,0.174,1.043-0.174,1.043-0.174v1.047
								c0,0,1.745,0.873,1.569,1.22c-0.173,0.349,2.791-0.35,2.791-0.35l2.967-1.047l0.695-1.219l-1.22-1.047l-5.579,0.697
								L189.728,169.248z"/>
							<path fill="#56E295" d="M123.46,172.562l1.223-0.173l2.788-1.22l2.093-1.395l0.175,0.174l-1.57,1.394l-0.349,0.523
								l-1.396,0.697l1.047,0.174l-0.173,0.698l1.218-0.175l1.221-1.047l1.046,0.35l0.522,0.523h1.397v-1.046l-2.093-1.569
								l-0.522-0.523l-0.174-0.523l0.874,0.174l0.698,0.697l0.871-0.871l1.572-0.174l1.567-1.221v-0.871l1.221-1.22l-0.874-0.873
								h2.094h1.917c0,0,0.871-0.349,1.046-0.174c0.173,0.35,1.569,1.22,1.569,1.22l-0.522,0.523l-2.27,0.35l-0.521,1.047
								l1.568,0.174l1.221-1.221l1.393-0.174l0.176,1.221c0,0-1.571,0.873-1.746,0.873c-0.173,0-1.046,0.523-1.046,0.523v1.047
								l-1.396,0.174l-1.568-0.35h-0.696l-1.218,0.873l0.871,0.871c0,0,1.396-0.523,1.571-0.697
								c0.175-0.174,0.871-0.523,1.047-0.174c0.174,0.349,1.047,1.046,1.047,1.046l0.695,1.396l1.046,0.523l2.094,0.697
								c0,0,1.568,0.35,1.568,0.523s-0.173-0.873-0.173-0.873l-1.221-1.394c0,0,0-0.35,0.351-0.35
								c0.35,0.175,1.221,0.873,1.221,0.873c0.171,0,1.218,0.697,1.218,0.697l0.525-1.22l1.044-0.523l-0.349-0.697l-0.521-0.523
								l-0.525-0.697v-0.872c0,0,0.174-0.174,0.352-0.174c0.173-0.173,0.695-0.523,0.695-0.349c0.173,0.173,1.22,1.569,1.22,1.569
								l1.047,0.174l0.525-0.872l1.393-0.173l0.174-0.697l1.218-0.35l-1.745-1.57l-1.22-0.174l-0.696,0.174l-0.696-0.872
								l0.696-0.697l0.351-1.047l-0.873-0.871l-1.396-0.174l-0.347-0.697c0,0-1.221-0.173-1.221,0
								c-0.171,0.174-1.045-1.046-1.045-1.046l-0.522-0.873c-4.011,1.221-8.021,2.79-11.685,4.71l-0.175,0.349l-1.219,0.697
								l-1.396,1.046l-1.22,0.523l-0.173-0.349c-4.182,2.267-8.021,5.057-11.684,8.021c1.917-0.871,5.058-2.615,5.058-2.615
								L123.46,172.562z"/>
							<path fill="#56E295" d="M200.365,188.955l0.871-0.174l0.695-0.35l0.176-0.174l1.218-0.174l0.171-0.523l0.354-0.523v-1.569
								l0.693-0.348l-0.171-1.046l-1.047-0.349l-0.875-0.174l0,0l-0.522,0.174l-0.521,0.523l-0.521,0.523
								c0.349-0.174,0.521-0.174,0.521,0.174c0,0.174-0.35,0.348-0.35,0.348h-0.349l-0.349-0.174h-0.525l-0.173,0.348l0.173,0.523
								l-0.521,0.349l0.349,0.35l0.522,0.173v0.523h-0.522l-0.698,0.35l-0.171,0.697l0.522,0.35L200.365,188.955z"/>
							<path fill="#56E295" d="M204.027,183.2c0.171,0.174,0.349,0.35,0.349,0.35c0,0.174,0.525,0.174,0.525,0.174l0.522-0.174
								l-0.522,0.523c0,0,0,0.35,0.173,0.523c0.171,0.174,0.521,0,0.521,0s0.871-0.173,1.047-0.173c0.171,0,0,0.35,0,0.35
								l0.349,0.523c0,0,0.171,0.697,0.171,0.872c0,0.176-0.349,0.174-0.349,0.174s-0.696,0.174-0.875,0
								c-0.171,0-0.346,0.174-0.693,0.523c-0.171,0.35,0,0.174,0,0.174h0.521c0,0,0,0.349,0,0.522c0,0.174-0.35,0.35-0.521,0.174
								c-0.171,0-0.871,0.349-0.871,0.349v0.523l0.871,0.174l0.872,0.174l0.174,0.174c0,0-0.525,0.173-0.696,0
								c-0.173-0.174-0.521,0.523-0.521,0.523l-0.351,0.35l-0.874,0.697l0.522,0.174l0.352-0.348h0.693l0.698-0.174l0.521-0.523
								c0.176,0,1.22,0,1.22,0s0.874-0.174,1.047-0.174c0.176,0,0.874,0.174,0.874,0.174c0.173,0,1.568-0.349,1.568-0.349
								s0.349-0.523,0.349-0.697c0-0.174-0.349-0.35-0.521-0.35c-0.176-0.174,0.349-0.174,0.521-0.35
								c0.173-0.175,0.349-0.523,0.349-0.697c0.176-0.174-0.173-0.523-0.173-0.697c0-0.174-0.525,0-0.696-0.174
								c-0.171,0-0.696,0-0.696,0v-0.697c0,0-1.743-2.268-1.568-2.442c0-0.174-0.349-0.871-0.522-0.871s-0.349-0.174-0.698-0.523
								c-0.173-0.35,0.349-0.697,0.349-0.697s0.525-0.697,0.698-0.873c0-0.173,0-0.522-0.173-0.697c-0.174,0-1.396,0-1.396,0
								l-0.349-0.349c0-0.174,0.349-0.174,0.522-0.174s0.698-1.22,0.874-1.22c0.173,0-0.176-0.349-0.176-0.349l0,0l-0.521,0.174
								l-0.525,0.697c0,0-0.522,0.174-0.693,0c-0.174-0.174-0.525,0-0.696,0c-0.176,0-0.522,0.35-0.522,0.35
								s-0.525,0.523-0.698,0.523s-0.698,0.697-0.698,0.697v0.523c0,0-0.171,0.173-0.349,0.173c-0.176,0,0.173,0.697,0.173,0.697
								l0.525,0.173c0,0-0.173,0.35-0.349,0.175C204.027,182.676,203.678,183.026,204.027,183.2z"/>
							<path fill="#56E295" d="M163.569,270.39c0,0-1.745-0.349-1.745-0.521c0-0.176-2.964-2.792-3.137-2.792
								c0,0-1.22-1.219-1.396-0.875c-0.173,0.353-2.439,0.353-2.439,0.353l-2.27-0.525c0,0-1.047,0.697-0.871,0.35
								c0.174-0.347,0-2.09,0-1.742c0,0.347-3.661-1.572-3.661-1.572l-1.221,1.047v-1.047l-1.917-1.219l0.174-1.572l-0.696-0.694
								c0,0-0.173,0.172-0.173,0c0-0.175-0.525-2.964-0.525-2.964l-2.791-2.27l-3.313-0.172l-2.964-1.568l-0.698-1.571
								c0,0-1.743-0.872-1.743-1.047c0-0.172-0.523,0-0.696-0.172c-0.173,0,0-0.872,0-0.872l-0.871-0.697l-0.351-0.172l-0.696-0.176
								l-0.349-0.694c0,0,1.57-0.697,1.396-0.697c-0.176,0-3.489,0.522-3.489,0.522l-0.349,0.697l-1.57-0.871l-2.617-0.172
								c0,0-1.917-0.698-1.917-1.047c0-0.176-0.522-1.047-0.522-1.047s-0.351,1.047-0.525,1.219
								c-0.173,0.525-1.396,1.571-1.396,1.571l0.173,1.746l-0.871-1.047l0.696-0.875v-1.219c0-0.172,0.875-0.525,0.875-0.525
								l-0.352-0.694c0,0-1.045,0.172-1.045,0.35s-1.221,0.871-1.221,0.871l-1.568,0.521h-0.698c0,0-0.694,1.222-0.871,1.222
								c-0.173,0-0.173,1.047-0.173,1.047s-1.745,1.917-1.917,1.742c-0.176-0.172-1.917-1.742-1.917-1.742l-2.27,0.35l-1.22,0.697
								l-1.568-1.046l-1.22-1.917l0.173-2.094l0.696-2.442l0.351-1.569l-1.572-1.221c0,0-3.313,0.35-3.313,0.176
								c0-0.176-1.745,0-1.745-0.176c0-0.172,0.698-1.218,0.698-1.396c0-0.172,0.525-1.393,0.525-1.393l0.695-1.396l0.873-2.616
								l0.523-0.871l-2.964-0.174l-1.57,0.697l-1.045,2.792l-4.533,1.219l-1.221-0.871c0,0-0.175,0.523,0,0.172
								c0-0.35-1.395-2.093-1.395-2.093l-0.698-2.615c0,0,1.917-5.405,1.745-5.405c0,0.174,0-1.917,0-1.917l5.755-3.837l2.27,0.35
								l0.522,0.523l1.396-0.174l1.396-1.394l1.744,0.173l1.745-0.347l1.044,1.22l1.571-0.523l0.874,0.873l0.522,0.522v0.873
								l-0.349,0.873l0.349,1.918l1.046,1.569l0.696,0.35l0.873-2.441l-0.173-2.267l-0.349-1.744v-1.22l2.268-2.791l2.792-2.092
								l2.267-1.219l1.917-2.093l-0.174-2.093l0.872-0.174l0.871-1.917l0.874,0.174l1.745-2.093l2.791-1.047l1.743-0.35l0.523-0.522
								l-0.698-0.698l1.396-1.918l4.184-1.745l2.617-0.697l-2.094,1.395l0.351,1.047l1.568-0.523l1.047-0.697l2.964-0.872
								l0.523-0.872c-0.175,0.35,1.57-0.35,1.57-0.35l-0.349-0.697l0.173-0.873l-0.874,0.349l-1.22,1.395l-2.093-0.175l-0.871-1.394
								l0.871-1.221c0,0,0.872-1.917,0.872-1.744c0,0.173-1.394-0.523-1.394-0.523l-2.093,0.697c-0.173,0-2.267,1.221-2.094,1.047
								c0-0.174-1.046,0.523-1.046,0.523l2.792-2.267l1.218-0.174l1.221-1.22h6.277l2.093-0.35l2.79-1.569l0.174,0.349l-1.221,1.221
								l-1.394,1.57l-1.57,1.57l-0.696,0.872l2.268,0.174c0,0,1.745,0,1.921,0c0.171,0,0.346,0.697,0.346,0.697l0.874-0.697
								l0.522,1.22l1.572-1.22l-0.525-1.396l0.525-1.394h-1.917v-0.697c0,0-0.698-0.872-0.698-0.698
								c0,0.174,1.046-0.873,1.046-0.873c0,0.174-0.523-0.523-0.523-0.523l1.221-1.57l-0.698-1.744l-0.349-0.871l-1.746-0.873
								l-0.523-0.871l-0.695-0.523l0.522-1.394l-0.351-1.047l-0.523-3.313c0,0.174-2.268,1.918-2.268,1.918l-2.268,1.046
								l-1.047-0.871l0.174-1.395l1.047-1.046l-1.743-0.523l-0.174-0.523c0,0-1.57-1.57-1.57-1.394
								c-0.173,0.173-0.523,0.522-0.523,0.522l-3.488-0.349l-1.22,2.093l-0.349,1.22c0,0-1.919,1.918-2.268,2.092
								c0.174,0,1.045,0.872,1.045,0.872l-0.871,1.918l-3.139,1.744l-1.57,0.174c0,0-0.871,3.314-0.871,3.487
								c0,0.174-1.22,0.873-1.22,0.873l-0.696,1.046l-0.351-1.22c0,0-0.351-0.872-0.525-1.221c0.174,0.174,1.047,0.174,1.047,0.174
								l0.174-0.697h-0.881l0.349-1.22l0.871-1.394l-2.79-0.174l-0.696-0.697l-1.396-0.173l-0.173-0.523l-1.047-0.523l-1.047-0.697
								l-1.22,0.174v-1.047l0.352-1.046l-1.396-0.35c-16.749,14.985-27.385,36.783-27.734,60.848l1.396,0.349l2.092-0.695
								l1.397,0.695l2.089,2.441l2.094,0.521l2.092,0.697H98.7l0.35,1.219c0,0,1.047,1.223,1.218,1.396c0.176,0.172,0,1.568,0,1.568
								l0.874,0.525l1.043,1.219l0.698,0.697l0.698,0.872l0.522-0.35l1.047,0.35l1.396,1.219l0.872-0.522l-0.35-1.047l0.874-0.874
								h0.698l0.871,0.697v0.7l1.046,1.569v4.36l-0.871,1.396l-1.22,0.871v1.219l-1.22,0.353l-0.525,1.742l-0.694,1.571l0.173,1.218
								l1.046,1.047l-1.046,1.046l-0.696,1.047l0.696,2.093c0,0,0.349,1.047,0.349,0.872c0-0.173,1.047,0.697,1.047,0.697
								l1.917,3.839l1.748,2.615c0,0,2.614,5.406,2.788,5.406c0.873,0.522,6.625,4.882,6.625,4.882l1.046,5.231l0.351,11.163
								l0.874,3.137l-0.175,1.396c4.535,3.14,9.417,5.929,14.65,8.021c0.521,0,1.22,0.172,1.22,0.172l2.44-0.697
								c0,0,0.873-1.742,0.873-1.917c0-0.349,0-1.219,0-1.219s0-0.697-0.522-0.697c-0.525,0-0.525-0.347-0.698-0.871
								c-0.173-0.522-0.522-1.22-0.522-1.22l-0.696,0.173l0.696-0.694l1.394,1.042l2.092,0.353l1.746-1.746l1.218-2.792l0.525-2.093
								h1.044l1.221-2.093l0.523-1.917l-0.871-2.267l0.522-0.871l3.838-2.443l2.792-0.871l0.871-0.697c0,0,1.397-1.917,1.397-2.093
								c0-0.175,0.523-2.964,0.523-2.964s0.695-3.313,0.522-3.485c0-0.176,0.173-3.141,0-3.141s0-0.871,0-0.871l2.792-3.839
								l1.219-2.964c0,0,0.874-1.567,0.874-1.745C164.44,272.833,163.569,270.39,163.569,270.39z"/>
							<path fill="#56E295" d="M190.423,164.714l1.745,0.174c0,0,0.525-2.094,0.176-2.441c-0.349-0.174,1.22-1.57,1.22-1.57
								s0.173-0.173,0.349-0.173c-7.497-2.267-15.346-3.314-23.544-3.314l0,0c-3.313,0-6.626,0.174-9.939,0.523l0.871,0.174
								c0,0,1.917,0.871,2.266,1.22c0.352,0.349,0.174,1.221,0.174,1.918c-0.174,0.523-0.35,0.697-0.872,1.22
								c-0.349,0.697,0.872,0.347,0.872,0.347l1.57,0.698c0,0-0.523,0-1.047,0.174c-0.698,0.174-1.568,0.35-1.568,0.35l-0.176,1.22
								l2.094-0.523l-0.173,0.697l-1.569,0.349l-1.57,1.744l-0.171,3.488l0.346,2.964l0.874,2.441l1.394,0.175l1.57,1.046
								l2.094-0.174l2.093-2.964l2.267-2.093l0.698-1.22l1.047-0.694l2.442-0.523l2.964-0.698c0,0,2.792-1.917,3.139-2.093
								C182.577,166.981,190.423,164.714,190.423,164.714z"/>
							<path fill="#56E295" d="M253.202,229.237l-1.22-2.093c0,0-1.396-3.313-1.567-3.488c-0.173-0.174-0.698-1.046-0.522-1.046
								c0.171,0,1.393-0.174,1.393-0.174s0.351,0.523,0.696,0.697c-0.525-2.093-1.047-4.184-1.567-6.277
								c0,0.174-0.173,0.348-0.351,0.523c-0.349,0.349-1.047,0.697-1.396,0.349c-0.349-0.347-1.917-0.174-2.094-0.174
								c-0.171,0-1.917,0-2.266,0.35c-0.176,0.349-1.569,0.174-1.745,0c-0.176-0.174-2.967-1.22-3.14-1.22s-1.569-0.697-1.745-0.873
								c-0.173-0.175-1.568-0.349-1.568-0.523c0-0.174,0.173-0.349-0.173-0.349c-0.176,0-1.745,0.523-1.917,0.697
								c-0.176,0.174-0.698,0.523-0.698,0.523s-0.698,0.697-0.525,1.22c0,0.523,0.698,0.873,0.525,1.221
								c-0.176,0.347-1.046,0.523-1.046,0.523s-0.871-0.697-1.047-0.873c-0.349-0.174-2.792-0.523-2.792-0.523l-1.043-1.221
								c0,0-1.572-1.046-1.745-1.22c-0.176,0-1.92,0-2.27-0.174c-0.35-0.173-1.046-1.396-1.568-1.22
								c-0.349,0-0.349-0.697-0.173-0.697c0.173-0.174,0.695-1.047,0.522-1.22c0-0.174,0.349-1.047-0.349-1.395
								c-0.525-0.349-0.173-1.22-0.173-1.22s0.522-0.174,0.349-0.174c-0.176,0-1.046,0-1.223-0.174
								c-0.168-0.35-0.346-0.35-0.517-0.35c-0.176,0.174-1.572,0.35-1.746,0.35c-0.176,0-1.397,0.174-1.743,0.174
								c-0.176,0,0,0-0.176,0c-0.349,0-1.396,0.523-1.396,0.697c0,0.174-1.218,0-1.218,0c-0.173,0-1.746,0-1.746,0l-2.614,0.523
								c0,0-1.746,0.873-1.746,1.221s-0.522,0.697-0.698,0.872c-0.171,0.173-1.218,0-1.218-0.174c0-0.174-1.746,0-1.746,0
								s-0.696-0.349-0.871-0.174c-0.174,0.175-0.174-0.697-0.174-0.697l0.349-0.697l1.047-0.697l2.27-0.35l1.22-0.697l0.696-0.35
								l0.35-1.046c0,0,0.871-0.174,0.693-0.349c0-0.174-0.351-0.873-0.351-0.873l1.569-2.441l2.271-1.047l0.349-0.697
								c0,0-0.174-1.047,0-1.047c0.173-0.173,1.569-0.522,1.569-0.522l1.917,0.522c0,0,1.046-0.697,1.218-0.697
								c0.176-0.174,1.223-0.697,1.223-0.697s0.173-0.523,0.349-0.523c0.178,0,1.22-0.174,1.22,0.35
								c0.173,0.349,0.871,1.744,0.871,1.744l1.223,1.22l1.217,0.872l1.396,0.523c0,0,0.874,0.697,1.047,0.872
								c0.176,0,1.046,1.046,1.046,1.046l0.349,0.698c0,0-0.171,0.523-0.522,0.873c-0.171,0.35-0.874,1.047-1.046,0.871
								c-0.171,0-1.396-0.349-1.396-0.349l-1.396,0.174c0,0-0.173,0.35,0.176,0.523c0.346,0.35,0.871,0.174,1.217,0.523
								c0.354,0.174,1.396,0.697,1.396,0.697s0.698,0.173,0.698,0.35c0,0.175,0.176-0.35,0.176-0.872
								c0-0.349-0.176-0.873,0.349-1.047c0.346-0.174,1.044,0,1.044-0.174c0-0.173,0.173-0.347,0.173-0.347l0.525-0.523v-0.35
								l0.522-0.349c0,0-0.349-0.35-0.522-0.523c-0.173-0.349-0.525-0.349-0.349-0.698c0.171-0.349,0.696-0.697,1.045-0.523
								c0.351,0.175,1.047,0.35,1.047,0.523c0,0.35,0,0.698,0.171,0.523c0.173-0.174,0-1.046,0-1.046s-0.349-0.523-0.874-0.698
								c-0.349,0-1.396-0.522-1.568-0.697c-0.349-0.173-0.696-0.349-0.696-0.349s0.171-0.523-0.171-0.523
								c-0.351,0-1.22-0.174-1.22-0.35s-1.047-0.871-1.047-1.047c0-0.175-0.871-1.394-0.871-1.394s-0.525-0.523-0.525-0.697
								c0-0.174-0.173-0.35-0.173-0.871c-0.173-0.349,1.046-1.569,1.046-1.396c0,0.174,0.349,0.35,0.522,0.873
								s1.047,1.394,1.22,1.569c0.174,0.35,1.218,1.221,1.568,1.395c0.349,0.174,0.525,0.349,1.047,0.697
								c0.523,0.173,0.523,0.349,1.221,0.697c0.693,0.349,0.871,0.523,0.871,0.523c0.171,0.174,0.522,0.174,0.693,0.349
								c0.176,0.35,0.354,0.35,0.354,0.523c0,0.35,0.171,0.35,0.171,0.872c-0.171,0.523-0.349,0.697-0.171,0.873
								c0,0.173,1.047,2.093,1.396,2.093c0.351,0,1.569,0.523,1.394,1.046c-0.173,0.698,0.696,1.57,0.696,1.57s0.696,0,1.218,0.174
								c0-0.35,0-1.047,0.349-1.221c0.525-0.349,1.223-0.523,1.046-0.872c-0.171-0.349-0.171-0.697-0.693-1.047
								c-0.354-0.349-0.875-0.523-1.047-1.047c-0.174-0.523-0.349-1.22,0.171-1.047c0.522,0.175,0.875,1.22,1.22,0.523
								c0.176-0.697,0.698-1.22,1.046-1.046c0.349,0.174,1.047,0.349,1.047,0.697c0,0.174,0.522,1.917,0.522,1.917
								s0.173,0.173,0.349,1.046c0.176,0.873,0.874,1.047,0.698,1.221c-0.173,0.35-0.349,0.35,0.525,0.523
								c0.871,0.174,1.741,0.174,1.741,0.523c0,0.173,0.698,0.349,0.874,0.523c0.176,0.173,0.698,0.522,0.875,0.173
								c0.171-0.35,0.349-1.046,0.521-0.873c0.173,0.174,1.568,0.174,1.568,0.523c0,0.35,0.698,0.35,0.875,0.523
								c-1.047-2.441-2.093-4.883-3.318-7.324l-1.917-0.523l-1.218-0.523l-0.698-0.697h0.525l-0.175-0.873l0.175-0.523l0.521-0.347
								l0.351-1.047c-3.137-5.231-6.804-10.113-10.813-14.649c-0.173,0.175-0.698,0.523-0.873,0.523c-0.174,0-0.696,0.348-0.871,0
								c-0.176-0.174-0.354-0.697-0.354-0.697s-0.171-0.35-0.171-0.173c0,0.175-0.522,0.173-0.522,0.173l-0.875,0.35
								c0,0-0.525,0.349-0.696,0.523c-0.171,0-0.693,0-0.871,0.174c-0.173,0.174-0.875,0.697-1.046,0.349
								c-0.171-0.174-0.351,0.174-0.522-0.174c-0.174-0.347-0.174-0.871-0.354-0.697c-0.171,0-0.871,0.173-0.871,0.35
								c0,0.173-0.171,0.173-0.349,0.347c-0.173,0.174-1.22,0.35-1.22,0.35v-0.173l1.22-1.047l0.349-1.047
								c0,0,1.046,0.174,1.219,0.349c0,0.175,0.349-0.349,0.525,0c0.349,0.175,0.694,0.175,0.694,0.523
								c0,0.175,0.175,0.523,0.352,0.35c0-0.173,0-0.697,0-0.697s-0.352-0.174-0.525-0.35c-0.173-0.175-0.173-0.523,0-0.523
								c0.173-0.174,0.698-0.347,0.874-0.347c0.173,0.173,0.871-0.174,0.871-0.174s0.173-0.174,0.173-0.35s0.525-1.047,0.525-1.047
								s-0.352-0.174-0.352-0.523v-0.174c-2.79-2.79-5.928-5.231-9.065-7.498c-0.522,0.174-1.047,0.35-1.047,0.35l-1.396,1.394
								c0,0-0.349,0.697-0.522,0.872c0,0.174,0.173,2.093,0.173,2.093s0.874,0,0.696,0.35c-0.175,0.174-0.175,1.394-0.175,1.394
								l1.047,0.697c0,0,1.396,0.523,1.57,0.35c0.173,0,0.872-0.523,0.872-0.523c0.171,0,0.874-0.871,1.218-0.871
								c0.171,0,0.875-0.698,1.046-0.35c0,0.174,0.171,1.221,0.349,1.394c0.176,0.175,0.698,0.523,0.872,1.047
								c0.175,0.523,0.525,1.047,0.352,1.047c0,0.174-0.525,0.523-0.525,0.523s-1.043,0.173-1.22,0.347
								c-0.173,0.174-0.349,0.174-0.521,0.174s0.349-0.523,0.521-0.697c0.176-0.174-0.173-0.698-0.349-0.698
								c-0.176,0-0.349-0.349-0.173-0.349c0.173-0.174,0.173-0.872,0.173-0.872s-0.173-0.174-0.349,0
								c-0.173,0-1.396,0.523-1.396,0.523s-0.698,0.697-0.698,0.872c0,0.173-0.349,0.872-0.173,1.394
								c0.173,0.523,0.698,1.396,0.698,1.396s0.522,0.348,0.349,0.523c-0.176,0.176-0.525,0.697-0.525,0.697h-0.871
								c0,0-1.568,0.174-1.745,0.35c-0.173,0-1.571,0.523-1.571,0.697c0,0.173-0.346,1.745-0.346,1.745s-1.571,1.047-1.746,1.047
								c-0.176,0-1.221,0.349-1.221,0.349s-0.521,1.395-0.521,1.22l-1.746,0.872c0,0-2.793-0.872-2.793-1.046
								c0-0.174-0.522-0.523-0.522-0.349c0,0.174,0.522,1.221,0.522,1.396c0,0.174,0,0.697,0,0.523
								c-0.171-0.174-0.871-0.35-1.047-0.523c-0.171,0-1.396,0-1.396,0h-0.522l-0.693,0.523v0.523l0.35,0.349l1.218,0.523
								l1.218,0.698l0.521,1.22l0.525,1.046l-0.349,2.267c0,0.174-0.874,0.697-0.874,0.697l-2.442-0.174c0,0-1.22-0.174-1.22-0.35
								c-0.173,0-1.744,0.174-1.744,0c0-0.174-0.522-0.174-0.522-0.174l-0.173-0.35h-0.698l-0.696,0.873h-0.875v0.697l0.354,1.394
								c0-0.174-0.176,1.745-0.176,1.745s-0.696,1.569-0.871,1.743v1.047l0.522,0.697v0.872c0,0-0.351,0.872-0.171,0.697
								c0.171,0,1.218,0,1.396-0.174c0-0.174,0.696-0.523,0.874-0.174c0.173,0.174,0.522,0,0.695,0.35
								c0.171,0.348,0.52,1.047,0.52,1.221c0,0.173,0.351,0.173,0.351,0.173l0.174,0.35l-0.174,0.173l-0.871,2.092l-1.919,1.396
								l-1.218,0.697l-0.352,0.872l-0.522,0.523l-0.173,1.046c0,0,0.173,1.396,0,1.396l-2.615,2.614l-1.396,0.35l-0.871,1.395
								c0,0-1.046,1.047-1.223,1.22c0,0.174-0.698,0.873-0.698,0.873s0.354,1.046,0.354,0.873c0,0,0.693,1.046,0.871,1.395
								c1.221,3.488,1.746,5.057,1.221,8.544c-0.352,2.964-2.964,6.8-4.884,8.721l-0.171,0.522c0,0,0.521,0.524,0.693,0.349
								c0.176-0.172,1.223,0.698,1.399,0.875c0.173,0.175,1.394,1.917,1.394,1.917l0.171,0.35l0.698,2.267
								c0,0,3.14,2.618,3.14,2.443c0-0.176,3.313,2.442,3.313,2.442l2.616-1.222c0,0.175,2.266-0.173,2.266-0.173l1.396,0.173
								l1.047,0.525l3.662-1.746l0.695-0.521l2.791-0.175l1.396,0.524c0,0,0.874,1.394,0.874,1.569c0,0.175,0.522,1.219,0.698,1.046
								c0-0.172,3.137-0.35,3.313-0.172c0.173,0,1.393,1.393,1.393,1.393v1.222l-0.173,2.267l-0.521,1.047l-0.349,1.046
								l-0.173,0.694c0,0,3.314,4.709,3.314,4.885c0,0.172,0.873,1.917,0.873,1.917l1.045,2.439l0.522,1.396l-0.522,0.872
								l0.873,2.442l-0.351,2.439l-1.393,3.14l-0.696,2.267l0.171,2.964l1.746,3.489l1.745,4.011l0.173,4.356l0.874,1.572
								c16.041-15.346,26.159-36.795,26.159-60.862C254.076,237.083,253.727,233.248,253.202,229.237z"/>
							<path fill="#56E295" d="M116.31,236.91c0.351,0.173,0.696,0,0.873,0c0.177,0,0.871-0.174,0.871-0.174
								s0.176,0.522,0.176,0.697c0,0.172,1.045,0,1.045-0.175c0-0.173,0.351-0.522,0.351-0.522l1.393-0.35h1.917
								c0.176,0,0.352-0.35,0-0.872c-0.349-0.523-1.218-0.697-1.393-1.22c-0.173-0.348-1.22-0.174-1.572,0
								c-0.346,0.174-1.742-0.348-2.267-0.348c-0.349,0,0,0.523,0,0.523v1.396h-1.744v0.174c0,0-0.525,0.173-0.525,0.522
								C115.435,236.913,115.963,236.736,116.31,236.91z"/>
							<path fill="#56E295" d="M116.485,233.248c0-0.174-0.871-0.35-1.22-0.35c-0.348,0-1.917-1.57-2.094-1.917
								c-0.173-0.349-3.659-1.221-3.659-1.221s-4.011-0.174-4.011-0.35s-1.917,1.395-1.917,1.395v0.174c0,0,0.173,0.697,0.173,0.873
								s1.22-0.873,1.393-1.221c0.176-0.347,1.046-0.523,1.221-0.697c0.174-0.174,0.347,0.523,0.523,0.523
								c0.176,0,1.22,0.348,1.22,0.348l1.917,0.697l0.696,0.697c0,0,0.351,1.745,0.351,1.919c0,0.172,1.396,0.172,1.396,0.172
								l2.792-0.347C115.614,233.945,116.485,233.422,116.485,233.248z"/>
						</g>
					</g>
				</g>
			</g>
			<g id="Laag_22_1_">
				<g>
					<g>
						<path fill="#FFFFFF" d="M630.085,262.302l53.77,42.141c1.625,1.628,3.788,2.704,6.49,2.704c2.156,0,4.875-1.075,6.494-2.704
							c18.391-18.935,46.517-47.07,49.765-50.307c0.533,0,0.533-0.535,1.084-1.083c7.035-8.122,14.063-17.318,14.063-34.081
							c0-25.435-22.936-39.984-46.202-39.984c-11.354,0-21.636,4.871-29.204,12.981c-7.58-8.116-18.393-12.981-29.217-12.981
							c-23.262,0-42.202,20.558-42.202,45.984C614.396,240.671,620.343,254.191,630.085,262.302z"/>
					</g>
					<path fill="#07934A" d="M752.56,219.516c0-20.014-18.609-30.783-37.001-30.783c-12.979,0-23.81,8.113-29.214,19.475
						c-5.411-11.901-16.774-19.475-29.217-19.475c-18.39,0-32.999,16.228-32.999,36.783c0,12.442,4.327,23.8,12.979,30.295
						l53.766,42.688c0,0,51.941-52.471,50.312-50.318C747.695,239.535,752.56,232.502,752.56,219.516z"/>
				</g>
			</g>
		</g>
	</g>
	<g id="Layer_4" display="inline">
		<g>
			<g id="Laag_1">
				<path id="XMLID_125_" fill="#FECEA2" d="M526.339,212.327c-17.299-32.866-61.582-44.514-95.14-44.514
					c-33.56,0-77.843,11.648-95.142,44.514c-16.952,32.175-2.538,70.923,35.865,70.923c2.999,0,22.833-2.076,38.632-5.189
					c13.608-2.652,27.562-2.652,41.17,0c15.915,3.113,35.634,5.189,38.633,5.189C528.875,283.135,543.292,244.501,526.339,212.327z"
					/>
			</g>
		</g>
	</g>
	<g id="Layer_6" display="inline">
		<circle fill="#EFE8E3" cx="474.647" cy="235.531" r="32.998"/>
		<circle fill="#EFE8E3" cx="382.98" cy="234.547" r="32.998"/>
	</g>
	<g id="Layer_7" display="inline">
		<rect x="474.647" y="235.531" fill="#EFE8E3" width="0" height="0"/>
		<circle fill="#784F30" cx="474.647" cy="235.531" r="25.912"/>
		<circle fill="#784F30" cx="382.98" cy="234.295" r="26.749"/>
	</g>
	<g id="Layer_8" display="inline">
		<circle fill="#020200" cx="474.647" cy="235.531" r="14.912"/>
		<circle fill="#020200" cx="382.98" cy="234.547" r="14.912"/>
	</g>
	<g id="Layer_9" display="inline">
		<ellipse fill="#EFE8E3" cx="371.121" cy="222.057" rx="11.859" ry="11.88"/>
		<ellipse fill="#EFE8E3" cx="464.121" cy="221.499" rx="11.859" ry="11.88"/>
	</g>
	<path display="inline" fill="#2D2723" d="M433.583,207.546l8.065,12.089c0,0,48.882-29.685,68.549-31.711l-20-17.689
		C490.198,170.234,438.583,199.621,433.583,207.546z"/>
	<path display="inline" fill="#2D2723" d="M420.978,208.667l-8.065,12.089c0,0-48.882-29.685-68.549-31.711l20-17.689
		C364.364,171.355,415.978,200.742,420.978,208.667z"/>
</g>
</svg>
