<?xml version="1.0" encoding="utf-8"?>
<!-- Generator: Adobe Illustrator 16.0.0, SVG Export Plug-In . SVG Version: 6.00 Build 0)  -->
<!DOCTYPE svg PUBLIC "-//W3C//DTD SVG 1.1//EN" "http://www.w3.org/Graphics/SVG/1.1/DTD/svg11.dtd">
<svg version="1.1" id="Layer_1" xmlns="http://www.w3.org/2000/svg" xmlns:xlink="http://www.w3.org/1999/xlink" x="0px" y="0px"
	 width="850.395px" height="496.063px" viewBox="0 0 850.395 496.063" enable-background="new 0 0 850.395 496.063"
	 xml:space="preserve">
<g id="Layer_2_1_">
	<g>
		<g>
			<g>
				<g>
					<path fill="#3B3B3B" d="M354.914,240.466"/>
					<path fill="#3B3B3B" d="M455.634,254.053"/>
					<g>
						<path fill="#2BA954" d="M396.589,202.255c-5.646-9.89,0.083-4.794-1.417-14.832c0,0,1.833-2.193,5.143-5.729
							c8.317-3.109,50.008-2.517,50.008-2.517s-1.266,8.082,5.685,12.33c7.736,7.422,7.458,8.666,11.628,19.75
							c0.623,4.725-0.742-4.404-8.461-3.168c0,0,1.344,6.658-3.539,1c-0.67-0.773-7.771,5.174-3.615-3.416
							c4.369-9.031,3.945,16.201,0,3.051c0,0-0.125,25.947-3.25,41.454c-1.52,7.541,4.402,14.514,4.342,16.938
							c-0.104,4.245,16.213,1.676,23.441,1.223c2.881-0.18,13.94,0.224,15.541,2.9c0,0,9.498,13.551,2.651,18.856
							c0,0-33.666,8.238-55.317,3.07c0,0-12.201-2.795-27.613-0.838c0,0-30.219,2.096-39.997,1.256c0,0-12.712,1.396-10.198-7.961
							c1.281-4.768,1.781-12.646,10.582-17.813c3.718-2.183,16.767-0.699,22.369-1.99c3.812-0.877,4.889-16.063,4.889-16.063
							s-6.26-20.069-4.787-39.987"/>
					</g>
					<path fill="#15823C" d="M399.455,185.622c0,0,8.03,11.835,24.598,11.835c16.563,0,26.999-17.729,26.999-17.729
						s-3.75,19.67-26.999,19.67S399.455,185.622,399.455,185.622"/>
					<path fill="#15823C" d="M406.739,272.211c0,0-8.524-3.354-15.894-5.098l14.771,5.861L406.739,272.211"/>
					<path fill="#15823C" d="M455.003,272.771c0,0,11.245-3.354,20.467-3.982c0,0-16.326,3.367-18.291,4.863
						C455.214,275.146,457.309,272.98,455.003,272.771"/>
					<path fill="#15823C" d="M419.871,277.939c0,0,6.705-1.535,12.989,2.444c0,0,3.916,2.021,5.658,1.886c1.738-0.136,0,0,0,0
						s15.086,0.35,16.482,12.852c0,0-4.189-12.852-16.559-11.939c0,0-3.143-0.143-6.496-2.024c0,0-3.211-2.654-12.082-3.072"/>
					<path fill="#15823C" d="M434.816,276.682c0,0-2.041-2.727-5.561-3.354c0,0-7.572-0.27-10.504,0.844
						c0,0-4.893,1.393-7.124,1.393c-2.235,0,3.28,0.32,7.475-0.571c4.19-0.896,8.171-1.229,9.917-0.816
						C430.768,274.586,432.582,275.076,434.816,276.682"/>
					<path fill="#2EEA93" d="M418.684,291.91c0,0-6.775-8.939,1.188-13.971l-13.134-5.729c0,0-14.179,10.896-6.073,20.813
						L418.684,291.91z"/>
					<path fill="#2EEA93" d="M434.816,276.682c0,0,3.424,2.652,3.703,5.588c0,0,14.771,0.763,16.344,12.853h4.607
						c0,0,3.215-21.371-4.469-22.351L434.816,276.682z"/>
					<path fill="#15823C" d="M417.427,185.193c0.056-0.174,0.112-0.344,0.146-0.521c0.021-0.063,0.027-0.121,0.027-0.187
						c0-0.175-0.109-0.271-0.236-0.296c-0.018-0.069-0.057-0.135-0.13-0.186c-0.267-0.183-0.77-0.988-0.93-1.521
						c-0.022-0.146-0.033-0.291-0.032-0.44c0.004-0.351-0.541-0.435-0.617-0.084c-0.006,0.028-0.007,0.058-0.01,0.084
						c-0.001,0-0.001,0-0.001,0c0,0.002,0,0.007,0,0.011c-0.012,0.104-0.005,0.215,0.016,0.322c0.1,0.982,0.642,1.786,1.03,2.676
						c-0.076,0.141-0.155,0.278-0.237,0.414c-0.029,0.059-0.104,0.182-0.188,0.316c-0.11-0.087-0.268-0.103-0.386,0.037
						c-0.677,0.777-1.35,1.556-1.99,2.355c-0.252,0.313,0.188,0.762,0.443,0.444c0.449-0.563,0.92-1.11,1.391-1.659
						c0.459-0.038,0.782-0.463,1.044-0.824c0.087-0.117,0.166-0.242,0.242-0.367c0.211,0.213,0.604-0.028,0.513-0.316
						C417.49,185.364,417.46,185.278,417.427,185.193z"/>
					<path fill="#15823C" d="M437.604,190.405c-0.779-1.207-1.299-2.058-2.244-3.118c-0.666-0.75-0.668-1.6-0.799-2.535
						c-0.133-0.961-0.967-2.254-1.061-3.229c-0.041-0.398-0.152-0.233-0.115,0.17c0.088,0.898,0.287,1.979,0.49,2.859
						c0.165,0.723,0.074,1.662,0.445,2.332c0.836,1.508,2.438,2.394,3.365,3.836C437.907,191.062,437.823,190.747,437.604,190.405z"
						/>
					<path fill="#2EEA93" d="M447.281,151.396c0,0,11.378,2.983,13.779,9.623c2.404,6.638,1.445,12.297,6.572,13.873h-4.813
						c0,0-4.645-6.842-5.364-11.047c-0.726-4.203-9.231-7.293-9.231-7.293L447.281,151.396z"/>
					<g>
						<path fill="#2BA954" d="M453.767,167.175c0,16.728-13.563,30.285-30.288,30.285c-6.131,0-11.836-1.82-16.604-4.951
							c-8.24-5.414-13.686-14.738-13.686-25.334c0-16.729,13.563-30.287,30.287-30.287
							C440.203,136.888,453.767,150.449,453.767,167.175z"/>
					</g>
					<g>
						<g id="Laag_1_1_">
							<path id="XMLID_1_" fill="#FECEA2" d="M446.349,157.843c-4.158-7.898-14.803-10.699-22.869-10.699
								c-8.063,0-18.713,2.801-22.869,10.699c-4.076,7.734-0.607,17.049,8.621,17.049c0.723,0,5.488-0.498,9.285-1.248
								c3.271-0.637,6.625-0.637,9.896,0c3.825,0.75,8.565,1.248,9.286,1.248C446.96,174.865,450.423,165.579,446.349,157.843z"/>
						</g>
					</g>
					<g>
						<path fill="#2EEA93" d="M394.004,160.183c0,0,19.802-15.732,58.014-3.168c0,0-0.738-6.188-3.981-7.567
							c-25.023-10.638-49.397,0.399-49.397,0.399S394.662,156.245,394.004,160.183z"/>
					</g>
					<path fill="#2D2723" d="M427.654,154.878l0.632,3.438c0,0,11.614-1.905,16.147-0.482l-2.731-5.807
						C441.701,152.025,429.515,153.605,427.654,154.878z"/>
					<path fill="#2D2723" d="M419.297,155.019l-0.873,3.384c0,0-11.445-2.867-16.069-1.771l3.139-5.6
						C405.492,151.035,417.533,153.618,419.297,155.019z"/>
					<path fill="#443529" d="M427.623,160.306c0,0,1.892,4.709,6.521,4.822c2.693,0.067,6.912-0.363,8.756-4.111
						c0,0-3.592,3.123-8.396,2.834C430.994,163.64,429.15,161.765,427.623,160.306z"/>
					<path fill="#443529" d="M412.106,163.851c-4.807,0.289-8.396-2.834-8.396-2.834c1.844,3.748,6.063,4.18,8.756,4.111
						c4.631-0.115,6.521-4.822,6.521-4.822C417.459,161.765,415.614,163.64,412.106,163.851z"/>
				</g>
			</g>
		</g>
	</g>
	<path fill="#2BA954" d="M450.314,182.232c0,0,6.023-1.385,9.19,5.607c9.618,21.238,27.667,28.418,39.408,5.584l17.854,2.314
		c0,0-8.597,36.509-27.442,38.919c-18.845,2.409-46.286-26.114-46.286-26.114L450.314,182.232z"/>
	<path fill="#2BA954" d="M398.247,183.933c0,0-5.149-0.51-9.159,5.115c-8.688,12.188-25.122,30.635-36.975,7.592l-17.854,2.313
		c0,0,7.272,34.524,26.119,36.935c18.847,2.41,43.015-22.129,43.015-22.129L398.247,183.933z"/>
	<path fill="#2EEA93" d="M495.371,193.339c0,0-1.58,8.961-8.767,13.145c0,0,20.062-1.883,21.054,12.691
		c0.029,0.457,11.838-20.793,9.109-27.82C515.201,187.32,495.371,193.339,495.371,193.339"/>
	<path fill="#2EEA93" d="M353.878,192.312c0,0,0.825,10.477,8.01,14.658c0,0-18.583-0.983-19.575,13.592
		c-0.03,0.453-11.237-21.223-8.51-28.25C335.367,188.275,353.878,192.312,353.878,192.312"/>
	<path fill="#FECEA2" d="M315.425,173.916c0,0-4.167,13.471,11.453,21.491c8.672,4.452,10.628,5.18,10.628,5.18
		s15.307-0.11,15.603-2.646c0.295-2.534,6.394-13.445,5.29-18.516"/>
	<path fill="#FECEA2" d="M498.255,194.667c0,0-6.55-7.912-6.282-14.799c0.267-6.888,2.476-13.752,2.476-13.752l22.321-3.134
		c0,0,8.928,9.943,8.928,11.266s1.652,7.409-2.313,12.631c-3.969,5.223-8.928,11.836-8.928,11.836S499.782,197.904,498.255,194.667z
		"/>
	<g>
		<g id="Laag_7_2_" display="none">
			<path display="inline" opacity="0.1" enable-background="new    " d="M497.326,358.957l-3.806-0.52c0,0,0-0.808-0.288-1.674
				c-0.578-2.361-1.211-4.15-2.188-6.343c-0.289-0.75-0.636-1.44-0.865-1.961l0,0l0,0l3.113-3.633l-8.305-11.589l-5.304,2.363
				c-6.457-5.188-13.953-6.977-22.89-6.977c-20.932,0-37.882,16.949-37.882,37.879c0,20.932,16.95,37.881,37.882,37.881
				c0.402,0,0.807,0,1.269-0.059l2.941,5.42l12.683-3.979l-0.923-4.959c3.345-1.557,5.823-3.229,8.534-5.592l3.632,1.615
				l8.014-10.494l-2.594-3.055c0.748-1.675,3.574-8.994,3.805-10.382l3.285-0.688v-13.262h-0.113V358.957L497.326,358.957z
				 M489.484,347.309L489.484,347.309L489.484,347.309z M490.117,348.404C490.062,348.404,490.062,348.404,490.117,348.404
				C490.062,348.404,490.062,348.404,490.117,348.404z M490.062,348.291C490.005,348.291,490.005,348.291,490.062,348.291
				C490.005,348.291,490.005,348.291,490.062,348.291z M489.945,348.174C489.945,348.174,489.945,348.115,489.945,348.174
				C489.945,348.115,489.945,348.174,489.945,348.174z M489.891,348.059c0-0.059-0.06-0.059-0.06-0.115
				C489.891,348.002,489.891,348.059,489.891,348.059z M489.773,347.826L489.773,347.826L489.773,347.826z M489.716,347.77
				c0-0.057-0.058-0.057-0.058-0.115C489.716,347.713,489.716,347.713,489.716,347.77z M489.657,347.539l-0.057-0.059
				C489.602,347.539,489.602,347.539,489.657,347.539z M489.602,347.48C489.602,347.424,489.543,347.424,489.602,347.48
				C489.543,347.424,489.602,347.424,489.602,347.48z M489.543,347.367L489.543,347.367L489.543,347.367z"/>
		</g>
		<g id="Laag_8_2_">
		</g>
		<g id="Laag_21_2_">
		</g>
		<g id="Laag_20_2_">
		</g>
		<g id="Laag_15_2_">
		</g>
		<g id="Laag_19_2_">
		</g>
		<g id="Laag_4_2_">
		</g>
		<g id="Laag_2_2_">
		</g>
		<g id="Laag_12_2_">
		</g>
		<g id="Laag_11_2_">
		</g>
		<g id="Laag_10_2_" display="none">
			<g display="inline">
				<g>
					<g>
						<g>
							<g>
								<g>
									<defs>
										<ellipse id="SVGID_1_" cx="453.336" cy="158.368" rx="44.509" ry="45.549"/>
									</defs>
									<clipPath id="SVGID_2_">
										<use xlink:href="#SVGID_1_"  overflow="visible"/>
									</clipPath>
									<path opacity="0.1" clip-path="url(#SVGID_2_)" enable-background="new    " d="M597.071,305.277l-0.229-0.23l0,0
										l-0.229-0.229l0,0l-0.229-0.23l0,0l-0.231-0.229l0,0l-0.229-0.232l0,0l-0.23-0.229l0,0l-0.346-0.404l0,0l-0.229-0.23l0,0
										l-0.23-0.229l0,0l-0.23-0.23l0,0l-0.229-0.229l0,0l-0.23-0.229l0,0l-0.229-0.229l0,0l-0.23-0.23l0,0l-0.229-0.229l0,0
										l-0.23-0.229l0,0l-0.229-0.231l0,0l-0.229-0.229l0,0l-0.229-0.229l0,0l-0.229-0.229l0,0l-0.229-0.231l0,0l-0.229-0.229l0,0
										l-0.229-0.229l0,0l-0.229-0.23l0,0l-0.229-0.229l0,0l-0.23-0.232l0,0l-0.229-0.229l0,0l-0.23-0.23l0,0l-0.229-0.229l0,0
										l-0.229-0.232l0,0l-0.229-0.229l0,0l-0.23-0.229l0,0l-0.234-0.238l0,0l-0.231-0.229l0,0l-0.231-0.229l0,0l-0.229-0.231l0,0
										l-0.229-0.229l0,0l-0.229-0.229l0,0l-0.231-0.232l0,0l-0.229-0.229l0,0l-0.23-0.229l0,0l-0.229-0.229l0,0l-0.229-0.23l0,0
										l-0.229-0.23l0,0l-0.229-0.229l0,0l-0.229-0.23h0.923V287.6h-0.231v-0.229h-0.229v-1.152h-0.23v-0.229h-0.229v-0.229h-0.23
										v-0.231h-0.229v-0.229h-0.231v-0.229h-0.229v-0.229h-0.231v-0.231h-0.229v-0.23h-0.231v-0.229h-0.229v-0.23h-0.229v-0.113
										h3.229v-6.932h-0.229v-0.23h-0.229v-0.229h-0.229v-0.229h-0.229v-0.229h-0.23v-0.229h-0.251v-0.231h-0.229v-0.229h-0.23
										v-0.23h-0.229v-0.229h-0.23v-0.691h-0.229v-0.229h-0.229v-0.229h-0.229v-0.229h-0.231v-0.229h-0.229v-0.23h-0.229v-0.229
										h-0.23v-0.23h-0.229v-0.23h-0.229v-0.461h-0.229v-0.229h-0.23v-0.229h-0.229v-0.231h-0.23v-0.229h-0.229v-0.229h-1.613
										v-0.229h-0.23v-0.348h-0.229v-0.229h-0.249v-0.23h-0.229v-0.23h-0.23v-0.229h-0.229v-0.229h-0.347v-0.229h-0.229v-0.229
										h-0.229v-0.232h-0.23v-0.459h-0.229v-0.229h-0.23v-0.232h-0.229v-0.229h-0.348v-0.229h-0.229v-0.229h-0.231v-0.229h-0.229
										v-0.23h-0.229v-0.229h-0.229v-0.461h-0.231v-0.23h-0.346v-0.23h-0.23v-0.057c1.559-0.637,3.229-0.922,5.02-0.922
										c3.804,0,7.263,1.494,10.146,3.977l0.058,0.057l0,0c0,0,0,0,0.058,0.06c0.059,0.06,0.116,0.174,0.23,0.229l0,0
										c0.058,0.119,0.174,0.174,0.229,0.291l0,0c0.057,0.114,0.172,0.172,0.229,0.287l0,0c0.057,0.114,0.174,0.174,0.229,0.289
										l0,0c0.059,0.112,0.172,0.172,0.231,0.288l0,0c0.057,0.113,0.172,0.173,0.229,0.287l0,0
										c0.062,0.115,0.175,0.175,0.231,0.289l0,0c0.057,0.115,0.173,0.172,0.229,0.287l5.189-5.306
										c-0.635-0.807-1.271-1.497-1.961-2.247c-0.058-0.058-0.172-0.175-0.229-0.23c-0.057-0.055-0.173-0.17-0.229-0.229
										c-0.059-0.059-0.173-0.174-0.229-0.229c-0.058-0.059-0.174-0.172-0.229-0.229c-0.058-0.061-0.174-0.174-0.229-0.229
										c-0.058-0.059-0.172-0.174-0.229-0.229c-0.06-0.06-0.174-0.174-0.229-0.23c-0.058-0.057-0.174-0.174-0.229-0.23
										c-0.06-0.057-0.173-0.174-0.23-0.229c-0.057-0.059-0.173-0.174-0.229-0.23c-0.06-0.059-0.173-0.174-0.23-0.229
										c-0.057-0.06-0.173-0.174-0.229-0.229c-0.058-0.058-0.174-0.172-0.229-0.229c-0.057-0.06-0.173-0.174-0.229-0.229
										c-0.06-0.058-0.176-0.175-0.23-0.229c-0.058-0.06-0.174-0.174-0.229-0.231c-0.061-0.058-0.173-0.171-0.23-0.229
										c-0.057-0.06-0.174-0.172-0.229-0.229c-0.058-0.058-0.175-0.175-0.23-0.23c-0.056-0.057-0.172-0.174-0.229-0.229
										c-0.059-0.059-0.173-0.174-0.231-0.229c-0.057-0.057-0.172-0.172-0.229-0.229c-0.059-0.059-0.174-0.174-0.229-0.229
										c-0.058-0.057-0.174-0.172-0.229-0.23c-0.059-0.057-0.174-0.172-0.23-0.229c-0.058-0.062-0.173-0.176-0.229-0.23
										c-0.06-0.057-0.177-0.174-0.23-0.23c-0.057-0.059-0.174-0.174-0.229-0.229c-0.057-0.056-0.174-0.172-0.229-0.229
										c-0.058-0.057-0.172-0.174-0.229-0.229c-0.059-0.059-0.174-0.174-0.23-0.232c-0.057-0.057-0.172-0.172-0.229-0.229
										c-0.059-0.057-0.174-0.172-0.229-0.23c-0.057-0.057-0.174-0.174-0.229-0.229c-0.06-0.06-0.175-0.172-0.23-0.229
										c-0.058-0.059-0.174-0.174-0.229-0.229c-0.058-0.06-0.173-0.172-0.229-0.229c-0.057-0.057-0.173-0.174-0.229-0.229
										c-0.058-0.06-0.175-0.174-0.229-0.229c-0.059-0.058-0.174-0.175-0.23-0.229c-0.058-0.06-0.174-0.174-0.229-0.229
										c-0.06-0.058-0.174-0.175-0.229-0.23c-0.057-0.057-0.175-0.172-0.229-0.23c-0.059-0.059-0.172-0.172-0.231-0.229
										c-0.057-0.059-0.172-0.174-0.229-0.232c-0.057-0.055-0.171-0.174-0.229-0.229c-0.057-0.059-0.173-0.174-0.229-0.23
										c-0.06-0.059-0.173-0.174-0.23-0.229c-0.058-0.059-0.173-0.174-0.229-0.23c-0.058-0.057-0.174-0.174-0.23-0.229
										c-0.056-0.059-0.173-0.174-0.229-0.23c-0.058-0.059-0.173-0.174-0.23-0.229c-0.057-0.059-0.172-0.176-0.229-0.232
										c-0.058-0.057-0.174-0.172-0.231-0.229c-0.057-0.059-0.173-0.174-0.229-0.23c-0.061-0.059-0.173-0.174-0.231-0.23
										c-0.057-0.059-0.172-0.172-0.229-0.229c-0.061-0.059-0.175-0.174-0.231-0.232c-0.057-0.055-0.173-0.172-0.229-0.229
										c-0.059-0.057-0.173-0.174-0.229-0.23c-0.059-0.057-0.173-0.174-0.229-0.229c-0.058-0.059-0.172-0.174-0.229-0.232
										c-0.057-0.057-0.172-0.171-0.229-0.229c-0.059-0.06-0.174-0.174-0.229-0.23c-0.059-0.059-0.174-0.173-0.229-0.23
										c-0.059-0.057-0.176-0.172-0.229-0.229c-0.059-0.06-0.174-0.174-0.23-0.231c-0.06-0.058-0.173-0.172-0.229-0.229
										c-0.056-0.057-0.172-0.174-0.229-0.23c-0.058-0.056-0.173-0.174-0.23-0.229c-0.058-0.06-0.172-0.175-0.229-0.231
										c-0.059-0.057-0.173-0.174-0.23-0.229c-0.058-0.059-0.173-0.174-0.229-0.23c-0.06-0.059-0.176-0.174-0.23-0.229
										c-0.057-0.06-0.173-0.175-0.229-0.231c-0.058-0.058-0.172-0.174-0.229-0.23c-0.057-0.056-0.174-0.172-0.229-0.229
										c-0.059-0.058-0.176-0.173-0.23-0.229c-0.055-0.056-0.173-0.174-0.229-0.229c-0.059-0.058-0.172-0.174-0.229-0.231
										c-0.059-0.055-0.175-0.17-0.23-0.229c-0.057-0.059-0.174-0.174-0.229-0.23c-0.06-0.059-0.173-0.174-0.229-0.229
										c-0.06-0.058-0.174-0.173-0.229-0.231c-0.057-0.058-0.173-0.172-0.229-0.229c-0.059-0.059-0.174-0.174-0.23-0.23
										c-0.057-0.059-0.172-0.174-0.229-0.231c-0.058-0.057-0.174-0.171-0.229-0.229c-0.057-0.058-0.173-0.172-0.229-0.229
										c-0.059-0.058-0.175-0.173-0.229-0.231c-0.059-0.056-0.174-0.17-0.229-0.229c-0.06-0.057-0.175-0.174-0.229-0.23
										c-0.059-0.058-0.173-0.174-0.229-0.229c-0.059-0.058-0.172-0.173-0.229-0.229c-0.058-0.059-0.173-0.174-0.229-0.231
										c-0.058-0.057-0.174-0.173-0.229-0.229c-0.058-0.058-0.174-0.173-0.229-0.23c-0.114-0.172-0.288-0.288-0.462-0.461
										l-0.058-0.057c-0.059-0.058-0.173-0.173-0.229-0.23c-0.058-0.059-0.173-0.172-0.23-0.23
										c-0.057-0.057-0.171-0.172-0.229-0.23c-0.059-0.057-0.172-0.172-0.229-0.229c-0.059-0.058-0.172-0.173-0.229-0.229
										c-0.06-0.059-0.174-0.174-0.23-0.23c-0.059-0.058-0.173-0.173-0.229-0.23c-0.058-0.057-0.172-0.172-0.229-0.23
										c-0.059-0.057-0.173-0.173-0.229-0.23c-0.058-0.057-0.176-0.172-0.229-0.229c-0.059-0.059-0.173-0.174-0.23-0.23
										c-0.058-0.058-0.173-0.172-0.229-0.23c-0.061-0.057-0.175-0.172-0.23-0.229c-0.059-0.06-0.175-0.174-0.229-0.231
										c-0.06-0.058-0.174-0.173-0.23-0.229c-0.059-0.059-0.174-0.174-0.229-0.23c-0.058-0.059-0.175-0.173-0.229-0.23
										c-0.056-0.057-0.173-0.172-0.229-0.229c-0.057-0.057-0.173-0.173-0.229-0.229c-0.058-0.058-0.172-0.174-0.229-0.23
										c-0.057-0.059-0.173-0.174-0.229-0.23c-0.06-0.057-0.176-0.173-0.23-0.23c-0.059-0.057-0.174-0.172-0.229-0.229
										c-0.059-0.059-0.174-0.175-0.229-0.23c-0.059-0.059-0.175-0.174-0.229-0.23c-0.057-0.058-0.174-0.173-0.23-0.23
										c-0.056-0.059-0.171-0.172-0.229-0.23c-0.059-0.058-0.173-0.172-0.229-0.229c-0.06-0.057-0.175-0.172-0.231-0.229
										c-0.06-0.057-0.172-0.173-0.229-0.229c-0.059-0.057-0.173-0.174-0.229-0.23c-0.061-0.058-0.174-0.173-0.229-0.229
										c-0.058-0.057-0.175-0.172-0.23-0.229c-0.057-0.058-0.172-0.173-0.229-0.229c-0.057-0.059-0.173-0.172-0.229-0.231
										c-0.059-0.058-0.174-0.172-0.229-0.229c-0.056-0.057-0.174-0.172-0.229-0.23c-0.059-0.059-0.174-0.172-0.23-0.23
										c-0.06-0.057-0.173-0.174-0.229-0.229c-0.057-0.058-0.173-0.173-0.229-0.229c-0.058-0.058-0.174-0.172-0.229-0.23
										c-0.057-0.059-0.173-0.173-0.229-0.23c-0.058-0.057-0.172-0.172-0.229-0.229c-0.057-0.057-0.173-0.173-0.229-0.229
										c-0.059-0.058-0.174-0.172-0.229-0.23c-0.058-0.059-0.172-0.172-0.229-0.23c-0.058-0.058-0.173-0.172-0.229-0.229
										c-0.058-0.06-0.174-0.173-0.229-0.229c-0.058-0.059-0.174-0.174-0.229-0.231c-0.057-0.058-0.173-0.173-0.229-0.231
										c-0.057-0.056-0.173-0.171-0.229-0.229c-0.058-0.057-0.173-0.174-0.23-0.229c-0.059-0.06-0.173-0.175-0.229-0.23
										c-0.06-0.059-0.173-0.174-0.229-0.231c-0.061-0.057-0.174-0.173-0.23-0.229c-0.058-0.059-0.173-0.174-0.229-0.23
										c-0.06-0.058-0.173-0.173-0.23-0.23c-0.058-0.057-0.174-0.172-0.229-0.229c-0.059-0.057-0.173-0.173-0.229-0.229
										c-0.056-0.056-0.174-0.174-0.229-0.23c-0.058-0.059-0.171-0.173-0.229-0.23c-0.059-0.058-0.174-0.172-0.229-0.229
										c-0.059-0.058-0.173-0.173-0.229-0.229c-0.059-0.059-0.174-0.174-0.229-0.231c-0.06-0.058-0.173-0.173-0.229-0.229
										c-0.059-0.059-0.173-0.174-0.229-0.23c-0.06-0.059-0.174-0.173-0.23-0.23c-0.058-0.057-0.174-0.172-0.229-0.229
										c-0.057-0.057-0.171-0.174-0.229-0.231c-0.059-0.057-0.174-0.172-0.229-0.229c-0.059-0.058-0.174-0.173-0.231-0.229
										c-0.056-0.058-0.172-0.174-0.229-0.23c-0.059-0.059-0.173-0.172-0.229-0.229c-0.06-0.057-0.175-0.173-0.229-0.229
										c-0.057-0.058-0.174-0.173-0.23-0.229c-0.058-0.059-0.172-0.174-0.229-0.229c-0.058-0.058-0.172-0.175-0.229-0.231
										c-0.059-0.058-0.174-0.172-0.229-0.229c-0.059-0.058-0.173-0.173-0.231-0.229c-0.057-0.058-0.171-0.174-0.229-0.23
										c-0.059-0.059-0.173-0.174-0.23-0.23c-0.058-0.058-0.172-0.174-0.229-0.23c-0.059-0.057-0.174-0.172-0.23-0.23
										c-0.058-0.057-0.173-0.172-0.229-0.23c-0.058-0.057-0.174-0.172-0.229-0.229c-0.058-0.058-0.174-0.174-0.229-0.229
										c-0.06-0.059-0.175-0.174-0.229-0.231c-0.058-0.058-0.173-0.173-0.229-0.229c-0.059-0.058-0.172-0.172-0.229-0.23
										c-0.057-0.059-0.173-0.172-0.229-0.229c-0.059-0.059-0.174-0.174-0.23-0.23c-0.057-0.059-0.173-0.174-0.229-0.23
										c-0.061-0.058-0.173-0.172-0.23-0.23c-0.058-0.057-0.174-0.172-0.229-0.23c-0.058-0.057-0.173-0.172-0.231-0.229
										c-0.056-0.058-0.172-0.173-0.229-0.229c-0.06-0.059-0.175-0.175-0.229-0.231c-0.059-0.058-0.174-0.173-0.229-0.229
										c-0.06-0.058-0.175-0.173-0.23-0.23c-0.059-0.057-0.173-0.172-0.229-0.229c-0.062-0.058-0.175-0.175-0.231-0.23
										c-0.057-0.057-0.174-0.174-0.229-0.23c-0.058-0.057-0.173-0.173-0.229-0.229c-0.058-0.058-0.173-0.173-0.229-0.231
										c-0.059-0.058-0.174-0.172-0.23-0.23c-0.057-0.055-0.173-0.172-0.229-0.229c-0.059-0.057-0.173-0.174-0.23-0.23
										c-0.058-0.057-0.173-0.172-0.229-0.229c-0.116-0.173-0.288-0.289-0.404-0.461l-0.057-0.058
										c-0.059-0.059-0.173-0.174-0.229-0.23c-0.057-0.056-0.173-0.173-0.229-0.23c-0.058-0.057-0.172-0.174-0.23-0.23
										c-0.056-0.057-0.172-0.173-0.229-0.229c-0.058-0.06-0.171-0.174-0.229-0.231c-0.058-0.058-0.173-0.173-0.229-0.229
										c-0.06-0.059-0.175-0.174-0.23-0.229c-0.057-0.056-0.173-0.173-0.229-0.23c-0.058-0.057-0.173-0.172-0.229-0.229
										c-0.06-0.058-0.174-0.173-0.229-0.229c-0.058-0.058-0.175-0.174-0.229-0.229c-0.058-0.058-0.173-0.173-0.23-0.231
										c-0.058-0.057-0.173-0.172-0.229-0.23c-0.058-0.057-0.173-0.173-0.229-0.229c-0.057-0.059-0.173-0.174-0.229-0.23
										c-0.059-0.059-0.172-0.174-0.229-0.23c-0.059-0.058-0.174-0.173-0.229-0.23c-0.061-0.057-0.175-0.172-0.231-0.23
										c-0.057-0.057-0.173-0.172-0.229-0.229c-0.06-0.058-0.173-0.175-0.23-0.229c-0.057-0.059-0.173-0.175-0.229-0.232
										c-0.06-0.057-0.174-0.172-0.231-0.229c-0.057-0.057-0.173-0.172-0.229-0.229c-0.059-0.059-0.172-0.172-0.23-0.23
										c-0.057-0.057-0.172-0.173-0.229-0.229c-0.059-0.059-0.173-0.174-0.23-0.23c-0.057-0.057-0.174-0.173-0.229-0.23
										c-0.058-0.057-0.173-0.172-0.229-0.23c-0.058-0.057-0.173-0.172-0.229-0.23c-0.061-0.057-0.174-0.172-0.231-0.229
										c-0.057-0.058-0.172-0.174-0.229-0.229c-0.06-0.059-0.173-0.174-0.23-0.231c-0.057-0.058-0.173-0.173-0.229-0.229
										c-0.058-0.058-0.175-0.174-0.23-0.23c-0.057-0.059-0.172-0.174-0.229-0.23c-0.059-0.058-0.173-0.172-0.229-0.229
										c-0.06-0.058-0.175-0.173-0.229-0.229c-0.059-0.059-0.173-0.174-0.23-0.23c-0.057-0.059-0.172-0.173-0.229-0.23
										c-0.06-0.057-0.172-0.172-0.229-0.229c-0.059-0.058-0.174-0.173-0.229-0.231c-0.059-0.057-0.173-0.173-0.23-0.229
										c-0.058-0.059-0.172-0.174-0.229-0.23c-0.061-0.058-0.173-0.173-0.23-0.229c-0.057-0.058-0.173-0.173-0.229-0.229
										c-0.06-0.058-0.175-0.174-0.231-0.229c-0.057-0.059-0.173-0.174-0.229-0.23c-0.058-0.058-0.174-0.173-0.229-0.229
										c-0.058-0.058-0.174-0.173-0.229-0.231c-0.059-0.057-0.175-0.173-0.229-0.23c-0.058-0.055-0.173-0.172-0.229-0.229
										c-0.059-0.057-0.173-0.173-0.229-0.23c-0.057-0.057-0.174-0.172-0.229-0.229c-0.061-0.058-0.175-0.173-0.231-0.229
										c-0.057-0.057-0.173-0.174-0.229-0.23c-0.06-0.057-0.174-0.172-0.229-0.23c-0.058-0.058-0.174-0.172-0.229-0.229
										c-0.057-0.057-0.173-0.173-0.23-0.229c-0.057-0.058-0.172-0.174-0.229-0.23c-0.058-0.056-0.175-0.173-0.229-0.23
										c-0.058-0.057-0.174-0.172-0.229-0.229c-0.057-0.057-0.174-0.173-0.229-0.229c-0.06-0.059-0.173-0.174-0.229-0.23
										c-0.06-0.057-0.175-0.173-0.229-0.23c-0.059-0.057-0.174-0.172-0.23-0.229c-0.058-0.058-0.173-0.172-0.229-0.229
										c-0.058-0.059-0.173-0.174-0.229-0.229c-0.058-0.058-0.173-0.174-0.229-0.229c-0.058-0.06-0.173-0.174-0.229-0.231
										c-0.058-0.058-0.173-0.172-0.229-0.229c-0.059-0.058-0.173-0.172-0.229-0.23c-0.058-0.057-0.174-0.174-0.229-0.229
										c-0.059-0.059-0.174-0.175-0.229-0.231c-0.057-0.058-0.174-0.173-0.229-0.229c-0.059-0.058-0.173-0.173-0.229-0.23
										c-0.058-0.059-0.174-0.174-0.229-0.231c-0.059-0.057-0.174-0.173-0.231-0.229c-0.057-0.056-0.172-0.174-0.229-0.229
										c-0.059-0.058-0.172-0.173-0.229-0.229c-0.057-0.056-0.174-0.174-0.229-0.23c-0.06-0.058-0.173-0.173-0.23-0.23
										c-0.057-0.057-0.172-0.174-0.229-0.23c-0.058-0.057-0.174-0.173-0.23-0.23c-0.056-0.057-0.175-0.174-0.229-0.23
										c-0.058-0.057-0.172-0.172-0.23-0.229c-0.057-0.059-0.172-0.174-0.229-0.23c-0.06-0.057-0.175-0.173-0.231-0.23
										c-0.056-0.057-0.173-0.172-0.229-0.23c-0.059-0.057-0.173-0.173-0.229-0.229c-0.059-0.058-0.173-0.172-0.229-0.229
										c-0.061-0.115-0.174-0.173-0.231-0.229c-0.057-0.117-0.173-0.174-0.229-0.231c-0.06-0.056-0.174-0.173-0.229-0.229
										c-0.058-0.058-0.174-0.172-0.229-0.23c-0.059-0.059-0.174-0.174-0.23-0.23c-0.056-0.056-0.173-0.173-0.229-0.229
										c-0.06-0.058-0.173-0.173-0.229-0.229c-0.059-0.058-0.174-0.174-0.229-0.23c-0.059-0.057-0.174-0.174-0.229-0.23
										c-0.058-0.115-0.173-0.173-0.229-0.229c-0.06-0.116-0.174-0.173-0.23-0.229c-0.058-0.059-0.173-0.174-0.229-0.23
										c-0.057-0.116-0.173-0.174-0.229-0.23c-0.057-0.115-0.171-0.173-0.229-0.23c-0.059-0.057-0.172-0.172-0.229-0.229
										s-0.173-0.173-0.229-0.229c-0.115-0.174-0.287-0.291-0.461-0.463l-0.06-0.058c-0.058-0.058-0.173-0.173-0.229-0.229
										c-0.06-0.116-0.176-0.174-0.23-0.23c-0.057-0.115-0.173-0.173-0.229-0.23c-0.06-0.058-0.173-0.172-0.23-0.229
										c-0.057-0.057-0.172-0.173-0.229-0.231c-0.059-0.114-0.174-0.172-0.229-0.229c-0.057-0.058-0.174-0.173-0.229-0.229
										c-0.059-0.058-0.174-0.174-0.229-0.23c-0.058-0.057-0.174-0.172-0.229-0.23c-0.06-0.057-0.174-0.172-0.23-0.229
										c-0.056-0.057-0.174-0.173-0.229-0.229c-0.058-0.115-0.171-0.174-0.23-0.23c-0.057-0.057-0.172-0.173-0.229-0.23
										c-0.061-0.115-0.173-0.172-0.23-0.229c-0.059-0.116-0.173-0.173-0.229-0.229c-0.06-0.058-0.174-0.174-0.229-0.23
										c-0.059-0.057-0.173-0.174-0.229-0.23c-0.061-0.057-0.176-0.173-0.231-0.229c-0.056-0.058-0.174-0.173-0.229-0.229
										c-0.058-0.059-0.173-0.174-0.229-0.23c-0.057-0.057-0.174-0.174-0.229-0.23c-0.06-0.057-0.175-0.173-0.23-0.229
										c-0.058-0.115-0.173-0.173-0.229-0.229c-0.06-0.115-0.173-0.173-0.229-0.23c-0.06-0.115-0.175-0.174-0.23-0.23
										c-0.058-0.058-0.173-0.173-0.229-0.23c-0.059-0.057-0.174-0.172-0.23-0.229c-0.06-0.057-0.173-0.172-0.229-0.229
										c-0.057-0.059-0.173-0.174-0.23-0.23c-0.057-0.058-0.173-0.173-0.229-0.23c-0.058-0.057-0.172-0.172-0.229-0.229
										c-0.057-0.058-0.172-0.173-0.229-0.229c-0.06-0.059-0.174-0.174-0.229-0.23c-0.059-0.057-0.175-0.173-0.229-0.229
										c-0.06-0.06-0.174-0.174-0.229-0.231c-0.057-0.057-0.174-0.173-0.229-0.229c-0.06-0.058-0.175-0.172-0.231-0.23
										c-0.058-0.058-0.174-0.172-0.229-0.229c-0.058-0.058-0.173-0.172-0.229-0.229c-0.058-0.058-0.173-0.174-0.229-0.229
										c-0.057-0.059-0.172-0.174-0.229-0.231c-0.057-0.057-0.173-0.172-0.229-0.229c-0.057-0.058-0.173-0.174-0.229-0.23
										c-0.058-0.057-0.174-0.174-0.229-0.229c-0.059-0.059-0.176-0.175-0.23-0.231c-0.057-0.058-0.173-0.173-0.229-0.229
										c-0.059-0.058-0.173-0.173-0.229-0.229c-0.06-0.058-0.175-0.173-0.229-0.229c-0.059-0.059-0.175-0.174-0.231-0.23
										c-0.057-0.059-0.172-0.174-0.229-0.231c-0.06-0.057-0.174-0.173-0.23-0.229c-0.059-0.057-0.173-0.172-0.229-0.23
										c-0.058-0.057-0.174-0.173-0.229-0.23c-0.057-0.057-0.173-0.174-0.23-0.229c-0.056-0.058-0.172-0.173-0.229-0.229
										c-0.059-0.059-0.173-0.172-0.229-0.231c-0.059-0.058-0.174-0.172-0.229-0.229c-0.058-0.058-0.173-0.172-0.229-0.229
										c-0.059-0.058-0.173-0.174-0.229-0.229c-0.059-0.058-0.173-0.174-0.229-0.231c-0.06-0.058-0.174-0.173-0.23-0.229
										c-0.06-0.058-0.172-0.172-0.229-0.23c-0.06-0.057-0.173-0.173-0.229-0.23c-0.058-0.057-0.174-0.174-0.229-0.229
										c-0.058-0.058-0.174-0.174-0.229-0.231c-0.058-0.057-0.172-0.172-0.229-0.229c-0.059-0.059-0.173-0.174-0.229-0.23
										c-0.057-0.058-0.173-0.173-0.229-0.229c-0.058-0.058-0.174-0.173-0.229-0.231c-0.059-0.057-0.175-0.173-0.229-0.229
										c-0.116-0.173-0.29-0.288-0.405-0.46l-0.056-0.059c-0.059-0.057-0.173-0.173-0.229-0.229
										c-0.058-0.058-0.174-0.173-0.229-0.229c-0.059-0.059-0.172-0.174-0.229-0.231c-0.059-0.056-0.174-0.173-0.23-0.229
										c-0.058-0.058-0.173-0.173-0.229-0.229c-0.056-0.057-0.172-0.174-0.229-0.23c-0.059-0.058-0.174-0.173-0.229-0.229
										c-0.059-0.057-0.175-0.174-0.229-0.229c-0.06-0.057-0.175-0.173-0.23-0.229c-0.058-0.057-0.174-0.174-0.229-0.23
										c-0.059-0.058-0.174-0.173-0.229-0.23c-0.056-0.059-0.174-0.174-0.229-0.229c-0.06-0.058-0.173-0.173-0.23-0.231
										c-0.058-0.057-0.173-0.172-0.229-0.229c-0.059-0.058-0.174-0.172-0.229-0.229c-0.059-0.058-0.173-0.172-0.23-0.229
										c-0.058-0.06-0.171-0.174-0.229-0.231s-0.174-0.172-0.23-0.229c-0.058-0.058-0.174-0.173-0.229-0.229
										c-0.056-0.058-0.172-0.174-0.229-0.23c-0.059-0.059-0.174-0.173-0.229-0.229c-0.059-0.059-0.175-0.174-0.23-0.231
										c-0.059-0.058-0.175-0.173-0.23-0.229c-0.056-0.058-0.171-0.172-0.229-0.231c-0.059-0.056-0.174-0.173-0.229-0.229
										c-0.06-0.058-0.174-0.174-0.229-0.229c-0.059-0.058-0.174-0.173-0.229-0.229c-0.06-0.059-0.173-0.174-0.23-0.231
										c-0.057-0.058-0.173-0.173-0.229-0.229c-0.06-0.058-0.173-0.173-0.23-0.23c-0.057-0.057-0.174-0.174-0.229-0.229
										c-0.058-0.059-0.171-0.175-0.229-0.23c-0.058-0.057-0.174-0.174-0.229-0.231c-0.058-0.057-0.174-0.172-0.229-0.229
										c-0.058-0.057-0.175-0.172-0.229-0.23c-0.06-0.057-0.172-0.173-0.23-0.229c-0.058-0.059-0.172-0.174-0.229-0.231
										c-0.058-0.057-0.175-0.173-0.23-0.229c-0.057-0.058-0.173-0.172-0.229-0.23c-0.059-0.059-0.172-0.173-0.229-0.229
										c-0.059-0.058-0.173-0.172-0.229-0.229c-0.06-0.058-0.175-0.173-0.231-0.229c-0.056-0.059-0.171-0.174-0.229-0.231
										c-0.058-0.058-0.173-0.172-0.229-0.229c-0.057-0.057-0.174-0.172-0.229-0.229c-0.06-0.058-0.176-0.173-0.231-0.229
										c-0.057-0.059-0.172-0.174-0.229-0.23c-0.059-0.059-0.173-0.173-0.229-0.23c-0.058-0.057-0.173-0.172-0.229-0.229
										c-0.058-0.057-0.174-0.173-0.23-0.229c-0.058-0.058-0.172-0.174-0.229-0.23c-0.115-0.174-0.287-0.288-0.402-0.462
										l-0.058-0.058c-0.059-0.057-0.175-0.173-0.229-0.229c-0.058-0.058-0.173-0.173-0.23-0.229
										c-0.058-0.059-0.174-0.174-0.229-0.23c-0.057-0.057-0.174-0.174-0.229-0.23c-0.058-0.058-0.175-0.173-0.229-0.229
										c-0.057-0.058-0.172-0.173-0.23-0.229c-0.058-0.059-0.173-0.174-0.229-0.23c-0.056-0.056-0.173-0.174-0.229-0.23
										c-0.059-0.058-0.174-0.173-0.229-0.23c-0.06-0.057-0.173-0.172-0.229-0.229c-0.059-0.057-0.174-0.173-0.229-0.229
										c-0.061-0.057-0.174-0.174-0.231-0.23c-0.057-0.058-0.172-0.172-0.229-0.23c-0.058-0.057-0.172-0.172-0.229-0.229
										c-0.057-0.058-0.173-0.173-0.229-0.229c-0.056-0.056-0.172-0.174-0.229-0.23c-0.057-0.056-0.173-0.173-0.229-0.23
										c-0.06-0.058-0.173-0.172-0.229-0.229c-0.059-0.058-0.174-0.173-0.229-0.231c-0.059-0.057-0.174-0.172-0.23-0.229
										c-0.058-0.058-0.173-0.172-0.229-0.229c-0.06-0.058-0.173-0.174-0.23-0.23c-0.058-0.059-0.172-0.173-0.229-0.23
										c-0.058-0.057-0.173-0.174-0.23-0.23c-0.057-0.057-0.172-0.173-0.229-0.23c-0.06-0.057-0.173-0.172-0.23-0.229
										c-0.057-0.058-0.173-0.173-0.229-0.229c-0.059-0.059-0.175-0.174-0.23-0.23c-0.058-0.059-0.173-0.174-0.229-0.23
										c-0.06-0.057-0.175-0.173-0.23-0.23c-0.059-0.057-0.173-0.172-0.229-0.229c-0.058-0.059-0.175-0.174-0.229-0.231
										s-0.172-0.173-0.229-0.229c-0.06-0.059-0.174-0.174-0.229-0.232c-0.059-0.057-0.175-0.172-0.23-0.229
										c-0.06-0.057-0.174-0.173-0.23-0.229c-0.057-0.056-0.171-0.172-0.229-0.229c-0.059-0.058-0.175-0.173-0.229-0.229
										c-0.058-0.059-0.174-0.174-0.229-0.23c-0.057-0.057-0.173-0.173-0.229-0.229c-0.059-0.059-0.173-0.174-0.229-0.231
										c-0.06-0.058-0.175-0.173-0.229-0.229c-0.059-0.058-0.174-0.174-0.23-0.23c-0.058-0.057-0.173-0.173-0.229-0.23
										c-0.06-0.058-0.173-0.172-0.23-0.23c-0.057-0.059-0.174-0.173-0.229-0.23c-0.057-0.057-0.174-0.172-0.229-0.229
										c-0.059-0.058-0.174-0.173-0.23-0.229c-0.058-0.059-0.174-0.174-0.229-0.23c-0.057-0.059-0.173-0.174-0.229-0.23
										c-0.057-0.058-0.173-0.174-0.229-0.23c-0.057-0.059-0.172-0.172-0.229-0.23c-0.058-0.057-0.173-0.173-0.229-0.229
										c-0.058-0.058-0.174-0.173-0.229-0.231c-0.06-0.057-0.173-0.173-0.229-0.23c-0.058-0.057-0.173-0.172-0.229-0.229
										c-0.058-0.058-0.172-0.174-0.229-0.23c-4.269-4.498-9.803-7.266-15.913-7.266c-11.013,0-19.198,8.879-21.795,21.103
										h-16.376v6.919h0.229v-11.303h0.229v0.229h0.23v0.229h0.289v0.23h0.229v0.23h0.229v0.229h0.229v0.229h0.231v0.23h0.229
										v0.23h0.232v0.23h0.345v0.229h0.229v0.229h0.229v0.346h-3.229v6.918h0.229v0.23h0.23v0.23h0.229v0.229h0.348v0.229h0.229
										v0.23h0.229v0.23h0.229v0.23h0.229v0.229h0.229v0.231h0.229v0.229h0.348v0.23h0.229v0.229h0.229v0.229h0.229v0.23h0.229
										v0.23h0.229v0.229h0.229v0.229h0.348v0.23h0.229v0.23h0.229v0.229h0.23v0.229h0.229v0.229h0.229v0.229h0.23v0.231h0.347
										v0.229h0.229v0.23h0.23v0.23h0.229v0.23h0.23v0.23h0.229v0.23h0.231v0.229h0.229v0.23h0.23v0.23h0.229v0.23h0.231v0.229
										h0.229v0.229h0.231v0.229h0.229v0.229h0.229v0.231h0.229v0.229h0.229v0.229h0.23v0.229h0.229v0.231h0.229v0.229h0.229
										v0.229h0.229v0.229h0.229v0.231h0.23v0.229h0.229v0.231h0.231v0.229h0.229v0.23h0.23v0.23h0.229v0.25h0.231v0.231h0.229
										v0.229h0.229v0.23h0.229v0.229h0.23v0.232h0.229v0.229h0.231v0.229h0.229v0.229h0.925v0.229h0.229v0.231h0.231v0.229h0.229
										v0.23h0.229v0.229h0.229v0.23h0.23v0.23h0.347v0.229h0.229v0.231h0.229v0.229h0.229v0.229h0.229v0.231h0.229v0.229h0.229
										v0.23h0.347v0.23h0.23v0.229h0.229v0.229h0.23v0.229h0.229v0.23h0.229v0.229h0.229v0.229h0.348v0.229h0.229v0.231h0.229
										v0.229h0.229v0.23h0.23v0.23h0.229v0.229h0.229v0.229h0.346v0.23h0.231v0.23h0.229v0.229h0.23v0.229h0.229v0.229h0.23
										v0.229h0.229v0.23h0.348v0.23h0.23v0.229h0.229v0.23h0.229v0.23h0.23v0.23h0.229v0.23h0.229v0.23h0.347v0.229h0.229v0.23
										h0.229v0.23h0.229v0.23h0.229v0.229h0.017v0.229h0.229v0.23h0.346v0.23h0.229v0.23h0.229v0.229h0.231v0.23h0.229v0.229
										h0.229v0.231h0.229v0.229h0.346v0.229h0.229v0.23h0.229v0.23h0.229v0.229h0.229v0.229h0.231v0.23h0.229v0.23h0.348v0.23
										h0.229v0.229h0.229v0.23h0.23v0.229h0.229v0.23h0.229v0.229h0.229v0.229h0.229v0.229h0.229v0.231h0.23v0.229h0.23v0.23
										h0.229v0.23H460v0.23h0.23v0.229h0.229v0.229h0.229v0.23h0.229v0.23h0.229v0.229h0.229v0.229h0.23v0.231h0.229v0.229h0.229
										v0.23h0.229v0.23h0.229v0.23h0.229v0.23h0.229v0.229h0.229v0.229h0.229v0.23h0.23v0.23h0.229v0.23h0.23v0.229h0.229v0.23
										h0.23v0.23h0.229v0.23h0.23v0.23h0.229v0.23h0.23v0.229h0.23v0.229h0.229v0.23h0.229v0.23h0.229v0.229h0.229v0.229h0.229
										v0.23h0.23v0.23h0.229v0.23h0.229v0.229h0.229v0.229h0.231v0.23h0.229v0.229h0.23v0.229h0.229v0.229h0.23v0.231h0.229
										v0.229h0.23v0.229h0.229v0.23h0.23v0.23h0.229v0.229h0.23v0.231h0.229v0.229h0.23v0.229h0.23v0.23h0.229v0.23h0.229v0.23
										h0.229v0.229h0.229v0.23h0.229v0.23h0.229v0.23h0.229v0.229h0.229v0.229h0.229v0.229h0.231v0.231h0.229v0.229h0.23v0.229
										h0.229v0.23h0.23v0.229h0.229v0.231h0.23v0.229h0.229v0.23h0.229v0.23h0.229v0.229h0.231v0.23h0.229v0.23h0.229v0.23h0.229
										v0.229h0.231v0.229h0.229v0.231h0.23v0.229h0.229v0.23h0.23v0.229h0.229v0.267h0.231v0.231h0.229v0.229h0.229v0.23h0.229
										v0.23h0.231v0.23h0.229v0.229h0.229v0.229h0.229v0.229h0.229v0.23h0.229v0.229h0.229v0.23h0.23v0.229h0.229v0.23h0.231
										v0.23h0.229v0.229h0.23v0.229h0.229v0.23h0.229v0.23h0.229v0.229h0.229v0.231h0.229v0.229h0.229v0.229h0.229v0.23h0.231
										v0.23h0.229v0.23h0.229v0.23h0.229v0.229h0.23v0.23h0.229v0.23h0.229v0.229h0.229v0.232h0.229v0.229h0.23v0.229h0.229v0.23
										h0.229v0.23h0.229v0.229h0.229v0.229h0.229v0.23h0.229v0.23h0.229v0.229H487v0.231h0.229v0.229h0.231v0.23h0.229v0.23
										h0.229v0.229h0.229v0.23h0.229v0.23h0.229v0.23h0.229v0.229h0.229v0.229h0.23v0.229h0.229v0.23h0.229v0.229h0.229v0.229
										h0.231v0.229h0.229v0.23h0.229v0.23h0.229v0.23h0.229v0.229h0.229v0.231h0.229v0.229h0.23v0.23h0.229v0.23h0.229v0.229
										h0.229v0.23h0.127v0.23h0.23v0.23h0.229v0.23h0.229v0.229h0.229v0.229h0.229v0.23h0.229v0.23h0.229v0.23h0.23v0.229h0.229
										v0.23h0.229v0.23h0.23v0.23h0.229v0.23h0.229v0.229h0.229v0.229h0.231v0.232h0.229v0.229h0.23v0.229h0.229v0.229h0.231
										v0.229h0.229v0.23h0.23v0.23h0.229v0.23h0.229v0.229h0.23v0.231h0.229v0.229h0.229v0.229h0.229v0.23h0.229v0.229h0.229
										v0.229h0.229v0.229h0.229v0.23h0.229v0.229h0.229v0.229h0.229v0.23h0.229v0.23h0.229v0.23h0.229v0.23h0.229v0.229h0.229
										v0.229h0.229v0.23h0.229v0.23h0.229v0.229h0.277v0.231h0.229v0.229h0.229v0.23h0.229v0.23h0.229v0.229h0.23v0.229h0.229
										v0.23h0.229v0.154h0.229v0.23h0.23v0.229h0.23v0.231h0.229v0.229h0.229v0.229h0.229v0.231h0.23v0.229h0.229v0.23h0.229
										v0.229h0.229v0.229h0.23v0.23h0.23v0.229h0.229v0.23h0.229v0.231h0.23v0.229h0.229v0.23h0.229v0.229h0.229v0.231h0.229
										v0.231h0.229v0.229h0.229v0.229h0.23v0.231h0.229v0.231h0.23v0.229h0.23v0.23h0.229v0.229h0.23v0.231h0.229v0.229h0.229
										v0.23h0.229v0.229h0.229v0.229h0.229v0.229h0.229v0.232h0.229v0.229h0.229v0.229h0.229v0.229h0.229v0.229h0.23v0.231h0.229
										v0.229h0.229v0.229h0.229v0.229h0.229v0.229h0.229v0.23h0.23v0.229h0.229v0.23h0.229v0.23h0.229v0.229h0.23v0.232h0.229
										v0.229h0.229v0.23h0.229v0.229h0.229v0.229h0.23v0.23h0.23v0.23h0.229v0.229h0.229v0.232h0.23v0.229h0.229v0.23h0.229
										v0.229h0.229v0.229h0.229v0.229h0.229v0.23h0.229v0.231h0.23v0.229h0.229v0.23h0.229v0.229h0.229v0.23h0.229v0.229h0.229
										v0.229h0.229v0.23h0.231v0.229h0.229v0.229h0.231v0.229h0.229v0.229h0.23v0.231h0.229v0.23h0.23v0.229h0.229v0.23h0.229
										v0.23h0.229v0.229h0.229v0.23h0.229v0.229h0.229v0.23h0.23v0.229h0.229v0.23h0.229v0.229h0.231v0.23h0.229v0.23h0.229
										v0.229h0.23v0.229h0.23v0.232h0.229v0.229h0.229v0.23h0.229v0.23h0.23v0.229h0.229v0.229h0.229v0.229h0.229v0.231h0.229
										v0.229h0.231v0.229h0.229v0.23h0.23v0.23h0.229v0.229h0.23v0.23h0.229v0.229h0.23v0.232h0.229v0.229h0.229v0.23h0.229v0.23
										h0.229v0.229h0.23v0.23h0.229v0.229h0.229v0.23h0.231v0.229h0.229v0.229h0.229v0.23h0.229v0.229h0.23v0.23h0.229v0.229
										h0.23v0.232h0.229v0.23h0.229v0.229h0.229v0.229h0.23v0.229h0.229v0.231h0.23v0.229h0.229v0.23h0.231v0.229h0.229v0.229
										h0.229v0.229h0.229v0.232h0.229v0.229h0.229v0.23h0.23v0.229h0.229v0.23h0.23v0.229h0.229v0.23h0.23v0.23h0.229v0.229h0.23
										v0.229h0.229v0.229h0.229v0.229h0.229v0.229h0.23V276h0.229v0.229h0.23v0.23h0.229v0.23h0.23v0.229h0.229v0.23h0.23v0.229
										h0.229v0.229h0.231v0.23h0.229v0.23h0.229v0.229h0.231v0.229h0.229v0.229h0.231v0.23h0.229v0.23h0.229v0.229h0.229v0.23
										h0.23v0.229h0.229v0.229h0.23v0.229h0.229v0.231h0.23v0.229h0.229v0.229h0.325v0.23h0.229v0.229h0.23v0.229h0.229v0.231
										h0.81c0.057,0.058,0.171,0.173,0.229,0.229c0.061,0.058,0.175,0.172,0.23,0.231c0.058,0.056,0.174,0.173,0.229,0.229
										c0.059,0.06,0.176,0.175,0.23,0.229c0.058,0.059,0.173,0.174,0.229,0.229c0.06,0.061,0.176,0.178,0.231,0.232
										c0.057,0.057,0.173,0.172,0.229,0.229c0.059,0.06,0.175,0.173,0.229,0.229c0.057,0.059,0.173,0.174,0.229,0.229
										c0.059,0.062,0.175,0.178,0.229,0.232c0.058,0.059,0.173,0.172,0.229,0.23c0.06,0.059,0.175,0.174,0.23,0.229
										s0.173,0.172,0.229,0.229c0.061,0.059,0.176,0.174,0.231,0.229c0.058,0.059,0.173,0.174,0.229,0.232
										c0.059,0.057,0.173,0.172,0.23,0.229s0.172,0.172,0.229,0.232c0.058,0.055,0.174,0.172,0.229,0.229
										c0.057,0.059,0.174,0.172,0.231,0.229c0.057,0.06,0.172,0.174,0.229,0.23c0.059,0.059,0.173,0.174,0.229,0.232
										c0.059,0.057,0.175,0.172,0.229,0.229c0.057,0.057,0.175,0.172,0.23,0.23c0.057,0.057,0.171,0.172,0.229,0.229
										c0.059,0.059,0.173,0.174,0.23,0.229c0.057,0.06,0.173,0.177,0.229,0.23c0.057,0.059,0.173,0.174,0.23,0.23
										c0.057,0.059,0.171,0.176,0.228,0.229c0.061,0.06,0.174,0.175,0.231,0.229c0.057,0.061,0.173,0.176,0.229,0.229
										c0.06,0.06,0.175,0.177,0.231,0.23c0.057,0.059,0.173,0.174,0.229,0.229c0.06,0.06,0.175,0.177,0.231,0.232
										c0.056,0.056,0.173,0.172,0.229,0.229c0.058,0.059,0.173,0.176,0.23,0.229c0.057,0.057,0.172,0.174,0.229,0.229
										c0.058,0.057,0.173,0.172,0.229,0.229c0.058,0.06,0.174,0.174,0.229,0.229c0.06,0.06,0.174,0.172,0.23,0.229
										c0.058,0.058,0.172,0.174,0.229,0.231c0.06,0.058,0.174,0.17,0.229,0.23c0.058,0.057,0.175,0.17,0.23,0.229
										c0.057,0.06,0.172,0.175,0.229,0.229c0.058,0.06,0.172,0.174,0.229,0.231c0.058,0.056,0.175,0.173,0.229,0.23
										c0.058,0.055,0.174,0.17,0.229,0.229c0.057,0.06,0.172,0.175,0.229,0.23c0.059,0.057,0.172,0.172,0.229,0.23
										c0.06,0.057,0.174,0.172,0.23,0.229c0.058,0.059,0.172,0.174,0.229,0.23c0.06,0.057,0.174,0.174,0.229,0.229
										c0.059,0.06,0.174,0.173,0.229,0.229c0.059,0.059,0.173,0.174,0.23,0.229c0.058,0.06,0.172,0.175,0.229,0.23
										c0.058,0.057,0.173,0.172,0.229,0.229c0.057,0.059,0.172,0.174,0.229,0.231c0.058,0.055,0.173,0.172,0.229,0.229
										c0.06,0.059,0.175,0.174,0.23,0.229c0.058,0.061,0.173,0.174,0.229,0.23c3.806,3.864,8.648,6.17,14.241,6.17
										c6.918,0,13.205-3.519,17.645-9.226L597.071,305.277L597.071,305.277z"/>
								</g>
							</g>
						</g>
					</g>
				</g>
			</g>
		</g>
		<g id="Laag_13_2_">
			<g id="path3924_2_">
				<g>
					<circle fill="#FFFFFF" cx="337.448" cy="163.319" r="27.675"/>
				</g>
			</g>
			<g id="path3089_1_">
				<g>
					<g>
						<path fill="#56E295" d="M343.905,139.566l-0.635,0.346c0,0,0.348,0.116,0.404,0.23c0.114,0.058,0.345-0.058,0.345-0.058v0.347
							c0,0,0.577,0.287,0.519,0.402c-0.057,0.115,0.925-0.115,0.925-0.115l0.979-0.347l0.23-0.403l-0.403-0.346l-1.844,0.23
							L343.905,139.566z"/>
						<path fill="#56E295" d="M321.994,140.662l0.404-0.059l0.922-0.402l0.692-0.462l0.058,0.06l-0.52,0.459l-0.115,0.174
							l-0.461,0.229l0.346,0.058l-0.057,0.23l0.402-0.059l0.403-0.346l0.347,0.116l0.172,0.173h0.462v-0.346l-0.692-0.52
							l-0.172-0.172l-0.058-0.174l0.288,0.057l0.229,0.23l0.288-0.288l0.521-0.058l0.52-0.403v-0.288l0.403-0.402l-0.289-0.289h0.69
							h0.636c0,0,0.286-0.115,0.346-0.059c0.057,0.116,0.52,0.404,0.52,0.404l-0.173,0.173l-0.75,0.114l-0.173,0.348l0.52,0.059
							l0.402-0.404l0.461-0.059l0.059,0.404c0,0-0.521,0.288-0.577,0.288c-0.057,0-0.347,0.173-0.347,0.173v0.348l-0.461,0.057
							l-0.52-0.116h-0.23l-0.4,0.289l0.288,0.288c0,0,0.462-0.174,0.52-0.23c0.06-0.058,0.288-0.174,0.346-0.058
							c0.06,0.116,0.348,0.347,0.348,0.347l0.229,0.461l0.347,0.172l0.69,0.231c0,0,0.519,0.115,0.519,0.173
							c0,0.057-0.058-0.289-0.058-0.289l-0.403-0.461c0,0,0-0.115,0.116-0.115c0.114,0.059,0.402,0.289,0.402,0.289
							c0.057,0,0.403,0.23,0.403,0.23l0.173-0.403l0.345-0.173l-0.116-0.23l-0.172-0.172l-0.173-0.229v-0.288
							c0,0,0.058-0.058,0.116-0.058c0.057-0.058,0.229-0.172,0.229-0.115c0.06,0.058,0.404,0.52,0.404,0.52l0.346,0.057l0.175-0.287
							l0.461-0.057l0.058-0.23l0.403-0.116l-0.577-0.52l-0.403-0.057l-0.229,0.057l-0.229-0.289l0.229-0.229l0.116-0.346
							l-0.289-0.288l-0.461-0.059l-0.113-0.229c0,0-0.404-0.058-0.404,0c-0.056,0.058-0.346-0.347-0.346-0.347l-0.174-0.288
							c-1.324,0.403-2.651,0.922-3.862,1.557l-0.06,0.115l-0.401,0.229l-0.461,0.346l-0.403,0.174l-0.058-0.116
							c-1.384,0.75-2.652,1.673-3.863,2.651c0.634-0.287,1.673-0.863,1.673-0.863L321.994,140.662z"/>
						<path fill="#56E295" d="M347.423,146.082l0.287-0.059l0.229-0.114l0.059-0.058l0.402-0.058l0.057-0.173l0.117-0.173v-0.521
							l0.229-0.115l-0.059-0.346l-0.346-0.115l-0.289-0.059l0,0l-0.173,0.059l-0.172,0.172l-0.172,0.174
							c0.115-0.057,0.172-0.057,0.172,0.058c0,0.058-0.116,0.115-0.116,0.115h-0.115l-0.114-0.058h-0.175l-0.057,0.115l0.057,0.172
							l-0.172,0.115l0.115,0.116l0.172,0.058v0.174h-0.172l-0.229,0.115l-0.058,0.229l0.172,0.114L347.423,146.082z"/>
						<path fill="#56E295" d="M348.634,144.179c0.057,0.058,0.114,0.115,0.114,0.115c0,0.059,0.175,0.059,0.175,0.059l0.173-0.059
							l-0.173,0.174c0,0,0,0.114,0.058,0.172c0.056,0.058,0.173,0,0.173,0s0.287-0.058,0.347-0.058c0.057,0,0,0.116,0,0.116
							l0.114,0.173c0,0,0.058,0.229,0.058,0.288c0,0.059-0.115,0.057-0.115,0.057s-0.23,0.059-0.289,0
							c-0.057,0-0.115,0.059-0.229,0.174c-0.057,0.115,0,0.059,0,0.059h0.174c0,0,0,0.115,0,0.172c0,0.057-0.116,0.116-0.174,0.057
							c-0.057,0-0.288,0.116-0.288,0.116v0.173l0.288,0.057l0.287,0.059l0.06,0.059c0,0-0.173,0.057-0.23,0
							c-0.057-0.059-0.172,0.172-0.172,0.172l-0.115,0.117l-0.289,0.229l0.173,0.058l0.116-0.115h0.229l0.229-0.058l0.172-0.173
							c0.061,0,0.404,0,0.404,0s0.289-0.059,0.346-0.059c0.06,0,0.289,0.059,0.289,0.059c0.059,0,0.521-0.115,0.521-0.115
							s0.115-0.173,0.115-0.23c0-0.057-0.115-0.115-0.172-0.115c-0.061-0.059,0.114-0.059,0.172-0.115
							c0.057-0.058,0.114-0.173,0.114-0.23c0.059-0.059-0.058-0.174-0.058-0.23c0-0.056-0.173,0-0.229-0.059
							c-0.058,0-0.229,0-0.229,0v-0.229c0,0-0.576-0.75-0.521-0.808c0-0.057-0.114-0.288-0.172-0.288s-0.114-0.058-0.229-0.173
							c-0.058-0.115,0.115-0.23,0.115-0.23s0.173-0.23,0.229-0.289c0-0.057,0-0.172-0.058-0.229c-0.059,0-0.461,0-0.461,0
							l-0.115-0.116c0-0.058,0.115-0.058,0.172-0.058c0.058,0,0.229-0.404,0.289-0.404c0.058,0-0.058-0.115-0.058-0.115l0,0
							l-0.173,0.059l-0.174,0.229c0,0-0.173,0.058-0.229,0c-0.059-0.058-0.173,0-0.229,0c-0.059,0-0.173,0.116-0.173,0.116
							s-0.173,0.173-0.23,0.173s-0.229,0.229-0.229,0.229v0.174c0,0-0.057,0.058-0.116,0.058c-0.058,0,0.059,0.229,0.059,0.229
							l0.174,0.059c0,0-0.059,0.115-0.115,0.059C348.634,144.005,348.518,144.122,348.634,144.179z"/>
						<path fill="#56E295" d="M335.258,173.005c0,0-0.577-0.115-0.577-0.172c0-0.059-0.98-0.922-1.038-0.922
							c0,0-0.403-0.404-0.461-0.29c-0.059,0.117-0.809,0.117-0.809,0.117l-0.75-0.175c0,0-0.346,0.23-0.286,0.117
							c0.058-0.115,0-0.691,0-0.578c0,0.115-1.211-0.519-1.211-0.519l-0.403,0.347v-0.347l-0.634-0.403l0.058-0.52l-0.229-0.229
							c0,0-0.059,0.057-0.059,0c0-0.059-0.173-0.98-0.173-0.98l-0.923-0.75l-1.098-0.057l-0.979-0.52l-0.231-0.52
							c0,0-0.574-0.288-0.574-0.346c0-0.057-0.173,0-0.23-0.057c-0.057,0,0-0.288,0-0.288l-0.288-0.229l-0.115-0.059l-0.229-0.058
							l-0.115-0.229c0,0,0.521-0.23,0.463-0.23c-0.06,0-1.153,0.172-1.153,0.172l-0.115,0.229l-0.521-0.289l-0.864-0.058
							c0,0-0.636-0.229-0.636-0.346c0-0.058-0.172-0.347-0.172-0.347s-0.117,0.347-0.174,0.404c-0.057,0.174-0.461,0.52-0.461,0.52
							l0.059,0.576l-0.288-0.346l0.229-0.289v-0.402c0-0.059,0.289-0.174,0.289-0.174l-0.115-0.229c0,0-0.347,0.058-0.347,0.115
							c0,0.059-0.403,0.288-0.403,0.288l-0.519,0.173h-0.229c0,0-0.229,0.403-0.289,0.403c-0.057,0-0.057,0.347-0.057,0.347
							s-0.577,0.634-0.634,0.577c-0.059-0.057-0.635-0.577-0.635-0.577l-0.75,0.116l-0.402,0.23l-0.52-0.347l-0.402-0.634
							l0.057-0.692l0.229-0.808l0.116-0.52l-0.521-0.404c0,0-1.095,0.117-1.095,0.059s-0.577,0-0.577-0.059
							c0-0.057,0.23-0.402,0.23-0.461c0-0.057,0.172-0.459,0.172-0.459l0.23-0.463l0.289-0.865l0.173-0.287l-0.979-0.059
							l-0.521,0.231l-0.346,0.923l-1.498,0.402l-0.404-0.287c0,0-0.057,0.173,0,0.057c0-0.115-0.461-0.691-0.461-0.691l-0.229-0.865
							c0,0,0.634-1.786,0.575-1.786c0,0.058,0-0.634,0-0.634l1.903-1.27l0.75,0.116l0.173,0.172l0.461-0.058l0.463-0.461
							l0.576,0.058l0.577-0.115l0.345,0.403l0.521-0.172l0.289,0.287l0.172,0.173v0.288l-0.116,0.289l0.116,0.635l0.346,0.52
							l0.23,0.115l0.289-0.807l-0.059-0.75l-0.115-0.576v-0.402l0.75-0.924l0.924-0.691l0.75-0.402l0.634-0.691l-0.06-0.693
							l0.289-0.057l0.289-0.635l0.289,0.059l0.576-0.691l0.924-0.348l0.575-0.115l0.173-0.172l-0.229-0.23l0.461-0.634l1.383-0.577
							l0.866-0.23l-0.693,0.461l0.116,0.347l0.519-0.173l0.348-0.23l0.979-0.287l0.174-0.289c-0.059,0.115,0.52-0.115,0.52-0.115
							l-0.115-0.23l0.059-0.289l-0.289,0.115l-0.404,0.461l-0.691-0.059l-0.289-0.461l0.289-0.403c0,0,0.288-0.634,0.288-0.577
							c0,0.057-0.461-0.173-0.461-0.173l-0.691,0.229c-0.059,0-0.75,0.403-0.691,0.346c0-0.058-0.346,0.174-0.346,0.174l0.924-0.75
							l0.401-0.059l0.403-0.402h2.076l0.692-0.116l0.922-0.52l0.058,0.115l-0.403,0.403l-0.461,0.519l-0.519,0.521l-0.229,0.288
							l0.75,0.057c0,0,0.576,0,0.636,0c0.057,0,0.114,0.23,0.114,0.23l0.289-0.23l0.172,0.404l0.521-0.404l-0.173-0.461l0.173-0.46
							h-0.634v-0.231c0,0-0.231-0.289-0.231-0.229c0,0.059,0.346-0.289,0.346-0.289c0,0.059-0.172-0.173-0.172-0.173l0.403-0.519
							l-0.23-0.578l-0.114-0.287l-0.578-0.289l-0.173-0.288l-0.23-0.173l0.174-0.461l-0.116-0.346l-0.173-1.097
							c0,0.058-0.75,0.634-0.75,0.634l-0.75,0.346l-0.347-0.287l0.059-0.463l0.348-0.344l-0.577-0.174l-0.058-0.173
							c0,0-0.52-0.519-0.52-0.461c-0.057,0.058-0.173,0.173-0.173,0.173l-1.153-0.115l-0.402,0.691l-0.115,0.402
							c0,0-0.635,0.635-0.749,0.691c0.057,0,0.346,0.289,0.346,0.289l-0.289,0.635l-1.038,0.576l-0.519,0.057
							c0,0-0.288,1.096-0.288,1.153c0,0.057-0.403,0.289-0.403,0.289l-0.229,0.345l-0.116-0.402c0,0-0.116-0.289-0.173-0.404
							c0.057,0.059,0.346,0.059,0.346,0.059l0.06-0.231h-0.291l0.113-0.403l0.288-0.461l-0.922-0.059l-0.229-0.229l-0.461-0.057
							l-0.058-0.175l-0.346-0.172l-0.346-0.229l-0.403,0.057V143.2l0.116-0.346l-0.461-0.115c-5.539,4.955-9.056,12.163-9.17,20.119
							l0.461,0.115l0.689-0.23l0.462,0.23l0.69,0.807l0.691,0.172l0.69,0.23h0.346l0.116,0.402c0,0,0.346,0.404,0.402,0.461
							c0.059,0.057,0,0.52,0,0.52l0.289,0.173l0.346,0.403l0.229,0.229l0.23,0.288l0.172-0.115l0.348,0.115l0.462,0.402l0.288-0.172
							l-0.116-0.346l0.289-0.289h0.23l0.288,0.23v0.23l0.348,0.52v1.441l-0.289,0.461l-0.401,0.289v0.402l-0.403,0.117l-0.174,0.576
							l-0.229,0.52l0.058,0.403l0.347,0.346l-0.347,0.347l-0.23,0.346l0.23,0.691c0,0,0.115,0.346,0.115,0.289
							c0-0.058,0.347,0.229,0.347,0.229l0.634,1.269l0.578,0.865c0,0,0.863,1.787,0.922,1.787c0.288,0.173,2.189,1.613,2.189,1.613
							l0.347,1.729l0.116,3.691l0.289,1.036l-0.06,0.461c1.5,1.039,3.114,1.961,4.844,2.652c0.173,0,0.403,0.057,0.403,0.057
							l0.809-0.229c0,0,0.288-0.575,0.288-0.633c0-0.116,0-0.403,0-0.403s0-0.23-0.172-0.23c-0.174,0-0.174-0.115-0.23-0.288
							c-0.059-0.172-0.173-0.403-0.173-0.403l-0.229,0.057l0.229-0.229l0.462,0.346l0.689,0.116l0.578-0.577l0.402-0.923
							l0.174-0.692h0.346l0.403-0.691l0.173-0.634l-0.288-0.75l0.173-0.288l1.27-0.809l0.923-0.287l0.288-0.231
							c0,0,0.462-0.634,0.462-0.692c0-0.058,0.173-0.979,0.173-0.979s0.229-1.097,0.172-1.151c0-0.06,0.059-1.039,0-1.039
							c-0.057,0,0-0.289,0-0.289l0.924-1.269l0.402-0.979c0,0,0.289-0.52,0.289-0.578
							C335.545,173.814,335.258,173.005,335.258,173.005z"/>
						<path fill="#56E295" d="M344.136,138.068l0.577,0.057c0,0,0.174-0.691,0.059-0.807c-0.114-0.059,0.403-0.52,0.403-0.52
							s0.057-0.058,0.114-0.058c-2.479-0.75-5.073-1.097-7.783-1.097l0,0c-1.096,0-2.191,0.059-3.287,0.174l0.289,0.058
							c0,0,0.633,0.288,0.749,0.404c0.114,0.114,0.058,0.403,0.058,0.634c-0.058,0.173-0.116,0.23-0.289,0.402
							c-0.114,0.232,0.289,0.115,0.289,0.115l0.52,0.23c0,0-0.173,0-0.347,0.059c-0.229,0.057-0.519,0.114-0.519,0.114l-0.059,0.404
							l0.691-0.173l-0.059,0.23l-0.52,0.114l-0.519,0.577l-0.058,1.152l0.113,0.98l0.289,0.807l0.461,0.059l0.52,0.346l0.691-0.059
							l0.692-0.979l0.75-0.692l0.229-0.402l0.347-0.229l0.809-0.174l0.979-0.23c0,0,0.925-0.635,1.039-0.692
							C341.541,138.816,344.136,138.068,344.136,138.068z"/>
						<path fill="#56E295" d="M364.893,159.4l-0.403-0.691c0,0-0.462-1.095-0.519-1.152c-0.059-0.059-0.229-0.347-0.173-0.347
							c0.056,0,0.461-0.057,0.461-0.057s0.114,0.173,0.229,0.229c-0.175-0.691-0.348-1.384-0.52-2.076
							c0,0.058-0.058,0.115-0.116,0.174c-0.114,0.115-0.346,0.23-0.461,0.115c-0.115-0.115-0.634-0.058-0.692-0.058
							c-0.057,0-0.634,0-0.748,0.115c-0.06,0.116-0.52,0.058-0.578,0c-0.058-0.058-0.979-0.403-1.036-0.403
							c-0.058,0-0.521-0.23-0.577-0.289c-0.059-0.058-0.52-0.115-0.52-0.173c0-0.058,0.059-0.116-0.057-0.116
							c-0.059,0-0.577,0.174-0.634,0.231c-0.061,0.058-0.231,0.173-0.231,0.173s-0.229,0.23-0.173,0.402
							c0,0.174,0.231,0.289,0.173,0.404c-0.058,0.114-0.346,0.174-0.346,0.174s-0.288-0.231-0.346-0.289
							c-0.116-0.058-0.925-0.174-0.925-0.174l-0.345-0.402c0,0-0.52-0.346-0.577-0.403c-0.058,0-0.635,0-0.75-0.058
							c-0.114-0.059-0.346-0.461-0.519-0.403c-0.115,0-0.115-0.229-0.059-0.229c0.059-0.059,0.23-0.347,0.175-0.404
							c0-0.057,0.114-0.346-0.116-0.461c-0.174-0.115-0.059-0.403-0.059-0.403s0.175-0.058,0.115-0.058
							c-0.058,0-0.346,0-0.404-0.057c-0.056-0.117-0.112-0.117-0.17-0.117c-0.059,0.058-0.521,0.117-0.578,0.117
							c-0.059,0-0.461,0.057-0.575,0.057c-0.06,0,0,0-0.06,0c-0.115,0-0.461,0.173-0.461,0.229c0,0.058-0.401,0-0.401,0
							c-0.058,0-0.577,0-0.577,0l-0.864,0.173c0,0-0.577,0.289-0.577,0.403c0,0.114-0.173,0.231-0.229,0.289
							c-0.057,0.058-0.402,0-0.402-0.058c0-0.059-0.577,0-0.577,0s-0.229-0.117-0.289-0.059c-0.057,0.059-0.057-0.23-0.057-0.23
							l0.115-0.229l0.346-0.229l0.75-0.116l0.404-0.229l0.229-0.117l0.116-0.346c0,0,0.288-0.057,0.229-0.115
							c0-0.058-0.117-0.289-0.117-0.289l0.521-0.807l0.751-0.347l0.115-0.229c0,0-0.059-0.347,0-0.347
							c0.057-0.058,0.519-0.173,0.519-0.173l0.635,0.173c0,0,0.347-0.229,0.401-0.229c0.06-0.059,0.404-0.23,0.404-0.23
							s0.058-0.173,0.116-0.173c0.058,0,0.401-0.058,0.401,0.114c0.059,0.117,0.289,0.578,0.289,0.578l0.403,0.402l0.402,0.288
							l0.462,0.173c0,0,0.288,0.23,0.346,0.288c0.059,0,0.346,0.347,0.346,0.347l0.116,0.23c0,0-0.057,0.173-0.172,0.289
							c-0.059,0.115-0.289,0.346-0.346,0.287c-0.059,0-0.463-0.115-0.463-0.115l-0.461,0.059c0,0-0.058,0.115,0.06,0.172
							c0.114,0.117,0.288,0.059,0.401,0.174c0.115,0.058,0.461,0.23,0.461,0.23s0.23,0.059,0.23,0.116
							c0,0.057,0.059-0.116,0.059-0.289c0-0.114-0.059-0.289,0.115-0.347c0.114-0.057,0.344,0,0.344-0.057
							c0-0.058,0.06-0.115,0.06-0.115l0.173-0.174v-0.115l0.173-0.114c0,0-0.117-0.116-0.173-0.173
							c-0.058-0.115-0.173-0.115-0.116-0.231c0.059-0.114,0.231-0.229,0.348-0.173c0.115,0.059,0.346,0.116,0.346,0.173
							c0,0.116,0,0.231,0.058,0.173c0.058-0.057,0-0.346,0-0.346s-0.117-0.173-0.291-0.23c-0.113,0-0.461-0.172-0.518-0.23
							c-0.116-0.059-0.23-0.115-0.23-0.115s0.058-0.173-0.057-0.173c-0.115,0-0.404-0.058-0.404-0.116
							c0-0.058-0.346-0.287-0.346-0.346c0-0.059-0.288-0.461-0.288-0.461s-0.174-0.173-0.174-0.23c0-0.057-0.059-0.115-0.059-0.287
							c-0.057-0.115,0.348-0.52,0.348-0.461c0,0.058,0.116,0.115,0.173,0.289c0.057,0.172,0.346,0.461,0.403,0.519
							c0.058,0.116,0.4,0.403,0.519,0.461c0.116,0.058,0.174,0.116,0.346,0.231c0.175,0.057,0.175,0.115,0.404,0.229
							c0.229,0.114,0.288,0.173,0.288,0.173c0.058,0.057,0.173,0.057,0.229,0.115c0.059,0.115,0.117,0.115,0.117,0.173
							c0,0.116,0.058,0.116,0.058,0.288c-0.058,0.173-0.116,0.23-0.058,0.289c0,0.057,0.347,0.691,0.461,0.691
							c0.115,0,0.52,0.174,0.461,0.347c-0.058,0.231,0.229,0.521,0.229,0.521s0.229,0,0.402,0.057c0-0.116,0-0.346,0.115-0.404
							c0.174-0.115,0.404-0.173,0.347-0.288c-0.058-0.116-0.058-0.231-0.229-0.347c-0.117-0.114-0.291-0.172-0.347-0.346
							c-0.059-0.174-0.116-0.404,0.056-0.347c0.174,0.058,0.291,0.404,0.403,0.173c0.06-0.229,0.23-0.402,0.347-0.346
							c0.114,0.059,0.346,0.116,0.346,0.23c0,0.058,0.174,0.635,0.174,0.635s0.058,0.057,0.115,0.345
							c0.059,0.289,0.289,0.347,0.229,0.403c-0.057,0.115-0.114,0.115,0.175,0.173c0.287,0.058,0.575,0.058,0.575,0.174
							c0,0.058,0.229,0.115,0.289,0.173c0.058,0.057,0.229,0.172,0.289,0.057c0.058-0.115,0.115-0.346,0.171-0.289
							c0.059,0.059,0.52,0.059,0.52,0.174c0,0.115,0.23,0.115,0.289,0.173c-0.346-0.808-0.691-1.615-1.098-2.421l-0.633-0.174
							l-0.402-0.172l-0.229-0.23h0.174l-0.06-0.289l0.06-0.173l0.172-0.115l0.116-0.346c-1.038-1.729-2.25-3.345-3.575-4.843
							c-0.058,0.058-0.23,0.173-0.289,0.173c-0.058,0-0.229,0.114-0.287,0c-0.06-0.058-0.117-0.229-0.117-0.229
							s-0.057-0.115-0.057-0.059c0,0.059-0.172,0.059-0.172,0.059l-0.29,0.114c0,0-0.174,0.116-0.231,0.173
							c-0.056,0-0.229,0-0.287,0.057c-0.058,0.059-0.289,0.231-0.346,0.117c-0.058-0.058-0.117,0.057-0.173-0.058
							c-0.059-0.115-0.059-0.288-0.116-0.229c-0.058,0-0.289,0.057-0.289,0.115c0,0.057-0.057,0.057-0.115,0.115
							c-0.057,0.057-0.402,0.115-0.402,0.115v-0.057l0.402-0.347l0.115-0.346c0,0,0.347,0.057,0.403,0.114
							c0,0.059,0.116-0.114,0.175,0c0.114,0.059,0.229,0.059,0.229,0.174c0,0.058,0.059,0.173,0.116,0.115c0-0.058,0-0.229,0-0.229
							s-0.116-0.059-0.174-0.116c-0.058-0.058-0.058-0.173,0-0.173c0.059-0.057,0.23-0.115,0.289-0.115
							c0.059,0.059,0.289-0.058,0.289-0.058s0.057-0.058,0.057-0.116c0-0.058,0.175-0.346,0.175-0.346s-0.117-0.059-0.117-0.174
							v-0.057c-0.922-0.924-1.96-1.73-2.997-2.48c-0.173,0.059-0.347,0.117-0.347,0.117l-0.461,0.459c0,0-0.115,0.23-0.175,0.289
							c0,0.058,0.06,0.691,0.06,0.691s0.289,0,0.229,0.116c-0.059,0.058-0.059,0.461-0.059,0.461l0.346,0.229
							c0,0,0.461,0.174,0.521,0.115c0.057,0,0.289-0.173,0.289-0.173c0.056,0,0.289-0.288,0.401-0.288
							c0.058,0,0.289-0.23,0.347-0.115c0,0.057,0.057,0.403,0.114,0.459c0.06,0.059,0.23,0.174,0.287,0.348
							c0.06,0.173,0.175,0.346,0.117,0.346c0,0.059-0.174,0.173-0.174,0.173s-0.345,0.058-0.402,0.115
							c-0.057,0.057-0.115,0.058-0.174,0.058c-0.057,0,0.116-0.174,0.174-0.23c0.059-0.056-0.058-0.23-0.115-0.23
							c-0.059,0-0.114-0.115-0.059-0.115c0.059-0.059,0.059-0.289,0.059-0.289s-0.059-0.058-0.114,0
							c-0.06,0-0.461,0.174-0.461,0.174s-0.23,0.23-0.23,0.287c0,0.058-0.115,0.289-0.058,0.461
							c0.058,0.174,0.229,0.462,0.229,0.462s0.172,0.114,0.115,0.173c-0.059,0.059-0.173,0.229-0.173,0.229h-0.288
							c0,0-0.52,0.058-0.576,0.115c-0.058,0-0.521,0.174-0.521,0.231s-0.114,0.577-0.114,0.577s-0.521,0.346-0.576,0.346
							c-0.06,0-0.404,0.115-0.404,0.115s-0.172,0.461-0.172,0.402l-0.578,0.289c0,0-0.924-0.289-0.924-0.347
							c0-0.058-0.172-0.173-0.172-0.116c0,0.059,0.172,0.404,0.172,0.461s0,0.231,0,0.174c-0.057-0.059-0.287-0.117-0.346-0.174
							c-0.058,0-0.461,0-0.461,0h-0.173l-0.229,0.174v0.172l0.115,0.117l0.402,0.172l0.403,0.231l0.172,0.403l0.173,0.346
							l-0.114,0.75c0,0.057-0.289,0.23-0.289,0.23l-0.809-0.058c0,0-0.402-0.057-0.402-0.116c-0.059,0-0.577,0.059-0.577,0
							c0-0.057-0.173-0.057-0.173-0.057l-0.058-0.115h-0.23l-0.23,0.288h-0.289v0.229l0.117,0.461c0-0.057-0.06,0.576-0.06,0.576
							s-0.229,0.521-0.288,0.576v0.346l0.174,0.23v0.289c0,0-0.117,0.289-0.058,0.23c0.058,0,0.402,0,0.461-0.057
							c0-0.059,0.229-0.174,0.289-0.059c0.058,0.059,0.173,0,0.229,0.115c0.056,0.115,0.172,0.347,0.172,0.404
							s0.115,0.057,0.115,0.057l0.058,0.117l-0.058,0.057l-0.287,0.691l-0.635,0.461l-0.402,0.23l-0.116,0.288l-0.173,0.173
							l-0.058,0.346c0,0,0.058,0.461,0,0.461l-0.864,0.865l-0.461,0.115l-0.289,0.461c0,0-0.346,0.346-0.403,0.403
							c0,0.058-0.229,0.288-0.229,0.288s0.116,0.347,0.116,0.289c0,0,0.229,0.347,0.288,0.461c0.403,1.154,0.577,1.673,0.403,2.826
							c-0.116,0.979-0.979,2.248-1.615,2.883l-0.057,0.172c0,0,0.172,0.174,0.229,0.115c0.059-0.055,0.403,0.23,0.462,0.289
							c0.058,0.059,0.46,0.635,0.46,0.635l0.057,0.115l0.231,0.75c0,0,1.038,0.865,1.038,0.808s1.096,0.808,1.096,0.808l0.865-0.404
							c0,0.059,0.749-0.057,0.749-0.057l0.461,0.057l0.347,0.175l1.211-0.578l0.229-0.172l0.922-0.058l0.461,0.172
							c0,0,0.289,0.461,0.289,0.52s0.173,0.402,0.229,0.346c0-0.057,1.039-0.115,1.097-0.057c0.059,0,0.46,0.46,0.46,0.46v0.403
							l-0.057,0.75l-0.172,0.347l-0.115,0.347l-0.059,0.229c0,0,1.096,1.557,1.096,1.615c0,0.057,0.289,0.633,0.289,0.633
							l0.346,0.808l0.174,0.461l-0.174,0.288l0.289,0.809l-0.115,0.807l-0.462,1.038l-0.229,0.749l0.057,0.98l0.578,1.153
							l0.576,1.326l0.058,1.44l0.289,0.519c5.304-5.073,8.647-12.166,8.647-20.123C365.182,161.995,365.065,160.726,364.893,159.4z"
							/>
						<path fill="#56E295" d="M319.632,161.937c0.114,0.058,0.229,0,0.289,0c0.059,0,0.286-0.058,0.286-0.058s0.06,0.173,0.06,0.229
							c0,0.058,0.346,0,0.346-0.057c0-0.058,0.115-0.173,0.115-0.173l0.46-0.116h0.634c0.06,0,0.116-0.115,0-0.287
							c-0.115-0.174-0.401-0.231-0.459-0.404c-0.059-0.115-0.404-0.057-0.521,0c-0.114,0.058-0.576-0.115-0.75-0.115
							c-0.115,0,0,0.173,0,0.173v0.462h-0.577v0.057c0,0-0.173,0.058-0.173,0.173C319.343,161.937,319.518,161.879,319.632,161.937z
							"/>
						<path fill="#56E295" d="M319.689,160.726c0-0.058-0.288-0.115-0.403-0.115c-0.114,0-0.633-0.52-0.691-0.635
							c-0.059-0.114-1.21-0.402-1.21-0.402s-1.326-0.059-1.326-0.116s-0.634,0.461-0.634,0.461v0.058c0,0,0.057,0.23,0.057,0.289
							c0,0.058,0.403-0.289,0.461-0.404c0.059-0.114,0.347-0.172,0.404-0.23c0.058-0.057,0.115,0.174,0.173,0.174
							c0.059,0,0.403,0.114,0.403,0.114l0.634,0.229l0.229,0.23c0,0,0.115,0.577,0.115,0.635s0.461,0.058,0.461,0.058l0.922-0.115
							C319.401,160.957,319.689,160.784,319.689,160.726z"/>
					</g>
				</g>
			</g>
		</g>
		<g id="Laag_22_2_">
			<g>
				<g>
					<path fill="#FFFFFF" d="M489.502,170.333l17.775,13.933c0.537,0.539,1.252,0.895,2.146,0.895c0.713,0,1.61-0.355,2.146-0.895
						c6.08-6.261,15.381-15.563,16.454-16.633c0.175,0,0.175-0.177,0.357-0.357c2.326-2.686,4.648-5.727,4.648-11.268
						c0-8.41-7.583-13.221-15.274-13.221c-3.753,0-7.153,1.609-9.655,4.292c-2.507-2.683-6.081-4.292-9.66-4.292
						c-7.689,0-13.952,6.797-13.952,15.204C484.313,163.181,486.279,167.65,489.502,170.333z"/>
				</g>
				<path fill="#07934A" d="M529.994,156.185c0-6.617-6.151-10.178-12.232-10.178c-4.291,0-7.873,2.684-9.659,6.439
					c-1.789-3.936-5.546-6.439-9.66-6.439c-6.079,0-10.91,5.366-10.91,12.162c0,4.114,1.433,7.869,4.292,10.018L509.6,182.3
					c0,0,17.174-17.349,16.635-16.637C528.387,162.804,529.994,160.48,529.994,156.185z"/>
			</g>
		</g>
	</g>
</g>
</svg>
