<?xml version="1.0" encoding="utf-8"?>
<!-- Generator: Adobe Illustrator 16.0.0, SVG Export Plug-In . SVG Version: 6.00 Build 0)  -->
<!DOCTYPE svg PUBLIC "-//W3C//DTD SVG 1.1//EN" "http://www.w3.org/Graphics/SVG/1.1/DTD/svg11.dtd">
<svg version="1.1" xmlns="http://www.w3.org/2000/svg" xmlns:xlink="http://www.w3.org/1999/xlink" x="0px" y="0px"
	 width="850.394px" height="496.063px" viewBox="0 0 850.394 496.063" enable-background="new 0 0 850.394 496.063"
	 xml:space="preserve">
<g id="Layer_1" display="none">
	
		<image display="inline" overflow="visible" width="3684" height="3399" xlink:href="5E08C8E.jpg"  transform="matrix(0.9586 0 0 0.9586 -2234.9751 -2541.0273)">
	</image>
</g>
<g id="Layer_27" display="none">
	<g id="Layer_34" display="inline">
	</g>
	<g id="Layer_35" display="inline">
		<path fill="#1C8439" d="M403.951,205.271c8.056-5.287,23.999-12.382,36.666-31.716c0,0,9.333-13.333,0-22s-26,12-26,12
			s-14.332,23.786-36.999,23.786s-49.353-39.668-49.353-39.668s-33.063,12.756-32.397,23.423s63.758,45.112,79.258,45.112
			C392.125,216.208,392.951,212.491,403.951,205.271z"/>
		<path fill="#2BA954" d="M399.136,189.861c8.056-5.287,24-12.382,36.666-31.716c0,0,9.333-13.333,0-22s-26,12-26,12
			s-14.332,23.786-36.999,23.786s-49.353-39.668-49.353-39.668s-33.063,12.756-32.397,23.423s63.758,45.112,79.258,45.112
			C387.311,200.798,388.136,197.081,399.136,189.861z"/>
	</g>
	<g id="Layer_36" display="inline">
		<g id="Layer_9">
			<path fill="#2EEA93" d="M299.85,70.292c0,0-25.082,1.514-28.797,11.77s-26.825,14.063-34.75,16.5l8,2.572
				c0,0,29.885-6.826,31-13.322c1.114-6.496,23.088-9.551,23.088-9.551L299.85,70.292z"/>
			<path fill="#2BA954" d="M289.832,94.674c0,25.85,20.955,46.806,46.805,46.806c9.476,0,18.293-2.815,25.661-7.655
				c12.735-8.364,21.144-22.775,21.144-39.15c0-25.849-20.956-46.804-46.805-46.804C310.787,47.87,289.832,68.825,289.832,94.674z"
				/>
			<g>
				<g id="Laag_1_3_">
					<path id="XMLID_3_" fill="#FECEA2" d="M382.119,84.324c1.953,4.356,1.509,6.195,1.146,14.444
						c-0.52,11.802-4.527,18.063-6.756,20.424c-5.913,1.154-17.617,1.015-18.731,1.015c-14.308-0.043-19.663-14.395-13.365-26.346
						c6.426-12.209,24.875-9.537,37.341-9.537"/>
				</g>
			</g>
			<circle fill="#EFE8E3" cx="369.496" cy="101.133" r="12.257"/>
			<circle fill="#784F30" cx="369.496" cy="101.133" r="9.625"/>
			<circle fill="#020200" cx="369.496" cy="101.133" r="5.54"/>
			<ellipse fill="#EFE8E3" cx="374.716" cy="97.419" rx="4.405" ry="4.412"/>
		</g>
		<g id="Layer_37">
			<path fill="#2EEA93" d="M383.441,89.894c0,0-26.565-10.281-91.322-9.703c0,0,2.519-6.841,4.559-9.899
				c2.04-3.059,51.821-0.537,83.44,7.033C380.118,77.325,383.549,82.496,383.441,89.894z"/>
		</g>
	</g>
	<g id="Layer_38" display="inline">
		<path fill="#2D2723" d="M383.716,101.832c0,0-9.5-10.458-30.95-17.625l6.244-6.251c0,0,19.099,10.168,27.215,18.501
			L383.716,101.832z"/>
	</g>
	<g id="Layer_40" display="inline">
		<path fill="#2BA954" d="M318.803,126.811c0,0,12.5,25-3.5,40.5s-39,21.219-54,38.859s-3,33.758-29,41.449
			s-46.5-14.309-42.5-30.809s43.5-78.199,89-96.6S314.303,125.311,318.803,126.811z"/>
	</g>
	<g id="Layer_41" display="inline">
		<path fill="#2BA954" d="M243.54,219.068c0,0-21.125-17.992-35.263-10.192c-14.137,7.8-22.654,9.647-23.221,25.338
			s55.993,30.202,72.938,35.188c16.944,4.986,22.995,1.227,32.561,6.541c9.564,5.313-2.262,5.371,16.423,18.51
			c18.685,13.138,36.151,18.938,41.717,19.464s21.675,2.895,26.715,5.754c5.04,2.858,11.868,14.951,17.464,8.632
			c5.596-6.318,29.455-36.084,29.455-36.084s-3.224-11.472-13.808-4.69c-10.584,6.78-13.817,14.066-25.462,14.287
			c-11.646,0.221-31.36-18.356-31.36-18.356s-22.871-9.761-26.676-15.43c-3.804-5.668-10.981-20.047-20.999-20.992
			c-10.019-0.945-30.226-30.795-61.348-37.168"/>
		<path fill="#2BA954" d="M222.575,257.235c0,0,16.674-22.181,8.028-35.817c-8.645-13.637-11.007-22.026-26.703-21.637
			c-15.695,0.389-26.74,57.727-30.687,74.943c-3.947,17.217,3.974,26.037-4.549,32.897c-6.861,5.523-5.861,1.759-19.33,1.818
			c-22.839,0.101-40.6,4.151-45.531,6.784s-19.674,9.546-25.455,9.941c-5.779,0.396-18.146-5.921-19.327,2.437
			c-1.182,8.355-4.657,46.346-4.657,46.346s9.019,7.787,14.105-3.707c5.084-11.494,3.762-19.355,13.351-25.963
			c9.592-6.609,36.284-1.994,36.284-1.994s42.731-9.214,49.032-6.584c6.301,2.628,30.866-7.335,31.2-17.392
			s28.899-32.043,33.367-63.494"/>
	</g>
	<g id="Layer_42" display="inline">
		<path fill="#F9A883" d="M443.303,157.478c0,0-5.125-12.104-15.947-16.798c-8.372-3.631,16.689-16.748,16.792-17.498
			s31.853,0,37.353,6.5s8.514,12.569,8.514,12.569s0.998,13.931-6.883,12.681S477,144.682,477,144.682s-7.25-8-10.75-4
			s-7.912,6.1-3.456,7.05s7.206-1.881,7.206-1.881s6.75,1.331,2.25,6.331S460.189,163.123,443.303,157.478z"/>
		<path fill="#FECEA2" d="M438.407,150.083c0,0-21.475-7.91-17.081-15.908s16.689-16.748,16.792-17.498s31.853,0,37.353,6.5
			s8.514,12.569,8.514,12.569s0.998,13.931-6.883,12.681s-6.131-10.25-6.131-10.25s-7.25-8-10.75-4s-7.912,6.1-3.456,7.05
			s7.206-1.881,7.206-1.881s6.75,1.331,2.25,6.331S455.292,155.728,438.407,150.083z"/>
	</g>
	<g id="Layer_28" display="inline">
		<circle fill="#001406" cx="706.968" cy="399.871" r="16.94"/>
	</g>
	<g id="Layer_29" display="inline">
		<circle fill="#FF1200" cx="706.967" cy="399.871" r="13.389"/>
	</g>
	<g id="Layer_30" display="inline">
		<path fill="#666666" d="M701.229,397.138c0,0,6.867-14.48,4.801-19.945v-4.099h4.307v-2.914h-3.916v-4.008h24.408v4.008h-6.921
			v2.914h7.377l-19.126,28.963c0,0-4.172,5.086-8.471,2.459C698.77,401.51,701.229,397.138,701.229,397.138z"/>
		<circle fill="#001406" cx="519.35" cy="399.871" r="16.94"/>
		<circle fill="#FF1200" cx="519.35" cy="399.871" r="13.389"/>
		<path fill="#666666" d="M524.542,402.057c0,0-4.172,5.086-8.471,2.459c-4.918-3.006-2.459-7.378-2.459-7.378
			s6.867-14.48,4.8-19.945v-4.099h25.256L524.542,402.057z"/>
		<rect x="522.719" y="369.633" fill="#666666" width="13.57" height="5.191"/>
		<rect x="518.803" y="366.172" fill="#666666" width="24.408" height="4.008"/>
	</g>
	<g id="Layer_31" display="inline">
		<path fill="#666666" d="M666.422,330.039c15.533,2.28,30.931,5.97,43.596,15.277c0.322-0.077,1.479,0.684,1.822,0.684l1.411,0.592
			c2.384,0,4.372,1.988,4.372,4.372c0,1.077-0.409,2.071-1.074,2.84c3.555,4.709,5.348,10.613,5.992,16.559
			c0.258,2.375-2.184,4.372-4.371,4.372c-2.578,0-4.115-2.003-4.373-4.372c-0.486-4.492-2.271-10.548-6.031-13.438
			c-1.115-0.857-1.917-2.007-2.115-3.269c-5.758-4.204-12.494-7.157-19.143-9.542c-8.089-2.902-16.618-5.056-25.17-5.991
			c-1.152-0.126-1.926-0.143-3.554-0.714c-11.079-1.536-15.688-2.617-23.694-4.271c-9.389-1.94-18.832-3.423-28.262-5.127
			c-17.533-3.17-35.623-7.056-53.47-4.599c-1.132,1.04-2.574,1.301-3.899,1.022c-0.192,0.179-0.438,0.391-0.438,0.392
			c-0.167,0.171-0.259,0.259-0.308,0.301c-0.038,0.063-0.115,0.178-0.266,0.385c-1.145,1.588-2.051,3.413-2.797,5.218
			c-1.713,4.139-2.908,8.479-4.164,12.771c-1.156,3.957-2.752,7.752-4.045,11.664c-1.271,3.848-3.397,9.712-1.112,13.537
			c2.897,4.854-4.663,9.248-7.55,4.414c-5.966-9.991,1.549-22.61,4.424-32.441c1.494-5.107,3.033-10.166,5.195-15.039
			c0.727-1.638,1.625-3.354,2.73-4.916c-0.24-0.947-0.133-2.016,0.492-3.111c2.963-5.189,7.809-11.437,13.506-13.729
			c4.635-1.866,9.844-1.594,14.832-0.946c1.305-0.732,2.803,0.13,4.42-0.007c13.719-1.164,26.482-5.972,43.834-4.438
			c1.538,0.136,11.743,20.753,12.155,21.885c3.214,0.364,0,0,3.157,0.652c0.396,0.027,0.793,0.046,1.188,0.076"/>
	</g>
	<g id="Layer_32" display="inline">
		
			<rect x="523.998" y="156.971" transform="matrix(-0.9146 0.4044 -0.4044 -0.9146 1106.8373 237.5059)" fill="#666666" width="8.668" height="157.379"/>
		<polygon fill="#666666" points="530.137,181.941 534.274,182.339 584.109,319.183 581.167,319.955 		"/>
		<polygon fill="#666666" points="552.928,186.057 555.917,185.414 591.375,302.758 588.385,303.401 		"/>
		<polygon fill="#666666" points="572.364,188.367 575.385,187.801 603.945,301.531 600.924,302.096 		"/>
		<polygon fill="#666666" points="500.822,180.503 501.267,177.863 764.999,211.047 764.551,213.688 		"/>
		<polygon fill="#666666" points="562.044,305.395 561.709,302.742 744.889,285.542 745.222,288.195 		"/>
		<polygon fill="#666666" points="761.989,211.144 764.999,211.753 744.169,288.448 741.161,287.838 		"/>
		<polygon fill="#666666" points="649.673,197.081 652.763,197.152 649.641,296.872 646.551,296.799 		"/>
		<polygon fill="#666666" points="685.441,202.235 688.508,202.565 675.252,294.317 672.185,293.987 		"/>
		<polygon fill="#666666" points="667.84,200.798 670.919,201.025 661.704,294.44 658.624,294.213 		"/>
		<polygon fill="#666666" points="721.307,206.17 724.359,206.594 708.502,291.501 705.452,291.077 		"/>
		<polygon fill="#666666" points="703.307,205.29 706.368,205.661 692.237,292.403 689.175,292.032 		"/>
		<polygon fill="#666666" points="742.191,209.363 745.222,209.884 726.954,288.97 723.922,288.449 		"/>
		<polygon fill="#666666" points="630.133,195.846 633.222,195.77 636.577,298.126 633.487,298.202 		"/>
		<polygon fill="#666666" points="611.68,192.237 614.76,192.016 625.041,298.974 621.959,299.194 		"/>
		<polygon fill="#666666" points="594.115,190.19 597.182,189.861 614.198,308.143 611.129,308.471 		"/>
		<polygon fill="#666666" points="753.081,249.858 752.819,252.517 528.969,236.043 529.231,233.384 		"/>
		<polygon fill="#666666" points="758.022,230.202 757.682,232.855 517.322,209.889 517.663,207.237 		"/>
		<polygon fill="#666666" points="748.723,267.685 748.707,270.354 544.317,269.335 544.335,266.667 		"/>
	</g>
	<g id="Layer_33" display="inline">
		<path fill="#FF1200" d="M495.411,171.931c0,0-0.895-1.026-2.867-3.212s-2.52-12.568-9.441-19.126c0,0-11.475-9.472-25.501-6.011
			c0,0-2.368-1.093-2.732-4.736c-0.364-3.643,2.731-6.192,9.653-6.557c6.922-0.365,24.253,2.914,30.889,15.118
			c6.635,12.204,8.544,15.178,7.226,19.429C501.317,171.087,495.411,171.931,495.411,171.931z"/>
	</g>
	<g id="Layer_43" display="inline">
		<path fill="#19CC72" d="M444.765,157.75c0,0-1.548-4.611-5.556-7.564c-0.427-0.314-8.75-2.513-13.117-5.665
			c0,0-12.621,11.377-20.65,22.917c0,0,19.402,15.888,26.58,16.779C432.022,184.217,448.053,168.905,444.765,157.75z"/>
		<path fill="#2EEA93" d="M439.407,150.083c0,0-16.493-6.687-18.673-13.229c0,0-12.621,11.377-20.65,22.917
			c0,0,9.615,17.757,16.792,18.648C416.875,178.419,437.259,168.606,439.407,150.083z"/>
		<path fill="#2EEA93" d="M378.187,301.034c0,0-14.712-7.209-26.235-17.341c0,0-13.912,13.86-14.968,26.927
			c0,0,6.041,2.623,11.203,3.238s19.839,3.113,24.728,4.721C372.915,318.579,373.071,306.881,378.187,301.034z"/>
		<path fill="#2EEA93" d="M81.82,345.278c0,0,9.671-5.404,33.059-2.471c0,0,0.477-17.79-6.325-28.996c0,0-8.144,3.099-12.688,5.625
			c-4.545,2.526-14.175,5.137-19.078,6.699C76.788,326.135,82.539,337.541,81.82,345.278z"/>
	</g>
</g>
<g id="Layer_39">
</g>
<g id="Layer_17">
	<g id="Layer_23">
		<path fill="#3B3B3B" d="M244.636,279.862"/>
		<path fill="#3B3B3B" d="M474.769,336.038"/>
	</g>
	<g id="Layer_24">
	</g>
	<g id="Layer_25">
	</g>
	<g id="Layer_18">
	</g>
	<g id="Layer_16">
	</g>
	<g id="Layer_19">
	</g>
	<g id="Layer_21">
	</g>
	<g id="Layer_44">
		<path fill="#2BA954" d="M462.64,164.955c0,0,15.733,8.134,30.003,21.821c17.683,16.96,28.328,72.318,34.011,115.321
			c1.427,10.798-35.687,47.472-53.321,50.299c0,0-10.853-14.363-22.009-27.292c-1.527-1.771,21.77-6.939,31.265-26.57
			c9.982-20.635-7.063-36.021-16.08-66.071c0,0-0.284,59.289-7.425,94.719c-3.473,17.229,10.063,33.161,9.924,38.701
			c-0.241,9.698,37.041,3.829,53.56,2.792c6.581-0.413,31.856,0.504,35.509,6.624c0,0,21.704,30.961,6.064,43.09
			c0,0-76.924,18.831-126.397,7.021c0,0-27.884-6.384-63.096-1.915c0,0-69.046,4.788-91.389,2.873c0,0-29.045,3.191-23.3-18.194
			c2.925-10.888,4.07-28.895,24.178-40.695c8.485-4.98,38.302-1.596,51.11-4.549c8.703-2.006,11.164-36.706,11.164-36.706
			s-14.297-45.857-10.939-91.367c0.101-1.363-20.293,17.742-13.591,59.05c2.998,18.472,39.792,25.934,49.895,33.833
			c12.332,9.643-9.356,45.646-35.53,27.139c0,0-33.037-14.371-52.347-48.204c-12.897-22.597,3.803-93.97,28.248-117.991
			c0,0,14.594-9.898,36.227-17.982C367.375,163.598,462.64,164.955,462.64,164.955z"/>
	</g>
	<g id="Layer_49">
		<path fill="#15823C" d="M346.409,179.68c0,0,18.354,27.041,56.201,27.041s61.689-40.514,61.689-40.514
			s-8.568,44.949-61.689,44.949S346.409,179.68,346.409,179.68"/>
		<path fill="#15823C" d="M363.054,377.532c0,0-19.487-7.66-36.316-11.649l33.756,13.396L363.054,377.532"/>
		<path fill="#15823C" d="M473.333,378.808c0,0,25.694-7.66,46.761-9.097c0,0-37.302,7.69-41.792,11.107
			C473.811,384.235,478.6,379.288,473.333,378.808"/>
		<path fill="#15823C" d="M393.058,390.618c0,0,15.321-3.51,29.684,5.587c0,0,8.952,4.615,12.928,4.309c3.975-0.308,0,0,0,0
			s34.471,0.798,37.663,29.364c0,0-9.575-29.364-37.823-27.289c0,0-7.182-0.319-14.843-4.628c0,0-7.34-6.065-27.609-7.022"/>
		<path fill="#15823C" d="M427.21,387.746c0,0-4.663-6.224-12.706-7.66c0,0-17.298-0.614-24.001,1.928c0,0-11.172,3.18-16.279,3.18
			c-5.106,0,7.501,0.731,17.077-1.31c9.576-2.042,18.673-2.815,22.662-1.87C417.954,382.958,422.104,384.074,427.21,387.746"/>
	</g>
	<g id="Layer_48">
		<path fill="#2EEA93" d="M390.345,422.537c0,0-15.48-20.428,2.713-31.919l-30.003-13.086c0,0-32.397,24.896-13.884,47.559
			L390.345,422.537z"/>
		<path fill="#2EEA93" d="M427.21,387.746c0,0,7.82,6.064,8.459,12.768c0,0,33.753,1.735,37.344,29.364h10.533
			c0,0,7.342-48.835-10.214-51.069L427.21,387.746z"/>
	</g>
	<g id="Layer_45">
	</g>
	<g id="Layer_46">
	</g>
	<g id="Layer_22">
		<path fill="#15823C" d="M387.472,178.697c0.128-0.397,0.258-0.783,0.336-1.19c0.039-0.141,0.063-0.282,0.063-0.422
			c0-0.4-0.249-0.623-0.539-0.679c-0.04-0.157-0.128-0.308-0.296-0.421c-0.61-0.414-1.761-2.256-2.125-3.479
			c-0.049-0.328-0.077-0.664-0.073-1.008c0.008-0.801-1.235-0.993-1.411-0.191c-0.014,0.063-0.015,0.127-0.022,0.191
			c-0.001,0-0.002,0-0.003,0c0,0.006,0.001,0.013,0.001,0.02c-0.026,0.244-0.011,0.491,0.037,0.739
			c0.219,2.245,1.456,4.083,2.353,6.11c-0.174,0.321-0.354,0.64-0.542,0.953c-0.078,0.129-0.238,0.41-0.437,0.722
			c-0.253-0.196-0.608-0.231-0.882,0.085c-1.54,1.775-3.076,3.554-4.548,5.386c-0.575,0.714,0.435,1.737,1.016,1.016
			c1.033-1.285,2.1-2.54,3.175-3.79c1.051-0.086,1.789-1.059,2.388-1.885c0.197-0.271,0.377-0.555,0.551-0.843
			c0.484,0.487,1.388-0.063,1.172-0.725C387.621,179.088,387.548,178.892,387.472,178.697z"/>
		<path fill="#15823C" d="M433.576,190.606c-1.778-2.756-2.968-4.697-5.126-7.125c-1.522-1.713-1.524-3.653-1.824-5.79
			c-0.307-2.196-2.213-5.151-2.428-7.376c-0.089-0.914-0.349-0.537-0.26,0.385c0.199,2.056,0.654,4.526,1.117,6.535
			c0.381,1.65,0.181,3.8,1.028,5.331c1.908,3.444,5.561,5.466,7.688,8.765C434.272,192.106,434.08,191.387,433.576,190.606z"/>
	</g>
	<g id="Layer_26">
	</g>
	<g id="Layer_20">
	</g>
	<g id="Layer_5">
		<path fill="#2EEA93" d="M455.69,101.477c0,0,25.997,6.82,31.489,21.985c5.493,15.165,3.296,28.1,15.014,31.702h-10.985
			c0,0-10.619-15.637-12.267-25.241c-1.648-9.604-21.093-16.664-21.093-16.664L455.69,101.477z"/>
		<path fill="#2BA954" d="M470.504,137.53c0,38.221-30.984,69.205-69.205,69.205c-14.01,0-27.047-4.164-37.942-11.319
			c-18.83-12.368-31.262-33.675-31.262-57.886c0-38.221,30.984-69.205,69.205-69.205S470.504,99.309,470.504,137.53z"/>
		<g>
			<g id="Laag_1_2_">
				<path id="XMLID_2_" fill="#FECEA2" d="M453.554,116.209c-9.501-18.051-33.822-24.449-52.253-24.449
					c-18.433,0-42.755,6.398-52.256,24.449c-9.311,17.672-1.395,38.955,19.699,38.955c1.647,0,12.541-1.141,21.218-2.852
					c7.474-1.456,15.138-1.456,22.613,0c8.741,1.711,19.571,2.852,21.219,2.852C454.949,155.1,462.867,133.881,453.554,116.209z"/>
			</g>
		</g>
		<path fill="#2EEA93" d="M333.951,121.554c0,0,45.244-35.948,132.557-7.241c0,0-1.683-14.139-9.097-17.29
			c-57.182-24.305-112.874,0.915-112.874,0.915S335.459,112.556,333.951,121.554z"/>
	</g>
	<g id="Layer_47">
	</g>
	<g id="Layer_50">
		<path fill="#2EEA93" d="M426.951,341.552l22.573-18.105c0,0,27.16,0.438,26.146,30.084l-33.755,21.394L426.951,341.552z"/>
		<path fill="#2EEA93" d="M387.871,341.297l-19.992-15.99c0,0-33.155-0.451-31.604,30.361l38.12,21.863L387.871,341.297"/>
		<path fill="#F9A883" d="M409.867,343.978c0,0-3.772-4.152,0.718-6.743c9.628-5.555,18.062-4.628,19.185-4.628
			c1.124,0,17.082,7.66,18.679,22.981c1.596,15.32-5.426,21.386-16.598,22.662s-27.286,5.745-33.592,1.276
			c-6.306-4.468-13.704-25.795-4.509-27.071c9.195-1.276,28.475-4.13,28.966-7.002c0.491-2.873-1.324-2.503-4.931-2.313
			C413.977,343.339,416.57,345.254,409.867,343.978z"/>
		<path fill="#FECEA2" d="M408.537,344.177c0,0,2.444-5.755-8.444-7.989c-10.889-2.234-13.958,1.885-15.082,1.885
			s-17.068,4.271-18.665,19.591c-1.596,15.321,5.426,21.386,16.597,22.662c11.172,1.277,27.287,5.745,33.593,1.277
			c6.305-4.469,13.703-25.796,4.508-27.072c-9.195-1.276-31.117-5.036-28.966-7.002c0.393-0.359-0.871-2.656,7.056-2.274
			C403.271,345.455,401.834,345.455,408.537,344.177z"/>
	</g>
	<g id="Layer_51">
		<polygon fill="#15823C" points="343.228,314.333 366.121,324.413 362.046,325.306 		"/>
		<polygon fill="#15823C" points="449.524,323.447 460.417,319.82 453.268,323.447 		"/>
	</g>
</g>
<g id="Layer_10">
	<g id="Layer_12">
	</g>
	<g id="Layer_2">
	</g>
	<g id="Layer_11">
	</g>
	<g id="Layer_14">
	</g>
	<g id="Layer_15">
	</g>
	<g id="Layer_13">
	</g>
	<g id="Layer_3">
	</g>
	<g id="Layer_4">
	</g>
	<g id="Layer_6">
	</g>
	<g id="Layer_7">
	</g>
	<g id="Layer_8">
	</g>
	<path fill="#2D2723" d="M410.652,109.446l1.444,7.865c0,0,26.589-4.359,36.967-1.104l-6.255-13.293
		C442.809,102.914,414.909,106.531,410.652,109.446z"/>
	<path fill="#2D2723" d="M391.521,109.768l-1.999,7.744c0,0-26.201-6.563-36.789-4.051l7.185-12.819
		C359.918,100.647,387.483,106.558,391.521,109.768z"/>
	<path fill="#443529" d="M410.581,121.872c0,0,4.328,10.775,14.929,11.041c6.166,0.154,15.824-0.834,20.044-9.414
		c0,0-8.223,7.147-19.226,6.488C418.298,129.503,414.077,125.211,410.581,121.872z"/>
	<path fill="#443529" d="M375.06,129.987c-11.003,0.659-19.226-6.488-19.226-6.488c4.221,8.58,13.878,9.568,20.044,9.414
		c10.601-0.266,14.929-11.041,14.929-11.041C387.311,125.211,383.09,129.503,375.06,129.987z"/>
</g>
</svg>
