<?xml version="1.0" encoding="utf-8"?>
<!-- Generator: Adobe Illustrator 16.0.0, SVG Export Plug-In . SVG Version: 6.00 Build 0)  -->
<!DOCTYPE svg PUBLIC "-//W3C//DTD SVG 1.1//EN" "http://www.w3.org/Graphics/SVG/1.1/DTD/svg11.dtd">
<svg version="1.1" xmlns="http://www.w3.org/2000/svg" xmlns:xlink="http://www.w3.org/1999/xlink" x="0px" y="0px"
	 width="1350.339px" height="787.598px" viewBox="0 0 1350.339 787.598" enable-background="new 0 0 1350.339 787.598"
	 xml:space="preserve">
<g id="Layer_1" display="none">
	
		<image display="inline" overflow="visible" width="3684" height="3399" xlink:href="4D4C1B5B.jpg"  transform="matrix(-0.888 0 0 0.888 2974.2769 -857.7578)">
	</image>
</g>
<g id="Layer_27">
	<g id="Layer_34">
	</g>
	<g id="Layer_35">
		<path fill="#1C8439" d="M621.95,395.626c19.072,0.734,52.942,7.621,95.598-8.998c0,0,30.381-10.773,25.295-35.48
			c-5.09-24.708-55.731-10.539-55.731-10.539s-50.461,21.886-87.019-4.174c-36.558-26.06-33.991-120.716-33.991-120.716
			s-67.991-17.441-79.18,0.53c-11.189,17.969,50.965,146.059,75.964,163.879C590.305,399.672,595.909,394.624,621.95,395.626z"/>
		<path fill="#2BA954" d="M601.717,389.685c19.03,1.428,52.629,9.543,95.861-5.512c0,0,30.755-9.661,26.569-34.539
			c-4.187-24.877-55.31-12.559-55.31-12.559s-51.224,20.033-86.81-7.34c-35.584-27.373-29.574-121.874-29.574-121.874
			s-67.31-19.903-79.146-2.353c-11.836,17.55,45.614,147.819,69.947,166.536C569.943,392.573,575.729,387.734,601.717,389.685z"/>
	</g>
	<g id="Layer_36">
		<g id="Layer_9">
			<path fill="#2EEA93" d="M471.408,67.122c0,0-25.369,6.99-32.727,27.303c-7.358,20.313-6.189,33.783-17.414,49.267l11.518,3.716
				c0,0,12.104-28.727,14.314-41.593c2.207-12.867,21.419-22.909,21.419-22.909L471.408,67.122z"/>
			<path fill="#2BA954" d="M451.564,115.416c0,51.198,41.504,92.705,92.704,92.705c18.768,0,36.231-5.576,50.825-15.162
				c25.225-16.566,41.878-45.11,41.878-77.542c0-51.198-41.507-92.703-92.703-92.703C493.069,22.713,451.564,64.218,451.564,115.416
				z"/>
			<g>
				<g id="Laag_1_3_">
					<path id="XMLID_3_" fill="#FECEA2" d="M634.353,94.915c3.867,8.628,2.987,12.271,2.269,28.609
						c-1.029,23.375-8.967,35.777-13.381,40.452c-11.711,2.287-34.894,2.01-37.101,2.01c-28.338-0.085-38.946-28.51-26.472-52.182
						c12.727-24.181,49.269-18.889,73.958-18.889"/>
				</g>
			</g>
			<circle fill="#EFE8E3" cx="609.351" cy="128.208" r="24.277"/>
			<circle fill="#784F30" cx="609.352" cy="128.208" r="19.065"/>
			<circle fill="#020200" cx="609.351" cy="128.208" r="10.972"/>
			<ellipse fill="#EFE8E3" cx="619.691" cy="120.853" rx="8.726" ry="8.739"/>
		</g>
		<g id="Layer_37">
			<path fill="#2EEA93" d="M636.971,105.947c0,0-52.616-20.363-180.876-19.218c0,0,4.988-13.549,9.028-19.607
				c4.041-6.059,102.64-1.063,165.267,13.93C630.39,81.052,637.185,91.294,636.971,105.947z"/>
		</g>
	</g>
	<g id="Layer_38">
		<path fill="#2D2723" d="M637.516,129.592c0,0-18.815-20.714-61.301-34.909l12.367-12.381c0,0,37.829,20.138,53.903,36.644
			L637.516,129.592z"/>
	</g>
	<g id="Layer_40">
		<path fill="#2BA954" d="M530.186,168.51c0,0,50.607,22.445,45.694,66.292c-4.912,43.849-32.848,81.574-33.534,127.432
			c-0.687,45.856,37.96,55.359,7.928,99.88c-30.034,44.52-132.26,47.721-109.813-33.486c17.386-62.899-15.185-84.688,20.29-219.789
			C485.439,114.816,521.42,171.889,530.186,168.51z"/>
	</g>
	<g id="Layer_41">
		<path fill="#2BA954" d="M557.283,436.313c0,0-44.347-32.465-71.137-14.999c-26.791,17.463-37.477,18.394-36.238,49.466
			c1.656,41.565,109.056,29.723,143.252,37.105c34.197,7.385,51.467-8.523,65.267,8.183c11.111,13.45,3.631,11.564,4.087,38.237
			c0.773,45.229,9.241,80.303,14.579,90.003s19.4,38.724,20.329,50.164c0.928,11.434-11.271,36.087,5.31,38.217
			c16.579,2.129,91.905,0.135,91.905,0.135s15.195-18.057-7.696-27.841c-22.892-9.781-38.429,0.957-51.756-17.867
			c-13.331-18.83-4.858-71.81-4.858-71.81s-19.324-84.397-14.271-96.942c5.044-12.544-15.302-60.945-35.228-61.354
			c-19.926-0.41-64.187-30.684-126.588-38.741"/>
	</g>
	<g id="Layer_47">
	</g>
	<g id="Layer_42">
		<path fill="#F9A883" d="M729.992,383.04c0,0-17.071-19.656-40.332-21.858c-17.993-1.708,21.165-41.775,20.898-43.251
			c-0.266-1.474,59.993-19.525,74.334-10.656c14.345,8.871,23.74,18.453,23.74,18.453s10.418,25.625-5.188,28.102
			c-15.61,2.479-17.83-15.544-17.83-15.544s-18.56-10.623-22.7-0.944c-4.139,9.678-11.163,16.338-2.187,15.396
			c8.975-0.941,12.419-7.958,12.419-7.958s13.528-1.632,8.117,10.542C775.853,367.499,765.257,383.323,729.992,383.04z"/>
		<path fill="#FECEA2" d="M722.207,379.001c0,0-42.765-15.029-34.302-30.998c8.465-15.968,38.718-23.953,40.162-24.349
			c15.351-4.208,55.656-11.75,66.74,0.958c11.087,12.709,17.236,24.642,17.236,24.642s2.388,27.559-13.257,25.32
			c-15.645-2.243-12.445-20.119-12.445-20.119s-14.595-15.628-21.409-7.604c-6.812,8.027-15.488,12.317-6.636,14.064
			c8.858,1.75,14.219-3.94,14.219-3.94s13.407,2.437,4.643,12.474S755.815,389.677,722.207,379.001z"/>
	</g>
	<g id="Layer_28">
		<rect x="458.711" y="676.974" fill="#777777" width="12.667" height="27.333"/>
		<rect x="529.377" y="676.974" fill="#777777" width="12.667" height="27.333"/>
		<rect x="595.044" y="676.974" fill="#777777" width="12.667" height="27.333"/>
		<rect x="522.544" y="523.14" fill="#5E5E5E" width="29" height="117"/>
		<rect x="518.377" y="620.957" fill="#3F3F3F" width="37.334" height="21.413"/>
		<path fill="#543724" d="M581.627,505.99c0,0,74.417-7.351,70.917,9.649c0,0,6.5,14,4.5,28l-20.073,11.5c0,0-3.427-19.5-26.927-19
			l-127-10c0,0-31.48-5.589-58.5-27.5c0,0-73-221.5-35.5-325.5c0,0,21.445-13,32.223,6c0,0-10.723,253,25.277,306
			C446.544,485.14,489.71,503.341,581.627,505.99z"/>
		<path fill="#343434" d="M449.822,680.14c0,0-16.278-35,72.722-40l14.5-0.435l17.457,0.435c0,0,80.043,7.5,59.543,36
			c0,0-24.157,5-29.829-1c0,0-19.171-20.833-33.948,0c0,0-17.554,9.5-26.389,0.5c0,0-27.335-19.5-44.335-2
			C479.544,673.64,476.1,694.14,449.822,680.14z"/>
		<circle fill="#343434" cx="463.69" cy="715.974" r="17.021"/>
		<circle fill="#343434" cx="535.711" cy="715.974" r="17.021"/>
		<circle fill="#343434" cx="601.377" cy="715.974" r="17.021"/>
	</g>
	<g id="Layer_29">
	</g>
	<g id="Layer_30">
	</g>
	<g id="Layer_31">
	</g>
	<g id="Layer_32">
	</g>
	<g id="Layer_33">
	</g>
	<g id="Layer_43">
		<path fill="#2EEA93" d="M712.974,375.868c0,0-17.819-30.414-13.339-43.319c0,0-33.554,2.619-60.095,11.04
			c0,0-6.35,39.488,3.842,49.555C643.382,393.145,687.234,402.354,712.974,375.868z"/>
		<path fill="#2EEA93" d="M735.185,687.116c0,0-10.943-19.017-5.722-65.409c0,0-35.245-0.497-57.268,13.256
			c0,0,6.341,16.05,11.458,24.986c5.117,8.935,10.53,27.943,13.746,37.613C697.4,697.563,719.845,685.888,735.185,687.116z"/>
	</g>
	<g id="Layer_45">
	</g>
	<g id="Layer_46">
		<polygon fill="#2D2723" points="712.974,396.277 711.93,388.702 869.601,372.181 915.815,194.252 928.69,194.252 881.484,377.133 
			875.541,379.442 869.929,383.044 		"/>
		<path fill="#2D2723" d="M751.835,397.659l1.237-2.965l117.601-10.135c0,0-2.228-0.802,7.923-1.516l10.646-11.113l17.331,9.162
			l-1.485,8.169l-1.238,8.397l-152.014,1.011V397.659"/>
	</g>
	<g id="Layer_44">
		<rect x="585.074" y="400.218" fill="#BC8358" width="390.161" height="13.378"/>
		<rect x="915.691" y="409.464" fill="#BC8358" width="17.558" height="325.174"/>
		<rect x="624.472" y="409.464" fill="#BC8358" width="17.558" height="325.174"/>
	</g>
	<g id="Layer_49">
		<polygon fill="#7A7A7A" points="718.025,261.346 703.691,277.346 727.308,299.346 		"/>
		<polygon fill="#7A7A7A" points="724.54,226.012 765.524,220.679 749.485,285.346 		"/>
		<polygon fill="#7A7A7A" points="777.524,295.71 777.524,268.012 792.19,274.012 		"/>
		<polygon fill="#7A7A7A" points="799.581,299.346 817.524,245.346 829.205,268.012 		"/>
		<polygon fill="#7A7A7A" points="812.174,312.679 829.205,304.834 829.205,317.567 		"/>
		<polygon fill="#7A7A7A" points="715.462,304.757 666.032,255.935 658.129,267.935 		"/>
		<polygon fill="#7A7A7A" points="703.691,314.012 678.19,302.891 682.19,317.567 		"/>
		<g>
			<g>
				<path fill="#727272" d="M698.675,64.221c-1.306,0.74-2.849,1.471-4.627,2.195c-4.401,1.792-9.952,3.388-16.542,4.622
					c-5.7,1.067-11.196,1.716-16.351,2.039c-0.75-1.23-1.125-1.845-1.874-3.075c2.012-0.404,4.396-1.169,7.152-2.292
					c4.312-1.756,9.897-4.42,16.542-8.058c4.844-2.651,9.726-5.386,14.604-8.046C698.017,56.653,698.238,59.175,698.675,64.221z
					 M700.922,107.541c-4.343,0.867-6.514,1.301-10.856,2.167c-0.17-7.29-0.366-12.032-0.582-14.223
					c-0.461-4.68-1.438-8.873-2.941-12.563c-1.43-3.511-3.528-7.139-6.297-10.884c1.761-0.717,2.643-1.076,4.403-1.793
					c5.765,6.775,9.74,12.852,11.931,18.23C698.571,93.366,700.018,99.721,700.922,107.541z"/>
				<path fill="#727272" d="M714.652,98.687c-0.228-0.446-2.975-4.13-7.367-10.839c-3.696-5.646-6.624-8.884-8.777-9.717
					c1.809-3.349,2.711-5.024,4.52-8.373c1.156,0.928,3.178,4.504,5.99,10.698c3.209,7.066,5.406,11.56,5.406,11.56
					c0.07-0.024,0.003-6.972,0.664-13.642c0.694-7.011,1.44-11.548,2.176-13.558c2.965,0.254,4.444,0.381,7.409,0.636
					c-1.331,3.859-2.67,11.715-4.011,23.557c-1.5,13.25-1.728,22.548-0.695,27.881c-0.955-0.513-1.433-0.77-2.388-1.282
					c-0.21-2.04-0.69-4.915-1.406-8.601C715.334,102.692,715.034,99.435,714.652,98.687z"/>
				<path fill="#727272" d="M737.808,59.714c5.134-1.52,10.161-1.454,15.082,0.196s8.106,4.252,9.555,7.808
					c1.213,2.979,0.848,6.098-1.106,9.312c-2.223,3.656-11.549,8.542-12.274,10.521c-0.72,1.964,3.386,12.069,3.958,19.455
					c-0.729,0.732-1.09,1.098-1.818,1.83c-1.137-5.083-2.679-10.003-4.616-14.76c-2.426-5.957-5.583-11.883-9.481-17.749
					c-1.462-2.2-4.604-6.469-9.41-12.804c3.28-1.336,4.922-2.003,8.202-3.339c3.123,6.141,10.098,24.182,12.108,24.767
					c2.042,0.594,9.794-8.784,8.074-13.007c-0.941-2.312-3.011-3.983-6.203-5.016c-3.193-1.032-6.499-1.109-9.926-0.232
					C739.095,63.901,738.665,62.506,737.808,59.714z"/>
				<path fill="#727272" d="M774.833,72.274c-4.709-1.321-7.715-3.583-9.019-6.784c-1.141-2.801-0.528-5.812,1.695-9.009
					c2.509-3.608,7.02-7.262,13.557-10.807c1.079,0.587,1.618,0.88,2.697,1.467c-8.992,6.046-12.899,10.514-11.723,13.403
					c0.742,1.823,3.399,2.813,7.972,2.972c4.101,0.144,8.308-0.35,12.615-1.482c-1.211,3.976-1.817,5.964-3.028,9.939
					C784.465,73.494,779.542,73.595,774.833,72.274z M787.763,49.711c-0.488-1.2-1.179-2.447-2.068-3.744
					c-1.832,2.146-2.748,3.22-4.58,5.365c0.915,2.375,1.323,4.137,1.223,5.292c-0.1,1.156-0.651,2.168-1.627,2.878
					c-1.077,0.783-2.304,1.534-3.502,2.281c1.236,0.211,1.855,0.317,3.092,0.529C787.61,59.646,790.098,55.446,787.763,49.711z"/>
				<path fill="#727272" d="M807.972,65.349c-3.27-0.316-4.909-0.475-8.179-0.791c-0.058-2.049-0.757-5.939-2.105-11.659
					c-0.857-3.638-1.607-10.179-2.579-10.921c-0.282-0.216-2.648,0.119-5.026,0.258c-0.503-0.853-0.751-1.279-1.254-2.131
					c2.038-0.467,5.159-1.274,5.362-1.718c0.148-0.324-0.602-1.854-0.873-2.521c-1.285-3.156-3.308-6.091-6.07-8.802
					c0.806-1.229,1.21-1.845,2.016-3.074c2.052,1.602,4.007,3.769,5.824,6.49c0.406,0.608,2.57,5.52,3.342,5.715
					c0.382,0.097,3.262-1.977,6.192-3.689c0.139,2.556,0.21,3.835,0.349,6.391c-1.67,0.991-4.086,1.849-4.2,2.097
					c-0.484,1.053,2.99,7.579,4.365,11.285C807.381,58.332,808.25,62.853,807.972,65.349z"/>
				<path fill="#727272" d="M825.21,53.665c-0.228-0.446-2.975-4.131-7.367-10.84c-3.696-5.646-6.624-8.884-8.777-9.718
					c1.808-3.349,2.712-5.022,4.52-8.371c1.156,0.928,3.177,4.504,5.99,10.698c3.209,7.066,5.406,11.558,5.406,11.558
					c0.07-0.024,0.004-6.97,0.664-13.64c0.694-7.011,1.438-11.549,2.173-13.559c2.965,0.254,4.448,0.382,7.413,0.636
					c-1.331,3.859-2.672,11.714-4.012,23.556c-1.499,13.25-1.727,22.547-0.694,27.88c-0.955-0.513-1.434-0.768-2.389-1.28
					c-0.21-2.04-0.69-4.915-1.406-8.602C825.893,57.671,825.592,54.414,825.21,53.665z"/>
				<path fill="#727272" d="M747.898,137.466c-1.306,0.739-2.85,1.471-4.628,2.195c-4.401,1.792-9.952,3.387-16.543,4.622
					c-5.7,1.067-11.194,1.715-16.349,2.039c-0.75-1.23-1.122-1.845-1.872-3.075c2.012-0.404,4.394-1.169,7.15-2.292
					c4.312-1.756,9.897-4.419,16.542-8.057c4.844-2.652,9.725-5.387,14.603-8.047C747.239,129.896,747.46,132.42,747.898,137.466z
					 M750.147,180.786c-4.343,0.867-6.516,1.3-10.858,2.167c-0.17-7.29-0.366-12.031-0.582-14.222
					c-0.461-4.68-1.438-8.873-2.94-12.563c-1.43-3.511-3.529-7.141-6.298-10.886c1.761-0.717,2.639-1.075,4.399-1.792
					c5.764,6.775,9.744,12.852,11.935,18.23C747.793,166.61,749.243,172.966,750.147,180.786z"/>
				<path fill="#727272" d="M763.875,171.931c-0.228-0.446-2.978-4.128-7.37-10.837c-3.696-5.646-6.624-8.887-8.777-9.721
					c1.809-3.349,2.713-5.022,4.521-8.371c1.156,0.928,3.179,4.505,5.991,10.699c3.209,7.066,5.407,11.559,5.407,11.559
					c0.07-0.024,0.003-6.972,0.664-13.642c0.694-7.011,1.438-11.547,2.174-13.557c2.965,0.254,4.446,0.381,7.411,0.635
					c-1.331,3.859-2.67,11.715-4.011,23.557c-1.5,13.25-1.73,22.547-0.698,27.88c-0.955-0.513-1.432-0.771-2.387-1.283
					c-0.21-2.041-0.688-4.913-1.404-8.599C764.558,175.938,764.256,172.679,763.875,171.931z"/>
				<path fill="#727272" d="M787.028,132.959c5.134-1.52,10.162-1.455,15.083,0.195s8.105,4.253,9.554,7.809
					c1.213,2.979,0.849,6.098-1.105,9.312c-2.224,3.656-11.548,8.54-12.273,10.519c-0.72,1.965,3.388,12.069,3.959,19.455
					c-0.729,0.732-1.093,1.099-1.821,1.831c-1.137-5.084-2.674-10.003-4.61-14.76c-2.426-5.957-5.585-11.884-9.483-17.75
					c-1.462-2.2-4.603-6.469-9.409-12.804c3.28-1.336,4.921-2.004,8.201-3.34c3.122,6.141,10.094,24.183,12.104,24.768
					c2.042,0.594,9.793-8.783,8.073-13.006c-0.941-2.312-3.008-3.983-6.2-5.015c-3.193-1.032-6.501-1.109-9.928-0.233
					C788.315,137.147,787.884,135.751,787.028,132.959z"/>
				<path fill="#727272" d="M824.053,145.519c-4.709-1.321-7.715-3.583-9.019-6.783c-1.141-2.801-0.528-5.812,1.695-9.009
					c2.509-3.608,7.021-7.262,13.558-10.807c1.079,0.587,1.617,0.88,2.696,1.467c-8.992,6.046-12.896,10.514-11.719,13.403
					c0.742,1.823,3.399,2.813,7.972,2.973c4.101,0.144,8.302-0.35,12.609-1.482c-1.211,3.976-1.816,5.964-3.027,9.939
					C833.685,146.739,828.763,146.839,824.053,145.519z M836.985,122.955c-0.488-1.2-1.181-2.446-2.07-3.743
					c-1.832,2.146-2.743,3.218-4.575,5.363c0.915,2.375,1.319,4.138,1.219,5.293c-0.1,1.156-0.647,2.169-1.624,2.878
					c-1.077,0.783-2.306,1.535-3.504,2.282c1.236,0.211,1.853,0.317,3.089,0.529C836.829,132.892,839.32,128.69,836.985,122.955z"/>
				<path fill="#727272" d="M841.12,89.397c3.634,5.361,6.232,9.954,7.789,13.777c2.209,5.424,3.366,12.728,3.477,21.907
					c-1.685,0.064-2.524,0.095-4.209,0.159c0.569-2.926,0.193-6.013-1.128-9.258c-2.136-5.245-6.677-10.731-13.619-16.455
					C836.505,95.475,838.043,93.448,841.12,89.397z M855.848,128.801c-0.467,1.02-0.522,1.976-0.16,2.865
					c0.435,1.067,2.116,2.457,5.042,4.167c-4.119,1.491-6.18,2.235-10.299,3.727c-0.805-1.849-1.159-3.329-1.151-4.354
					c0.01-1.3,0.569-2.612,1.782-3.833C852.976,130.345,853.934,129.83,855.848,128.801z"/>
			</g>
		</g>
	</g>
</g>
<g id="Layer_39">
</g>
<g id="Layer_17" display="none">
	<g id="Layer_23" display="inline">
		<path fill="#2BA954" d="M584.857,367.868l134.542,1.959c0,0,20.907,39.519,7.433,84.019c0,0-15.949,57.5-16.212,59.5
			s-2.763,22-9.263,30c0,0-6.236,44-4.368,65.5c0,0,12.714,20,1.541,20.5s-32.773,4.5-34.973-4.5s-3.194-50.5-3.194-50.5
			s-9.036,43-9.521,52.5s-9.225,10-20.105,7s-21.755-14.5-21.755-14.5s6.839-55-3.393-68.5c0,0-5.595-17.5-7.164-28
			c0,0-4.188-18-7.628-27C590.797,495.846,560.857,444.391,584.857,367.868z"/>
		<path fill="#3B3B3B" d="M318.857,419.346"/>
		<path fill="#2BA954" d="M663.557,617.346c0,0,27.564,9.667,33.432-8.5l13.631,21.167c0,0,6.428,8.666,18.999,14.666
			c0,0,11.419,5.334,9.995,12.667s-35.701,12-35.701,12l-40.356-26.667C663.557,642.679,662.256,638.013,663.557,617.346z"/>
		<path fill="#3B3B3B" d="M799.524,536.679"/>
		<path fill="#2BA954" d="M652.01,617.79c0,0-35.581,13.39-41.449-4.777L596.93,634.18c0,0-6.428,8.666-18.999,14.666
			c0,0-11.419,5.334-9.995,12.667s35.701,12,35.701,12l47.887-27C651.523,646.513,653.31,638.457,652.01,617.79z"/>
	</g>
	<g id="Layer_24" display="inline">
		<path fill="#15823C" d="M625.524,409.345c0,0,10.516,14,27.924,18c0,0,24.077-6,28.743-18c0,0-1,23-20.123,29l-1.706,130.668
			l-11.69-130.335C648.672,438.678,626.19,424.012,625.524,409.345z"/>
	</g>
	<g id="Layer_25" display="inline">
		<path fill="#2EEA93" d="M663.557,617.346c0,0,26.564,10.25,33.432-8.5c0,0-0.577-20.358,1.084-36.503
			c0,0-24.456,16.761-37.586,6.507C660.487,578.85,659.006,608.846,663.557,617.346z"/>
		<path fill="#2EEA93" d="M652.01,617.79c0,0-36.153,13.806-42.238-5.952c0,0,2.507-26.681,0.846-42.825
			c0,0,35.52,20.87,48.65,10.616C659.268,579.629,656.56,609.29,652.01,617.79z"/>
	</g>
	<g id="Layer_18" display="inline">
		<path fill="#3B3B3B" d="M690.857,179.846c0,0,12,21.5,10,32s58.883,31.22,56,70.5c-5.333,72.667-50.556,79.894-74,91
			c-13.018,6.167-70.123-1-70.123-1s-51.377-4-48.877-19s3.129-79.5,25.314-117.5s23.563-30.352,23.563-30.352
			s-14.255-23.148-5.316-30.148S690.857,179.846,690.857,179.846z"/>
	</g>
	<g id="Layer_16" display="inline">
		
			<image overflow="visible" width="1000" height="436" xlink:href="logo_licht.png"  transform="matrix(0.1448 0 0 0.1448 584.854 247.3428)">
		</image>
	</g>
	<g id="Layer_19" display="inline">
		<path fill="#2BA954" d="M702.857,176.679c0,0,61.667,18.333,76.667,37.333s11.333,31,11.333,31s9.001,6,9.667,20.333
			s8.666,37,8.666,37s-55.999,38.667-62.666,47s-6.334,18.667-6.334,18.667l-65.642,7.256c0,0,59.642-16.923,61.625-50.256
			c1.149-19.311,23.684-58.667-17.983-87.667c-12.861-8.952-19.66-24-19.66-24s-0.633-15.667-5.819-24
			S702.857,176.679,702.857,176.679z"/>
	</g>
	<g id="Layer_21" display="inline">
		<path fill="#2BA954" d="M617.19,205.494c0,0-10,1.518-29.667,38.518l-9,23c0,0-5.667,69.334,0,82.667c0,0,5.333,6.333,4,10
			l18.197,11.255h-17.197l-32.667-8.534c0,0-6.333-3.722-6.667-10.055s13.333-69.326,16-78.996l-0.333-11.004l-9.667,16.558
			c0,0-7,18.108-9,27.108v17.667c0,0,0,21.333-8.667,27.667c0,0-22-5-25.667-14.667c0,0-0.667-12.333-6.333-13
			c0,0-11.333-28.334-9-38.667c0,0,20.667-40.667,30.333-48.667c0,0,12.667-8.333,11.333-12.333c0,0,52.333-33.333,62-38
			S612.857,194.976,617.19,205.494z"/>
	</g>
	<g id="Layer_22" display="inline">
		<path fill="#15823C" d="M767.603,266.804c-0.792-3.226-1.623-6.443-2.588-9.627c-2.093-6.905-4.997-14.058-9.633-19.669
			c-5.151-6.234-14.66-11.155-16.525-19.413c-0.426-1.887-1.122-1.485-0.696,0.399c1.462,6.472,5.985,11.264,10.425,15.941
			c6.201,6.533,10.188,13.499,13.06,22.043c0.721,2.143,1.355,4.313,1.947,6.495c-0.886-0.211-1.88,0.237-1.735,1.372
			c0.332,2.616,1.586,4.11,3.304,4.808c0.821,3.415,1.601,6.841,2.452,10.238c2.295,9.157,4.883,17.646,4.994,27.204
			c0.022,1.933,3.022,1.936,3,0c-0.102-8.721-2.006-16.661-4.319-25.016c-1.096-3.958-2.036-7.956-2.997-11.947"/>
		<path fill="#15823C" d="M771.053,307.197c-2.352-9.953-5.154-19.766-8.888-29.295c-3.484-8.894-8.265-17.24-12.647-25.708
			c-4.628-8.943-11.806-16.457-16.881-25.186c-2.659-4.572-5.643-8.953-8.677-13.282c-2.875-4.102-8.729-7.003-10.729-11.629
			c-0.766-1.772-1.179-0.999-0.42,0.757c1.792,4.147,4.93,7.31,7.533,10.943c2.74,3.823,5.366,7.723,7.87,11.704
			c5.41,8.6,11.548,16.65,17.008,25.192c2.504,3.917,4.288,8.299,6.476,12.394c2.744,5.14,5.375,10.2,7.574,15.613
			c3.844,9.461,6.543,19.373,8.888,29.296C768.605,309.877,771.498,309.078,771.053,307.197z"/>
		<path fill="#15823C" d="M591.562,233.589c-2.166,4.22-5.037,8.297-4.705,13.257c0.003,0.053,0.017,0.1,0.025,0.15
			c-0.637-0.335-1.435-0.254-1.82,0.593c-2.954,6.5-4.949,13.239-6.409,20.221c-1.073,5.132-2.822,11.443-1.742,16.685
			c0.107,0.521,0.407,0.832,0.773,0.978c-1.208,4.364-2.085,8.807-2.805,13.314c-0.5,3.132-0.895,6.283-1.303,9.429
			c-0.547,4.213-0.31,8.575-1.166,12.731c-0.389,1.888,2.502,2.692,2.893,0.798c1.358-6.598,1.243-13.659,2.199-20.363
			c1.103-7.731,2.721-15.343,5.551-22.637c0.701-1.806-2.201-2.581-2.893-0.798c-0.219,0.564-0.419,1.131-0.623,1.699
			c0.19-4.277,1.576-8.971,2.364-12.742c1.281-6.127,3.16-12.101,5.75-17.801c0.152-0.335,0.179-0.661,0.119-0.958
			c0.915,0.393,2.171-0.033,2.086-1.299c-0.294-4.391,2.378-8.008,4.295-11.743C595.034,233.385,592.445,231.867,591.562,233.589z"
			/>
		<path fill="#15823C" d="M589.661,226.947c-3.05,8.104-9.378,15.065-13.982,22.33c-4.347,6.858-7.696,14.494-8.569,22.63
			c-1.061,9.879,0.271,19.707,0.696,29.582c0.47,10.919-0.417,21.929-0.448,32.857c-0.006,1.935,2.994,1.935,3,0
			c0.028-9.68,0.416-19.354,0.494-29.034c0.081-9.935-1.532-19.786-1.077-29.732c0.468-10.204,4.739-19.064,10.215-27.466
			c4.315-6.621,7.756-12.909,10.563-20.369C591.236,225.93,590.335,225.154,589.661,226.947z"/>
		<path fill="#15823C" d="M617.19,208.048c0.269-0.83,0.539-1.637,0.703-2.488c0.08-0.294,0.13-0.588,0.13-0.881
			c0-0.835-0.519-1.301-1.125-1.417c-0.083-0.329-0.269-0.642-0.618-0.879c-1.274-0.866-3.677-4.712-4.438-7.265
			c-0.103-0.687-0.16-1.387-0.153-2.107c0.017-1.672-2.579-2.073-2.946-0.399c-0.029,0.132-0.032,0.267-0.047,0.4
			c-0.002,0-0.004,0-0.006-0.001c0,0.014,0.001,0.027,0.001,0.042c-0.055,0.511-0.023,1.027,0.078,1.544
			c0.458,4.688,3.041,8.529,4.914,12.764c-0.364,0.67-0.739,1.335-1.132,1.989c-0.162,0.27-0.497,0.856-0.912,1.508
			c-0.529-0.41-1.271-0.484-1.843,0.176c-3.215,3.709-6.424,7.423-9.5,11.25c-1.2,1.492,0.909,3.629,2.121,2.121
			c2.157-2.684,4.387-5.306,6.632-7.916c2.195-0.179,3.736-2.211,4.987-3.938c0.411-0.567,0.789-1.158,1.152-1.759
			c1.01,1.017,2.898-0.132,2.449-1.513C617.501,208.865,617.35,208.456,617.19,208.048z"/>
		<path fill="#15823C" d="M713.486,232.922c-3.714-5.756-6.198-9.812-10.706-14.883c-3.18-3.577-3.185-7.629-3.81-12.092
			c-0.642-4.587-4.622-10.76-5.072-15.407c-0.185-1.908-0.728-1.12-0.541,0.806c0.416,4.292,1.365,9.453,2.333,13.649
			c0.795,3.446,0.376,7.936,2.147,11.134c3.985,7.195,11.613,11.418,16.059,18.308C714.941,236.056,714.539,234.553,713.486,232.922
			z"/>
		<path fill="#15823C" d="M737.433,339.384c-11.022,7.722-20.634,17.199-31.333,25.334c-1.519,1.154-0.027,0.762,1.514-0.41
			c10.698-8.133,20.316-14.615,31.333-22.333C740.519,340.874,739.022,338.271,737.433,339.384z"/>
		<path fill="#15823C" d="M749.796,336.285c-6.862,8.724-15.253,15.903-24,22.667c-1.528,1.182-1.389,2.289,0.121,1.121
			c8.747-6.764,19.138-12.943,26-21.667C753.099,336.904,750.992,334.765,749.796,336.285z"/>
		<path fill="#15823C" d="M745.303,267.614c-0.706-1.775-0.608-1.002,0.107,0.798c4.668,11.74,6.522,24.345,6.613,36.934
			c0.014,1.934,3.014,1.935,3,0C754.931,292.515,750.062,279.582,745.303,267.614z"/>
		<path fill="#15823C" d="M539.652,306.089c-3.307-6.792-10.464-11.06-15-17c-1.158-1.516-1.765-1.024-0.591,0.514
			c4.525,5.927,9.703,11.228,13,18C537.909,309.342,540.496,307.82,539.652,306.089z"/>
		<path fill="#15823C" d="M532.917,278.285c-1.246-1.483-1.357-0.35-0.121,1.121c5.134,6.111,7.333,11.928,6.561,19.939
			c-0.186,1.926,2.816,1.908,3,0C543.209,290.512,538.558,284.999,532.917,278.285z"/>
		<path fill="#15823C" d="M539.756,309.899c-6.565-2.477-14.294-2.447-21-4.5c-1.855-0.568-1.642,0.328,0.202,0.893
			c6.706,2.054,13.435,4.023,20,6.5C540.771,313.477,541.548,310.575,539.756,309.899z"/>
		<path fill="#15823C" d="M560.652,233.103c1.172-1.54,0.565-2.032-0.591-0.514c-5.358,7.039-13.121,18.461-8.208,27.204
			c-0.131,0.038-0.265,0.066-0.396,0.106c-1.842,0.569-1.056,3.466,0.798,2.893c0.507-0.157,1.023-0.281,1.542-0.385
			c0.756,0.796,1.762,0.458,2.251-0.24c1.393-0.005,2.77,0.27,4.052,0.974c1.696,0.932,3.209-1.659,1.514-2.591
			c-2.052-1.127-4.312-1.495-6.57-1.332C549.517,251.574,555.953,239.276,560.652,233.103z"/>
	</g>
	<g id="Layer_26" display="inline">
		<path fill="#2EEA93" d="M781.692,329.013l19.165-19.944c0,0,3-17.675-8-22.366c0,0-14.41-4.976-20.205,0
			s-8.461,20.049-8.461,20.049L781.692,329.013"/>
		<path fill="#2EEA93" d="M546.523,318.346l-7.565-5.554c0,0-16.77-5.565-25.101,5.554s-6.44,15.542-6.387,19.604
			s24.153,17.375,24.153,17.375L546.523,318.346z"/>
	</g>
	<g id="Layer_20" display="inline">
		<path fill="#F9A883" d="M770.857,338.346c0,0-34.233,7.089-43.245,2.423c0,0,0,0-0.711-14.211s4.289-25.545,4.289-25.545
			s11.255-1.667,25.961,0c0,0,0.039-7.667-4.961-8.667c0,0-4.999,2.333-12.666,3c0,0-7,2-7-1.333s2.36-5.6,6.347-7.966
			s7.319-3.367,7.319-3.367s4.334-2.667,10.667-0.333s4.334,6,9.667,6.333s13.666,4.333,13.666,4.333s11.001,15.334,5.334,28.667
			S773.548,337.018,770.857,338.346z"/>
		<path fill="#F9A883" d="M534.711,358.224c0,0,44.958,10.247,47.813,1.455c0,0,4.771-1.396,2.333-11.333
			c-3.39-13.82-1.887-15.386-1.887-15.386s-3.571-4.02-16.28-8.447c0,0-2.75-5.384,2.333-5c0,0,2.846,4.32,10.05,7.027
			c0,0,3.599,2.528,4.497-0.681c0.898-3.21-0.764-6.029-3.966-9.382c-3.201-3.353-5.915-7.631-5.915-7.631s-1.439-3.541-8.167-3
			c-6.728,0.541-7.181,5.583-12.333,7c-6.667,1.833-16.167,5.833-16.167,5.833s-13.812,5.177-11.947,19.543
			S532.477,356.22,534.711,358.224z"/>
	</g>
	<g id="Layer_5" display="inline">
		<path fill="#2EEA93" d="M710.62,89.811c0,0,28.572,7.497,34.608,24.164c6.036,16.667,3.622,30.883,16.5,34.841h-12.073
			c0,0-11.671-17.184-13.481-27.74c-1.812-10.556-23.182-18.315-23.182-18.315L710.62,89.811z"/>
		<path fill="#2BA954" d="M726.901,129.435c0,42.006-34.053,76.06-76.059,76.06c-15.397,0-29.726-4.576-41.701-12.44
			c-20.694-13.593-34.358-37.01-34.358-63.619c0-42.006,34.053-76.059,76.059-76.059S726.901,87.428,726.901,129.435z"/>
		<g>
			<g id="Laag_1_1_">
				<path id="XMLID_1_" fill="#FECEA2" d="M708.273,106.003c-10.442-19.839-37.173-26.871-57.43-26.871
					c-20.258,0-46.99,7.031-57.432,26.871c-10.233,19.422-1.532,42.812,21.649,42.812c1.811,0,13.783-1.253,23.32-3.132
					c8.214-1.601,16.638-1.601,24.853,0c9.606,1.879,21.51,3.132,23.32,3.132C709.804,148.746,718.506,125.426,708.273,106.003z"/>
			</g>
		</g>
		<circle fill="#EFE8E3" cx="677.07" cy="120.011" r="19.919"/>
		<circle fill="#EFE8E3" cx="621.736" cy="119.417" r="19.919"/>
		<circle fill="#784F30" cx="677.069" cy="120.011" r="15.641"/>
		<circle fill="#784F30" cx="621.736" cy="119.265" r="16.147"/>
		<circle fill="#020200" cx="677.069" cy="120.011" r="9.001"/>
		<circle fill="#020200" cx="621.735" cy="119.417" r="9.001"/>
		<ellipse fill="#EFE8E3" cx="614.577" cy="111.877" rx="7.159" ry="7.171"/>
		<ellipse fill="#EFE8E3" cx="670.716" cy="111.54" rx="7.159" ry="7.171"/>
		<path fill="#2EEA93" d="M576.823,111.877c0,0,49.725-39.509,145.686-7.958c0,0-1.85-15.54-9.997-19.003
			c-62.846-26.712-124.054,1.005-124.054,1.005S578.481,101.988,576.823,111.877z"/>
		<path fill="#2D2723" d="M652.282,103.118l4.869,7.297c0,0,29.507-17.919,41.379-19.143l-12.073-10.678
			C686.457,80.595,655.3,98.333,652.282,103.118z"/>
		<path fill="#2D2723" d="M644.672,103.794l-4.868,7.297c0,0-29.507-17.919-41.379-19.142l12.072-10.678
			C610.498,81.271,641.655,99.01,644.672,103.794z"/>
	</g>
</g>
<g id="Layer_10" display="none">
	<g id="Layer_12" display="inline">
		<path fill="#2EEA93" d="M775.524,122.706c0,0,47.333,12.419,57.333,40.029s6.001,51.161,27.334,57.719h-20
			c0,0-19.334-28.468-22.334-45.955s-38.403-30.34-38.403-30.34L775.524,122.706z"/>
	</g>
	<g id="Layer_2" display="inline">
		<path fill="#2BA954" d="M802.496,188.347c0,69.588-56.412,126-126,126c-25.507,0-49.244-7.579-69.082-20.608
			c-34.282-22.518-56.918-61.312-56.918-105.392c0-69.588,56.412-126,126-126S802.496,118.759,802.496,188.347z"/>
		<path fill="#2BA954" d="M584.452,425.434c10.405,55.912,38.257,86.411,47.998,97.495s71.33,9.667,80.074,3.084
			s60.918-67.58,63.918-100.579s8.096-122.961-3.918-135.421c-9-9.333-23.333-23.011-23.333-23.011l-147.237,9.941
			C601.954,276.943,576.402,382.182,584.452,425.434z"/>
	</g>
	<g id="Layer_11" display="inline">
		<path fill="#2BA954" d="M755.496,275.346c0,0,94.361,99,148.361-6l54,7c0,0-26,110.422-83,117.711s-140-45.711-140-45.711
			L755.496,275.346z"/>
		<path fill="#2BA954" d="M608.111,280.346c0,0-90.361,100-144.361-5l-54,7c0,0,22,104.422,79,111.711s140-40.711,140-40.711
			L608.111,280.346z"/>
		<path fill="#2BA954" d="M752.943,465.932c0,0,59.498,67.496,75.997,104.994s38.997,73.496,46.497,119.994
			c0,0,9.351,6,35.424,28.499c0,0-9.924,23.999-57.922,16.499l-50.443-35.998v-22.499c0,0-56.229-107.91-89.972-151.408
			S752.943,465.932,752.943,465.932z"/>
	</g>
	<g id="Layer_14" display="inline">
		<path fill="#2EEA93" d="M893.138,269.089c0,0-4.781,32.506-26.51,45.158c0,0,60.671-11.093,63.673,32.989
			c0.094,1.376,35.806-62.89,27.556-84.146C953.12,250.884,893.138,269.089,893.138,269.089"/>
		<path fill="#2EEA93" d="M468.21,265.982c0,0,4.781,32.506,26.51,45.158c0,0-56.671-5.093-59.673,38.989
			c-0.094,1.376-35.806-62.891-27.556-84.147C412.229,253.777,468.21,265.982,468.21,265.982"/>
		<path fill="#2EEA93" d="M802.496,677.421c0,0,42.546-14.401,71.12,3.762c0,0-14.834-59.483-25.13-68.993
			c0,0-52.075-2.224-72.186,16.8L802.496,677.421z"/>
		<path fill="#2BA954" d="M604.845,472.391c0,0-59.498,67.496-75.997,104.994s-38.997,73.496-46.497,119.994
			c0,0-9.351,6-35.424,28.499c0,0,9.924,23.999,57.922,16.499l50.443-35.998V683.88c0,0,56.229-107.91,89.972-151.408
			C679.005,488.974,604.845,472.391,604.845,472.391z"/>
		<path fill="#2EEA93" d="M555.292,683.88c0,0-42.546-14.401-71.12,3.762c0,0,14.834-59.483,25.13-68.993
			c0,0,52.075-2.224,72.186,16.8L555.292,683.88z"/>
	</g>
	<g id="Layer_15" display="inline">
	</g>
	<g id="Layer_13" display="inline">
		<path fill="#FECEA2" d="M348.882,210.346c0,0-14.692,45.333,34.641,65s32.143,15.667,32.143,15.667s46.298-0.333,47.191-8
			s19.333-40.667,16-56"/>
		<path fill="#FECEA2" d="M901.859,273.106c0,0-19.807-23.929-19.002-44.761s7.486-41.596,7.486-41.596l67.514-9.478
			c0,0,27,30.074,27,34.074s5,22.409-7,38.205s-27,35.796-27,35.796S906.481,282.897,901.859,273.106z"/>
	</g>
	<g id="Layer_3" display="inline">
		<g>
			<g id="Laag_7_1_" display="none">
				<path display="inline" opacity="0.1" enable-background="new    " d="M899.051,803.272l-11.507-1.569c0,0,0-2.441-0.872-5.058
					c-1.746-7.147-3.66-12.554-6.625-19.184c-0.872-2.267-1.917-4.359-2.615-5.929l0,0l0,0l9.418-10.985l-25.115-35.052
					l-16.041,7.151c-19.529-15.698-42.199-21.104-69.232-21.104c-63.301,0-114.569,51.271-114.569,114.572
					c0,63.304,51.27,114.572,114.569,114.572c1.223,0,2.442,0,3.838-0.176l8.896,16.393l38.362-12.033l-2.789-14.994
					c10.112-4.708,17.612-9.766,25.808-16.914l10.986,4.882l24.238-31.738l-7.846-9.242c2.266-5.058,10.81-27.202,11.508-31.39
					l9.938-2.087v-40.109h-0.349V803.272L899.051,803.272z M875.337,768.048L875.337,768.048L875.337,768.048z M877.254,771.36
					C877.081,771.36,877.081,771.36,877.254,771.36C877.081,771.36,877.081,771.36,877.254,771.36z M877.081,771.012
					C876.905,771.012,876.905,771.012,877.081,771.012C876.905,771.012,876.905,771.012,877.081,771.012z M876.73,770.663
					C876.73,770.663,876.73,770.487,876.73,770.663C876.73,770.487,876.73,770.663,876.73,770.663z M876.558,770.314
					c0-0.174-0.176-0.174-0.176-0.35C876.558,770.138,876.558,770.314,876.558,770.314z M876.208,769.616L876.208,769.616
					L876.208,769.616z M876.034,769.44c0-0.17-0.173-0.17-0.173-0.35C876.034,769.268,876.034,769.268,876.034,769.44z
					 M875.859,768.742l-0.171-0.173C875.688,768.742,875.688,768.742,875.859,768.742z M875.688,768.569
					C875.688,768.396,875.508,768.396,875.688,768.569C875.508,768.396,875.688,768.396,875.688,768.569z M875.508,768.221
					L875.508,768.221L875.508,768.221z"/>
			</g>
			<g id="Laag_8_1_">
			</g>
			<g id="Laag_21_1_">
			</g>
			<g id="Laag_20_1_">
			</g>
			<g id="Laag_15_1_">
			</g>
			<g id="Laag_19_1_">
			</g>
			<g id="Laag_4_1_">
			</g>
			<g id="Laag_2_1_">
			</g>
			<g id="Laag_12_1_">
			</g>
			<g id="Laag_11_1_">
			</g>
			<g id="Laag_10_1_" display="none">
				<g display="inline">
					<g>
						<g>
							<g>
								<defs>
									<ellipse id="SVGID_1_" cx="765.999" cy="196.589" rx="134.619" ry="137.763"/>
								</defs>
								<clipPath id="SVGID_2_">
									<use xlink:href="#SVGID_1_"  overflow="visible"/>
								</clipPath>
								<path opacity="0.1" clip-path="url(#SVGID_2_)" enable-background="new    " d="M1200.734,640.921l-0.692-0.698l0,0
									l-0.697-0.694l0,0l-0.694-0.698l0,0l-0.698-0.694l0,0l-0.694-0.698l0,0l-0.695-0.697l0,0l-1.047-1.22l0,0l-0.697-0.698l0,0
									l-0.698-0.694l0,0l-0.697-0.698l0,0l-0.692-0.694l0,0l-0.697-0.698l0,0l-0.695-0.694l0,0l-0.697-0.698l0,0l-0.695-0.697l0,0
									l-0.694-0.695l0,0l-0.698-0.697l0,0l-0.697-0.695l0,0l-0.698-0.697l0,0l-0.691-0.695l0,0l-0.698-0.697l0,0l-0.694-0.698l0,0
									l-0.698-0.694l0,0l-0.694-0.698l0,0l-0.698-0.694l0,0l-0.697-0.698l0,0l-0.695-0.697l0,0l-0.697-0.695l0,0l-0.691-0.697l0,0
									l-0.698-0.695l0,0l-0.697-0.697l0,0l-0.695-0.695l0,0l-0.716-0.719l0,0l-0.698-0.698l0,0l-0.698-0.694l0,0l-0.694-0.698l0,0
									l-0.694-0.694l0,0l-0.695-0.698l0,0l-0.697-0.697l0,0l-0.698-0.695l0,0l-0.698-0.697l0,0l-0.694-0.695l0,0l-0.694-0.697l0,0
									l-0.698-0.698l0,0l-0.694-0.694l0,0l-0.695-0.698h2.792v-20.922h-0.698v-0.698h-0.698v-3.489h-0.694v-0.694h-0.694v-0.698
									h-0.695v-0.697h-0.697v-0.695h-0.698v-0.697h-0.694v-0.695h-0.698v-0.697h-0.694v-0.698h-0.698v-0.694h-0.694v-0.698h-0.695
									v-0.349h9.764v-20.96h-0.694v-0.697h-0.698v-0.698h-0.694v-0.694h-0.695v-0.695h-0.697v-0.697h-0.695v-0.698h-0.697v-0.694
									h-0.698v-0.698h-0.694v-0.694h-0.695v-2.094h-0.697v-0.697h-0.695v-0.698h-0.694v-0.694h-0.698v-0.695h-0.697v-0.697h-0.695
									v-0.698h-0.697v-0.697h-0.695v-0.695h-0.694v-1.396h-0.698v-0.697h-0.697v-0.695h-0.691v-0.697h-0.698v-0.698h-0.698v-0.694
									h-4.881v-0.695h-0.698v-1.047h-0.698v-0.697h-0.695v-0.698h-0.693v-0.697h-0.698v-0.696h-0.698v-0.694h-1.043v-0.698h-0.696
									v-0.696h-0.696v-0.697h-0.695v-1.393h-0.697v-0.698h-0.696v-0.696h-0.696v-0.697h-1.044v-0.695h-0.697v-0.696h-0.698v-0.697
									h-0.693v-0.696h-0.696v-0.696h-0.694v-1.395h-0.698v-0.697h-1.047v-0.696h-0.697v-0.173
									c4.71-1.918,9.768-2.792,15.176-2.792c11.505,0,21.966,4.534,30.688,12.033l0.173,0.171l0,0c0,0,0,0,0.173,0.177
									c0.177,0.171,0.35,0.521,0.698,0.694l0,0c0.173,0.351,0.525,0.523,0.698,0.874l0,0c0.17,0.349,0.521,0.523,0.691,0.87l0,0
									c0.173,0.35,0.524,0.525,0.697,0.874l0,0c0.174,0.348,0.522,0.522,0.698,0.872l0,0c0.173,0.349,0.521,0.521,0.694,0.873l0,0
									c0.177,0.35,0.525,0.522,0.698,0.871l0,0c0.173,0.349,0.521,0.521,0.694,0.871l15.695-16.04
									c-1.918-2.442-3.838-4.534-5.929-6.803c-0.173-0.173-0.521-0.522-0.694-0.696c-0.173-0.173-0.525-0.523-0.698-0.697
									c-0.173-0.173-0.521-0.521-0.697-0.695c-0.173-0.174-0.522-0.522-0.695-0.695c-0.17-0.177-0.521-0.525-0.694-0.698
									s-0.521-0.523-0.698-0.696c-0.173-0.173-0.521-0.523-0.694-0.698c-0.176-0.172-0.525-0.521-0.698-0.695
									c-0.173-0.174-0.521-0.523-0.694-0.695c-0.173-0.174-0.525-0.525-0.695-0.697c-0.173-0.174-0.524-0.523-0.697-0.697
									c-0.173-0.173-0.521-0.521-0.698-0.696c-0.173-0.173-0.521-0.522-0.697-0.696c-0.17-0.174-0.522-0.522-0.691-0.696
									c-0.173-0.173-0.522-0.524-0.698-0.696c-0.173-0.174-0.521-0.523-0.694-0.697c-0.177-0.172-0.525-0.521-0.698-0.697
									c-0.173-0.172-0.525-0.521-0.698-0.695c-0.169-0.175-0.521-0.523-0.694-0.696c-0.173-0.174-0.521-0.524-0.694-0.697
									c-0.173-0.174-0.522-0.523-0.698-0.697c-0.173-0.172-0.521-0.521-0.698-0.696c-0.173-0.173-0.521-0.522-0.691-0.696
									c-0.176-0.173-0.524-0.523-0.697-0.695c-0.173-0.174-0.522-0.524-0.695-0.697c-0.176-0.174-0.524-0.523-0.697-0.697
									c-0.173-0.172-0.525-0.521-0.698-0.697c-0.17-0.172-0.521-0.521-0.694-0.695s-0.522-0.523-0.698-0.695
									c-0.173-0.174-0.519-0.525-0.694-0.697c-0.173-0.173-0.522-0.523-0.698-0.698c-0.173-0.172-0.521-0.521-0.694-0.695
									c-0.173-0.174-0.522-0.522-0.695-0.697c-0.173-0.173-0.524-0.523-0.697-0.695c-0.173-0.174-0.522-0.524-0.695-0.697
									c-0.176-0.172-0.524-0.523-0.697-0.696c-0.17-0.173-0.522-0.522-0.695-0.696s-0.521-0.522-0.697-0.697
									c-0.173-0.174-0.522-0.523-0.695-0.695c-0.176-0.174-0.524-0.525-0.697-0.697s-0.522-0.523-0.695-0.697
									c-0.173-0.172-0.524-0.521-0.694-0.695c-0.173-0.175-0.525-0.523-0.698-0.697c-0.173-0.175-0.521-0.523-0.697-0.696
									c-0.173-0.174-0.521-0.524-0.698-0.697c-0.17-0.172-0.519-0.523-0.691-0.696s-0.521-0.522-0.697-0.696
									c-0.174-0.174-0.522-0.523-0.695-0.696c-0.176-0.174-0.524-0.523-0.697-0.696c-0.174-0.174-0.525-0.523-0.698-0.697
									c-0.17-0.172-0.521-0.522-0.691-0.697c-0.177-0.172-0.525-0.521-0.698-0.695s-0.521-0.523-0.697-0.697
									c-0.174-0.174-0.522-0.523-0.698-0.695c-0.173-0.174-0.521-0.523-0.691-0.697c-0.176-0.173-0.525-0.523-0.698-0.697
									c-0.173-0.173-0.521-0.521-0.694-0.696c-0.176-0.174-0.525-0.523-0.698-0.695c-0.173-0.175-0.524-0.524-0.697-0.697
									c-0.17-0.173-0.522-0.523-0.695-0.696s-0.521-0.523-0.697-0.697c-0.17-0.173-0.52-0.522-0.695-0.696
									c-0.173-0.174-0.521-0.522-0.697-0.695c-0.173-0.176-0.522-0.525-0.695-0.697c-0.173-0.174-0.521-0.523-0.694-0.697
									c-0.173-0.172-0.525-0.523-0.694-0.697c-0.177-0.172-0.525-0.521-0.698-0.695c-0.176-0.175-0.525-0.523-0.698-0.695
									c-0.171-0.175-0.52-0.525-0.696-0.698c-0.171-0.174-0.52-0.523-0.696-0.697c-0.173-0.172-0.521-0.522-0.694-0.696
									c-0.173-0.173-0.521-0.522-0.698-0.695c-0.171-0.174-0.521-0.523-0.692-0.696c-0.175-0.174-0.525-0.524-0.696-0.696
									c-0.174-0.175-0.525-0.523-0.698-0.698c-0.173-0.172-0.521-0.522-0.698-0.697c-0.173-0.172-0.521-0.521-0.694-0.695
									c-0.171-0.174-0.521-0.523-0.696-0.695c-0.171-0.174-0.521-0.525-0.696-0.697c-0.173-0.174-0.521-0.523-0.694-0.697
									c-0.177-0.173-0.525-0.521-0.698-0.697c-0.171-0.173-0.521-0.521-0.693-0.695c-0.176-0.174-0.524-0.523-0.696-0.696
									c-0.176-0.174-0.524-0.524-0.697-0.696c-0.173-0.174-0.522-0.523-0.698-0.697c-0.173-0.173-0.521-0.522-0.697-0.697
									c-0.172-0.173-0.522-0.521-0.693-0.696c-0.172-0.174-0.522-0.522-0.696-0.695c-0.173-0.174-0.522-0.525-0.695-0.697
									c-0.176-0.174-0.524-0.523-0.697-0.697c-0.173-0.172-0.525-0.521-0.696-0.695c-0.173-0.174-0.522-0.523-0.696-0.697
									c-0.173-0.174-0.522-0.523-0.695-0.696c-0.173-0.174-0.521-0.523-0.697-0.697c-0.173-0.172-0.522-0.522-0.698-0.696
									c-0.171-0.173-0.521-0.522-0.693-0.696c-0.174-0.173-0.524-0.522-0.696-0.696c-0.35-0.523-0.872-0.873-1.396-1.395
									l-0.173-0.173c-0.173-0.174-0.524-0.524-0.697-0.697c-0.173-0.174-0.522-0.523-0.698-0.696
									c-0.171-0.173-0.521-0.522-0.693-0.697c-0.174-0.173-0.521-0.522-0.696-0.695c-0.173-0.175-0.521-0.523-0.694-0.696
									c-0.176-0.174-0.525-0.524-0.698-0.696c-0.176-0.173-0.524-0.523-0.697-0.698c-0.172-0.172-0.522-0.521-0.696-0.695
									c-0.172-0.174-0.522-0.523-0.693-0.697c-0.173-0.174-0.525-0.523-0.698-0.695c-0.173-0.174-0.521-0.525-0.697-0.697
									c-0.172-0.173-0.522-0.523-0.693-0.697c-0.176-0.173-0.525-0.521-0.696-0.695c-0.176-0.175-0.525-0.523-0.694-0.696
									c-0.177-0.175-0.525-0.524-0.698-0.697c-0.176-0.173-0.524-0.523-0.698-0.696c-0.171-0.173-0.524-0.523-0.696-0.697
									c-0.171-0.172-0.521-0.522-0.696-0.695c-0.173-0.175-0.521-0.523-0.694-0.696c-0.173-0.174-0.521-0.524-0.698-0.696
									c-0.173-0.175-0.521-0.523-0.692-0.698c-0.177-0.172-0.525-0.521-0.696-0.697c-0.177-0.172-0.525-0.521-0.698-0.695
									s-0.521-0.523-0.698-0.695c-0.173-0.174-0.521-0.525-0.694-0.697c-0.171-0.173-0.524-0.523-0.696-0.697
									c-0.171-0.173-0.521-0.521-0.696-0.695c-0.173-0.175-0.521-0.523-0.694-0.698c-0.176-0.173-0.525-0.522-0.698-0.695
									c-0.176-0.174-0.521-0.524-0.694-0.696c-0.175-0.173-0.523-0.523-0.696-0.697c-0.175-0.173-0.523-0.522-0.696-0.695
									c-0.173-0.175-0.525-0.523-0.698-0.696c-0.173-0.176-0.521-0.524-0.697-0.696c-0.172-0.175-0.522-0.523-0.693-0.698
									c-0.172-0.172-0.522-0.523-0.696-0.697c-0.173-0.172-0.522-0.521-0.695-0.695c-0.176-0.174-0.524-0.523-0.697-0.695
									c-0.176-0.174-0.525-0.525-0.698-0.697c-0.171-0.175-0.521-0.523-0.693-0.697c-0.174-0.173-0.524-0.521-0.696-0.697
									c-0.173-0.173-0.524-0.521-0.697-0.695s-0.521-0.523-0.698-0.696c-0.171-0.173-0.521-0.524-0.692-0.696
									c-0.177-0.173-0.525-0.523-0.697-0.697c-0.176-0.172-0.521-0.522-0.694-0.695c-0.176-0.175-0.524-0.523-0.698-0.697
									c-0.176-0.175-0.524-0.523-0.697-0.695c-0.172-0.175-0.525-0.523-0.696-0.698c-0.171-0.172-0.521-0.523-0.696-0.697
									c-0.17-0.172-0.521-0.521-0.694-0.695s-0.522-0.523-0.698-0.695c-0.173-0.176-0.521-0.525-0.693-0.697
									c-0.176-0.175-0.524-0.523-0.697-0.697c-0.175-0.173-0.523-0.523-0.696-0.697c-0.173-0.173-0.522-0.521-0.695-0.695
									c-0.176-0.174-0.524-0.523-0.697-0.696c-0.172-0.174-0.525-0.524-0.696-0.696c-0.172-0.174-0.522-0.523-0.696-0.697
									c-0.173-0.173-0.522-0.522-0.698-0.695c-0.173-0.175-0.519-0.523-0.694-0.697c-0.173-0.175-0.522-0.523-0.698-0.695
									c-0.171-0.175-0.521-0.525-0.693-0.698c-0.174-0.172-0.524-0.523-0.696-0.697c-0.176-0.172-0.524-0.521-0.697-0.695
									s-0.522-0.523-0.695-0.697c-0.176-0.174-0.524-0.523-0.697-0.695c-0.172-0.175-0.523-0.523-0.696-0.697
									c-0.172-0.173-0.521-0.523-0.696-0.697c-0.173-0.172-0.522-0.521-0.695-0.695c-0.176-0.174-0.524-0.523-0.697-0.696
									c-0.172-0.173-0.522-0.524-0.696-0.696c-0.173-0.174-0.521-0.523-0.693-0.697c-0.176-0.172-0.525-0.523-0.698-0.697
									c-0.173-0.173-0.524-0.521-0.697-0.695c-0.173-0.175-0.522-0.523-0.698-0.695c-0.171-0.175-0.521-0.525-0.693-0.698
									c-0.171-0.174-0.521-0.523-0.695-0.697c-0.174-0.172-0.522-0.521-0.698-0.695c-0.173-0.174-0.521-0.523-0.694-0.697
									c-0.177-0.174-0.525-0.523-0.698-0.695c-0.175-0.175-0.521-0.524-0.693-0.697c-0.175-0.173-0.524-0.523-0.696-0.697
									c-0.176-0.173-0.524-0.521-0.697-0.695c-0.174-0.174-0.525-0.523-0.698-0.697s-0.521-0.523-0.696-0.695
									c-0.173-0.174-0.521-0.523-0.693-0.697c-0.173-0.173-0.521-0.523-0.697-0.697c-0.174-0.173-0.522-0.521-0.698-0.695
									c-0.173-0.175-0.521-0.523-0.694-0.695c-0.175-0.175-0.525-0.525-0.696-0.698c-0.172-0.174-0.525-0.523-0.696-0.697
									c-0.173-0.172-0.522-0.523-0.695-0.697c-0.176-0.172-0.524-0.521-0.697-0.695s-0.522-0.523-0.698-0.695
									c-0.171-0.175-0.521-0.524-0.696-0.697c-0.171-0.174-0.521-0.523-0.693-0.697c-0.176-0.172-0.521-0.521-0.697-0.695
									c-0.173-0.174-0.522-0.523-0.695-0.697c-0.176-0.174-0.524-0.523-0.696-0.695c-0.176-0.174-0.524-0.525-0.697-0.697
									c-0.172-0.172-0.525-0.523-0.696-0.697c-0.173-0.173-0.522-0.521-0.695-0.695c-0.173-0.175-0.524-0.523-0.697-0.698
									c-0.172-0.174-0.522-0.522-0.696-0.695c-0.172-0.174-0.522-0.523-0.696-0.697c-0.173-0.172-0.522-0.523-0.695-0.696
									c-0.176-0.173-0.524-0.522-0.697-0.696c-0.349-0.523-0.871-0.871-1.22-1.395l-0.172-0.174
									c-0.174-0.174-0.524-0.523-0.696-0.695c-0.173-0.174-0.521-0.525-0.697-0.697c-0.173-0.172-0.521-0.523-0.698-0.697
									c-0.17-0.172-0.521-0.521-0.694-0.695c-0.172-0.175-0.521-0.523-0.696-0.697c-0.172-0.174-0.521-0.523-0.693-0.696
									c-0.176-0.174-0.524-0.523-0.698-0.696c-0.176-0.173-0.524-0.523-0.697-0.697c-0.172-0.172-0.521-0.522-0.693-0.695
									c-0.176-0.174-0.524-0.523-0.696-0.696c-0.173-0.174-0.524-0.524-0.697-0.696c-0.173-0.175-0.522-0.523-0.698-0.697
									c-0.173-0.173-0.521-0.523-0.698-0.698c-0.168-0.172-0.519-0.522-0.692-0.696c-0.172-0.174-0.522-0.523-0.696-0.695
									c-0.173-0.174-0.522-0.525-0.695-0.697c-0.176-0.174-0.524-0.523-0.697-0.697c-0.177-0.172-0.525-0.522-0.698-0.696
									c-0.171-0.174-0.521-0.523-0.693-0.697c-0.174-0.174-0.524-0.523-0.696-0.696c-0.173-0.174-0.524-0.525-0.697-0.697
									c-0.173-0.172-0.522-0.523-0.698-0.697c-0.173-0.172-0.521-0.522-0.693-0.696c-0.176-0.173-0.521-0.523-0.697-0.697
									c-0.172-0.175-0.521-0.523-0.696-0.696c-0.173-0.174-0.522-0.523-0.695-0.697c-0.176-0.173-0.524-0.523-0.697-0.698
									c-0.172-0.172-0.525-0.522-0.696-0.696c-0.172-0.174-0.522-0.523-0.693-0.695c-0.176-0.174-0.525-0.525-0.698-0.697
									c-0.173-0.174-0.521-0.523-0.697-0.697c-0.173-0.172-0.522-0.522-0.698-0.697c-0.171-0.172-0.521-0.522-0.693-0.695
									c-0.174-0.174-0.524-0.523-0.696-0.696c-0.173-0.174-0.521-0.525-0.694-0.697c-0.176-0.173-0.525-0.523-0.698-0.697
									c-0.176-0.172-0.524-0.522-0.697-0.696c-0.172-0.173-0.523-0.523-0.696-0.697c-0.172-0.175-0.521-0.523-0.696-0.696
									c-0.173-0.174-0.521-0.525-0.694-0.697c-0.174-0.173-0.522-0.523-0.698-0.698c-0.172-0.172-0.521-0.522-0.696-0.696
									c-0.173-0.174-0.521-0.523-0.693-0.695c-0.176-0.175-0.524-0.525-0.697-0.697c-0.174-0.173-0.522-0.523-0.695-0.697
									c-0.176-0.172-0.524-0.523-0.697-0.697c-0.175-0.172-0.525-0.522-0.696-0.695c-0.172-0.174-0.522-0.523-0.696-0.696
									c-0.174-0.174-0.522-0.525-0.698-0.697c-0.173-0.173-0.521-0.523-0.694-0.697c-0.173-0.172-0.522-0.522-0.698-0.697
									c-0.171-0.172-0.521-0.522-0.693-0.695c-0.174-0.175-0.524-0.523-0.696-0.696c-0.176-0.174-0.524-0.525-0.697-0.697
									c-0.173-0.173-0.525-0.523-0.698-0.698c-0.173-0.172-0.521-0.522-0.693-0.696c-0.173-0.174-0.524-0.523-0.696-0.697
									c-0.173-0.174-0.521-0.523-0.697-0.696c-0.173-0.173-0.522-0.525-0.698-0.697c-0.173-0.172-0.521-0.523-0.694-0.697
									c-0.175-0.172-0.522-0.522-0.696-0.695c-0.172-0.174-0.522-0.523-0.693-0.696c-0.176-0.175-0.525-0.525-0.698-0.697
									c-0.176-0.173-0.524-0.523-0.697-0.697c-0.173-0.172-0.522-0.523-0.698-0.697c-0.171-0.172-0.521-0.522-0.693-0.695
									c-0.171-0.175-0.524-0.523-0.696-0.696c-0.173-0.174-0.521-0.525-0.697-0.697c-0.173-0.175-0.521-0.523-0.695-0.698
									c-0.176-0.172-0.524-0.522-0.696-0.697c-0.176-0.172-0.524-0.522-0.697-0.695c-0.172-0.174-0.521-0.523-0.693-0.696
									c-0.176-0.173-0.524-0.525-0.698-0.697c-0.173-0.172-0.524-0.523-0.697-0.697c-0.172-0.172-0.521-0.522-0.696-0.695
									c-0.172-0.174-0.521-0.523-0.693-0.698c-0.173-0.174-0.524-0.523-0.698-0.696c-0.173-0.173-0.521-0.525-0.697-0.697
									c-0.173-0.172-0.521-0.523-0.695-0.697c-0.174-0.172-0.524-0.521-0.695-0.695c-0.175-0.175-0.525-0.523-0.696-0.696
									c-0.173-0.176-0.522-0.525-0.695-0.697c-0.176-0.175-0.524-0.523-0.697-0.698c-0.173-0.172-0.525-0.523-0.698-0.697
									c-0.172-0.172-0.521-0.522-0.696-0.695c-0.171-0.174-0.521-0.523-0.693-0.696c-0.173-0.173-0.521-0.525-0.697-0.697
									c-0.173-0.174-0.522-0.523-0.698-0.697c-0.171-0.172-0.521-0.522-0.693-0.697c-0.176-0.173-0.524-0.522-0.696-0.696
									c-0.173-0.349-0.524-0.523-0.697-0.696c-0.173-0.35-0.522-0.525-0.695-0.697c-0.176-0.172-0.524-0.523-0.697-0.697
									c-0.172-0.172-0.525-0.521-0.696-0.695c-0.172-0.175-0.522-0.523-0.696-0.697c-0.173-0.174-0.522-0.523-0.695-0.695
									c-0.176-0.175-0.521-0.523-0.697-0.698c-0.173-0.172-0.522-0.523-0.698-0.697c-0.171-0.172-0.521-0.522-0.693-0.695
									c-0.174-0.351-0.524-0.523-0.696-0.696c-0.173-0.351-0.524-0.525-0.697-0.697c-0.173-0.174-0.522-0.523-0.695-0.697
									c-0.171-0.35-0.524-0.523-0.696-0.697c-0.173-0.35-0.521-0.522-0.697-0.696c-0.172-0.174-0.521-0.523-0.696-0.696
									c-0.173-0.173-0.522-0.525-0.695-0.697c-0.352-0.523-0.87-0.874-1.396-1.396l-0.173-0.174
									c-0.176-0.174-0.524-0.523-0.697-0.695c-0.172-0.351-0.525-0.525-0.696-0.697c-0.172-0.349-0.522-0.523-0.696-0.697
									c-0.173-0.172-0.522-0.522-0.695-0.696s-0.521-0.523-0.697-0.697c-0.173-0.348-0.522-0.523-0.696-0.696
									c-0.173-0.174-0.522-0.525-0.693-0.698c-0.176-0.172-0.525-0.523-0.698-0.697c-0.173-0.172-0.524-0.521-0.697-0.696
									c-0.173-0.173-0.522-0.523-0.695-0.697c-0.174-0.174-0.524-0.523-0.696-0.696c-0.171-0.35-0.521-0.523-0.696-0.697
									c-0.173-0.172-0.521-0.523-0.697-0.697c-0.173-0.35-0.522-0.522-0.695-0.696c-0.176-0.351-0.521-0.523-0.697-0.695
									c-0.172-0.174-0.522-0.525-0.693-0.697c-0.175-0.174-0.524-0.523-0.696-0.697c-0.176-0.172-0.525-0.523-0.698-0.697
									c-0.173-0.172-0.524-0.522-0.697-0.695c-0.173-0.174-0.522-0.523-0.693-0.696c-0.173-0.174-0.524-0.525-0.698-0.698
									c-0.171-0.173-0.52-0.523-0.695-0.697c-0.174-0.349-0.522-0.521-0.698-0.696c-0.173-0.35-0.521-0.523-0.694-0.697
									c-0.175-0.35-0.525-0.523-0.697-0.696c-0.171-0.173-0.521-0.525-0.692-0.697c-0.177-0.172-0.525-0.523-0.698-0.697
									c-0.176-0.173-0.524-0.521-0.697-0.696c-0.174-0.174-0.522-0.523-0.698-0.697c-0.171-0.174-0.521-0.523-0.696-0.696
									c-0.172-0.174-0.521-0.523-0.693-0.697c-0.173-0.172-0.521-0.523-0.697-0.697c-0.173-0.172-0.522-0.522-0.695-0.695
									c-0.176-0.174-0.524-0.523-0.697-0.696c-0.175-0.174-0.525-0.525-0.696-0.698c-0.172-0.173-0.522-0.523-0.693-0.697
									c-0.176-0.172-0.525-0.521-0.698-0.697c-0.173-0.172-0.524-0.522-0.697-0.695c-0.172-0.174-0.522-0.523-0.696-0.696
									c-0.173-0.173-0.522-0.525-0.698-0.697c-0.171-0.174-0.521-0.523-0.693-0.697c-0.173-0.173-0.521-0.521-0.697-0.696
									c-0.173-0.174-0.522-0.523-0.695-0.697c-0.174-0.174-0.524-0.523-0.696-0.696c-0.174-0.174-0.524-0.525-0.696-0.697
									c-0.173-0.172-0.521-0.523-0.697-0.697c-0.173-0.172-0.522-0.522-0.695-0.695c-0.173-0.174-0.524-0.523-0.697-0.696
									c-0.172-0.176-0.522-0.525-0.696-0.698c-0.172-0.173-0.522-0.523-0.693-0.697c-0.176-0.172-0.524-0.523-0.698-0.697
									c-0.176-0.172-0.521-0.522-0.697-0.695c-0.173-0.174-0.521-0.523-0.693-0.696c-0.176-0.173-0.525-0.525-0.698-0.697
									c-0.171-0.174-0.522-0.523-0.696-0.697c-0.173-0.173-0.521-0.521-0.697-0.698c-0.173-0.172-0.521-0.522-0.695-0.695
									c-0.171-0.174-0.521-0.523-0.695-0.696c-0.172-0.174-0.522-0.525-0.697-0.697c-0.173-0.172-0.521-0.523-0.694-0.697
									c-0.176-0.172-0.524-0.522-0.697-0.695c-0.177-0.174-0.522-0.523-0.695-0.697c-0.175-0.174-0.524-0.523-0.696-0.696
									c-0.174-0.173-0.524-0.525-0.696-0.697c-0.173-0.172-0.524-0.523-0.697-0.697c-0.173-0.172-0.522-0.522-0.698-0.695
									c-0.173-0.174-0.521-0.523-0.694-0.696c-0.172-0.176-0.521-0.525-0.696-0.697c-0.172-0.175-0.521-0.523-0.696-0.697
									c-0.173-0.173-0.522-0.523-0.695-0.698c-0.349-0.522-0.874-0.871-1.223-1.393l-0.168-0.174
									c-0.175-0.173-0.525-0.523-0.696-0.697c-0.176-0.175-0.525-0.523-0.698-0.696c-0.173-0.174-0.521-0.525-0.697-0.697
									c-0.173-0.172-0.522-0.522-0.698-0.697c-0.171-0.172-0.521-0.522-0.693-0.696c-0.171-0.173-0.521-0.523-0.696-0.697
									c-0.173-0.174-0.521-0.523-0.694-0.696c-0.176-0.173-0.525-0.525-0.698-0.697c-0.176-0.173-0.524-0.523-0.697-0.698
									c-0.172-0.172-0.525-0.522-0.696-0.696c-0.172-0.173-0.522-0.523-0.693-0.697c-0.173-0.174-0.525-0.523-0.698-0.696
									c-0.173-0.173-0.521-0.523-0.697-0.697c-0.173-0.173-0.522-0.523-0.696-0.697c-0.173-0.173-0.521-0.521-0.693-0.695
									c-0.176-0.175-0.521-0.523-0.698-0.696c-0.173-0.175-0.521-0.525-0.694-0.697c-0.176-0.173-0.525-0.523-0.698-0.697
									c-0.174-0.172-0.524-0.523-0.696-0.697c-0.171-0.172-0.521-0.522-0.695-0.695c-0.174-0.174-0.522-0.523-0.695-0.696
									c-0.173-0.174-0.524-0.525-0.697-0.697c-0.174-0.174-0.522-0.523-0.698-0.698c-0.171-0.172-0.521-0.522-0.693-0.697
									c-0.175-0.172-0.524-0.522-0.696-0.695c-0.176-0.174-0.524-0.523-0.697-0.696c-0.174-0.173-0.522-0.525-0.695-0.697
									c-0.176-0.175-0.524-0.523-0.696-0.698c-0.173-0.172-0.524-0.521-0.697-0.696c-0.172-0.174-0.521-0.522-0.696-0.697
									c-0.174-0.174-0.522-0.523-0.698-0.696c-0.173-0.173-0.519-0.525-0.694-0.697c-0.172-0.172-0.522-0.523-0.696-0.697
									c-0.172-0.172-0.522-0.522-0.693-0.695c-0.176-0.174-0.525-0.523-0.698-0.698c-0.176-0.174-0.524-0.523-0.697-0.696
									c-0.173-0.173-0.522-0.525-0.695-0.697c-0.174-0.172-0.524-0.523-0.696-0.697c-0.171-0.172-0.524-0.521-0.696-0.695
									c-0.173-0.175-0.521-0.523-0.697-0.696c-0.173-0.176-0.522-0.525-0.695-0.697c-0.176-0.175-0.524-0.523-0.697-0.698
									c-0.172-0.172-0.521-0.523-0.696-0.697c-0.172-0.172-0.522-0.522-0.693-0.695c-0.176-0.174-0.525-0.523-0.698-0.696
									c-0.173-0.173-0.524-0.525-0.697-0.697c-0.172-0.174-0.522-0.523-0.696-0.697c-0.173-0.173-0.522-0.523-0.693-0.697
									c-0.173-0.173-0.521-0.522-0.698-0.696c-0.173-0.174-0.521-0.523-0.697-0.696c-0.173-0.173-0.521-0.525-0.695-0.697
									c-0.352-0.523-0.873-0.871-1.218-1.396l-0.171-0.173c-0.177-0.172-0.525-0.523-0.698-0.697
									c-0.176-0.172-0.524-0.522-0.698-0.696c-0.173-0.173-0.524-0.523-0.697-0.697c-0.172-0.174-0.521-0.523-0.696-0.696
									c-0.172-0.174-0.521-0.523-0.693-0.697c-0.173-0.173-0.521-0.523-0.697-0.697c-0.174-0.173-0.522-0.521-0.698-0.696
									c-0.173-0.173-0.521-0.523-0.693-0.695c-0.176-0.175-0.524-0.525-0.697-0.697c-0.172-0.173-0.523-0.523-0.693-0.697
									c-0.176-0.172-0.525-0.523-0.698-0.697c-0.176-0.173-0.524-0.522-0.697-0.696c-0.172-0.173-0.522-0.522-0.696-0.695
									c-0.172-0.174-0.522-0.525-0.696-0.698c-0.173-0.173-0.522-0.523-0.695-0.697c-0.173-0.172-0.521-0.522-0.697-0.697
									c-0.173-0.172-0.522-0.521-0.695-0.695c-0.174-0.174-0.524-0.523-0.696-0.696c-0.174-0.174-0.524-0.525-0.696-0.698
									c-0.173-0.173-0.524-0.522-0.697-0.697c-0.173-0.172-0.522-0.521-0.695-0.696c-0.173-0.173-0.524-0.523-0.697-0.697
									c-0.172-0.174-0.521-0.523-0.696-0.696c-0.172-0.173-0.521-0.525-0.696-0.697c-0.173-0.172-0.522-0.523-0.695-0.697
									c-0.176-0.173-0.521-0.522-0.697-0.696c-0.172-0.173-0.522-0.523-0.693-0.697c-0.175-0.174-0.525-0.523-0.696-0.696
									c-0.176-0.173-0.525-0.525-0.698-0.697c-0.173-0.172-0.521-0.523-0.697-0.697c-0.173-0.173-0.522-0.521-0.695-0.695
									c-0.171-0.175-0.524-0.523-0.696-0.697c-0.171-0.174-0.521-0.523-0.696-0.696c-0.173-0.173-0.521-0.523-0.694-0.697
									c-0.176-0.172-0.525-0.523-0.698-0.697c-0.176-0.172-0.521-0.523-0.697-0.695c-0.172-0.174-0.521-0.523-0.693-0.697
									c-0.175-0.174-0.524-0.523-0.696-0.698c-0.173-0.174-0.524-0.522-0.697-0.697c-0.174-0.173-0.522-0.522-0.698-0.697
									c-0.173-0.174-0.521-0.523-0.693-0.697c-0.173-0.173-0.521-0.523-0.696-0.697c-0.173-0.174-0.521-0.523-0.697-0.697
									c-0.174-0.174-0.522-0.523-0.695-0.697c-0.176-0.174-0.524-0.523-0.697-0.698c-0.175-0.174-0.525-0.523-0.696-0.697
									c-0.172-0.174-0.522-0.523-0.693-0.697c-0.176-0.173-0.525-0.523-0.698-0.697c-0.173-0.174-0.524-0.523-0.697-0.697
									c-0.173-0.174-0.522-0.523-0.698-0.698c-0.171-0.174-0.521-0.522-0.693-0.697c-0.174-0.174-0.521-0.523-0.696-0.697
									c-0.173-0.173-0.521-0.523-0.697-0.697c-0.173-0.174-0.522-0.523-0.695-0.697c-0.176-0.174-0.524-0.523-0.696-0.697
									c-0.173-0.174-0.524-0.523-0.697-0.697c-0.172-0.174-0.521-0.523-0.693-0.698c-12.907-13.603-29.648-21.972-48.131-21.972
									c-33.308,0-58.067,26.854-65.917,63.825h-49.529v20.926h0.696v-34.187h0.696v0.698h0.696v0.696h0.875v0.695h0.694v0.697
									h0.695v0.697h0.697v0.696h0.698v0.698h0.694v0.695h0.698v0.697h1.044v0.697h0.697v0.695h0.698v1.047h-9.767v20.926h0.696
									v0.697h0.698v0.696h0.695v0.696h1.047v0.697h0.696v0.697h0.696v0.695h0.696v0.697h0.696v0.695h0.696v0.698h0.696v0.697
									h1.047v0.696h0.696v0.697h0.696v0.695h0.698v0.697h0.696v0.697h0.696v0.696h0.696v0.696h1.047v0.697h0.695v0.697h0.698
									v0.697h0.694v0.695h0.698v0.695h0.696v0.698h0.696v0.697h1.047v0.697h0.696v0.695h0.696v0.695h0.696v0.698h0.696v0.697
									h0.697v0.697h0.696v0.695h0.696v0.695h0.696v0.697h0.696v0.697h0.698v0.696h0.694v0.697h0.698v0.696h0.696v0.697h0.696
									v0.697h0.697v0.695h0.695v0.695h0.696v0.698h0.696v0.697h0.697v0.697h0.698v0.695h0.694v0.695h0.696v0.697h0.696v0.697
									h0.698v0.698h0.697v0.695h0.695v0.696h0.696v0.697h0.696v0.762h0.697v0.697h0.698v0.695h0.694v0.698h0.696v0.695h0.696
									v0.698h0.698v0.697h0.698v0.695h0.694v0.696h2.791v0.697h0.696v0.698h0.698v0.697h0.696v0.696h0.694v0.695h0.698v0.697
									h0.696v0.697h1.047v0.695h0.696v0.698h0.696v0.695h0.696v0.698h0.697v0.697h0.696v0.695h0.696v0.697h1.047v0.695h0.696
									v0.698h0.696v0.697h0.696v0.695h0.696v0.696h0.697v0.697h0.695v0.697h1.047v0.697h0.697v0.696h0.696v0.695h0.696v0.698
									h0.696v0.697h0.696v0.695h0.696v0.697h1.047v0.695h0.696v0.698h0.698v0.697h0.696v0.695h0.696v0.696h0.696v0.697h0.696
									v0.697h1.046v0.697h0.696v0.696h0.696v0.695h0.696v0.698h0.696v0.697h0.698v0.697h0.696v0.695h1.047v0.695h0.696v0.698
									h0.696v0.697h0.696v0.695h0.697v0.697h0.044v0.695h0.696v0.697h1.046v0.697h0.693v0.696h0.698v0.695h0.697v0.698h0.698
									v0.697H770v0.697h0.696v0.695h1.047v0.695h0.694v0.698h0.698v0.697h0.696v0.697h0.692v0.695h0.698v0.695h0.698v0.697h1.046
									v0.697h0.696v0.696h0.693v0.697h0.698v0.695h0.697v0.697h0.695v0.697h0.696v0.695h0.693v0.695h0.697v0.698h0.698v0.697
									h0.697v0.697h0.696v0.696h0.693v0.695h0.698v0.697h0.694v0.697h0.696v0.698h0.698v0.695h0.696v0.695h0.694v0.697h0.698
									v0.697h0.696v0.695h0.696v0.697h0.694v0.696h0.698v0.697h0.694v0.697h0.696v0.696h0.696v0.695h0.698v0.697h0.697v0.697
									h0.694v0.698h0.697v0.695h0.692v0.695h0.698v0.697h0.697v0.697h0.696v0.695h0.693v0.697h0.698v0.696h0.697v0.697h0.698
									v0.697h0.693v0.696h0.696v0.697h0.694v0.696h0.698v0.697h0.697v0.698h0.696v0.695h0.693v0.695h0.698v0.697h0.697v0.697
									h0.693v0.697h0.696v0.696h0.698v0.696h0.694v0.697h0.698v0.697h0.696v0.696h0.696v0.697h0.697v0.696h0.695v0.697h0.697
									v0.698h0.693v0.695h0.696v0.697h0.698v0.695h0.697v0.697h0.693v0.697h0.698v0.695h0.696v0.696h0.694v0.697h0.697v0.697
									h0.696v0.697h0.693v0.695h0.698v0.696h0.697v0.697h0.698v0.698h0.696v0.695h0.693v0.697h0.697v0.695h0.695v0.697h0.697
									v0.697h0.696v0.695h0.693v0.697h0.698v0.695h0.697v0.697h0.696v0.697h0.693v0.695h0.698v0.695h0.697v0.697h0.695v0.698
									h0.696v0.697h0.696v0.695h0.697v0.695h0.695v0.804h0.697v0.697h0.696v0.695h0.693v0.697h0.698v0.696h0.697v0.696h0.693
									v0.697h0.698v0.695h0.696v0.695h0.697v0.697h0.694v0.697h0.697v0.698h0.695v0.695h0.695v0.695h0.697v0.697h0.698v0.697
									h0.696v0.696h0.693v0.696h0.697v0.696h0.698v0.696h0.694v0.697h0.696v0.695h0.693v0.697h0.698v0.695h0.697v0.697h0.696
									v0.698h0.696v0.695h0.695v0.695h0.697v0.697h0.698v0.697h0.693v0.696h0.696v0.696h0.694v0.696h0.698v0.696h0.697v0.697
									h0.696v0.697h0.696v0.695h0.695v0.695h0.697v0.697h0.693v0.698h0.696v0.695h0.698v0.697h0.694v0.695h0.698v0.697h0.696
									v0.696h0.696v0.696h0.697v0.696h0.695v0.696h0.697v0.697h0.693v0.697h0.696v0.695h0.697v0.695h0.698v0.697h0.693v0.698
									h0.697v0.696h0.696v0.696h0.695v0.695h0.697v0.697h0.696v0.696h0.693v0.696h0.698v0.697h0.697v0.695h0.698v0.697h0.693
									v0.697h0.696v0.695h0.697v0.695h0.695v0.697h0.697v0.698h0.696v0.696h0.693v0.696h0.698v0.695h0.697v0.697h0.696v0.696
									h0.693v0.696h0.698v0.697h0.697v0.695h0.695v0.697h0.696v0.697h0.695v0.695h0.695v0.697h0.697v0.695h0.698v0.698h0.696
									v0.696h0.693v0.696h0.697v0.695h0.698v0.697h0.693v0.696h0.697v0.698h0.696v0.695h0.695v0.695h0.697v0.697h0.696v0.697
									h0.696v0.695h0.695v0.697h0.697v0.695h0.695v0.698h0.696v0.696h0.696v0.696h0.697v0.696h0.698v0.696h0.694v0.696h0.696
									v0.698h0.696v0.695h0.695v0.695h0.697v0.697h0.693v0.697h0.696v0.697h0.698v0.695h0.697v0.695h0.837v0.698h0.693v0.696
									h0.696v0.696h0.694v0.696h0.698v0.696h0.697v0.696h0.693v0.698h0.696v0.695h0.698v0.697h0.697v0.695h0.698v0.697h0.693
									v0.697h0.696v0.696h0.694v0.696h0.698v0.696h0.696v0.696h0.696v0.697h0.694v0.695h0.698v0.698h0.697v0.695h0.693v0.697
									h0.696v0.697h0.698v0.695h0.694v0.697h0.698v0.695h0.696v0.697h0.696v0.697h0.694v0.695h0.698v0.697h0.696v0.695h0.692
									v0.698h0.698v0.697h0.698v0.695h0.694v0.695h0.696v0.697h0.696v0.697h0.697v0.696h0.695v0.696h0.697v0.696h0.696v0.696
									h0.693v0.697h0.698v0.697h0.697v0.695h0.693v0.696h0.696v0.697h0.698v0.697h0.697v0.696h0.695v0.696h0.696v0.695h0.693
									v0.697h0.697v0.697h0.698v0.697h0.697v0.695h0.693v0.695h0.696v0.697h0.698v0.698h0.697v0.697h0.693v0.695h0.698v0.695
									h0.692v0.697h0.698v0.697h0.698v0.697h0.696v0.695h0.696v0.695h0.694v0.697h0.697v0.697h0.695v0.697h0.696v0.695h0.696
									v0.696h0.694v0.697h0.698v0.697h0.697v0.695h0.696v0.696h0.696v0.696h0.695v0.697h0.697v0.697h0.693v0.695h0.696v0.697
									h0.698v0.695h0.694v0.697h0.698v0.698h0.696v0.695h0.696v0.697h0.694v0.695h0.698v0.697h0.697v0.696h0.693v0.696h0.696
									v0.697h0.698v0.695h0.697v0.697h0.693v0.698h0.698v0.694h0.696v0.696h0.694v0.696h0.698v0.698h0.692v0.697h0.696v0.695
									h0.698v0.696h0.698v0.695h0.697v0.698h0.693v0.696h0.696v0.696h0.698v0.696h0.694v0.696h0.698v0.698h0.695v0.696h0.693
									v0.696h0.698v0.694h0.697v0.698h0.696v0.697h0.693v0.696h0.698v0.696h0.694v0.695h0.698v0.697h0.696v0.698h0.696v0.696
									h0.694v0.696h0.698v0.694h0.697v0.698h0.696v0.696h0.693v0.697h0.698v0.696h0.694v0.695h0.696v0.698h0.696v0.694h0.698
									v0.698h0.694v0.697h0.698v0.695h0.696v0.697h0.692v0.695h0.698v0.697h0.698v0.695h0.694v0.697h0.696v0.698h0.696v0.694
									h0.698v0.698h0.697v0.694h0.693v0.698h0.698v0.698h0.692v0.694h0.698v0.697h0.697v0.695h0.693v0.697h0.696v0.695h0.698
									v0.697h0.697v0.698h0.695v0.694h0.696v0.698h0.696v0.694h0.694v0.698h0.698v0.694h0.697v0.698h0.693v0.697h0.696v0.695
									h0.698v0.697h0.697v0.695h0.693v0.697h0.696v0.698h0.694v0.694h0.698v0.698h0.698v0.694h0.696v0.698h0.696v0.694h0.694
									v0.698h0.698v0.698h0.697v0.694h0.693v0.698h0.696v0.694h0.694v0.697h0.698v0.698h0.696v0.694h0.697v0.698h0.697v0.694
									h0.694v0.698h0.698v0.698h0.692v0.694h0.696v0.697h0.698v0.695h2.442c0.173,0.176,0.521,0.524,0.694,0.697
									c0.177,0.174,0.525,0.522,0.698,0.698c0.174,0.173,0.524,0.521,0.693,0.694c0.174,0.177,0.524,0.525,0.696,0.695
									c0.176,0.176,0.524,0.524,0.697,0.697c0.173,0.177,0.525,0.525,0.698,0.698s0.521,0.521,0.697,0.698
									c0.172,0.173,0.522,0.521,0.693,0.694c0.172,0.173,0.522,0.524,0.696,0.694c0.173,0.177,0.522,0.525,0.698,0.698
									c0.173,0.176,0.521,0.524,0.694,0.698c0.176,0.173,0.525,0.521,0.696,0.697c0.173,0.173,0.525,0.521,0.693,0.695
									c0.176,0.173,0.525,0.524,0.698,0.694c0.176,0.176,0.524,0.524,0.697,0.698c0.173,0.176,0.521,0.524,0.698,0.697
									c0.171,0.173,0.521,0.521,0.696,0.698c0.171,0.173,0.521,0.521,0.692,0.694c0.174,0.173,0.522,0.525,0.698,0.694
									c0.173,0.177,0.521,0.525,0.694,0.698c0.177,0.173,0.525,0.525,0.698,0.698c0.175,0.173,0.525,0.521,0.696,0.694
									c0.172,0.176,0.525,0.525,0.696,0.698c0.173,0.173,0.521,0.521,0.694,0.694c0.174,0.176,0.525,0.525,0.698,0.698
									s0.521,0.524,0.698,0.697c0.171,0.173,0.52,0.521,0.696,0.694c0.171,0.174,0.52,0.525,0.692,0.698
									c0.177,0.173,0.522,0.521,0.698,0.694c0.173,0.177,0.521,0.525,0.694,0.698c0.175,0.173,0.525,0.525,0.696,0.698
									c0.175,0.173,0.525,0.521,0.696,0.694c0.173,0.173,0.522,0.525,0.698,0.698c0.173,0.173,0.521,0.521,0.694,0.694
									c0.173,0.176,0.525,0.524,0.698,0.698c0.171,0.173,0.521,0.521,0.696,0.697c0.171,0.173,0.521,0.521,0.693,0.695
									c0.176,0.173,0.524,0.524,0.697,0.697c0.176,0.173,0.525,0.521,0.698,0.695c0.173,0.173,0.521,0.524,0.694,0.697
									c0.175,0.173,0.523,0.521,0.696,0.698c0.172,0.173,0.525,0.521,0.696,0.694c0.173,0.173,0.522,0.525,0.698,0.695
									c0.173,0.176,0.521,0.524,0.697,0.697c0.173,0.173,0.522,0.525,0.693,0.698c0.173,0.173,0.522,0.521,0.696,0.697
									c0.173,0.173,0.521,0.522,0.695,0.695c0.176,0.173,0.524,0.521,0.697,0.694c0.176,0.176,0.525,0.525,0.698,0.698
									c0.171,0.173,0.521,0.524,0.692,0.697c0.175,0.173,0.525,0.522,0.697,0.698c0.173,0.17,0.524,0.521,0.697,0.694
									s0.521,0.522,0.698,0.695c0.173,0.176,0.521,0.524,0.694,0.697c0.175,0.173,0.525,0.521,0.696,0.698
									c0.171,0.173,0.521,0.521,0.696,0.697c0.173,0.17,0.521,0.522,0.694,0.695c0.177,0.173,0.525,0.521,0.698,0.694
									c0.173,0.176,0.525,0.525,0.696,0.698c11.508,11.684,26.16,18.658,43.07,18.658c20.927,0,39.938-10.637,53.363-27.9
									L1200.734,640.921L1200.734,640.921z"/>
							</g>
						</g>
					</g>
				</g>
			</g>
			<g id="Laag_13_1_">
				<g id="path3924_1_">
					<g>
						<circle fill="#FFFFFF" cx="415.493" cy="178.298" r="83.704"/>
					</g>
				</g>
				<g id="path3089_2_">
					<g>
						<g>
							<path fill="#56E295" d="M435.026,106.452l-1.92,1.047c0,0,1.047,0.35,1.223,0.697c0.349,0.174,1.043-0.174,1.043-0.174v1.047
								c0,0,1.745,0.873,1.569,1.22c-0.173,0.349,2.791-0.35,2.791-0.35l2.967-1.047l0.695-1.219l-1.22-1.047l-5.579,0.697
								L435.026,106.452z"/>
							<path fill="#56E295" d="M368.758,109.766l1.223-0.173l2.788-1.22l2.093-1.395l0.175,0.174l-1.57,1.394l-0.349,0.523
								l-1.396,0.697l1.047,0.174l-0.173,0.698l1.218-0.175l1.221-1.047l1.046,0.35l0.522,0.523H378v-1.046l-2.093-1.569
								l-0.522-0.523l-0.174-0.523l0.874,0.174l0.698,0.697l0.871-0.871l1.572-0.174l1.567-1.221v-0.871l1.221-1.22l-0.874-0.873
								h2.094h1.917c0,0,0.871-0.349,1.046-0.174c0.173,0.35,1.569,1.22,1.569,1.22l-0.522,0.523l-2.27,0.35l-0.521,1.047
								l1.568,0.174l1.221-1.221l1.393-0.174l0.176,1.221c0,0-1.571,0.873-1.746,0.873c-0.173,0-1.046,0.523-1.046,0.523v1.047
								l-1.396,0.174l-1.568-0.35h-0.696l-1.218,0.873l0.871,0.871c0,0,1.396-0.523,1.571-0.697
								c0.175-0.174,0.871-0.523,1.047-0.174c0.174,0.349,1.047,1.046,1.047,1.046l0.695,1.396l1.046,0.523l2.094,0.697
								c0,0,1.568,0.35,1.568,0.523s-0.173-0.873-0.173-0.873l-1.221-1.394c0,0,0-0.35,0.351-0.35
								c0.35,0.175,1.221,0.873,1.221,0.873c0.171,0,1.218,0.697,1.218,0.697l0.525-1.22l1.044-0.523l-0.349-0.697l-0.521-0.523
								l-0.525-0.697v-0.872c0,0,0.174-0.174,0.352-0.174c0.173-0.173,0.695-0.523,0.695-0.349c0.173,0.173,1.22,1.569,1.22,1.569
								l1.047,0.174l0.525-0.872l1.393-0.173l0.174-0.697l1.218-0.35l-1.745-1.57l-1.22-0.174l-0.696,0.174l-0.696-0.872
								l0.696-0.697l0.351-1.047l-0.873-0.871l-1.396-0.174l-0.347-0.697c0,0-1.221-0.173-1.221,0
								c-0.171,0.174-1.045-1.046-1.045-1.046l-0.522-0.873c-4.011,1.221-8.021,2.79-11.685,4.71l-0.175,0.349l-1.219,0.697
								l-1.396,1.046l-1.22,0.523l-0.173-0.349c-4.182,2.267-8.021,5.057-11.684,8.021c1.917-0.871,5.058-2.615,5.058-2.615
								L368.758,109.766z"/>
							<path fill="#56E295" d="M445.663,126.159l0.871-0.174l0.695-0.35l0.176-0.174l1.218-0.174l0.171-0.523l0.354-0.523v-1.569
								l0.693-0.348l-0.171-1.046l-1.047-0.349l-0.875-0.174l0,0l-0.522,0.174l-0.521,0.523l-0.521,0.523
								c0.349-0.174,0.521-0.174,0.521,0.174c0,0.174-0.35,0.348-0.35,0.348h-0.349l-0.349-0.174h-0.525l-0.173,0.348l0.173,0.523
								l-0.521,0.349l0.349,0.35l0.522,0.173v0.523h-0.522l-0.698,0.35l-0.171,0.697l0.522,0.35L445.663,126.159z"/>
							<path fill="#56E295" d="M449.325,120.404c0.171,0.174,0.349,0.35,0.349,0.35c0,0.174,0.525,0.174,0.525,0.174l0.522-0.174
								l-0.522,0.523c0,0,0,0.35,0.173,0.523c0.171,0.174,0.521,0,0.521,0s0.871-0.173,1.047-0.173c0.171,0,0,0.35,0,0.35
								l0.349,0.523c0,0,0.171,0.697,0.171,0.872c0,0.176-0.349,0.174-0.349,0.174s-0.696,0.174-0.875,0
								c-0.171,0-0.346,0.174-0.693,0.523c-0.171,0.35,0,0.174,0,0.174h0.521c0,0,0,0.349,0,0.522c0,0.174-0.35,0.35-0.521,0.174
								c-0.171,0-0.871,0.349-0.871,0.349v0.523l0.871,0.174l0.872,0.174l0.174,0.174c0,0-0.525,0.173-0.696,0
								c-0.173-0.174-0.521,0.523-0.521,0.523l-0.351,0.35l-0.874,0.697l0.522,0.174l0.352-0.348h0.693l0.698-0.174l0.521-0.523
								c0.176,0,1.22,0,1.22,0s0.874-0.174,1.047-0.174c0.176,0,0.874,0.174,0.874,0.174c0.173,0,1.568-0.349,1.568-0.349
								s0.349-0.523,0.349-0.697c0-0.174-0.349-0.35-0.521-0.35c-0.176-0.174,0.349-0.174,0.521-0.35
								c0.173-0.175,0.349-0.523,0.349-0.697c0.176-0.174-0.173-0.523-0.173-0.697c0-0.174-0.525,0-0.696-0.174
								c-0.171,0-0.696,0-0.696,0v-0.697c0,0-1.743-2.268-1.568-2.442c0-0.174-0.349-0.871-0.522-0.871s-0.349-0.174-0.698-0.523
								c-0.173-0.35,0.349-0.697,0.349-0.697s0.525-0.697,0.698-0.873c0-0.173,0-0.522-0.173-0.697c-0.174,0-1.396,0-1.396,0
								l-0.349-0.349c0-0.174,0.349-0.174,0.522-0.174s0.698-1.22,0.874-1.22c0.173,0-0.176-0.349-0.176-0.349l0,0L452.814,115
								l-0.525,0.697c0,0-0.522,0.174-0.693,0c-0.174-0.174-0.525,0-0.696,0c-0.176,0-0.522,0.35-0.522,0.35
								s-0.525,0.523-0.698,0.523s-0.698,0.697-0.698,0.697v0.523c0,0-0.171,0.173-0.349,0.173c-0.176,0,0.173,0.697,0.173,0.697
								l0.525,0.173c0,0-0.173,0.35-0.349,0.175C449.325,119.88,448.976,120.23,449.325,120.404z"/>
							<path fill="#56E295" d="M408.867,207.594c0,0-1.745-0.349-1.745-0.521c0-0.176-2.964-2.792-3.137-2.792
								c0,0-1.22-1.219-1.396-0.875c-0.173,0.353-2.439,0.353-2.439,0.353l-2.27-0.525c0,0-1.047,0.697-0.871,0.35
								c0.174-0.347,0-2.09,0-1.742c0,0.347-3.661-1.572-3.661-1.572l-1.221,1.047v-1.047l-1.917-1.219l0.174-1.572l-0.696-0.694
								c0,0-0.173,0.172-0.173,0c0-0.175-0.525-2.964-0.525-2.964l-2.791-2.27l-3.313-0.172l-2.964-1.568l-0.698-1.571
								c0,0-1.743-0.872-1.743-1.047c0-0.172-0.523,0-0.696-0.172c-0.173,0,0-0.872,0-0.872l-0.871-0.697l-0.351-0.172l-0.696-0.176
								l-0.349-0.694c0,0,1.57-0.697,1.396-0.697c-0.176,0-3.489,0.522-3.489,0.522l-0.349,0.697l-1.57-0.871l-2.617-0.172
								c0,0-1.917-0.698-1.917-1.047c0-0.176-0.522-1.047-0.522-1.047s-0.351,1.047-0.525,1.219
								c-0.173,0.525-1.396,1.571-1.396,1.571l0.173,1.746l-0.871-1.047l0.696-0.875v-1.219c0-0.172,0.875-0.525,0.875-0.525
								l-0.352-0.694c0,0-1.045,0.172-1.045,0.35s-1.221,0.871-1.221,0.871l-1.568,0.521h-0.698c0,0-0.694,1.222-0.871,1.222
								c-0.173,0-0.173,1.047-0.173,1.047s-1.745,1.917-1.917,1.742c-0.176-0.172-1.917-1.742-1.917-1.742l-2.27,0.35l-1.22,0.697
								l-1.568-1.046l-1.22-1.917l0.173-2.094l0.696-2.442l0.351-1.569l-1.572-1.221c0,0-3.313,0.35-3.313,0.176
								c0-0.176-1.745,0-1.745-0.176c0-0.172,0.698-1.218,0.698-1.396c0-0.172,0.525-1.393,0.525-1.393l0.695-1.396l0.873-2.616
								l0.523-0.871l-2.964-0.174l-1.57,0.697l-1.045,2.792l-4.533,1.219l-1.221-0.871c0,0-0.175,0.523,0,0.172
								c0-0.35-1.395-2.093-1.395-2.093l-0.698-2.615c0,0,1.917-5.405,1.745-5.405c0,0.174,0-1.917,0-1.917l5.755-3.837l2.27,0.35
								l0.522,0.523l1.396-0.174l1.396-1.394l1.744,0.173l1.745-0.347l1.044,1.22l1.571-0.523l0.874,0.873l0.522,0.522v0.873
								l-0.349,0.873l0.349,1.918l1.046,1.569l0.696,0.35l0.873-2.441l-0.173-2.267l-0.349-1.744v-1.22l2.268-2.791l2.792-2.092
								l2.267-1.219l1.917-2.093l-0.174-2.093l0.872-0.174l0.871-1.917l0.874,0.174l1.745-2.093l2.791-1.047l1.743-0.35l0.523-0.522
								l-0.698-0.698l1.396-1.918l4.184-1.745l2.617-0.697l-2.094,1.395l0.351,1.047l1.568-0.523l1.047-0.697l2.964-0.872
								l0.523-0.872c-0.175,0.35,1.57-0.35,1.57-0.35l-0.349-0.697l0.173-0.873l-0.874,0.349l-1.22,1.395l-2.093-0.175l-0.871-1.394
								l0.871-1.221c0,0,0.872-1.917,0.872-1.744c0,0.173-1.394-0.523-1.394-0.523l-2.093,0.697c-0.173,0-2.267,1.221-2.094,1.047
								c0-0.174-1.046,0.523-1.046,0.523l2.792-2.267l1.218-0.174l1.221-1.22h6.277l2.093-0.35l2.79-1.569l0.174,0.349l-1.221,1.221
								l-1.394,1.57l-1.57,1.57l-0.696,0.872l2.268,0.174c0,0,1.745,0,1.921,0c0.171,0,0.346,0.697,0.346,0.697l0.874-0.697
								l0.522,1.22l1.572-1.22l-0.525-1.396l0.525-1.394h-1.917v-0.697c0,0-0.698-0.872-0.698-0.698
								c0,0.174,1.046-0.873,1.046-0.873c0,0.174-0.523-0.523-0.523-0.523l1.221-1.57l-0.698-1.744l-0.349-0.871l-1.746-0.873
								l-0.523-0.871l-0.695-0.523l0.522-1.394l-0.351-1.047l-0.523-3.313c0,0.174-2.268,1.918-2.268,1.918l-2.268,1.046
								l-1.047-0.871l0.174-1.395l1.047-1.046l-1.743-0.523l-0.174-0.523c0,0-1.57-1.57-1.57-1.394
								c-0.173,0.173-0.523,0.522-0.523,0.522l-3.488-0.349l-1.22,2.093l-0.349,1.22c0,0-1.919,1.918-2.268,2.092
								c0.174,0,1.045,0.872,1.045,0.872l-0.871,1.918l-3.139,1.744l-1.57,0.174c0,0-0.871,3.314-0.871,3.487
								c0,0.174-1.22,0.873-1.22,0.873l-0.696,1.046l-0.351-1.22c0,0-0.351-0.872-0.525-1.221c0.174,0.174,1.047,0.174,1.047,0.174
								l0.174-0.697h-0.881l0.349-1.22l0.871-1.394l-2.79-0.174l-0.696-0.697l-1.396-0.173l-0.173-0.523l-1.047-0.523l-1.047-0.697
								l-1.22,0.174v-1.047l0.352-1.046l-1.396-0.35c-16.749,14.985-27.385,36.783-27.734,60.848l1.396,0.349l2.092-0.695
								l1.397,0.695l2.089,2.441l2.094,0.521l2.092,0.697h1.047l0.35,1.219c0,0,1.047,1.223,1.218,1.396
								c0.176,0.172,0,1.568,0,1.568l0.874,0.525l1.043,1.219l0.698,0.697l0.698,0.872l0.522-0.35l1.047,0.35l1.396,1.219
								l0.872-0.522l-0.35-1.047l0.874-0.874h0.698l0.871,0.697v0.7l1.046,1.569v4.36l-0.871,1.396l-1.22,0.871v1.219l-1.22,0.353
								l-0.525,1.742l-0.694,1.571l0.173,1.218l1.046,1.047l-1.046,1.046l-0.696,1.047l0.696,2.093c0,0,0.349,1.047,0.349,0.872
								c0-0.173,1.047,0.697,1.047,0.697l1.917,3.839l1.748,2.615c0,0,2.614,5.406,2.788,5.406c0.873,0.522,6.625,4.882,6.625,4.882
								l1.046,5.231l0.351,11.163l0.874,3.137l-0.175,1.396c4.535,3.14,9.417,5.929,14.65,8.021c0.521,0,1.22,0.172,1.22,0.172
								l2.44-0.697c0,0,0.873-1.742,0.873-1.917c0-0.349,0-1.219,0-1.219s0-0.697-0.522-0.697c-0.525,0-0.525-0.347-0.698-0.871
								c-0.173-0.522-0.522-1.22-0.522-1.22l-0.696,0.173l0.696-0.694l1.394,1.042l2.092,0.353l1.746-1.746l1.218-2.792l0.525-2.093
								h1.044l1.221-2.093l0.523-1.917l-0.871-2.267l0.522-0.871l3.838-2.443l2.792-0.871l0.871-0.697c0,0,1.397-1.917,1.397-2.093
								c0-0.175,0.523-2.964,0.523-2.964s0.695-3.313,0.522-3.485c0-0.176,0.173-3.141,0-3.141s0-0.871,0-0.871l2.792-3.839
								l1.219-2.964c0,0,0.874-1.567,0.874-1.745C409.738,210.037,408.867,207.594,408.867,207.594z"/>
							<path fill="#56E295" d="M435.721,101.918l1.745,0.174c0,0,0.525-2.094,0.176-2.441c-0.349-0.174,1.22-1.57,1.22-1.57
								s0.173-0.173,0.349-0.173c-7.497-2.267-15.346-3.314-23.544-3.314l0,0c-3.313,0-6.626,0.174-9.939,0.523l0.871,0.174
								c0,0,1.917,0.871,2.266,1.22c0.352,0.349,0.174,1.221,0.174,1.918c-0.174,0.523-0.35,0.697-0.872,1.22
								c-0.349,0.697,0.872,0.347,0.872,0.347l1.57,0.698c0,0-0.523,0-1.047,0.174c-0.698,0.174-1.568,0.35-1.568,0.35l-0.176,1.22
								l2.094-0.523l-0.173,0.697l-1.569,0.349l-1.57,1.744l-0.171,3.488l0.346,2.964l0.874,2.441l1.394,0.175l1.57,1.046
								l2.094-0.174l2.093-2.964l2.267-2.093l0.698-1.22l1.047-0.694l2.442-0.523l2.964-0.698c0,0,2.792-1.917,3.139-2.093
								C427.875,104.186,435.721,101.918,435.721,101.918z"/>
							<path fill="#56E295" d="M498.5,166.441l-1.22-2.093c0,0-1.396-3.313-1.567-3.488c-0.173-0.174-0.698-1.046-0.522-1.046
								c0.171,0,1.393-0.174,1.393-0.174s0.351,0.523,0.696,0.697c-0.525-2.093-1.047-4.184-1.567-6.277
								c0,0.174-0.173,0.348-0.351,0.523c-0.349,0.349-1.047,0.697-1.396,0.349c-0.349-0.347-1.917-0.174-2.094-0.174
								c-0.171,0-1.917,0-2.266,0.35c-0.176,0.349-1.569,0.174-1.745,0c-0.176-0.174-2.967-1.22-3.14-1.22s-1.569-0.697-1.745-0.873
								c-0.173-0.175-1.568-0.349-1.568-0.523c0-0.174,0.173-0.349-0.173-0.349c-0.176,0-1.745,0.523-1.917,0.697
								c-0.176,0.174-0.698,0.523-0.698,0.523s-0.698,0.697-0.525,1.22c0,0.523,0.698,0.873,0.525,1.221
								c-0.176,0.347-1.046,0.523-1.046,0.523s-0.871-0.697-1.047-0.873c-0.349-0.174-2.792-0.523-2.792-0.523l-1.043-1.221
								c0,0-1.572-1.046-1.745-1.22c-0.176,0-1.92,0-2.27-0.174c-0.35-0.173-1.046-1.396-1.568-1.22
								c-0.349,0-0.349-0.697-0.173-0.697c0.173-0.174,0.695-1.047,0.522-1.22c0-0.174,0.349-1.047-0.349-1.395
								c-0.525-0.349-0.173-1.22-0.173-1.22s0.522-0.174,0.349-0.174c-0.176,0-1.046,0-1.223-0.174
								c-0.168-0.35-0.346-0.35-0.517-0.35c-0.176,0.174-1.572,0.35-1.746,0.35c-0.176,0-1.397,0.174-1.743,0.174
								c-0.176,0,0,0-0.176,0c-0.349,0-1.396,0.523-1.396,0.697c0,0.174-1.218,0-1.218,0c-0.173,0-1.746,0-1.746,0l-2.614,0.523
								c0,0-1.746,0.873-1.746,1.221s-0.522,0.697-0.698,0.872c-0.171,0.173-1.218,0-1.218-0.174c0-0.174-1.746,0-1.746,0
								s-0.696-0.349-0.871-0.174c-0.174,0.175-0.174-0.697-0.174-0.697l0.349-0.697l1.047-0.697l2.27-0.35l1.22-0.697l0.696-0.35
								l0.35-1.046c0,0,0.871-0.174,0.693-0.349c0-0.174-0.351-0.873-0.351-0.873l1.569-2.441l2.271-1.047l0.349-0.697
								c0,0-0.174-1.047,0-1.047c0.173-0.173,1.569-0.522,1.569-0.522l1.917,0.522c0,0,1.046-0.697,1.218-0.697
								c0.176-0.174,1.223-0.697,1.223-0.697s0.173-0.523,0.349-0.523c0.178,0,1.22-0.174,1.22,0.35
								c0.173,0.349,0.871,1.744,0.871,1.744l1.223,1.22l1.217,0.872l1.396,0.523c0,0,0.874,0.697,1.047,0.872
								c0.176,0,1.046,1.046,1.046,1.046l0.349,0.698c0,0-0.171,0.523-0.522,0.873c-0.171,0.35-0.874,1.047-1.046,0.871
								c-0.171,0-1.396-0.349-1.396-0.349l-1.396,0.174c0,0-0.173,0.35,0.176,0.523c0.346,0.35,0.871,0.174,1.217,0.523
								c0.354,0.174,1.396,0.697,1.396,0.697s0.698,0.173,0.698,0.35c0,0.175,0.176-0.35,0.176-0.872
								c0-0.349-0.176-0.873,0.349-1.047c0.346-0.174,1.044,0,1.044-0.174c0-0.173,0.173-0.347,0.173-0.347l0.525-0.523v-0.35
								l0.522-0.349c0,0-0.349-0.35-0.522-0.523c-0.173-0.349-0.525-0.349-0.349-0.698c0.171-0.349,0.696-0.697,1.045-0.523
								c0.351,0.175,1.047,0.35,1.047,0.523c0,0.35,0,0.698,0.171,0.523c0.173-0.174,0-1.046,0-1.046s-0.349-0.523-0.874-0.698
								c-0.349,0-1.396-0.522-1.568-0.697c-0.349-0.173-0.696-0.349-0.696-0.349s0.171-0.523-0.171-0.523
								c-0.351,0-1.22-0.174-1.22-0.35s-1.047-0.871-1.047-1.047c0-0.175-0.871-1.394-0.871-1.394s-0.525-0.523-0.525-0.697
								c0-0.174-0.173-0.35-0.173-0.871c-0.173-0.349,1.046-1.569,1.046-1.396c0,0.174,0.349,0.35,0.522,0.873
								s1.047,1.394,1.22,1.569c0.174,0.35,1.218,1.221,1.568,1.395c0.349,0.174,0.525,0.349,1.047,0.697
								c0.523,0.173,0.523,0.349,1.221,0.697c0.693,0.349,0.871,0.523,0.871,0.523c0.171,0.174,0.522,0.174,0.693,0.349
								c0.176,0.35,0.354,0.35,0.354,0.523c0,0.35,0.171,0.35,0.171,0.872c-0.171,0.523-0.349,0.697-0.171,0.873
								c0,0.173,1.047,2.093,1.396,2.093c0.351,0,1.569,0.523,1.394,1.046c-0.173,0.698,0.696,1.57,0.696,1.57s0.696,0,1.218,0.174
								c0-0.35,0-1.047,0.349-1.221c0.525-0.349,1.223-0.523,1.046-0.872c-0.171-0.349-0.171-0.697-0.693-1.047
								c-0.354-0.349-0.875-0.523-1.047-1.047c-0.174-0.523-0.349-1.22,0.171-1.047c0.522,0.175,0.875,1.22,1.22,0.523
								c0.176-0.697,0.698-1.22,1.046-1.046c0.349,0.174,1.047,0.349,1.047,0.697c0,0.174,0.522,1.917,0.522,1.917
								s0.173,0.173,0.349,1.046c0.176,0.873,0.874,1.047,0.698,1.221c-0.173,0.35-0.349,0.35,0.525,0.523
								c0.871,0.174,1.741,0.174,1.741,0.523c0,0.173,0.698,0.349,0.874,0.523c0.176,0.173,0.698,0.522,0.875,0.173
								c0.171-0.35,0.349-1.046,0.521-0.873c0.173,0.174,1.568,0.174,1.568,0.523c0,0.35,0.698,0.35,0.875,0.523
								c-1.047-2.441-2.093-4.883-3.318-7.324l-1.917-0.523l-1.218-0.523l-0.698-0.697h0.525l-0.175-0.873l0.175-0.523l0.521-0.347
								l0.351-1.047c-3.137-5.231-6.804-10.113-10.813-14.649c-0.173,0.175-0.698,0.523-0.873,0.523c-0.174,0-0.696,0.348-0.871,0
								c-0.176-0.174-0.354-0.697-0.354-0.697s-0.171-0.35-0.171-0.173c0,0.175-0.522,0.173-0.522,0.173l-0.875,0.35
								c0,0-0.525,0.349-0.696,0.523c-0.171,0-0.693,0-0.871,0.174c-0.173,0.174-0.875,0.697-1.046,0.349
								c-0.171-0.174-0.351,0.174-0.522-0.174c-0.174-0.347-0.174-0.871-0.354-0.697c-0.171,0-0.871,0.173-0.871,0.35
								c0,0.173-0.171,0.173-0.349,0.347c-0.173,0.174-1.22,0.35-1.22,0.35v-0.173l1.22-1.047l0.349-1.047
								c0,0,1.046,0.174,1.219,0.349c0,0.175,0.349-0.349,0.525,0c0.349,0.175,0.694,0.175,0.694,0.523
								c0,0.175,0.175,0.523,0.352,0.35c0-0.173,0-0.697,0-0.697s-0.352-0.174-0.525-0.35c-0.173-0.175-0.173-0.523,0-0.523
								c0.173-0.174,0.698-0.347,0.874-0.347c0.173,0.173,0.871-0.174,0.871-0.174s0.173-0.174,0.173-0.35s0.525-1.047,0.525-1.047
								s-0.352-0.174-0.352-0.523v-0.174c-2.79-2.79-5.928-5.231-9.065-7.498c-0.522,0.174-1.047,0.35-1.047,0.35l-1.396,1.394
								c0,0-0.349,0.697-0.522,0.872c0,0.174,0.173,2.093,0.173,2.093s0.874,0,0.696,0.35c-0.175,0.174-0.175,1.394-0.175,1.394
								l1.047,0.697c0,0,1.396,0.523,1.57,0.35c0.173,0,0.872-0.523,0.872-0.523c0.171,0,0.874-0.871,1.218-0.871
								c0.171,0,0.875-0.698,1.046-0.35c0,0.174,0.171,1.221,0.349,1.394c0.176,0.175,0.698,0.523,0.872,1.047
								c0.175,0.523,0.525,1.047,0.352,1.047c0,0.174-0.525,0.523-0.525,0.523s-1.043,0.173-1.22,0.347
								c-0.173,0.174-0.349,0.174-0.521,0.174s0.349-0.523,0.521-0.697c0.176-0.174-0.173-0.698-0.349-0.698
								c-0.176,0-0.349-0.349-0.173-0.349c0.173-0.174,0.173-0.872,0.173-0.872s-0.173-0.174-0.349,0
								c-0.173,0-1.396,0.523-1.396,0.523s-0.698,0.697-0.698,0.872c0,0.173-0.349,0.872-0.173,1.394
								c0.173,0.523,0.698,1.396,0.698,1.396s0.522,0.348,0.349,0.523c-0.176,0.176-0.525,0.697-0.525,0.697h-0.871
								c0,0-1.568,0.174-1.745,0.35c-0.173,0-1.571,0.523-1.571,0.697c0,0.173-0.346,1.745-0.346,1.745s-1.571,1.047-1.746,1.047
								c-0.176,0-1.221,0.349-1.221,0.349s-0.521,1.395-0.521,1.22l-1.746,0.872c0,0-2.793-0.872-2.793-1.046
								c0-0.174-0.522-0.523-0.522-0.349c0,0.174,0.522,1.221,0.522,1.396c0,0.174,0,0.697,0,0.523
								c-0.171-0.174-0.871-0.35-1.047-0.523c-0.171,0-1.396,0-1.396,0h-0.522l-0.693,0.523v0.523l0.35,0.349l1.218,0.523
								l1.218,0.698l0.521,1.22l0.525,1.046l-0.349,2.267c0,0.174-0.874,0.697-0.874,0.697l-2.442-0.174c0,0-1.22-0.174-1.22-0.35
								c-0.173,0-1.744,0.174-1.744,0c0-0.174-0.522-0.174-0.522-0.174l-0.173-0.35h-0.698l-0.696,0.873h-0.875v0.697l0.354,1.394
								c0-0.174-0.176,1.745-0.176,1.745s-0.696,1.569-0.871,1.743v1.047l0.522,0.697v0.872c0,0-0.351,0.872-0.171,0.697
								c0.171,0,1.218,0,1.396-0.174c0-0.174,0.696-0.523,0.874-0.174c0.173,0.174,0.522,0,0.695,0.35
								c0.171,0.348,0.52,1.047,0.52,1.221c0,0.173,0.351,0.173,0.351,0.173l0.174,0.35l-0.174,0.173l-0.871,2.092l-1.919,1.396
								l-1.218,0.697l-0.352,0.872l-0.522,0.523l-0.173,1.046c0,0,0.173,1.396,0,1.396l-2.615,2.614l-1.396,0.35l-0.871,1.395
								c0,0-1.046,1.047-1.223,1.22c0,0.174-0.698,0.873-0.698,0.873s0.354,1.046,0.354,0.873c0,0,0.693,1.046,0.871,1.395
								c1.221,3.488,1.746,5.057,1.221,8.544c-0.352,2.964-2.964,6.8-4.884,8.721l-0.171,0.522c0,0,0.521,0.524,0.693,0.349
								c0.176-0.172,1.223,0.698,1.399,0.875c0.173,0.175,1.394,1.917,1.394,1.917l0.171,0.35l0.698,2.267
								c0,0,3.14,2.618,3.14,2.443c0-0.176,3.313,2.442,3.313,2.442l2.616-1.222c0,0.175,2.266-0.173,2.266-0.173l1.396,0.173
								l1.047,0.525l3.662-1.746l0.695-0.521l2.791-0.175l1.396,0.524c0,0,0.874,1.394,0.874,1.569c0,0.175,0.522,1.219,0.698,1.046
								c0-0.172,3.137-0.35,3.313-0.172c0.173,0,1.393,1.393,1.393,1.393v1.222l-0.173,2.267l-0.521,1.047l-0.349,1.046
								l-0.173,0.694c0,0,3.314,4.709,3.314,4.885c0,0.172,0.873,1.917,0.873,1.917l1.045,2.439l0.522,1.396l-0.522,0.872
								l0.873,2.442l-0.351,2.439l-1.393,3.14l-0.696,2.267l0.171,2.964l1.746,3.489l1.745,4.011l0.173,4.356l0.874,1.572
								c16.041-15.346,26.159-36.795,26.159-60.862C499.374,174.287,499.025,170.452,498.5,166.441z"/>
							<path fill="#56E295" d="M361.608,174.114c0.351,0.173,0.696,0,0.873,0c0.177,0,0.871-0.174,0.871-0.174
								s0.176,0.522,0.176,0.697c0,0.172,1.045,0,1.045-0.175c0-0.173,0.351-0.522,0.351-0.522l1.393-0.35h1.917
								c0.176,0,0.352-0.35,0-0.872c-0.349-0.523-1.218-0.697-1.393-1.22c-0.173-0.348-1.22-0.174-1.572,0
								c-0.346,0.174-1.742-0.348-2.267-0.348c-0.349,0,0,0.523,0,0.523v1.396h-1.744v0.174c0,0-0.525,0.173-0.525,0.522
								C360.733,174.117,361.261,173.94,361.608,174.114z"/>
							<path fill="#56E295" d="M361.783,170.452c0-0.174-0.871-0.35-1.22-0.35c-0.348,0-1.917-1.57-2.094-1.917
								c-0.173-0.349-3.659-1.221-3.659-1.221s-4.011-0.174-4.011-0.35s-1.917,1.395-1.917,1.395v0.174c0,0,0.173,0.697,0.173,0.873
								s1.22-0.873,1.393-1.221c0.176-0.347,1.046-0.523,1.221-0.697c0.174-0.174,0.347,0.523,0.523,0.523
								c0.176,0,1.22,0.348,1.22,0.348l1.917,0.697l0.696,0.697c0,0,0.351,1.745,0.351,1.919c0,0.172,1.396,0.172,1.396,0.172
								l2.792-0.347C360.912,171.149,361.783,170.626,361.783,170.452z"/>
						</g>
					</g>
				</g>
			</g>
			<g id="Laag_22_1_">
				<g>
					<g>
						<path fill="#FFFFFF" d="M875.383,199.506l53.77,42.141c1.625,1.628,3.788,2.704,6.49,2.704c2.156,0,4.875-1.075,6.494-2.704
							c18.391-18.935,46.517-47.07,49.765-50.307c0.533,0,0.533-0.535,1.084-1.083c7.035-8.122,14.063-17.318,14.063-34.081
							c0-25.435-22.936-39.984-46.202-39.984c-11.354,0-21.636,4.871-29.204,12.981c-7.58-8.116-18.393-12.981-29.217-12.981
							c-23.262,0-42.202,20.558-42.202,45.984C859.694,177.875,865.641,191.396,875.383,199.506z"/>
					</g>
					<path fill="#07934A" d="M997.858,156.72c0-20.014-18.609-30.783-37.001-30.783c-12.979,0-23.81,8.113-29.214,19.475
						c-5.411-11.901-16.774-19.475-29.217-19.475c-18.39,0-32.999,16.228-32.999,36.783c0,12.442,4.327,23.8,12.979,30.295
						l53.766,42.688c0,0,51.941-52.471,50.312-50.318C992.993,176.739,997.858,169.706,997.858,156.72z"/>
				</g>
			</g>
		</g>
	</g>
	<g id="Layer_4" display="inline">
		<g>
			<g id="Laag_1">
				<path id="XMLID_125_" fill="#FECEA2" d="M771.637,149.531c-17.299-32.866-61.582-44.514-95.14-44.514
					c-33.56,0-77.843,11.648-95.142,44.514c-16.952,32.175-2.538,70.923,35.865,70.923c2.999,0,22.833-2.076,38.632-5.189
					c13.608-2.652,27.562-2.652,41.17,0c15.915,3.113,35.634,5.189,38.633,5.189C774.173,220.339,788.589,181.706,771.637,149.531z"
					/>
			</g>
		</g>
	</g>
	<g id="Layer_6" display="inline">
		<circle fill="#EFE8E3" cx="719.945" cy="172.735" r="32.998"/>
		<circle fill="#EFE8E3" cx="628.278" cy="171.751" r="32.998"/>
	</g>
	<g id="Layer_7" display="inline">
		<rect x="719.945" y="172.735" fill="#EFE8E3" width="0" height="0"/>
		<circle fill="#784F30" cx="719.945" cy="172.735" r="25.912"/>
		<circle fill="#784F30" cx="628.278" cy="171.499" r="26.749"/>
	</g>
	<g id="Layer_8" display="inline">
		<circle fill="#020200" cx="719.945" cy="172.735" r="14.912"/>
		<circle fill="#020200" cx="628.278" cy="171.751" r="14.912"/>
	</g>
	<path display="inline" fill="#2D2723" d="M678.881,144.75l8.065,12.089c0,0,48.882-29.685,68.549-31.711l-20-17.689
		C735.496,107.438,683.881,136.825,678.881,144.75z"/>
	<path display="inline" fill="#2D2723" d="M666.276,145.872l-8.065,12.089c0,0-48.882-29.685-68.549-31.711l20-17.689
		C609.662,108.56,661.276,137.946,666.276,145.872z"/>
</g>
<g id="Layer_48" display="none">
</g>
</svg>
