<?xml version="1.0" encoding="utf-8"?>
<!-- Generator: Adobe Illustrator 16.0.0, SVG Export Plug-In . SVG Version: 6.00 Build 0)  -->
<!DOCTYPE svg PUBLIC "-//W3C//DTD SVG 1.1//EN" "http://www.w3.org/Graphics/SVG/1.1/DTD/svg11.dtd">
<svg version="1.1" id="Layer_1" xmlns="http://www.w3.org/2000/svg" xmlns:xlink="http://www.w3.org/1999/xlink" x="0px" y="0px"
	 width="850.395px" height="453.543px" viewBox="0 0 850.395 453.543" enable-background="new 0 0 850.395 453.543"
	 xml:space="preserve">
<g id="Layer_27">
	<g id="Layer_34">
	</g>
	<g id="Layer_35">
	</g>
	<g id="Layer_36">
		<g id="Layer_9">
		</g>
		<g id="Layer_37">
		</g>
	</g>
	<g id="Layer_38">
	</g>
	<g id="Layer_41">
	</g>
	<g id="Layer_40">
	</g>
	<g id="Layer_42">
	</g>
	<g id="Layer_47">
	</g>
	<g id="Layer_43">
	</g>
	<g id="Layer_46">
	</g>
	<g id="Layer_48">
		<g>
			<g>
				<g>
					<path fill="#1C8439" d="M460.184,118.033c9.729,5.174,16.243,7.065,24.146,12.581c0,0,16.303,6.417,6.586,17.269
						c-9.715,10.852-31.942,3.242-31.942,3.242s-14.206-6.281-40.019-3.897c-25.812,2.385-63.637,17.305-63.637,17.305
						s-31.997,2.719-32.361-9.498c-0.365-12.217,71.588-42.044,89.238-43.675C431.551,109.569,446.899,110.97,460.184,118.033z"/>
					<path fill="#2BA954" d="M207.862,196.323c4.069,16.435,12.667,20.642,21.063,27.521c0,0,20.522,2.078,16.484-4.078
						c-4.278-6.522-9.064-28.533-9.064-28.533s-0.875-1.396-1.349-13.275c-0.087-2.19-0.449-6.395,2.389-6.271
						c28,1.23,67.396-7.768,67.396-7.768s26.935-30.284,20.672-40.778c-6.263-10.497-75.788,13.192-91.545,21.309
						c-8.388,4.32-15.658,9.656-24.664,17.231C201.036,168.585,205.084,185.107,207.862,196.323z"/>
					<path fill="#2EEA93" d="M324.263,57.485c0,0-28.683,1.731-32.932,13.459c-4.248,11.729-30.677,16.083-39.74,18.869l9.149,2.941
						c0,0,34.176-7.805,35.452-15.235c1.274-7.428,26.402-10.923,26.402-10.923L324.263,57.485z"/>
					<g>
						<path fill="#2BA954" d="M312.806,85.368c0,29.563,23.964,53.526,53.525,53.526c10.837,0,20.92-3.22,29.346-8.753
							c14.564-9.566,24.181-26.046,24.181-44.773c0-29.561-23.965-53.524-53.525-53.524
							C336.771,31.843,312.806,55.807,312.806,85.368z"/>
					</g>
					<g>
						<g id="Laag_1_11_">
							<path id="XMLID_14_" fill="#FECEA2" d="M418.345,73.53c2.234,4.984,1.728,7.087,1.312,16.521
								c-0.596,13.495-5.178,20.656-7.728,23.357c-6.762,1.318-20.146,1.158-21.421,1.158
								c-16.362-0.049-22.487-16.461-15.285-30.129c7.348-13.962,28.447-10.907,42.702-10.907"/>
						</g>
					</g>
					<g>
						<circle fill="#EFE8E3" cx="403.911" cy="92.754" r="14.018"/>
					</g>
					<circle fill="#784F30" cx="403.91" cy="92.754" r="11.008"/>
					<circle fill="#020200" cx="403.91" cy="92.754" r="6.335"/>
					<ellipse fill="#EFE8E3" cx="409.88" cy="88.507" rx="5.038" ry="5.046"/>
					<path fill="#2EEA93" d="M325.105,54.517c0,0-23.044,17.168-20.168,29.308c2.874,12.138-16.846,30.266-22.899,37.563
						l5.526,1.639c0,0,28.047-29.452,25.042-36.365c-3.005-6.912,16.099-23.606,16.099-23.606L325.105,54.517z"/>
					<path fill="#2EEA93" d="M419.857,79.901c0,0-30.38-11.758-104.437-11.097c0,0,2.88-7.822,5.213-11.319
						c2.333-3.498,59.262-0.614,95.421,8.043C416.057,65.528,419.98,71.44,419.857,79.901z"/>
					<path fill="#2D2723" d="M420.172,93.553c0,0-10.864-11.959-35.394-20.157l7.14-7.147c0,0,21.842,11.629,31.123,21.158
						L420.172,93.553z"/>
					<path fill="#1C8439" d="M304.507,263.766c0,0-16.024-10.662-27.023,4.17c-10.998,14.83-18.979,20.804-12.111,37.393
						s72.595,4.804,92.591,1.938c19.996-2.867,29.864-3.842,37.59-5.875c3.591-0.943,2.136-0.189-9.864,1.717
						c-7.319,1.162-13.137,4.571-17.761,8.986c-4.625,4.414-18.741,16.558-24.988,18.768c-6.246,2.213-21.81-0.952-20.546,8.617
						c1.268,9.569,17.857,52.244,17.857,52.244s12.325,5.813,14.397-8.412c2.074-14.225-10.551-22.237-2.018-32.464
						c8.537-10.223,39.359-13.334,39.359-13.334s29.96-9.151,41.54-36.36c3.057-7.184-3.655-30.118-14.524-26.34
						c-10.872,3.775-76.919-29.397-112.32-21.234"/>
					<path fill="#2BA954" d="M291.642,312.341c0,0,32.053-12.614,36.869-30.44c11.817-43.741-5.726-27.741-19.71-39.006
						c-13.982-11.264-66.004,30.604-82.174,42.711c-16.172,12.104-11.176,11.398-28.288,25.343
						c-7.808,6.361-9.995,9.232-24.472,14.498c-24.545,8.928-42.101,20.145-46.393,24.881c-4.292,4.74-17.493,17.872-23.563,20.53
						c-6.068,2.655-13.458-2.865-17.46,6.532c-1.724,4.048,6.029,11.688-0.314,20.871c-14.943,21.634-14.943,25.446-14.943,25.446
						s4.572,9.273,17.831,3.715c8.863-3.716,11.503-11.702,16.105-23.156c2.356-5.861,5.298-7.775,9.897-14.177
						c7.774-10.816,38.289-16.156,38.289-16.156s31.424-22.573,39.222-22.177c7.798,0.397,15.328-0.147,23.054-8.678
						C223.317,334.55,264.495,336.481,291.642,312.341"/>
					<path fill="#2BA954" d="M333.444,114.832c0,0,30.211,10.44,29.525,35.907c-0.685,25.466,6.329,38.2-2.819,61.747
						c-9.59,24.683-30.211,60.267-41.78,71.174c-22.56,21.271-49.456,25.488-59.38,8.801c-6.85-11.516,16.466-57.656,30.257-100.142
						c6.193-19.077-0.873-33.882,6.219-50.897C315.422,93.553,338.331,108.296,333.444,114.832z"/>
					
						<ellipse transform="matrix(-0.9988 0.0482 -0.0482 -0.9988 415.0888 472.9772)" fill="#E5B957" cx="201.841" cy="241.494" rx="2.036" ry="4.584"/>
					
						<rect x="202.362" y="236.193" transform="matrix(0.9988 -0.0482 0.0482 0.9988 -11.2967 11.388)" fill="#2B2B2B" width="56.175" height="7.408"/>
					<path fill="#FECEA2" d="M235.85,211.473l8.857,6.139c0,0,1.079-2.086,3.56,4.465c2.481,6.552,5.07,4.873,5.262,5.413
						c0.191,0.539-0.748,5.574-2.173,6.689c-1.425,1.11-5.393,6.163-4.618,8.771c0.775,2.604-2.437,9.36-10.571,9.521
						c-8.135,0.162-18.482,0.504-20.955-5.597c-2.472-6.101,1.699-12.286,0.002-15.776c-1.697-3.496,7.801-13.548,7.801-13.548
						L235.85,211.473z"/>
					<path fill="#F9A883" d="M480.219,154.911l19.984,3.835c0,0-0.521,2.29,5.599-1.127c6.114-3.417,7.019-0.467,7.511-0.753
						c0.492-0.291,3.017-4.75,2.645-6.521c-0.375-1.77-0.161-8.189,2.11-9.687c2.271-1.494,4.159-8.733-1.964-14.094
						c-6.121-5.358-13.818-12.279-19.641-9.201c-5.818,3.076-7.588,9.141-11.133,10.721c-3.548,1.582-4.327,15.738-4.327,15.738
						L480.219,154.911z"/>
					<path fill="#19CC72" d="M487.217,127.088c0,0-1.854-0.169-2.433,8.457c-0.726,10.813-3.318,13.323-4.616,19.344
						c0,0-9.984,0.923-26.078-4.5c0,0,2.519-25.405,7.937-31.656C462.025,118.733,475.695,117.523,487.217,127.088z"/>
					<path fill="#2EEA93" d="M215.627,228.506c0,0,9.198-15.129,32.115-5.649c0,0-2.523-18.216-11.397-31.624
						c0,0-24.124,0.506-28.102,7.758C208.243,198.991,209.768,209.871,215.627,228.506z"/>
					<path fill="#19CC72" d="M356.96,347.224c0,0,17.25-7.307,34.639-9.67c0,0-1.548-22.402-12.045-33.105
						c0,0-6.791,3.255-11.193,7.252c-4.398,3.998-17.557,14.804-22.607,17.824C345.754,329.523,355.741,338.421,356.96,347.224z"/>
					<path fill="#2EEA93" d="M115.027,390.089c0,0,8.324-9.55,34.632-15.423c0,0-6.355-19.335-18.003-28.771
						c0,0-7.571,6.48-11.485,10.954c-3.917,4.475-13.277,11.002-17.951,14.576C102.22,371.426,112.813,381.483,115.027,390.089z"/>
					
						<ellipse transform="matrix(-0.9988 0.0484 -0.0484 -0.9988 524.9827 465.6094)" fill="#C6822A" cx="256.852" cy="239.163" rx="5.224" ry="17.215"/>
					<path fill="#7F7F7F" d="M256.791,232.596l272.046-13.132c0,0-2.822,12.636-30.808,13.985
						c-27.985,1.351-240.636,11.615-240.636,11.615l-1.348-6.187L256.791,232.596z"/>
					<path fill="#A8A8A8" d="M256.045,238.88l87.002-4.198l158.465-7.647c0,0,15.854-0.171,27.324-7.568l-185.948,8.976
						l-86.098,4.156L256.045,238.88z"/>
					
						<ellipse transform="matrix(-1 0.0069 -0.0069 -1 1045.0875 285.6227)" fill="#C6822A" cx="522.053" cy="144.606" rx="5.224" ry="17.215"/>
					<path fill="#A8A8A8" d="M522.321,151.161l272.354-1.859c0,0-3.515-12.459-31.531-12.269
						c-28.019,0.191-240.908,1.645-240.908,1.645l-1.006,6.249L522.321,151.161z"/>
					<path fill="#7F7F7F" d="M521.23,144.926l87.101-0.597l158.646-1.081c0,0,15.838-0.702,27.7,6.053l-186.163,1.271l-86.191,0.589
						L521.23,144.926z"/>
				</g>
			</g>
		</g>
	</g>
	<g id="Layer_49">
	</g>
</g>
</svg>
