<?xml version="1.0" encoding="utf-8"?>
<!-- Generator: Adobe Illustrator 16.0.0, SVG Export Plug-In . SVG Version: 6.00 Build 0)  -->
<!DOCTYPE svg PUBLIC "-//W3C//DTD SVG 1.1//EN" "http://www.w3.org/Graphics/SVG/1.1/DTD/svg11.dtd">
<svg version="1.1" xmlns="http://www.w3.org/2000/svg" xmlns:xlink="http://www.w3.org/1999/xlink" x="0px" y="0px"
	 width="850.394px" height="496.063px" viewBox="0 0 850.394 496.063" enable-background="new 0 0 850.394 496.063"
	 xml:space="preserve">
<g id="Layer_1" display="none">
	
		<image display="inline" overflow="visible" width="3684" height="3399" xlink:href="F808D770.jpg"  transform="matrix(0.9586 0 0 0.9586 -1694.9204 -536.8271)">
	</image>
</g>
<g id="Layer_27">
	<g id="Layer_34">
	</g>
	<g id="Layer_35">
		<path fill="#1C8439" d="M421.081,201.163c9.278-6.09,27.641-14.262,42.231-36.53c0,0,10.75-15.357,0-25.34
			c-10.75-9.981-29.946,13.821-29.946,13.821s-16.507,27.397-42.615,27.397s-56.844-45.689-56.844-45.689
			s-38.082,14.692-37.315,26.979c0.768,12.286,73.436,51.96,91.288,51.96C407.461,213.76,408.411,209.477,421.081,201.163z"/>
		<path fill="#2BA954" d="M415.536,183.414c9.278-6.09,27.642-14.262,42.231-36.53c0,0,10.749-15.356,0-25.34
			c-10.749-9.982-29.947,13.822-29.947,13.822s-16.506,27.396-42.614,27.396c-26.108,0-56.844-45.688-56.844-45.688
			s-38.082,14.691-37.314,26.979c0.767,12.286,73.436,51.959,91.288,51.959C401.916,196.01,402.866,191.728,415.536,183.414z"/>
	</g>
	<g id="Layer_36">
		<g id="Layer_9">
			<path fill="#2EEA93" d="M301.179,45.694c0,0-28.889,1.744-33.167,13.557c-4.279,11.812-30.897,16.198-40.025,19.004l9.214,2.962
				c0,0,34.421-7.862,35.706-15.344c1.283-7.482,26.592-11,26.592-11L301.179,45.694z"/>
			<path fill="#2BA954" d="M289.64,73.778c0,29.773,24.136,53.911,53.909,53.911c10.914,0,21.07-3.243,29.556-8.817
				c14.669-9.634,24.353-26.232,24.353-45.094c0-29.772-24.137-53.908-53.909-53.908C313.776,19.87,289.64,44.006,289.64,73.778z"/>
			<g>
				<g id="Laag_1_3_">
					<path id="XMLID_3_" fill="#FECEA2" d="M395.935,61.857c2.25,5.018,1.738,7.136,1.319,16.637
						c-0.598,13.593-5.214,20.805-7.781,23.523c-6.811,1.329-20.292,1.169-21.575,1.169c-16.479-0.05-22.647-16.579-15.394-30.345
						c7.401-14.062,28.651-10.984,43.009-10.984"/>
				</g>
			</g>
			<circle fill="#EFE8E3" cx="381.396" cy="81.217" r="14.118"/>
			<circle fill="#784F30" cx="381.396" cy="81.217" r="11.086"/>
			<circle fill="#020200" cx="381.396" cy="81.217" r="6.38"/>
			<ellipse fill="#EFE8E3" cx="387.409" cy="76.94" rx="5.074" ry="5.082"/>
		</g>
		<g id="Layer_37">
			<path fill="#2EEA93" d="M397.458,68.272c0,0-30.598-11.841-105.184-11.175c0,0,2.901-7.879,5.25-11.402
				c2.35-3.523,59.688-0.618,96.106,8.101C393.63,53.795,397.583,59.751,397.458,68.272z"/>
		</g>
	</g>
	<g id="Layer_38">
		<path fill="#2D2723" d="M397.775,82.022c0,0-10.942-12.045-35.648-20.3l7.192-7.2c0,0,21.998,11.711,31.346,21.31L397.775,82.022z
			"/>
	</g>
	<g id="Layer_40">
		<path fill="#2BA954" d="M323.009,110.793c0,0,14.397,28.795-4.031,46.646c-18.428,17.853-44.919,24.439-62.196,44.759
			c-17.277,20.317-3.456,38.881-33.402,47.739c-29.946,8.859-53.558-16.479-48.951-35.484
			c4.607-19.004,50.103-90.068,102.509-111.262S317.826,109.066,323.009,110.793z"/>
	</g>
	<g id="Layer_41">
		<path fill="#2BA954" d="M236.322,217.053c0,0-24.332-20.723-40.615-11.739c-16.283,8.983-26.093,11.111-26.745,29.184
			c-0.653,18.072,64.492,34.786,84.009,40.53c19.517,5.742,26.485,1.412,37.503,7.533c11.016,6.12-2.605,6.187,18.916,21.319
			c21.521,15.132,41.639,21.813,48.049,22.419c6.41,0.604,24.964,3.333,30.77,6.626s13.67,17.221,20.115,9.942
			c6.445-7.277,33.926-41.561,33.926-41.561s-3.715-13.213-15.904-5.402c-12.19,7.81-15.914,16.201-29.326,16.455
			c-13.413,0.255-36.12-21.143-36.12-21.143s-26.343-11.242-30.725-17.771c-4.381-6.528-12.648-23.089-24.186-24.178
			c-11.54-1.089-34.814-35.47-70.66-42.811"/>
		<path fill="#2BA954" d="M212.175,261.014c0,0,19.205-25.549,9.247-41.255c-9.957-15.707-12.678-25.369-30.756-24.921
			c-18.078,0.447-30.799,66.489-35.344,86.318c-4.546,19.831,4.577,29.989-5.239,37.892c-7.903,6.361-6.751,2.025-22.264,2.095
			c-26.306,0.115-46.762,4.78-52.442,7.813c-5.68,3.032-22.66,10.995-29.319,11.45c-6.656,0.455-20.901-6.819-22.26,2.807
			c-1.361,9.624-5.364,53.38-5.364,53.38s10.387,8.97,16.247-4.27c5.855-13.238,4.333-22.293,15.376-29.904
			c11.048-7.611,41.792-2.296,41.792-2.296s49.217-10.612,56.475-7.584c7.257,3.027,35.551-8.447,35.936-20.031
			c0.385-11.583,33.286-36.906,38.432-73.132"/>
	</g>
	<g id="Layer_42">
		<path fill="#F9A883" d="M466.407,146.116c0,0-5.902-13.942-18.368-19.348c-9.643-4.183,19.223-19.291,19.342-20.155
			c0.117-0.863,36.687,0,43.021,7.487c6.336,7.486,9.807,14.477,9.807,14.477s1.149,16.046-7.928,14.605
			c-9.076-1.439-7.061-11.806-7.061-11.806s-8.351-9.214-12.383-4.606c-4.03,4.606-9.112,7.024-3.979,8.12
			c5.132,1.094,8.3-2.167,8.3-2.167s7.773,1.533,2.591,7.292S485.855,152.616,466.407,146.116z"/>
		<path fill="#FECEA2" d="M460.767,137.598c0,0-24.734-9.11-19.674-18.322c5.062-9.213,19.223-19.291,19.341-20.154
			c0.117-0.864,36.687,0,43.022,7.486c6.335,7.486,9.806,14.477,9.806,14.477s1.149,16.046-7.928,14.606
			c-9.077-1.44-7.062-11.807-7.062-11.807s-8.351-9.214-12.382-4.606c-4.031,4.606-9.113,7.025-3.98,8.12
			c5.133,1.094,8.3-2.167,8.3-2.167s7.775,1.532,2.592,7.292C487.619,138.282,480.214,144.099,460.767,137.598z"/>
	</g>
	<g id="Layer_28">
		<circle fill="#001406" cx="770.092" cy="425.299" r="19.511"/>
	</g>
	<g id="Layer_29">
		<circle fill="#FF1200" cx="770.09" cy="425.299" r="15.421"/>
	</g>
	<g id="Layer_30">
		<path fill="#666666" d="M763.482,422.152c0,0,7.909-16.679,5.529-22.972v-4.721h4.961v-3.357h-4.511v-4.616h28.113v4.616h-7.972
			v3.357h8.497l-22.03,33.358c0,0-4.805,5.858-9.756,2.832C760.65,427.187,763.482,422.152,763.482,422.152z"/>
		<circle fill="#001406" cx="553.996" cy="425.299" r="19.511"/>
		<circle fill="#FF1200" cx="553.997" cy="425.299" r="15.421"/>
		<path fill="#666666" d="M559.976,427.818c0,0-4.806,5.858-9.757,2.832c-5.665-3.463-2.833-8.498-2.833-8.498
			s7.91-16.679,5.528-22.972v-4.721h29.09L559.976,427.818z"/>
		<rect x="557.877" y="390.472" fill="#666666" width="15.629" height="5.979"/>
		<rect x="553.367" y="386.486" fill="#666666" width="28.113" height="4.616"/>
	</g>
	<g id="Layer_31">
		<path fill="#666666" d="M723.392,344.868c17.891,2.627,35.625,6.876,50.213,17.597c0.371-0.089,1.703,0.786,2.099,0.786
			l1.626,0.683c2.745,0,5.035,2.29,5.035,5.036c0,1.24-0.471,2.386-1.237,3.271c4.094,5.424,6.159,12.224,6.902,19.071
			c0.296,2.736-2.515,5.036-5.035,5.036c-2.97,0-4.739-2.308-5.037-5.036c-0.56-5.174-2.616-12.148-6.946-15.479
			c-1.284-0.987-2.208-2.312-2.437-3.765c-6.631-4.841-14.39-8.243-22.048-10.989c-9.317-3.343-19.141-5.823-28.99-6.9
			c-1.328-0.146-2.219-0.165-4.093-0.822c-12.761-1.77-18.07-3.015-27.291-4.92c-10.813-2.234-21.691-3.942-32.553-5.904
			c-20.193-3.651-41.028-8.127-61.585-5.297c-1.304,1.197-2.965,1.498-4.491,1.178c-0.222,0.206-0.504,0.45-0.505,0.451
			c-0.192,0.197-0.298,0.298-0.354,0.346c-0.044,0.072-0.132,0.205-0.306,0.444c-1.318,1.828-2.362,3.931-3.222,6.009
			c-1.973,4.768-3.349,9.766-4.796,14.71c-1.332,4.558-3.169,8.93-4.659,13.435c-1.464,4.432-3.913,11.187-1.28,15.593
			c3.336,5.59-5.371,10.651-8.696,5.084c-6.871-11.508,1.783-26.043,5.095-37.366c1.721-5.883,3.494-11.709,5.984-17.321
			c0.837-1.887,1.872-3.864,3.145-5.662c-0.276-1.091-0.152-2.322,0.567-3.584c3.412-5.978,8.994-13.172,15.556-15.813
			c5.338-2.149,11.338-1.836,17.083-1.09c1.503-0.844,3.229,0.15,5.092-0.008c15.801-1.341,30.502-6.879,50.486-5.112
			c1.771,0.156,13.526,23.903,14.001,25.206c3.702,0.42,0,0,3.636,0.752c0.457,0.031,0.913,0.053,1.368,0.088"/>
	</g>
	<g id="Layer_32">
		
			<rect x="559.35" y="145.531" transform="matrix(-0.9146 0.4043 -0.4043 -0.9146 1175.9844 223.9753)" fill="#666666" width="9.984" height="181.266"/>
		<polygon fill="#666666" points="566.42,174.292 571.185,174.75 628.584,332.364 625.197,333.253 		"/>
		<polygon fill="#666666" points="592.67,179.033 596.114,178.291 636.954,313.447 633.51,314.187 		"/>
		<polygon fill="#666666" points="615.056,181.692 618.538,181.041 651.431,312.034 647.953,312.684 		"/>
		<polygon fill="#666666" points="532.655,172.635 533.168,169.594 836.931,207.815 836.416,210.857 		"/>
		<polygon fill="#666666" points="603.17,316.484 602.785,313.427 813.769,293.617 814.153,296.672 		"/>
		<polygon fill="#666666" points="833.463,207.927 836.931,208.628 812.94,296.964 809.474,296.262 		"/>
		<polygon fill="#666666" points="704.101,191.728 707.66,191.81 704.063,306.667 700.504,306.583 		"/>
		<polygon fill="#666666" points="745.297,197.666 748.831,198.045 733.563,303.724 730.029,303.344 		"/>
		<polygon fill="#666666" points="725.025,196.01 728.572,196.271 717.958,303.866 714.41,303.605 		"/>
		<polygon fill="#666666" points="786.608,202.199 790.123,202.687 771.859,300.481 768.346,299.992 		"/>
		<polygon fill="#666666" points="765.875,201.184 769.4,201.611 753.125,301.519 749.599,301.092 		"/>
		<polygon fill="#666666" points="810.661,205.875 814.153,206.476 793.112,297.566 789.62,296.965 		"/>
		<polygon fill="#666666" points="681.595,190.306 685.153,190.219 689.016,308.112 685.458,308.199 		"/>
		<polygon fill="#666666" points="660.34,186.15 663.888,185.895 675.729,309.088 672.18,309.341 		"/>
		<polygon fill="#666666" points="640.109,183.792 643.642,183.414 663.241,319.649 659.707,320.027 		"/>
		<polygon fill="#666666" points="823.204,252.517 822.902,255.58 565.075,236.605 565.376,233.542 		"/>
		<polygon fill="#666666" points="828.895,229.877 828.503,232.933 551.66,206.481 552.052,203.426 		"/>
		<polygon fill="#666666" points="818.185,273.05 818.167,276.124 582.752,274.951 582.774,271.876 		"/>
	</g>
	<g id="Layer_33">
		<path fill="#FF1200" d="M526.423,162.761c0,0-1.031-1.182-3.303-3.698c-2.272-2.518-2.901-14.477-10.875-22.03
			c0,0-13.216-10.908-29.371-6.923c0,0-2.728-1.258-3.146-5.455c-0.421-4.195,3.146-7.132,11.117-7.552
			c7.974-0.42,27.935,3.356,35.578,17.413c7.642,14.057,9.84,17.481,8.322,22.378C533.225,161.791,526.423,162.761,526.423,162.761z
			"/>
	</g>
	<g id="Layer_43">
		<path fill="#19CC72" d="M468.09,146.429c0,0-1.783-5.312-6.399-8.713c-0.491-0.362-10.077-2.895-15.107-6.525
			c0,0-14.536,13.104-23.785,26.396c0,0,22.347,18.299,30.614,19.326C453.413,176.913,471.877,159.276,468.09,146.429z"/>
		<path fill="#2EEA93" d="M461.918,137.598c0,0-18.996-7.702-21.507-15.237c0,0-14.537,13.104-23.785,26.395
			c0,0,11.074,20.453,19.34,21.479C435.966,170.235,459.446,158.932,461.918,137.598z"/>
		<path fill="#2EEA93" d="M391.407,311.46c0,0-16.945-8.304-30.217-19.974c0,0-16.024,15.965-17.24,31.015
			c0,0,6.958,3.021,12.904,3.729c5.946,0.708,22.85,3.586,28.48,5.438C385.333,331.668,385.514,318.196,391.407,311.46z"/>
		<path fill="#2EEA93" d="M50.055,362.419c0,0,11.139-6.225,38.077-2.845c0,0,0.549-20.49-7.286-33.397
			c0,0-9.379,3.569-14.613,6.479c-5.235,2.91-16.326,5.917-21.974,7.716C44.259,340.372,50.883,353.508,50.055,362.419z"/>
	</g>
</g>
<g id="Layer_39">
</g>
<g id="Layer_17" display="none">
	<g id="Layer_23" display="inline">
		<path fill="#2BA954" d="M339.559,76.333l134.542,1.959c0,0,20.907,39.519,7.433,84.019c0,0-15.949,57.5-16.212,59.5
			s-2.763,22-9.263,30c0,0-6.236,44-4.368,65.5c0,0,12.714,20,1.541,20.5s-32.773,4.5-34.973-4.5s-3.194-50.5-3.194-50.5
			s-9.036,43-9.521,52.5s-9.225,10-20.105,7s-21.755-14.5-21.755-14.5s6.839-55-3.393-68.5c0,0-5.595-17.5-7.164-28
			c0,0-4.188-18-7.628-27C345.499,204.311,315.559,152.856,339.559,76.333z"/>
		<path fill="#3B3B3B" d="M73.559,127.811"/>
		<path fill="#2BA954" d="M418.259,325.811c0,0,27.564,9.667,33.432-8.5l13.631,21.167c0,0,6.428,8.666,18.999,14.666
			c0,0,11.419,5.334,9.995,12.667s-35.701,12-35.701,12l-40.356-26.667C418.259,351.144,416.958,346.478,418.259,325.811z"/>
		<path fill="#3B3B3B" d="M554.226,245.144"/>
		<path fill="#2BA954" d="M406.712,326.255c0,0-35.581,13.39-41.449-4.777l-13.631,21.167c0,0-6.428,8.666-18.999,14.666
			c0,0-11.419,5.334-9.995,12.667s35.701,12,35.701,12l47.887-27C406.226,354.978,408.012,346.922,406.712,326.255z"/>
	</g>
	<g id="Layer_24" display="inline">
		<path fill="#15823C" d="M380.226,117.81c0,0,10.516,14,27.924,18c0,0,24.077-6,28.743-18c0,0-1,23-20.123,29l-1.706,130.668
			l-11.69-130.335C403.375,147.143,380.893,132.477,380.226,117.81z"/>
	</g>
	<g id="Layer_25" display="inline">
		<path fill="#2EEA93" d="M418.259,325.811c0,0,26.564,10.25,33.432-8.5c0,0-0.577-20.358,1.084-36.503
			c0,0-24.456,16.761-37.586,6.507C415.189,287.315,413.708,317.311,418.259,325.811z"/>
		<path fill="#2EEA93" d="M406.712,326.255c0,0-36.153,13.806-42.238-5.952c0,0,2.507-26.681,0.846-42.825
			c0,0,35.52,20.87,48.65,10.616C413.97,288.094,411.262,317.755,406.712,326.255z"/>
	</g>
	<g id="Layer_18" display="inline">
		<path fill="#3B3B3B" d="M445.559-111.689c0,0,12,21.5,10,32s58.883,31.22,56,70.5c-5.333,72.667-50.556,79.894-74,91
			c-13.018,6.167-70.123-1-70.123-1s-51.377-4-48.877-19s3.129-79.5,25.314-117.5s23.563-30.352,23.563-30.352
			s-14.255-23.148-5.316-30.148S445.559-111.689,445.559-111.689z"/>
	</g>
	<g id="Layer_16" display="inline">
		
			<image overflow="visible" width="1000" height="436" xlink:href="logo_licht.png"  transform="matrix(0.1448 0 0 0.1448 339.5562 -44.1919)">
		</image>
	</g>
	<g id="Layer_19" display="inline">
		<path fill="#2BA954" d="M457.559-114.855c0,0,61.667,18.333,76.667,37.333s11.333,31,11.333,31s9.001,6,9.667,20.333
			s8.666,37,8.666,37s-55.999,38.667-62.666,47s-6.334,18.667-6.334,18.667l-65.642,7.256c0,0,59.642-16.923,61.625-50.256
			c1.149-19.311,23.684-58.667-17.983-87.667c-12.861-8.952-19.66-24-19.66-24s-0.633-15.667-5.819-24
			S457.559-114.855,457.559-114.855z"/>
	</g>
	<g id="Layer_21" display="inline">
		<path fill="#2BA954" d="M371.893-86.041c0,0-10,1.518-29.667,38.518l-9,23c0,0-5.667,69.334,0,82.667c0,0,5.333,6.333,4,10
			L355.422,79.4h-17.197l-32.667-8.534c0,0-6.333-3.722-6.667-10.055s13.333-69.326,16-78.996l-0.333-11.004l-9.667,16.558
			c0,0-7,18.108-9,27.108v17.667c0,0,0,21.333-8.667,27.667c0,0-22-5-25.667-14.667c0,0-0.667-12.333-6.333-13
			c0,0-11.333-28.334-9-38.667c0,0,20.667-40.667,30.333-48.667c0,0,12.667-8.333,11.333-12.333c0,0,52.333-33.333,62-38
			S367.56-96.559,371.893-86.041z"/>
	</g>
	<g id="Layer_22" display="inline">
		<path fill="#15823C" d="M522.305-24.73c-0.792-3.226-1.623-6.443-2.588-9.627c-2.093-6.905-4.997-14.058-9.633-19.669
			c-5.151-6.234-14.66-11.155-16.525-19.413c-0.426-1.887-1.122-1.485-0.696,0.399c1.462,6.472,5.985,11.264,10.425,15.941
			c6.201,6.533,10.188,13.499,13.06,22.043c0.721,2.143,1.355,4.313,1.947,6.495c-0.886-0.211-1.88,0.237-1.735,1.372
			c0.332,2.616,1.586,4.11,3.304,4.808c0.821,3.415,1.601,6.841,2.452,10.238c2.295,9.157,4.883,17.646,4.994,27.204
			c0.022,1.933,3.022,1.936,3,0C530.208,6.34,528.303-1.6,525.99-9.955c-1.096-3.958-2.036-7.956-2.997-11.947"/>
		<path fill="#15823C" d="M525.755,15.662c-2.352-9.953-5.154-19.766-8.888-29.295c-3.484-8.894-8.265-17.24-12.647-25.708
			c-4.628-8.943-11.806-16.457-16.881-25.186c-2.659-4.572-5.643-8.953-8.677-13.282c-2.875-4.102-8.729-7.003-10.729-11.629
			c-0.766-1.772-1.179-0.999-0.42,0.757c1.792,4.147,4.93,7.31,7.533,10.943c2.74,3.823,5.366,7.723,7.87,11.704
			c5.41,8.6,11.548,16.65,17.008,25.192c2.504,3.917,4.288,8.299,6.476,12.394c2.744,5.14,5.375,10.2,7.574,15.613
			c3.844,9.461,6.543,19.373,8.888,29.296C523.307,18.342,526.2,17.543,525.755,15.662z"/>
		<path fill="#15823C" d="M346.264-57.946c-2.166,4.22-5.037,8.297-4.705,13.257c0.003,0.053,0.017,0.1,0.025,0.15
			c-0.637-0.335-1.435-0.254-1.82,0.593c-2.954,6.5-4.949,13.239-6.409,20.221c-1.073,5.132-2.822,11.443-1.742,16.685
			c0.107,0.521,0.407,0.832,0.773,0.978c-1.208,4.364-2.085,8.807-2.805,13.314c-0.5,3.132-0.895,6.283-1.303,9.429
			c-0.547,4.213-0.31,8.575-1.166,12.731c-0.389,1.888,2.502,2.692,2.893,0.798c1.358-6.598,1.243-13.659,2.199-20.363
			c1.103-7.731,2.721-15.343,5.551-22.637c0.701-1.806-2.201-2.581-2.893-0.798c-0.219,0.564-0.419,1.131-0.623,1.699
			c0.19-4.277,1.576-8.971,2.364-12.742c1.281-6.127,3.16-12.101,5.75-17.801c0.152-0.335,0.179-0.661,0.119-0.958
			c0.915,0.393,2.171-0.033,2.086-1.299c-0.294-4.391,2.378-8.008,4.295-11.743C349.736-58.149,347.147-59.667,346.264-57.946z"/>
		<path fill="#15823C" d="M344.363-64.588c-3.05,8.104-9.378,15.065-13.982,22.33c-4.347,6.858-7.696,14.494-8.569,22.63
			c-1.061,9.879,0.271,19.707,0.696,29.582c0.47,10.919-0.417,21.929-0.448,32.857c-0.006,1.935,2.994,1.935,3,0
			c0.028-9.68,0.416-19.354,0.494-29.034c0.081-9.935-1.532-19.786-1.077-29.732c0.468-10.204,4.739-19.064,10.215-27.466
			c4.315-6.621,7.756-12.909,10.563-20.369C345.938-65.604,345.038-66.381,344.363-64.588z"/>
		<path fill="#15823C" d="M371.893-83.486c0.269-0.83,0.539-1.637,0.703-2.488c0.08-0.294,0.13-0.588,0.13-0.881
			c0-0.835-0.519-1.301-1.125-1.417c-0.083-0.329-0.269-0.642-0.618-0.879c-1.274-0.866-3.677-4.712-4.438-7.265
			c-0.103-0.687-0.16-1.387-0.153-2.107c0.017-1.672-2.579-2.073-2.946-0.399c-0.029,0.132-0.032,0.267-0.047,0.4
			c-0.002,0-0.004,0-0.006-0.001c0,0.014,0.001,0.027,0.001,0.042c-0.055,0.511-0.023,1.027,0.078,1.544
			c0.458,4.688,3.041,8.529,4.914,12.764c-0.364,0.67-0.739,1.335-1.132,1.989c-0.162,0.27-0.497,0.856-0.912,1.508
			c-0.529-0.41-1.271-0.484-1.843,0.176c-3.215,3.709-6.424,7.423-9.5,11.25c-1.2,1.492,0.909,3.629,2.121,2.121
			c2.157-2.684,4.387-5.306,6.632-7.916c2.195-0.179,3.736-2.211,4.987-3.938c0.411-0.567,0.789-1.158,1.152-1.759
			c1.01,1.017,2.898-0.132,2.449-1.513C372.204-82.669,372.052-83.079,371.893-83.486z"/>
		<path fill="#15823C" d="M468.188-58.613c-3.714-5.756-6.198-9.812-10.706-14.883c-3.18-3.577-3.185-7.629-3.81-12.092
			c-0.642-4.587-4.622-10.76-5.072-15.407c-0.185-1.908-0.728-1.12-0.541,0.806c0.416,4.292,1.365,9.453,2.333,13.649
			c0.795,3.446,0.376,7.936,2.147,11.134c3.985,7.195,11.613,11.418,16.059,18.308C469.643-55.479,469.241-56.981,468.188-58.613z"
			/>
		<path fill="#15823C" d="M492.135,47.849c-11.022,7.722-20.634,17.199-31.333,25.334c-1.519,1.154-0.027,0.762,1.514-0.41
			c10.698-8.133,20.316-14.615,31.333-22.333C495.221,49.339,493.724,46.736,492.135,47.849z"/>
		<path fill="#15823C" d="M504.499,44.75c-6.862,8.724-15.253,15.903-24,22.667c-1.528,1.182-1.389,2.289,0.121,1.121
			c8.747-6.764,19.138-12.943,26-21.667C507.801,45.369,505.694,43.23,504.499,44.75z"/>
		<path fill="#15823C" d="M500.005-23.921c-0.706-1.775-0.608-1.002,0.107,0.798c4.668,11.74,6.522,24.345,6.613,36.934
			c0.014,1.934,3.014,1.935,3,0C509.633,0.98,504.764-11.953,500.005-23.921z"/>
		<path fill="#15823C" d="M294.354,14.554c-3.307-6.792-10.464-11.06-15-17c-1.158-1.516-1.765-1.024-0.591,0.514
			c4.525,5.927,9.703,11.228,13,18C292.611,17.807,295.198,16.286,294.354,14.554z"/>
		<path fill="#15823C" d="M287.62-13.25c-1.246-1.483-1.357-0.35-0.121,1.121c5.134,6.111,7.333,11.928,6.561,19.939
			c-0.186,1.926,2.816,1.908,3,0C297.911-1.022,293.26-6.536,287.62-13.25z"/>
		<path fill="#15823C" d="M294.458,18.365c-6.565-2.477-14.294-2.447-21-4.5c-1.855-0.568-1.642,0.328,0.202,0.893
			c6.706,2.054,13.435,4.023,20,6.5C295.474,21.942,296.25,19.041,294.458,18.365z"/>
		<path fill="#15823C" d="M315.354-58.432c1.172-1.54,0.565-2.032-0.591-0.514c-5.358,7.039-13.121,18.461-8.208,27.204
			c-0.131,0.038-0.265,0.066-0.396,0.106c-1.842,0.569-1.056,3.466,0.798,2.893c0.507-0.157,1.023-0.281,1.542-0.385
			c0.756,0.796,1.762,0.458,2.251-0.24c1.393-0.005,2.77,0.27,4.052,0.974c1.696,0.932,3.209-1.659,1.514-2.591
			c-2.052-1.127-4.312-1.495-6.57-1.332C304.219-39.96,310.655-52.259,315.354-58.432z"/>
	</g>
	<g id="Layer_26" display="inline">
		<path fill="#2EEA93" d="M536.394,37.478l19.165-19.944c0,0,3-17.675-8-22.366c0,0-14.41-4.976-20.205,0
			s-8.461,20.049-8.461,20.049L536.394,37.478"/>
		<path fill="#2EEA93" d="M301.226,26.811l-7.565-5.554c0,0-16.77-5.565-25.101,5.554s-6.44,15.542-6.387,19.604
			s24.153,17.375,24.153,17.375L301.226,26.811z"/>
	</g>
	<g id="Layer_20" display="inline">
		<path fill="#F9A883" d="M525.559,46.811c0,0-34.233,7.089-43.245,2.423c0,0,0,0-0.711-14.211s4.289-25.545,4.289-25.545
			s11.255-1.667,25.961,0c0,0,0.039-7.667-4.961-8.667c0,0-4.999,2.333-12.666,3c0,0-7,2-7-1.333s2.36-5.6,6.347-7.966
			s7.319-3.367,7.319-3.367s4.334-2.667,10.667-0.333s4.334,6,9.667,6.333s13.666,4.333,13.666,4.333s11.001,15.334,5.334,28.667
			S528.25,45.483,525.559,46.811z"/>
		<path fill="#F9A883" d="M289.413,66.689c0,0,44.958,10.247,47.813,1.455c0,0,4.771-1.396,2.333-11.333
			c-3.39-13.82-1.887-15.386-1.887-15.386s-3.571-4.02-16.28-8.447c0,0-2.75-5.384,2.333-5c0,0,2.846,4.32,10.05,7.027
			c0,0,3.599,2.528,4.497-0.681c0.898-3.21-0.764-6.029-3.966-9.382c-3.201-3.353-5.915-7.631-5.915-7.631s-1.439-3.541-8.167-3
			c-6.728,0.541-7.181,5.583-12.333,7c-6.667,1.833-16.167,5.833-16.167,5.833s-13.812,5.177-11.947,19.543
			S287.179,64.686,289.413,66.689z"/>
	</g>
	<g id="Layer_5" display="inline">
		<path fill="#2EEA93" d="M465.322-201.724c0,0,28.572,7.497,34.608,24.164c6.036,16.667,3.622,30.883,16.5,34.841h-12.073
			c0,0-11.671-17.184-13.481-27.74c-1.812-10.556-23.182-18.315-23.182-18.315L465.322-201.724z"/>
		<path fill="#2BA954" d="M481.603-162.1c0,42.006-34.053,76.06-76.059,76.06c-15.397,0-29.726-4.576-41.701-12.44
			c-20.694-13.593-34.358-37.01-34.358-63.619c0-42.006,34.053-76.059,76.059-76.059S481.603-204.106,481.603-162.1z"/>
		<g>
			<g id="Laag_1_1_">
				<path id="XMLID_1_" fill="#FECEA2" d="M462.975-185.531c-10.442-19.839-37.173-26.871-57.43-26.871
					c-20.258,0-46.99,7.031-57.432,26.871c-10.233,19.422-1.532,42.812,21.649,42.812c1.811,0,13.783-1.253,23.32-3.132
					c8.214-1.601,16.638-1.601,24.853,0c9.606,1.879,21.51,3.132,23.32,3.132C464.506-142.789,473.208-166.109,462.975-185.531z"/>
			</g>
		</g>
		<circle fill="#EFE8E3" cx="431.772" cy="-171.524" r="19.919"/>
		<circle fill="#EFE8E3" cx="376.438" cy="-172.118" r="19.919"/>
		<circle fill="#784F30" cx="431.771" cy="-171.524" r="15.641"/>
		<circle fill="#784F30" cx="376.438" cy="-172.27" r="16.147"/>
		<circle fill="#020200" cx="431.771" cy="-171.524" r="9.001"/>
		<circle fill="#020200" cx="376.438" cy="-172.118" r="9.001"/>
		<ellipse fill="#EFE8E3" cx="369.279" cy="-179.658" rx="7.159" ry="7.171"/>
		<ellipse fill="#EFE8E3" cx="425.418" cy="-179.995" rx="7.159" ry="7.171"/>
		<path fill="#2EEA93" d="M331.525-179.658c0,0,49.725-39.509,145.686-7.958c0,0-1.85-15.54-9.997-19.003
			c-62.846-26.712-124.054,1.005-124.054,1.005S333.183-189.547,331.525-179.658z"/>
		<path fill="#2D2723" d="M406.984-188.417l4.869,7.297c0,0,29.507-17.919,41.379-19.143l-12.073-10.678
			C441.159-210.94,410.002-193.202,406.984-188.417z"/>
		<path fill="#2D2723" d="M399.375-187.74l-4.868,7.297c0,0-29.507-17.919-41.379-19.142l12.072-10.678
			C365.2-210.263,396.357-192.524,399.375-187.74z"/>
	</g>
</g>
<g id="Layer_10" display="none">
	<g id="Layer_12" display="inline">
		<path fill="#2EEA93" d="M530.226-168.829c0,0,47.333,12.419,57.333,40.029s6.001,51.161,27.334,57.719h-20
			c0,0-19.334-28.468-22.334-45.955s-38.403-30.34-38.403-30.34L530.226-168.829z"/>
	</g>
	<g id="Layer_2" display="inline">
		<path fill="#2BA954" d="M557.198-103.188c0,69.588-56.412,126-126,126c-25.507,0-49.244-7.579-69.082-20.608
			c-34.282-22.518-56.918-61.312-56.918-105.392c0-69.588,56.412-126,126-126S557.198-172.775,557.198-103.188z"/>
		<path fill="#2BA954" d="M339.154,133.899c10.405,55.912,38.257,86.411,47.998,97.495s71.33,9.667,80.074,3.084
			s60.918-67.58,63.918-100.579s8.096-122.961-3.918-135.421c-9-9.333-23.333-23.011-23.333-23.011l-147.237,9.941
			C356.656-14.591,331.104,90.647,339.154,133.899z"/>
	</g>
	<g id="Layer_11" display="inline">
		<path fill="#2BA954" d="M510.198-16.189c0,0,94.361,99,148.361-6l54,7c0,0-26,110.422-83,117.711s-140-45.711-140-45.711
			L510.198-16.189z"/>
		<path fill="#2BA954" d="M362.813-11.189c0,0-90.361,100-144.361-5l-54,7c0,0,22,104.422,79,111.711s140-40.711,140-40.711
			L362.813-11.189z"/>
		<path fill="#2BA954" d="M507.645,174.397c0,0,59.498,67.496,75.997,104.994s38.997,73.496,46.497,119.994
			c0,0,9.351,6,35.424,28.499c0,0-9.924,23.999-57.922,16.499l-50.443-35.998v-22.499c0,0-56.229-107.91-89.972-151.408
			S507.645,174.397,507.645,174.397z"/>
	</g>
	<g id="Layer_14" display="inline">
		<path fill="#2EEA93" d="M647.84-22.445c0,0-4.781,32.506-26.51,45.158c0,0,60.671-11.093,63.673,32.989
			c0.094,1.376,35.806-62.89,27.556-84.146C707.822-40.65,647.84-22.445,647.84-22.445"/>
		<path fill="#2EEA93" d="M222.912-25.553c0,0,4.781,32.506,26.51,45.158c0,0-56.671-5.093-59.673,38.989
			c-0.094,1.376-35.806-62.891-27.556-84.147C166.931-37.758,222.912-25.553,222.912-25.553"/>
		<path fill="#2EEA93" d="M557.198,385.886c0,0,42.546-14.401,71.12,3.762c0,0-14.834-59.483-25.13-68.993
			c0,0-52.075-2.224-72.186,16.8L557.198,385.886z"/>
		<path fill="#2BA954" d="M359.547,180.856c0,0-59.498,67.496-75.997,104.994s-38.997,73.496-46.497,119.994
			c0,0-9.351,6-35.424,28.499c0,0,9.924,23.999,57.922,16.499l50.443-35.998v-22.499c0,0,56.229-107.91,89.972-151.408
			C433.708,197.439,359.547,180.856,359.547,180.856z"/>
		<path fill="#2EEA93" d="M309.994,392.345c0,0-42.546-14.401-71.12,3.762c0,0,14.834-59.483,25.13-68.993
			c0,0,52.075-2.224,72.186,16.8L309.994,392.345z"/>
	</g>
	<g id="Layer_15" display="inline">
	</g>
	<g id="Layer_13" display="inline">
		<path fill="#FECEA2" d="M103.584-81.189c0,0-14.692,45.333,34.641,65s32.143,15.667,32.143,15.667s46.298-0.333,47.191-8
			s19.333-40.667,16-56"/>
		<path fill="#FECEA2" d="M656.561-18.428c0,0-19.807-23.929-19.002-44.761s7.486-41.596,7.486-41.596l67.514-9.478
			c0,0,27,30.074,27,34.074s5,22.409-7,38.205s-27,35.796-27,35.796S661.183-8.637,656.561-18.428z"/>
	</g>
	<g id="Layer_3" display="inline">
		<g>
			<g id="Laag_7_1_" display="none">
				<path display="inline" opacity="0.1" enable-background="new    " d="M653.753,511.738l-11.507-1.569c0,0,0-2.441-0.872-5.058
					c-1.746-7.147-3.66-12.554-6.625-19.184c-0.872-2.267-1.917-4.359-2.615-5.929l0,0l0,0l9.418-10.985l-25.115-35.052
					l-16.041,7.151c-19.529-15.698-42.199-21.104-69.232-21.104c-63.301,0-114.569,51.271-114.569,114.572
					c0,63.304,51.27,114.572,114.569,114.572c1.223,0,2.442,0,3.838-0.176l8.896,16.393l38.362-12.033l-2.789-14.994
					c10.112-4.708,17.612-9.766,25.808-16.914l10.986,4.882l24.238-31.738l-7.846-9.242c2.266-5.058,10.81-27.202,11.508-31.39
					l9.938-2.087v-40.109h-0.349V511.738L653.753,511.738z M630.04,476.513L630.04,476.513L630.04,476.513z M631.957,479.826
					C631.783,479.826,631.783,479.826,631.957,479.826C631.783,479.826,631.783,479.826,631.957,479.826z M631.783,479.477
					C631.607,479.477,631.607,479.477,631.783,479.477C631.607,479.477,631.607,479.477,631.783,479.477z M631.432,479.128
					C631.432,479.128,631.432,478.953,631.432,479.128C631.432,478.953,631.432,479.128,631.432,479.128z M631.26,478.78
					c0-0.174-0.176-0.174-0.176-0.35C631.26,478.603,631.26,478.78,631.26,478.78z M630.911,478.082L630.911,478.082
					L630.911,478.082z M630.736,477.906c0-0.17-0.173-0.17-0.173-0.35C630.736,477.733,630.736,477.733,630.736,477.906z
					 M630.561,477.208l-0.171-0.173C630.39,477.208,630.39,477.208,630.561,477.208z M630.39,477.035
					C630.39,476.862,630.21,476.862,630.39,477.035C630.21,476.862,630.39,476.862,630.39,477.035z M630.21,476.686L630.21,476.686
					L630.21,476.686z"/>
			</g>
			<g id="Laag_8_1_">
			</g>
			<g id="Laag_21_1_">
			</g>
			<g id="Laag_20_1_">
			</g>
			<g id="Laag_15_1_">
			</g>
			<g id="Laag_19_1_">
			</g>
			<g id="Laag_4_1_">
			</g>
			<g id="Laag_2_1_">
			</g>
			<g id="Laag_12_1_">
			</g>
			<g id="Laag_11_1_">
			</g>
			<g id="Laag_10_1_" display="none">
				<g display="inline">
					<g>
						<g>
							<g>
								<defs>
									<ellipse id="SVGID_1_" cx="520.701" cy="-94.946" rx="134.619" ry="137.763"/>
								</defs>
								<clipPath id="SVGID_2_">
									<use xlink:href="#SVGID_1_"  overflow="visible"/>
								</clipPath>
								<path opacity="0.1" clip-path="url(#SVGID_2_)" enable-background="new    " d="M955.436,349.386l-0.692-0.698l0,0
									l-0.697-0.694l0,0l-0.694-0.698l0,0l-0.698-0.694l0,0l-0.694-0.698l0,0l-0.695-0.697l0,0l-1.047-1.22l0,0l-0.697-0.698l0,0
									l-0.698-0.694l0,0l-0.697-0.698l0,0l-0.692-0.694l0,0l-0.697-0.698l0,0l-0.695-0.694l0,0l-0.697-0.698l0,0l-0.695-0.697l0,0
									l-0.694-0.695l0,0l-0.698-0.697l0,0l-0.697-0.695l0,0l-0.698-0.697l0,0l-0.691-0.695l0,0l-0.698-0.697l0,0l-0.694-0.698l0,0
									l-0.698-0.694l0,0l-0.694-0.698l0,0l-0.698-0.694l0,0l-0.697-0.698l0,0l-0.695-0.697l0,0l-0.697-0.695l0,0l-0.691-0.697l0,0
									l-0.698-0.695l0,0l-0.697-0.697l0,0l-0.695-0.695l0,0l-0.716-0.719l0,0l-0.698-0.698l0,0l-0.698-0.694l0,0l-0.694-0.698l0,0
									l-0.694-0.694l0,0l-0.695-0.698l0,0l-0.697-0.697l0,0l-0.698-0.695l0,0l-0.698-0.697l0,0l-0.694-0.695l0,0l-0.694-0.697l0,0
									l-0.698-0.698l0,0l-0.694-0.694l0,0l-0.695-0.698h2.792v-20.922h-0.698v-0.698h-0.698v-3.489h-0.694v-0.694h-0.694v-0.698
									h-0.695v-0.697h-0.697v-0.695h-0.698v-0.697h-0.694v-0.695h-0.698v-0.697h-0.694v-0.698h-0.698v-0.694h-0.694v-0.698h-0.695
									v-0.349h9.764v-20.96h-0.694v-0.697h-0.698v-0.698h-0.694v-0.694h-0.695v-0.695h-0.697v-0.697h-0.695v-0.698h-0.697v-0.694
									h-0.698v-0.698h-0.694v-0.694h-0.695v-2.094h-0.697v-0.697h-0.695v-0.698h-0.694v-0.694h-0.698v-0.695h-0.697v-0.697h-0.695
									v-0.698h-0.697v-0.697h-0.695v-0.695h-0.694v-1.396h-0.698v-0.697h-0.697v-0.695h-0.691v-0.697h-0.698v-0.698h-0.698v-0.694
									h-4.881v-0.695h-0.698v-1.047h-0.698v-0.697h-0.695v-0.698h-0.693v-0.697h-0.698v-0.696h-0.698v-0.694h-1.043v-0.698h-0.696
									v-0.696h-0.696v-0.697h-0.695v-1.393h-0.697v-0.698h-0.696v-0.696h-0.696V233.8h-1.044v-0.695h-0.697v-0.696h-0.698v-0.697
									h-0.693v-0.696h-0.696v-0.696h-0.694v-1.395h-0.698v-0.697h-1.047v-0.696h-0.697v-0.173
									c4.71-1.918,9.768-2.792,15.176-2.792c11.505,0,21.966,4.534,30.688,12.033l0.173,0.171l0,0c0,0,0,0,0.173,0.177
									c0.177,0.171,0.35,0.521,0.698,0.694l0,0c0.173,0.351,0.525,0.523,0.698,0.874l0,0c0.17,0.349,0.521,0.523,0.691,0.87l0,0
									c0.173,0.35,0.524,0.525,0.697,0.874l0,0c0.174,0.348,0.522,0.522,0.698,0.872l0,0c0.173,0.349,0.521,0.521,0.694,0.873l0,0
									c0.177,0.35,0.525,0.522,0.698,0.871l0,0c0.173,0.349,0.521,0.521,0.694,0.871l15.695-16.04
									c-1.918-2.442-3.838-4.534-5.929-6.803c-0.173-0.173-0.521-0.522-0.694-0.696c-0.173-0.173-0.525-0.523-0.698-0.697
									c-0.173-0.173-0.521-0.521-0.697-0.695c-0.173-0.174-0.522-0.522-0.695-0.695c-0.17-0.177-0.521-0.525-0.694-0.698
									s-0.521-0.523-0.698-0.696c-0.173-0.173-0.521-0.523-0.694-0.698c-0.176-0.172-0.525-0.521-0.698-0.695
									c-0.173-0.174-0.521-0.523-0.694-0.695c-0.173-0.174-0.525-0.525-0.695-0.697c-0.173-0.174-0.524-0.523-0.697-0.697
									c-0.173-0.173-0.521-0.521-0.698-0.696c-0.173-0.173-0.521-0.522-0.697-0.696c-0.17-0.174-0.522-0.522-0.691-0.696
									c-0.173-0.173-0.522-0.524-0.698-0.696c-0.173-0.174-0.521-0.523-0.694-0.697c-0.177-0.172-0.525-0.521-0.698-0.697
									c-0.173-0.172-0.525-0.521-0.698-0.695c-0.169-0.175-0.521-0.523-0.694-0.696c-0.173-0.174-0.521-0.524-0.694-0.697
									c-0.173-0.174-0.522-0.523-0.698-0.697c-0.173-0.172-0.521-0.521-0.698-0.696c-0.173-0.173-0.521-0.522-0.691-0.696
									c-0.176-0.173-0.524-0.523-0.697-0.695c-0.173-0.174-0.522-0.524-0.695-0.697c-0.176-0.174-0.524-0.523-0.697-0.697
									c-0.173-0.172-0.525-0.521-0.698-0.697c-0.17-0.172-0.521-0.521-0.694-0.695s-0.522-0.523-0.698-0.695
									c-0.173-0.174-0.519-0.525-0.694-0.697c-0.173-0.173-0.522-0.523-0.698-0.698c-0.173-0.172-0.521-0.521-0.694-0.695
									c-0.173-0.174-0.522-0.522-0.695-0.697c-0.173-0.173-0.524-0.523-0.697-0.695c-0.173-0.174-0.522-0.524-0.695-0.697
									c-0.176-0.172-0.524-0.523-0.697-0.696c-0.17-0.173-0.522-0.522-0.695-0.696s-0.521-0.522-0.697-0.697
									c-0.173-0.174-0.522-0.523-0.695-0.695c-0.176-0.174-0.524-0.525-0.697-0.697s-0.522-0.523-0.695-0.697
									c-0.173-0.172-0.524-0.521-0.694-0.695c-0.173-0.175-0.525-0.523-0.698-0.697c-0.173-0.175-0.521-0.523-0.697-0.696
									c-0.173-0.174-0.521-0.524-0.698-0.697c-0.17-0.172-0.519-0.523-0.691-0.696s-0.521-0.522-0.697-0.696
									c-0.174-0.174-0.522-0.523-0.695-0.696c-0.176-0.174-0.524-0.523-0.697-0.696c-0.174-0.174-0.525-0.523-0.698-0.697
									c-0.17-0.172-0.521-0.522-0.691-0.697c-0.177-0.172-0.525-0.521-0.698-0.695s-0.521-0.523-0.697-0.697
									c-0.174-0.174-0.522-0.523-0.698-0.695c-0.173-0.174-0.521-0.523-0.691-0.697c-0.176-0.173-0.525-0.523-0.698-0.697
									c-0.173-0.173-0.521-0.521-0.694-0.696c-0.176-0.174-0.525-0.523-0.698-0.695c-0.173-0.175-0.524-0.524-0.697-0.697
									c-0.17-0.173-0.522-0.523-0.695-0.696s-0.521-0.523-0.697-0.697c-0.17-0.173-0.52-0.522-0.695-0.696
									c-0.173-0.174-0.521-0.522-0.697-0.695c-0.173-0.176-0.522-0.525-0.695-0.697c-0.173-0.174-0.521-0.523-0.694-0.697
									c-0.173-0.172-0.525-0.523-0.694-0.697c-0.177-0.172-0.525-0.521-0.698-0.695c-0.176-0.175-0.525-0.523-0.698-0.695
									c-0.171-0.175-0.52-0.525-0.696-0.698c-0.171-0.174-0.52-0.523-0.696-0.697c-0.173-0.172-0.521-0.522-0.694-0.696
									c-0.173-0.173-0.521-0.522-0.698-0.695c-0.171-0.174-0.521-0.523-0.692-0.696c-0.175-0.174-0.525-0.524-0.696-0.696
									c-0.174-0.175-0.525-0.523-0.698-0.698c-0.173-0.172-0.521-0.522-0.698-0.697c-0.173-0.172-0.521-0.521-0.694-0.695
									c-0.171-0.174-0.521-0.523-0.696-0.695c-0.171-0.174-0.521-0.525-0.696-0.697c-0.173-0.174-0.521-0.523-0.694-0.697
									c-0.177-0.173-0.525-0.521-0.698-0.697c-0.171-0.173-0.521-0.521-0.693-0.695c-0.176-0.174-0.524-0.523-0.696-0.696
									c-0.176-0.174-0.524-0.524-0.697-0.696c-0.173-0.174-0.522-0.523-0.698-0.697c-0.173-0.173-0.521-0.522-0.697-0.697
									c-0.172-0.173-0.522-0.521-0.693-0.696c-0.172-0.174-0.522-0.522-0.696-0.695c-0.173-0.174-0.522-0.525-0.695-0.697
									c-0.176-0.174-0.524-0.523-0.697-0.697c-0.173-0.172-0.525-0.521-0.696-0.695c-0.173-0.174-0.522-0.523-0.696-0.697
									c-0.173-0.174-0.522-0.523-0.695-0.696c-0.173-0.174-0.521-0.523-0.697-0.697c-0.173-0.172-0.522-0.522-0.698-0.696
									c-0.171-0.173-0.521-0.522-0.693-0.696c-0.174-0.173-0.524-0.522-0.696-0.696c-0.35-0.523-0.872-0.873-1.396-1.395
									l-0.173-0.173c-0.173-0.174-0.524-0.524-0.697-0.697c-0.173-0.174-0.522-0.523-0.698-0.696
									c-0.171-0.173-0.521-0.522-0.693-0.697c-0.174-0.173-0.521-0.522-0.696-0.695c-0.173-0.175-0.521-0.523-0.694-0.696
									c-0.176-0.174-0.525-0.524-0.698-0.696c-0.176-0.173-0.524-0.523-0.697-0.698c-0.172-0.172-0.522-0.521-0.696-0.695
									c-0.172-0.174-0.522-0.523-0.693-0.697c-0.173-0.174-0.525-0.523-0.698-0.695c-0.173-0.174-0.521-0.525-0.697-0.697
									c-0.172-0.173-0.522-0.523-0.693-0.697c-0.176-0.173-0.525-0.521-0.696-0.695c-0.176-0.175-0.525-0.523-0.694-0.696
									c-0.177-0.175-0.525-0.524-0.698-0.697c-0.176-0.173-0.524-0.523-0.698-0.696c-0.171-0.173-0.524-0.523-0.696-0.697
									c-0.171-0.172-0.521-0.522-0.696-0.695c-0.173-0.175-0.521-0.523-0.694-0.696c-0.173-0.174-0.521-0.524-0.698-0.696
									c-0.173-0.175-0.521-0.523-0.692-0.698c-0.177-0.172-0.525-0.521-0.696-0.697c-0.177-0.172-0.525-0.521-0.698-0.695
									s-0.521-0.523-0.698-0.695c-0.173-0.174-0.521-0.525-0.694-0.697c-0.171-0.173-0.524-0.523-0.696-0.697
									c-0.171-0.173-0.521-0.521-0.696-0.695c-0.173-0.175-0.521-0.523-0.694-0.698c-0.176-0.173-0.525-0.522-0.698-0.695
									c-0.176-0.174-0.521-0.524-0.694-0.696c-0.175-0.173-0.523-0.523-0.696-0.697c-0.175-0.173-0.523-0.522-0.696-0.695
									c-0.173-0.175-0.525-0.523-0.698-0.696c-0.173-0.176-0.521-0.524-0.697-0.696c-0.172-0.175-0.522-0.523-0.693-0.698
									c-0.172-0.172-0.522-0.523-0.696-0.697c-0.173-0.172-0.522-0.521-0.695-0.695c-0.176-0.174-0.524-0.523-0.697-0.695
									c-0.176-0.174-0.525-0.525-0.698-0.697c-0.171-0.175-0.521-0.523-0.693-0.697c-0.174-0.173-0.524-0.521-0.696-0.697
									c-0.173-0.173-0.524-0.521-0.697-0.695s-0.521-0.523-0.698-0.696c-0.171-0.173-0.521-0.524-0.692-0.696
									c-0.177-0.173-0.525-0.523-0.697-0.697c-0.176-0.172-0.521-0.522-0.694-0.695c-0.176-0.175-0.524-0.523-0.698-0.697
									c-0.176-0.175-0.524-0.523-0.697-0.695c-0.172-0.175-0.525-0.523-0.696-0.698c-0.171-0.172-0.521-0.523-0.696-0.697
									c-0.17-0.172-0.521-0.521-0.694-0.695s-0.522-0.523-0.698-0.695c-0.173-0.176-0.521-0.525-0.693-0.697
									c-0.176-0.175-0.524-0.523-0.697-0.697c-0.175-0.173-0.523-0.523-0.696-0.697c-0.173-0.173-0.522-0.521-0.695-0.695
									c-0.176-0.174-0.524-0.523-0.697-0.696c-0.172-0.174-0.525-0.524-0.696-0.696c-0.172-0.174-0.522-0.523-0.696-0.697
									c-0.173-0.173-0.522-0.522-0.698-0.695c-0.173-0.175-0.519-0.523-0.694-0.697c-0.173-0.175-0.522-0.523-0.698-0.695
									c-0.171-0.175-0.521-0.525-0.693-0.698c-0.174-0.172-0.524-0.523-0.696-0.697c-0.176-0.172-0.524-0.521-0.697-0.695
									s-0.522-0.523-0.695-0.697c-0.176-0.174-0.524-0.523-0.697-0.695c-0.172-0.175-0.523-0.523-0.696-0.697
									c-0.172-0.173-0.521-0.523-0.696-0.697c-0.173-0.172-0.522-0.521-0.695-0.695c-0.176-0.174-0.524-0.523-0.697-0.696
									c-0.172-0.173-0.522-0.524-0.696-0.696c-0.173-0.174-0.521-0.523-0.693-0.697c-0.176-0.172-0.525-0.523-0.698-0.697
									c-0.173-0.173-0.524-0.521-0.697-0.695c-0.173-0.175-0.522-0.523-0.698-0.695c-0.171-0.175-0.521-0.525-0.693-0.698
									c-0.171-0.174-0.521-0.523-0.695-0.697c-0.174-0.172-0.522-0.521-0.698-0.695c-0.173-0.174-0.521-0.523-0.694-0.697
									c-0.177-0.174-0.525-0.523-0.698-0.695c-0.175-0.175-0.521-0.524-0.693-0.697c-0.175-0.173-0.524-0.523-0.696-0.697
									c-0.176-0.173-0.524-0.521-0.697-0.695c-0.174-0.174-0.525-0.523-0.698-0.697s-0.521-0.523-0.696-0.695
									c-0.173-0.174-0.521-0.523-0.693-0.697c-0.173-0.173-0.521-0.523-0.697-0.697c-0.174-0.173-0.522-0.521-0.698-0.695
									c-0.173-0.175-0.521-0.523-0.694-0.695c-0.175-0.175-0.525-0.525-0.696-0.698c-0.172-0.174-0.525-0.523-0.696-0.697
									c-0.173-0.172-0.522-0.523-0.695-0.697c-0.176-0.172-0.524-0.521-0.697-0.695s-0.522-0.523-0.698-0.695
									c-0.171-0.175-0.521-0.524-0.696-0.697c-0.171-0.174-0.521-0.523-0.693-0.697c-0.176-0.172-0.521-0.521-0.697-0.695
									c-0.173-0.174-0.522-0.523-0.695-0.697c-0.176-0.174-0.524-0.523-0.696-0.695c-0.176-0.174-0.524-0.525-0.697-0.697
									c-0.172-0.172-0.525-0.523-0.696-0.697c-0.173-0.173-0.522-0.521-0.695-0.695c-0.173-0.175-0.524-0.523-0.697-0.698
									c-0.172-0.174-0.522-0.522-0.696-0.695c-0.172-0.174-0.522-0.523-0.696-0.697c-0.173-0.172-0.522-0.523-0.695-0.696
									c-0.176-0.173-0.524-0.522-0.697-0.696c-0.349-0.523-0.871-0.871-1.22-1.395l-0.172-0.174
									c-0.174-0.174-0.524-0.523-0.696-0.695c-0.173-0.174-0.521-0.525-0.697-0.697c-0.173-0.172-0.521-0.523-0.698-0.697
									c-0.17-0.172-0.521-0.521-0.694-0.695c-0.172-0.175-0.521-0.523-0.696-0.697c-0.172-0.174-0.521-0.523-0.693-0.696
									c-0.176-0.174-0.524-0.523-0.698-0.696c-0.176-0.173-0.524-0.523-0.697-0.697c-0.172-0.172-0.521-0.522-0.693-0.695
									c-0.176-0.174-0.524-0.523-0.696-0.696c-0.173-0.174-0.524-0.524-0.697-0.696c-0.173-0.175-0.522-0.523-0.698-0.697
									c-0.173-0.173-0.521-0.523-0.698-0.698c-0.168-0.172-0.519-0.522-0.692-0.696c-0.172-0.174-0.522-0.523-0.696-0.695
									c-0.173-0.174-0.522-0.525-0.695-0.697c-0.176-0.174-0.524-0.523-0.697-0.697c-0.177-0.172-0.525-0.522-0.698-0.696
									c-0.171-0.174-0.521-0.523-0.693-0.697c-0.174-0.174-0.524-0.523-0.696-0.696c-0.173-0.174-0.524-0.525-0.697-0.697
									c-0.173-0.172-0.522-0.523-0.698-0.697c-0.173-0.172-0.521-0.522-0.693-0.696c-0.176-0.173-0.521-0.523-0.697-0.697
									c-0.172-0.175-0.521-0.523-0.696-0.696c-0.173-0.174-0.522-0.523-0.695-0.697c-0.176-0.173-0.524-0.523-0.697-0.698
									c-0.172-0.172-0.525-0.522-0.696-0.696c-0.172-0.174-0.522-0.523-0.693-0.695c-0.176-0.174-0.525-0.525-0.698-0.697
									c-0.173-0.174-0.521-0.523-0.697-0.697c-0.173-0.172-0.522-0.522-0.698-0.697c-0.171-0.172-0.521-0.522-0.693-0.695
									c-0.174-0.174-0.524-0.523-0.696-0.696c-0.173-0.174-0.521-0.525-0.694-0.697c-0.176-0.173-0.525-0.523-0.698-0.697
									c-0.176-0.172-0.524-0.522-0.697-0.696c-0.172-0.173-0.523-0.523-0.696-0.697c-0.172-0.175-0.521-0.523-0.696-0.696
									c-0.173-0.174-0.521-0.525-0.694-0.697c-0.174-0.173-0.522-0.523-0.698-0.698c-0.172-0.172-0.521-0.522-0.696-0.696
									c-0.173-0.174-0.521-0.523-0.693-0.695c-0.176-0.175-0.524-0.525-0.697-0.697c-0.174-0.173-0.522-0.523-0.695-0.697
									c-0.176-0.172-0.524-0.523-0.697-0.697c-0.175-0.172-0.525-0.522-0.696-0.695c-0.172-0.174-0.522-0.523-0.696-0.696
									c-0.174-0.174-0.522-0.525-0.698-0.697c-0.173-0.173-0.521-0.523-0.694-0.697c-0.173-0.172-0.522-0.522-0.698-0.697
									c-0.171-0.172-0.521-0.522-0.693-0.695c-0.174-0.175-0.524-0.523-0.696-0.696c-0.176-0.174-0.524-0.525-0.697-0.697
									c-0.173-0.173-0.525-0.523-0.698-0.698c-0.173-0.172-0.521-0.522-0.693-0.696c-0.173-0.174-0.524-0.523-0.696-0.697
									c-0.173-0.174-0.521-0.523-0.697-0.696c-0.173-0.173-0.522-0.525-0.698-0.697c-0.173-0.172-0.521-0.523-0.694-0.697
									c-0.175-0.172-0.522-0.522-0.696-0.695c-0.172-0.174-0.522-0.523-0.693-0.696c-0.176-0.175-0.525-0.525-0.698-0.697
									c-0.176-0.173-0.524-0.523-0.697-0.697c-0.173-0.172-0.522-0.523-0.698-0.697c-0.171-0.172-0.521-0.522-0.693-0.695
									c-0.171-0.175-0.524-0.523-0.696-0.696c-0.173-0.174-0.521-0.525-0.697-0.697c-0.173-0.175-0.521-0.523-0.695-0.698
									c-0.176-0.172-0.524-0.522-0.696-0.697c-0.176-0.172-0.524-0.522-0.697-0.695c-0.172-0.174-0.521-0.523-0.693-0.696
									c-0.176-0.173-0.524-0.525-0.698-0.697c-0.173-0.172-0.524-0.523-0.697-0.697c-0.172-0.172-0.521-0.522-0.696-0.695
									c-0.172-0.174-0.521-0.523-0.693-0.698c-0.173-0.174-0.524-0.523-0.698-0.696c-0.173-0.173-0.521-0.525-0.697-0.697
									c-0.173-0.172-0.521-0.523-0.695-0.697c-0.174-0.172-0.524-0.521-0.695-0.695c-0.175-0.175-0.525-0.523-0.696-0.696
									c-0.173-0.176-0.522-0.525-0.695-0.697c-0.176-0.175-0.524-0.523-0.697-0.698c-0.173-0.172-0.525-0.523-0.698-0.697
									c-0.172-0.172-0.521-0.522-0.696-0.695c-0.171-0.174-0.521-0.523-0.693-0.696c-0.173-0.173-0.521-0.525-0.697-0.697
									c-0.173-0.174-0.522-0.523-0.698-0.697c-0.171-0.172-0.521-0.522-0.693-0.697c-0.176-0.173-0.524-0.522-0.696-0.696
									c-0.173-0.349-0.524-0.523-0.697-0.696c-0.173-0.35-0.522-0.525-0.695-0.697c-0.176-0.172-0.524-0.523-0.697-0.697
									c-0.172-0.172-0.525-0.521-0.696-0.695c-0.172-0.175-0.522-0.523-0.696-0.697c-0.173-0.174-0.522-0.523-0.695-0.695
									c-0.176-0.175-0.521-0.523-0.697-0.698c-0.173-0.172-0.522-0.523-0.698-0.697c-0.171-0.172-0.521-0.522-0.693-0.695
									c-0.174-0.351-0.524-0.523-0.696-0.696c-0.173-0.351-0.524-0.525-0.697-0.697c-0.173-0.174-0.522-0.523-0.695-0.697
									c-0.171-0.35-0.524-0.523-0.696-0.697c-0.173-0.35-0.521-0.522-0.697-0.696c-0.172-0.174-0.521-0.523-0.696-0.696
									c-0.173-0.173-0.522-0.525-0.695-0.697c-0.352-0.523-0.87-0.874-1.396-1.396l-0.173-0.174
									c-0.176-0.174-0.524-0.523-0.697-0.695c-0.172-0.351-0.525-0.525-0.696-0.697c-0.172-0.349-0.522-0.523-0.696-0.697
									c-0.173-0.172-0.522-0.522-0.695-0.696s-0.521-0.523-0.697-0.697c-0.173-0.348-0.522-0.523-0.696-0.696
									c-0.173-0.174-0.522-0.525-0.693-0.698c-0.176-0.172-0.525-0.523-0.698-0.697c-0.173-0.172-0.524-0.521-0.697-0.696
									c-0.173-0.173-0.522-0.523-0.695-0.697c-0.174-0.174-0.524-0.523-0.696-0.696c-0.171-0.35-0.521-0.523-0.696-0.697
									c-0.173-0.172-0.521-0.523-0.697-0.697c-0.173-0.35-0.522-0.522-0.695-0.696c-0.176-0.351-0.521-0.523-0.697-0.695
									c-0.172-0.174-0.522-0.525-0.693-0.697c-0.175-0.174-0.524-0.523-0.696-0.697c-0.176-0.172-0.525-0.523-0.698-0.697
									c-0.173-0.172-0.524-0.522-0.697-0.695c-0.173-0.174-0.522-0.523-0.693-0.696c-0.173-0.174-0.524-0.525-0.698-0.698
									c-0.171-0.173-0.52-0.523-0.695-0.697c-0.174-0.349-0.522-0.521-0.698-0.696c-0.173-0.35-0.521-0.523-0.694-0.697
									c-0.175-0.35-0.525-0.523-0.697-0.696c-0.171-0.173-0.521-0.525-0.692-0.697c-0.177-0.172-0.525-0.523-0.698-0.697
									c-0.176-0.173-0.524-0.521-0.697-0.696c-0.174-0.174-0.522-0.523-0.698-0.697c-0.171-0.174-0.521-0.523-0.696-0.696
									c-0.172-0.174-0.521-0.523-0.693-0.697c-0.173-0.172-0.521-0.523-0.697-0.697c-0.173-0.172-0.522-0.522-0.695-0.695
									c-0.176-0.174-0.524-0.523-0.697-0.696c-0.175-0.174-0.525-0.525-0.696-0.698c-0.172-0.173-0.522-0.523-0.693-0.697
									c-0.176-0.172-0.525-0.521-0.698-0.697c-0.173-0.172-0.524-0.522-0.697-0.695c-0.172-0.174-0.522-0.523-0.696-0.696
									c-0.173-0.173-0.522-0.525-0.698-0.697c-0.171-0.174-0.521-0.523-0.693-0.697c-0.173-0.173-0.521-0.521-0.697-0.696
									c-0.173-0.174-0.522-0.523-0.695-0.697c-0.174-0.174-0.524-0.523-0.696-0.696c-0.174-0.174-0.524-0.525-0.696-0.697
									c-0.173-0.172-0.521-0.523-0.697-0.697c-0.173-0.172-0.522-0.522-0.695-0.695c-0.173-0.174-0.524-0.523-0.697-0.696
									c-0.172-0.176-0.522-0.525-0.696-0.698c-0.172-0.173-0.522-0.523-0.693-0.697c-0.176-0.172-0.524-0.523-0.698-0.697
									c-0.176-0.172-0.521-0.522-0.697-0.695c-0.173-0.174-0.521-0.523-0.693-0.696c-0.176-0.173-0.525-0.525-0.698-0.697
									c-0.171-0.174-0.522-0.523-0.696-0.697c-0.173-0.173-0.521-0.521-0.697-0.698c-0.173-0.172-0.521-0.522-0.695-0.695
									c-0.171-0.174-0.521-0.523-0.695-0.696c-0.172-0.174-0.522-0.525-0.697-0.697c-0.173-0.172-0.521-0.523-0.694-0.697
									c-0.176-0.172-0.524-0.522-0.697-0.695c-0.177-0.174-0.522-0.523-0.695-0.697c-0.175-0.174-0.524-0.523-0.696-0.696
									c-0.174-0.173-0.524-0.525-0.696-0.697c-0.173-0.172-0.524-0.523-0.697-0.697c-0.173-0.172-0.522-0.522-0.698-0.695
									c-0.173-0.174-0.521-0.523-0.694-0.696c-0.172-0.176-0.521-0.525-0.696-0.697c-0.172-0.175-0.521-0.523-0.696-0.697
									c-0.173-0.173-0.522-0.523-0.695-0.698c-0.349-0.522-0.874-0.871-1.223-1.393l-0.168-0.174
									c-0.175-0.173-0.525-0.523-0.696-0.697c-0.176-0.175-0.525-0.523-0.698-0.696c-0.173-0.174-0.521-0.525-0.697-0.697
									c-0.173-0.172-0.522-0.522-0.698-0.697c-0.171-0.172-0.521-0.522-0.693-0.696c-0.171-0.173-0.521-0.523-0.696-0.697
									c-0.173-0.174-0.521-0.523-0.694-0.696c-0.176-0.173-0.525-0.525-0.698-0.697c-0.176-0.173-0.524-0.523-0.697-0.698
									c-0.172-0.172-0.525-0.522-0.696-0.696c-0.172-0.173-0.522-0.523-0.693-0.697c-0.173-0.174-0.525-0.523-0.698-0.696
									c-0.173-0.173-0.521-0.523-0.697-0.697c-0.173-0.173-0.522-0.523-0.696-0.697c-0.173-0.173-0.521-0.521-0.693-0.695
									c-0.176-0.175-0.521-0.523-0.698-0.696c-0.173-0.175-0.521-0.525-0.694-0.697c-0.176-0.173-0.525-0.523-0.698-0.697
									c-0.174-0.172-0.524-0.523-0.696-0.697c-0.171-0.172-0.521-0.522-0.695-0.695c-0.174-0.174-0.522-0.523-0.695-0.696
									c-0.173-0.174-0.524-0.525-0.697-0.697c-0.174-0.174-0.522-0.523-0.698-0.698c-0.171-0.172-0.521-0.522-0.693-0.697
									c-0.175-0.172-0.524-0.522-0.696-0.695c-0.176-0.174-0.524-0.523-0.697-0.696c-0.174-0.173-0.522-0.525-0.695-0.697
									c-0.176-0.175-0.524-0.523-0.696-0.698c-0.173-0.172-0.524-0.521-0.697-0.696c-0.172-0.174-0.521-0.522-0.696-0.697
									c-0.174-0.174-0.522-0.523-0.698-0.696c-0.173-0.173-0.519-0.525-0.694-0.697c-0.172-0.172-0.522-0.523-0.696-0.697
									c-0.172-0.172-0.522-0.522-0.693-0.695c-0.176-0.174-0.525-0.523-0.698-0.698c-0.176-0.174-0.524-0.523-0.697-0.696
									c-0.173-0.173-0.522-0.525-0.695-0.697c-0.174-0.172-0.524-0.523-0.696-0.697c-0.171-0.172-0.524-0.521-0.696-0.695
									c-0.173-0.175-0.521-0.523-0.697-0.696c-0.173-0.176-0.522-0.525-0.695-0.697c-0.176-0.175-0.524-0.523-0.697-0.698
									c-0.172-0.172-0.521-0.523-0.696-0.697c-0.172-0.172-0.522-0.522-0.693-0.695c-0.176-0.174-0.525-0.523-0.698-0.696
									c-0.173-0.173-0.524-0.525-0.697-0.697c-0.172-0.174-0.522-0.523-0.696-0.697c-0.173-0.173-0.522-0.523-0.693-0.697
									c-0.173-0.173-0.521-0.522-0.698-0.696c-0.173-0.174-0.521-0.523-0.697-0.696c-0.173-0.173-0.521-0.525-0.695-0.697
									c-0.352-0.523-0.873-0.871-1.218-1.396l-0.171-0.173c-0.177-0.172-0.525-0.523-0.698-0.697
									c-0.176-0.172-0.524-0.522-0.698-0.696c-0.173-0.173-0.524-0.523-0.697-0.697c-0.172-0.174-0.521-0.523-0.696-0.696
									c-0.172-0.174-0.521-0.523-0.693-0.697c-0.173-0.173-0.521-0.523-0.697-0.697c-0.174-0.173-0.522-0.521-0.698-0.696
									c-0.173-0.173-0.521-0.523-0.693-0.695c-0.176-0.175-0.524-0.525-0.697-0.697c-0.172-0.173-0.523-0.523-0.693-0.697
									c-0.176-0.172-0.525-0.523-0.698-0.697c-0.176-0.173-0.524-0.522-0.697-0.696c-0.172-0.173-0.522-0.522-0.696-0.695
									c-0.172-0.174-0.522-0.525-0.696-0.698c-0.173-0.173-0.522-0.523-0.695-0.697c-0.173-0.172-0.521-0.522-0.697-0.697
									c-0.173-0.172-0.522-0.521-0.695-0.695c-0.174-0.174-0.524-0.523-0.696-0.696c-0.174-0.174-0.524-0.525-0.696-0.698
									c-0.173-0.173-0.524-0.522-0.697-0.697c-0.173-0.172-0.522-0.521-0.695-0.696c-0.173-0.173-0.524-0.523-0.697-0.697
									c-0.172-0.174-0.521-0.523-0.696-0.696c-0.172-0.173-0.521-0.525-0.696-0.697c-0.173-0.172-0.522-0.523-0.695-0.697
									c-0.176-0.173-0.521-0.522-0.697-0.696c-0.172-0.173-0.522-0.523-0.693-0.697c-0.175-0.174-0.525-0.523-0.696-0.696
									c-0.176-0.173-0.525-0.525-0.698-0.697c-0.173-0.172-0.521-0.523-0.697-0.697c-0.173-0.173-0.522-0.521-0.695-0.695
									c-0.171-0.175-0.524-0.523-0.696-0.697c-0.171-0.174-0.521-0.523-0.696-0.696c-0.173-0.173-0.521-0.523-0.694-0.697
									c-0.176-0.172-0.525-0.523-0.698-0.697c-0.176-0.172-0.521-0.523-0.697-0.695c-0.172-0.174-0.521-0.523-0.693-0.697
									c-0.175-0.174-0.524-0.523-0.696-0.698c-0.173-0.174-0.524-0.522-0.697-0.697c-0.174-0.173-0.522-0.522-0.698-0.697
									c-0.173-0.174-0.521-0.523-0.693-0.697c-0.173-0.173-0.521-0.523-0.696-0.697c-0.173-0.174-0.521-0.523-0.697-0.697
									c-0.174-0.174-0.522-0.523-0.695-0.697c-0.176-0.174-0.524-0.523-0.697-0.698c-0.175-0.174-0.525-0.523-0.696-0.697
									c-0.172-0.174-0.522-0.523-0.693-0.697c-0.176-0.173-0.525-0.523-0.698-0.697c-0.173-0.174-0.524-0.523-0.697-0.697
									c-0.173-0.174-0.522-0.523-0.698-0.698c-0.171-0.174-0.521-0.522-0.693-0.697c-0.174-0.174-0.521-0.523-0.696-0.697
									c-0.173-0.173-0.521-0.523-0.697-0.697c-0.173-0.174-0.522-0.523-0.695-0.697c-0.176-0.174-0.524-0.523-0.696-0.697
									c-0.173-0.174-0.524-0.523-0.697-0.697c-0.172-0.174-0.521-0.523-0.693-0.698c-12.907-13.603-29.648-21.972-48.131-21.972
									c-33.308,0-58.067,26.854-65.917,63.825h-49.529v20.926h0.696v-34.187h0.696v0.698h0.696v0.696h0.875v0.695h0.694v0.697
									h0.695v0.697h0.697v0.696h0.698v0.698h0.694v0.695h0.698v0.697h1.044v0.697h0.697v0.695h0.698v1.047h-9.767v20.926h0.696
									v0.697h0.698v0.696h0.695v0.696h1.047v0.697h0.696v0.697h0.696v0.695h0.696v0.697h0.696v0.695h0.696v0.698h0.696v0.697
									h1.047v0.696h0.696v0.697h0.696v0.695h0.698v0.697h0.696v0.697h0.696v0.696h0.696v0.696h1.047v0.697h0.695v0.697h0.698
									v0.697h0.694v0.695h0.698V-54h0.696v0.698h0.696v0.697h1.047v0.697h0.696v0.695h0.696v0.695h0.696v0.698h0.696v0.697h0.697
									v0.697h0.696v0.695h0.696v0.695H463v0.697h0.696v0.697h0.698v0.696h0.694v0.697h0.698v0.696h0.696v0.697h0.696v0.697h0.697
									v0.695h0.695v0.695h0.696v0.698h0.696v0.697h0.697v0.697h0.698v0.695h0.694v0.695h0.696v0.697h0.696v0.697h0.698v0.698
									h0.697v0.695h0.695v0.696h0.696v0.697h0.696v0.762h0.697v0.697h0.698v0.695h0.694v0.698h0.696v0.695h0.696v0.698h0.698
									v0.697h0.698v0.695h0.694v0.696h2.791v0.697h0.696v0.698h0.698v0.697h0.696v0.696h0.694v0.695h0.698v0.697h0.696v0.697
									h1.047v0.695h0.696v0.698h0.696v0.695h0.696v0.698h0.697v0.697h0.696v0.695h0.696v0.697h1.047v0.695h0.696v0.698h0.696
									v0.697h0.696v0.695h0.696v0.696h0.697v0.697h0.695v0.697h1.047v0.697h0.697v0.696h0.696v0.695h0.696v0.698h0.696v0.697
									h0.696v0.695h0.696v0.697h1.047v0.695h0.696v0.698h0.698v0.697h0.696v0.695h0.696v0.696h0.696v0.697h0.696v0.697h1.046
									v0.697h0.696v0.696h0.696v0.695h0.696v0.698h0.696v0.697h0.698v0.697h0.696v0.695h1.047v0.695h0.696v0.698h0.696v0.697
									h0.696V5.27h0.697v0.697h0.044v0.695h0.696v0.697h1.046v0.697h0.693v0.696h0.698v0.695h0.697v0.698h0.698v0.697h0.693v0.697
									h0.696v0.695h1.047v0.695h0.694v0.698h0.698v0.697h0.696v0.697h0.692v0.695h0.698v0.695h0.698v0.697h1.046v0.697h0.696
									v0.696h0.693v0.697h0.698v0.695h0.697v0.697h0.695v0.697h0.696v0.695h0.693v0.695h0.697v0.698h0.698v0.697h0.697v0.697
									h0.696v0.696h0.693v0.695h0.698v0.697h0.694v0.697h0.696v0.698h0.698v0.695h0.696v0.695h0.694v0.697h0.698v0.697h0.696
									v0.695h0.696v0.697h0.694v0.696h0.698v0.697h0.694v0.697h0.696v0.696h0.696v0.695h0.698v0.697h0.697v0.697h0.694v0.698
									h0.697v0.695h0.692v0.695h0.698v0.697h0.697v0.697h0.696v0.695h0.693v0.697h0.698v0.696h0.697v0.697h0.698v0.697h0.693
									v0.696h0.696v0.697h0.694v0.696h0.698v0.697h0.697v0.698h0.696v0.695h0.693v0.695h0.698v0.697h0.697v0.697h0.693v0.697
									h0.696v0.696h0.698v0.696h0.694v0.697h0.698v0.697h0.696v0.696h0.696v0.697h0.697v0.696h0.695v0.697h0.697v0.698h0.693
									v0.695h0.696v0.697h0.698v0.695h0.697v0.697h0.693v0.697h0.698v0.695h0.696v0.696h0.694v0.697h0.697v0.697h0.696v0.697
									h0.693v0.695h0.698v0.696h0.697v0.697h0.698v0.698h0.696v0.695h0.693v0.697h0.697v0.695h0.695v0.697h0.697v0.697h0.696
									v0.695h0.693v0.697h0.698v0.695h0.697v0.697h0.696v0.697h0.693v0.695h0.698v0.695h0.697v0.697h0.695v0.698h0.696v0.697
									h0.696v0.695h0.697v0.695h0.695v0.804h0.697V80.6h0.696v0.695h0.693v0.697h0.698v0.696h0.697v0.696h0.693v0.697h0.698v0.695
									h0.696v0.695h0.697v0.697h0.694v0.697h0.697v0.698h0.695v0.695h0.695v0.695h0.697v0.697h0.698v0.697h0.696v0.696h0.693
									v0.696h0.697v0.696h0.698v0.696h0.694v0.697h0.696v0.695h0.693v0.697h0.698v0.695h0.697v0.697h0.696v0.698h0.696v0.695
									h0.695v0.695h0.697v0.697h0.698v0.697h0.693v0.696h0.696v0.696h0.694v0.696h0.698v0.696h0.697v0.697h0.696v0.697h0.696
									v0.695h0.695v0.695h0.697v0.697h0.693v0.698h0.696v0.695h0.698v0.697h0.694v0.695h0.698v0.697h0.696v0.696h0.696v0.696
									h0.697v0.696h0.695v0.696h0.697v0.697h0.693v0.697h0.696v0.695h0.697v0.695h0.698v0.697h0.693v0.698h0.697v0.696h0.696
									v0.696h0.695v0.695h0.697v0.697h0.696v0.696h0.693v0.696h0.698v0.697h0.697v0.695h0.698v0.697h0.693v0.697h0.696v0.695
									h0.697v0.695h0.695v0.697h0.697v0.698h0.696v0.696h0.693v0.696h0.698v0.695h0.697v0.697h0.696v0.696h0.693v0.696h0.698
									v0.697h0.697v0.695h0.695v0.697h0.696v0.697h0.695v0.695h0.695v0.697h0.697v0.695h0.698v0.698h0.696v0.696h0.693v0.696
									h0.697v0.695h0.698v0.697h0.693v0.696h0.697v0.698h0.696v0.695h0.695v0.695h0.697v0.697h0.696v0.697h0.696v0.695h0.695
									v0.697h0.697v0.695h0.695v0.698h0.696v0.696h0.696v0.696h0.697v0.696h0.698v0.696h0.694v0.696h0.696v0.698h0.696v0.695
									h0.695v0.695h0.697v0.697h0.693v0.697h0.696v0.697h0.698v0.695h0.697v0.695h0.837v0.698h0.693v0.696h0.696v0.696h0.694
									v0.696h0.698v0.696h0.697v0.696h0.693v0.698h0.696v0.695h0.698v0.697h0.697v0.695h0.698v0.697h0.693v0.697h0.696v0.696
									h0.694v0.696h0.698v0.696h0.696v0.696h0.696v0.697h0.694v0.695h0.698v0.698h0.697v0.695h0.693v0.697h0.696v0.697h0.698
									v0.695h0.694v0.697h0.698v0.695h0.696v0.697h0.696v0.697h0.694v0.695h0.698v0.697h0.696v0.695h0.692v0.698h0.698v0.697
									h0.698v0.695h0.694v0.695h0.696v0.697h0.696v0.697h0.697v0.696h0.695v0.696h0.697v0.696h0.696v0.696h0.693v0.697h0.698
									v0.697h0.697v0.695h0.693v0.696h0.696v0.697h0.698v0.697h0.697v0.696h0.695v0.696h0.696v0.695h0.693v0.697h0.697v0.697
									h0.698v0.697h0.697v0.695h0.693v0.695h0.696v0.697h0.698v0.698h0.697v0.697h0.693v0.695h0.698v0.695h0.692v0.697h0.698
									v0.697h0.698v0.697h0.696v0.695h0.696v0.695h0.694v0.697h0.697v0.697h0.695v0.697h0.696v0.695h0.696v0.696h0.694v0.697
									h0.698v0.697h0.697v0.695h0.696v0.696h0.696v0.696h0.695v0.697h0.697v0.697h0.693v0.695h0.696v0.697h0.698v0.695h0.694
									v0.697h0.698v0.698h0.696v0.695h0.696v0.697h0.694v0.695h0.698v0.697h0.697v0.696h0.693v0.696h0.696v0.697h0.698v0.695
									h0.697v0.697h0.693v0.698h0.698v0.694h0.696v0.696h0.694v0.696h0.698v0.698h0.692v0.697h0.696v0.695h0.698v0.696h0.698
									v0.695h0.697v0.698h0.693v0.696h0.696v0.696h0.698v0.696h0.694v0.696h0.698v0.698h0.695v0.696h0.693v0.696h0.698v0.694
									h0.697v0.698h0.696v0.697h0.693v0.696h0.698v0.696h0.694v0.695h0.698v0.697h0.696v0.698h0.696v0.696h0.694v0.696h0.698
									v0.694h0.697v0.698h0.696v0.696h0.693v0.697h0.698v0.696h0.694v0.695h0.696v0.698h0.696v0.694h0.698v0.698h0.694v0.697
									h0.698v0.695h0.696v0.697h0.692v0.695h0.698v0.697h0.698v0.695h0.694v0.697h0.696v0.698h0.696v0.694h0.698v0.698h0.697
									v0.694h0.693v0.698h0.698v0.698h0.692v0.694h0.698v0.697h0.697v0.695h0.693v0.697h0.696v0.695h0.698v0.697h0.697v0.698
									h0.695v0.694h0.696v0.698h0.696v0.694h0.694v0.698h0.698v0.694h0.697V261h0.693v0.697h0.696v0.695h0.698v0.697h0.697v0.695
									h0.693v0.697h0.696v0.698h0.694v0.694h0.698v0.698h0.698v0.694h0.696v0.698h0.696v0.694h0.694v0.698h0.698v0.698h0.697
									v0.694h0.693v0.698h0.696v0.694h0.694v0.697h0.698v0.698h0.696v0.694h0.697v0.698h0.697v0.694h0.694v0.698h0.698v0.698
									h0.692v0.694h0.696v0.697h0.698v0.695h2.442c0.173,0.176,0.521,0.524,0.694,0.697c0.177,0.174,0.525,0.522,0.698,0.698
									c0.174,0.173,0.524,0.521,0.693,0.694c0.174,0.177,0.524,0.525,0.696,0.695c0.176,0.176,0.524,0.524,0.697,0.697
									c0.173,0.177,0.525,0.525,0.698,0.698s0.521,0.521,0.697,0.698c0.172,0.173,0.522,0.521,0.693,0.694
									c0.172,0.173,0.522,0.524,0.696,0.694c0.173,0.177,0.522,0.525,0.698,0.698c0.173,0.176,0.521,0.524,0.694,0.698
									c0.176,0.173,0.525,0.521,0.696,0.697c0.173,0.173,0.525,0.521,0.693,0.695c0.176,0.173,0.525,0.524,0.698,0.694
									c0.176,0.176,0.524,0.524,0.697,0.698c0.173,0.176,0.521,0.524,0.698,0.697c0.171,0.173,0.521,0.521,0.696,0.698
									c0.171,0.173,0.521,0.521,0.692,0.694c0.174,0.173,0.522,0.525,0.698,0.694c0.173,0.177,0.521,0.525,0.694,0.698
									c0.177,0.173,0.525,0.525,0.698,0.698c0.175,0.173,0.525,0.521,0.696,0.694c0.172,0.176,0.525,0.525,0.696,0.698
									c0.173,0.173,0.521,0.521,0.694,0.694c0.174,0.176,0.525,0.525,0.698,0.698s0.521,0.524,0.698,0.697
									c0.171,0.173,0.52,0.521,0.696,0.694c0.171,0.174,0.52,0.525,0.692,0.698c0.177,0.173,0.522,0.521,0.698,0.694
									c0.173,0.177,0.521,0.525,0.694,0.698c0.175,0.173,0.525,0.525,0.696,0.698c0.175,0.173,0.525,0.521,0.696,0.694
									c0.173,0.173,0.522,0.525,0.698,0.698c0.173,0.173,0.521,0.521,0.694,0.694c0.173,0.176,0.525,0.524,0.698,0.698
									c0.171,0.173,0.521,0.521,0.696,0.697c0.171,0.173,0.521,0.521,0.693,0.695c0.176,0.173,0.524,0.524,0.697,0.697
									c0.176,0.173,0.525,0.521,0.698,0.695c0.173,0.173,0.521,0.524,0.694,0.697c0.175,0.173,0.523,0.521,0.696,0.698
									c0.172,0.173,0.525,0.521,0.696,0.694c0.173,0.173,0.522,0.525,0.698,0.695c0.173,0.176,0.521,0.524,0.697,0.697
									c0.173,0.173,0.522,0.525,0.693,0.698c0.173,0.173,0.522,0.521,0.696,0.697c0.173,0.173,0.521,0.522,0.695,0.695
									c0.176,0.173,0.524,0.521,0.697,0.694c0.176,0.176,0.525,0.525,0.698,0.698c0.171,0.173,0.521,0.524,0.692,0.697
									c0.175,0.173,0.525,0.522,0.697,0.698c0.173,0.17,0.524,0.521,0.697,0.694s0.521,0.522,0.698,0.695
									c0.173,0.176,0.521,0.524,0.694,0.697c0.175,0.173,0.525,0.521,0.696,0.698c0.171,0.173,0.521,0.521,0.696,0.697
									c0.173,0.17,0.521,0.522,0.694,0.695c0.177,0.173,0.525,0.521,0.698,0.694c0.173,0.176,0.525,0.525,0.696,0.698
									c11.508,11.684,26.16,18.658,43.07,18.658c20.927,0,39.938-10.637,53.363-27.9L955.436,349.386L955.436,349.386z"/>
							</g>
						</g>
					</g>
				</g>
			</g>
			<g id="Laag_13_1_">
				<g id="path3924_1_">
					<g>
						<circle fill="#FFFFFF" cx="170.195" cy="-113.237" r="83.704"/>
					</g>
				</g>
				<g id="path3089_2_">
					<g>
						<g>
							<path fill="#56E295" d="M189.728-185.083l-1.92,1.047c0,0,1.047,0.35,1.223,0.697c0.349,0.174,1.043-0.174,1.043-0.174v1.047
								c0,0,1.745,0.873,1.569,1.22c-0.173,0.349,2.791-0.35,2.791-0.35l2.967-1.047l0.695-1.219l-1.22-1.047l-5.579,0.697
								L189.728-185.083z"/>
							<path fill="#56E295" d="M123.46-181.769l1.223-0.173l2.788-1.22l2.093-1.395l0.175,0.174l-1.57,1.394l-0.349,0.523
								l-1.396,0.697l1.047,0.174l-0.173,0.698l1.218-0.175l1.221-1.047l1.046,0.35l0.522,0.523h1.397v-1.046l-2.093-1.569
								l-0.522-0.523l-0.174-0.523l0.874,0.174l0.698,0.697l0.871-0.871l1.572-0.174l1.567-1.221v-0.871l1.221-1.22l-0.874-0.873
								h2.094h1.917c0,0,0.871-0.349,1.046-0.174c0.173,0.35,1.569,1.22,1.569,1.22l-0.522,0.523l-2.27,0.35l-0.521,1.047
								l1.568,0.174l1.221-1.221l1.393-0.174l0.176,1.221c0,0-1.571,0.873-1.746,0.873c-0.173,0-1.046,0.523-1.046,0.523v1.047
								l-1.396,0.174l-1.568-0.35h-0.696l-1.218,0.873l0.871,0.871c0,0,1.396-0.523,1.571-0.697
								c0.175-0.174,0.871-0.523,1.047-0.174c0.174,0.349,1.047,1.046,1.047,1.046l0.695,1.396l1.046,0.523l2.094,0.697
								c0,0,1.568,0.35,1.568,0.523s-0.173-0.873-0.173-0.873l-1.221-1.394c0,0,0-0.35,0.351-0.35
								c0.35,0.175,1.221,0.873,1.221,0.873c0.171,0,1.218,0.697,1.218,0.697l0.525-1.22l1.044-0.523l-0.349-0.697l-0.521-0.523
								l-0.525-0.697v-0.872c0,0,0.174-0.174,0.352-0.174c0.173-0.173,0.695-0.523,0.695-0.349c0.173,0.173,1.22,1.569,1.22,1.569
								l1.047,0.174l0.525-0.872l1.393-0.173l0.174-0.697l1.218-0.35l-1.745-1.57l-1.22-0.174l-0.696,0.174l-0.696-0.872
								l0.696-0.697l0.351-1.047l-0.873-0.871l-1.396-0.174l-0.347-0.697c0,0-1.221-0.173-1.221,0
								c-0.171,0.174-1.045-1.046-1.045-1.046l-0.522-0.873c-4.011,1.221-8.021,2.79-11.685,4.71l-0.175,0.349l-1.219,0.697
								l-1.396,1.046l-1.22,0.523l-0.173-0.349c-4.182,2.267-8.021,5.057-11.684,8.021c1.917-0.871,5.058-2.615,5.058-2.615
								L123.46-181.769z"/>
							<path fill="#56E295" d="M200.365-165.376l0.871-0.174l0.695-0.35l0.176-0.174l1.218-0.174l0.171-0.523l0.354-0.523v-1.569
								l0.693-0.348l-0.171-1.046l-1.047-0.349l-0.875-0.174l0,0l-0.522,0.174l-0.521,0.523l-0.521,0.523
								c0.349-0.174,0.521-0.174,0.521,0.174c0,0.174-0.35,0.348-0.35,0.348h-0.349l-0.349-0.174h-0.525l-0.173,0.348l0.173,0.523
								l-0.521,0.349l0.349,0.35l0.522,0.173v0.523h-0.522l-0.698,0.35l-0.171,0.697l0.522,0.35L200.365-165.376z"/>
							<path fill="#56E295" d="M204.027-171.131c0.171,0.174,0.349,0.35,0.349,0.35c0,0.174,0.525,0.174,0.525,0.174l0.522-0.174
								l-0.522,0.523c0,0,0,0.35,0.173,0.523c0.171,0.174,0.521,0,0.521,0s0.871-0.173,1.047-0.173c0.171,0,0,0.35,0,0.35
								l0.349,0.523c0,0,0.171,0.697,0.171,0.872c0,0.176-0.349,0.174-0.349,0.174s-0.696,0.174-0.875,0
								c-0.171,0-0.346,0.174-0.693,0.523c-0.171,0.35,0,0.174,0,0.174h0.521c0,0,0,0.349,0,0.522c0,0.174-0.35,0.35-0.521,0.174
								c-0.171,0-0.871,0.349-0.871,0.349v0.523l0.871,0.174l0.872,0.174l0.174,0.174c0,0-0.525,0.173-0.696,0
								c-0.173-0.174-0.521,0.523-0.521,0.523l-0.351,0.35l-0.874,0.697l0.522,0.174l0.352-0.348h0.693l0.698-0.174l0.521-0.523
								c0.176,0,1.22,0,1.22,0s0.874-0.174,1.047-0.174c0.176,0,0.874,0.174,0.874,0.174c0.173,0,1.568-0.349,1.568-0.349
								s0.349-0.523,0.349-0.697c0-0.174-0.349-0.35-0.521-0.35c-0.176-0.174,0.349-0.174,0.521-0.35
								c0.173-0.175,0.349-0.523,0.349-0.697c0.176-0.174-0.173-0.523-0.173-0.697c0-0.174-0.525,0-0.696-0.174
								c-0.171,0-0.696,0-0.696,0v-0.697c0,0-1.743-2.268-1.568-2.442c0-0.174-0.349-0.871-0.522-0.871s-0.349-0.174-0.698-0.523
								c-0.173-0.35,0.349-0.697,0.349-0.697s0.525-0.697,0.698-0.873c0-0.173,0-0.522-0.173-0.697c-0.174,0-1.396,0-1.396,0
								l-0.349-0.349c0-0.174,0.349-0.174,0.522-0.174s0.698-1.22,0.874-1.22c0.173,0-0.176-0.349-0.176-0.349l0,0l-0.521,0.174
								l-0.525,0.697c0,0-0.522,0.174-0.693,0c-0.174-0.174-0.525,0-0.696,0c-0.176,0-0.522,0.35-0.522,0.35
								s-0.525,0.523-0.698,0.523s-0.698,0.697-0.698,0.697v0.523c0,0-0.171,0.173-0.349,0.173c-0.176,0,0.173,0.697,0.173,0.697
								l0.525,0.173c0,0-0.173,0.35-0.349,0.175C204.027-171.654,203.678-171.305,204.027-171.131z"/>
							<path fill="#56E295" d="M163.569-83.941c0,0-1.745-0.349-1.745-0.521c0-0.176-2.964-2.792-3.137-2.792
								c0,0-1.22-1.219-1.396-0.875c-0.173,0.353-2.439,0.353-2.439,0.353l-2.27-0.525c0,0-1.047,0.697-0.871,0.35
								c0.174-0.347,0-2.09,0-1.742c0,0.347-3.661-1.572-3.661-1.572l-1.221,1.047v-1.047l-1.917-1.219l0.174-1.572l-0.696-0.694
								c0,0-0.173,0.172-0.173,0c0-0.175-0.525-2.964-0.525-2.964l-2.791-2.27l-3.313-0.172l-2.964-1.568l-0.698-1.571
								c0,0-1.743-0.872-1.743-1.047c0-0.172-0.523,0-0.696-0.172c-0.173,0,0-0.872,0-0.872l-0.871-0.697l-0.351-0.172l-0.696-0.176
								l-0.349-0.694c0,0,1.57-0.697,1.396-0.697c-0.176,0-3.489,0.522-3.489,0.522l-0.349,0.697l-1.57-0.871l-2.617-0.172
								c0,0-1.917-0.698-1.917-1.047c0-0.176-0.522-1.047-0.522-1.047s-0.351,1.047-0.525,1.219
								c-0.173,0.525-1.396,1.571-1.396,1.571l0.173,1.746l-0.871-1.047l0.696-0.875v-1.219c0-0.172,0.875-0.525,0.875-0.525
								l-0.352-0.694c0,0-1.045,0.172-1.045,0.35s-1.221,0.871-1.221,0.871l-1.568,0.521h-0.698c0,0-0.694,1.222-0.871,1.222
								c-0.173,0-0.173,1.047-0.173,1.047s-1.745,1.917-1.917,1.742c-0.176-0.172-1.917-1.742-1.917-1.742l-2.27,0.35l-1.22,0.697
								l-1.568-1.046l-1.22-1.917l0.173-2.094l0.696-2.442l0.351-1.569l-1.572-1.221c0,0-3.313,0.35-3.313,0.176
								c0-0.176-1.745,0-1.745-0.176c0-0.172,0.698-1.218,0.698-1.396c0-0.172,0.525-1.393,0.525-1.393l0.695-1.396l0.873-2.616
								l0.523-0.871l-2.964-0.174l-1.57,0.697l-1.045,2.792l-4.533,1.219l-1.221-0.871c0,0-0.175,0.523,0,0.172
								c0-0.35-1.395-2.093-1.395-2.093l-0.698-2.615c0,0,1.917-5.405,1.745-5.405c0,0.174,0-1.917,0-1.917l5.755-3.837l2.27,0.35
								l0.522,0.523l1.396-0.174l1.396-1.394l1.744,0.173l1.745-0.347l1.044,1.22l1.571-0.523l0.874,0.873l0.522,0.522v0.873
								l-0.349,0.873l0.349,1.918l1.046,1.569l0.696,0.35l0.873-2.441l-0.173-2.267l-0.349-1.744v-1.22l2.268-2.791l2.792-2.092
								l2.267-1.219l1.917-2.093l-0.174-2.093l0.872-0.174l0.871-1.917l0.874,0.174l1.745-2.093l2.791-1.047l1.743-0.35l0.523-0.522
								l-0.698-0.698l1.396-1.918l4.184-1.745l2.617-0.697l-2.094,1.395l0.351,1.047l1.568-0.523l1.047-0.697l2.964-0.872
								l0.523-0.872c-0.175,0.35,1.57-0.35,1.57-0.35l-0.349-0.697l0.173-0.873l-0.874,0.349l-1.22,1.395l-2.093-0.175l-0.871-1.394
								l0.871-1.221c0,0,0.872-1.917,0.872-1.744c0,0.173-1.394-0.523-1.394-0.523l-2.093,0.697c-0.173,0-2.267,1.221-2.094,1.047
								c0-0.174-1.046,0.523-1.046,0.523l2.792-2.267l1.218-0.174l1.221-1.22h6.277l2.093-0.35l2.79-1.569l0.174,0.349l-1.221,1.221
								l-1.394,1.57L144.4-161l-0.696,0.872l2.268,0.174c0,0,1.745,0,1.921,0c0.171,0,0.346,0.697,0.346,0.697l0.874-0.697
								l0.522,1.22l1.572-1.22l-0.525-1.396l0.525-1.394h-1.917v-0.697c0,0-0.698-0.872-0.698-0.698
								c0,0.174,1.046-0.873,1.046-0.873c0,0.174-0.523-0.523-0.523-0.523l1.221-1.57l-0.698-1.744l-0.349-0.871l-1.746-0.873
								l-0.523-0.871l-0.695-0.523l0.522-1.394l-0.351-1.047l-0.523-3.313c0,0.174-2.268,1.918-2.268,1.918l-2.268,1.046
								l-1.047-0.871l0.174-1.395l1.047-1.046l-1.743-0.523l-0.174-0.523c0,0-1.57-1.57-1.57-1.394
								c-0.173,0.173-0.523,0.522-0.523,0.522l-3.488-0.349l-1.22,2.093l-0.349,1.22c0,0-1.919,1.918-2.268,2.092
								c0.174,0,1.045,0.872,1.045,0.872l-0.871,1.918l-3.139,1.744l-1.57,0.174c0,0-0.871,3.314-0.871,3.487
								c0,0.174-1.22,0.873-1.22,0.873l-0.696,1.046l-0.351-1.22c0,0-0.351-0.872-0.525-1.221c0.174,0.174,1.047,0.174,1.047,0.174
								l0.174-0.697h-0.881l0.349-1.22l0.871-1.394l-2.79-0.174l-0.696-0.697l-1.396-0.173l-0.173-0.523l-1.047-0.523l-1.047-0.697
								l-1.22,0.174v-1.047l0.352-1.046l-1.396-0.35c-16.749,14.985-27.385,36.783-27.734,60.848l1.396,0.349l2.092-0.695
								l1.397,0.695l2.089,2.441l2.094,0.521l2.092,0.697H98.7l0.35,1.219c0,0,1.047,1.223,1.218,1.396c0.176,0.172,0,1.568,0,1.568
								l0.874,0.525l1.043,1.219l0.698,0.697l0.698,0.872l0.522-0.35l1.047,0.35l1.396,1.219l0.872-0.522l-0.35-1.047l0.874-0.874
								h0.698l0.871,0.697v0.7l1.046,1.569v4.36l-0.871,1.396l-1.22,0.871v1.219l-1.22,0.353l-0.525,1.742l-0.694,1.571l0.173,1.218
								l1.046,1.047l-1.046,1.046l-0.696,1.047l0.696,2.093c0,0,0.349,1.047,0.349,0.872c0-0.173,1.047,0.697,1.047,0.697
								l1.917,3.839l1.748,2.615c0,0,2.614,5.406,2.788,5.406c0.873,0.522,6.625,4.882,6.625,4.882l1.046,5.231l0.351,11.163
								l0.874,3.137l-0.175,1.396c4.535,3.14,9.417,5.929,14.65,8.021c0.521,0,1.22,0.172,1.22,0.172l2.44-0.697
								c0,0,0.873-1.742,0.873-1.917c0-0.349,0-1.219,0-1.219s0-0.697-0.522-0.697c-0.525,0-0.525-0.347-0.698-0.871
								c-0.173-0.522-0.522-1.22-0.522-1.22l-0.696,0.173l0.696-0.694l1.394,1.042l2.092,0.353l1.746-1.746l1.218-2.792l0.525-2.093
								h1.044l1.221-2.093l0.523-1.917l-0.871-2.267l0.522-0.871l3.838-2.443l2.792-0.871l0.871-0.697c0,0,1.397-1.917,1.397-2.093
								c0-0.175,0.523-2.964,0.523-2.964s0.695-3.313,0.522-3.485c0-0.176,0.173-3.141,0-3.141s0-0.871,0-0.871l2.792-3.839
								l1.219-2.964c0,0,0.874-1.567,0.874-1.745C164.44-81.498,163.569-83.941,163.569-83.941z"/>
							<path fill="#56E295" d="M190.423-189.616l1.745,0.174c0,0,0.525-2.094,0.176-2.441c-0.349-0.174,1.22-1.57,1.22-1.57
								s0.173-0.173,0.349-0.173c-7.497-2.267-15.346-3.314-23.544-3.314l0,0c-3.313,0-6.626,0.174-9.939,0.523l0.871,0.174
								c0,0,1.917,0.871,2.266,1.22c0.352,0.349,0.174,1.221,0.174,1.918c-0.174,0.523-0.35,0.697-0.872,1.22
								c-0.349,0.697,0.872,0.347,0.872,0.347l1.57,0.698c0,0-0.523,0-1.047,0.174c-0.698,0.174-1.568,0.35-1.568,0.35l-0.176,1.22
								l2.094-0.523l-0.173,0.697l-1.569,0.349l-1.57,1.744l-0.171,3.488l0.346,2.964l0.874,2.441l1.394,0.175l1.57,1.046
								l2.094-0.174l2.093-2.964l2.267-2.093l0.698-1.22l1.047-0.694l2.442-0.523l2.964-0.698c0,0,2.792-1.917,3.139-2.093
								C182.577-187.349,190.423-189.616,190.423-189.616z"/>
							<path fill="#56E295" d="M253.202-125.093l-1.22-2.093c0,0-1.396-3.313-1.567-3.488c-0.173-0.174-0.698-1.046-0.522-1.046
								c0.171,0,1.393-0.174,1.393-0.174s0.351,0.523,0.696,0.697c-0.525-2.093-1.047-4.184-1.567-6.277
								c0,0.174-0.173,0.348-0.351,0.523c-0.349,0.349-1.047,0.697-1.396,0.349c-0.349-0.347-1.917-0.174-2.094-0.174
								c-0.171,0-1.917,0-2.266,0.35c-0.176,0.349-1.569,0.174-1.745,0c-0.176-0.174-2.967-1.22-3.14-1.22s-1.569-0.697-1.745-0.873
								c-0.173-0.175-1.568-0.349-1.568-0.523c0-0.174,0.173-0.349-0.173-0.349c-0.176,0-1.745,0.523-1.917,0.697
								c-0.176,0.174-0.698,0.523-0.698,0.523s-0.698,0.697-0.525,1.22c0,0.523,0.698,0.873,0.525,1.221
								c-0.176,0.347-1.046,0.523-1.046,0.523s-0.871-0.697-1.047-0.873c-0.349-0.174-2.792-0.523-2.792-0.523l-1.043-1.221
								c0,0-1.572-1.046-1.745-1.22c-0.176,0-1.92,0-2.27-0.174c-0.35-0.173-1.046-1.396-1.568-1.22
								c-0.349,0-0.349-0.697-0.173-0.697c0.173-0.174,0.695-1.047,0.522-1.22c0-0.174,0.349-1.047-0.349-1.395
								c-0.525-0.349-0.173-1.22-0.173-1.22s0.522-0.174,0.349-0.174c-0.176,0-1.046,0-1.223-0.174
								c-0.168-0.35-0.346-0.35-0.517-0.35c-0.176,0.174-1.572,0.35-1.746,0.35c-0.176,0-1.397,0.174-1.743,0.174
								c-0.176,0,0,0-0.176,0c-0.349,0-1.396,0.523-1.396,0.697c0,0.174-1.218,0-1.218,0c-0.173,0-1.746,0-1.746,0l-2.614,0.523
								c0,0-1.746,0.873-1.746,1.221s-0.522,0.697-0.698,0.872c-0.171,0.173-1.218,0-1.218-0.174c0-0.174-1.746,0-1.746,0
								s-0.696-0.349-0.871-0.174c-0.174,0.175-0.174-0.697-0.174-0.697l0.349-0.697l1.047-0.697l2.27-0.35l1.22-0.697l0.696-0.35
								l0.35-1.046c0,0,0.871-0.174,0.693-0.349c0-0.174-0.351-0.873-0.351-0.873l1.569-2.441l2.271-1.047l0.349-0.697
								c0,0-0.174-1.047,0-1.047c0.173-0.173,1.569-0.522,1.569-0.522l1.917,0.522c0,0,1.046-0.697,1.218-0.697
								c0.176-0.174,1.223-0.697,1.223-0.697s0.173-0.523,0.349-0.523c0.178,0,1.22-0.174,1.22,0.35
								c0.173,0.349,0.871,1.744,0.871,1.744l1.223,1.22l1.217,0.872l1.396,0.523c0,0,0.874,0.697,1.047,0.872
								c0.176,0,1.046,1.046,1.046,1.046l0.349,0.698c0,0-0.171,0.523-0.522,0.873c-0.171,0.35-0.874,1.047-1.046,0.871
								c-0.171,0-1.396-0.349-1.396-0.349l-1.396,0.174c0,0-0.173,0.35,0.176,0.523c0.346,0.35,0.871,0.174,1.217,0.523
								c0.354,0.174,1.396,0.697,1.396,0.697s0.698,0.173,0.698,0.35c0,0.175,0.176-0.35,0.176-0.872
								c0-0.349-0.176-0.873,0.349-1.047c0.346-0.174,1.044,0,1.044-0.174c0-0.173,0.173-0.347,0.173-0.347l0.525-0.523v-0.35
								l0.522-0.349c0,0-0.349-0.35-0.522-0.523c-0.173-0.349-0.525-0.349-0.349-0.698c0.171-0.349,0.696-0.697,1.045-0.523
								c0.351,0.175,1.047,0.35,1.047,0.523c0,0.35,0,0.698,0.171,0.523c0.173-0.174,0-1.046,0-1.046s-0.349-0.523-0.874-0.698
								c-0.349,0-1.396-0.522-1.568-0.697c-0.349-0.173-0.696-0.349-0.696-0.349s0.171-0.523-0.171-0.523
								c-0.351,0-1.22-0.174-1.22-0.35s-1.047-0.871-1.047-1.047c0-0.175-0.871-1.394-0.871-1.394s-0.525-0.523-0.525-0.697
								c0-0.174-0.173-0.35-0.173-0.871c-0.173-0.349,1.046-1.569,1.046-1.396c0,0.174,0.349,0.35,0.522,0.873
								s1.047,1.394,1.22,1.569c0.174,0.35,1.218,1.221,1.568,1.395c0.349,0.174,0.525,0.349,1.047,0.697
								c0.523,0.173,0.523,0.349,1.221,0.697c0.693,0.349,0.871,0.523,0.871,0.523c0.171,0.174,0.522,0.174,0.693,0.349
								c0.176,0.35,0.354,0.35,0.354,0.523c0,0.35,0.171,0.35,0.171,0.872c-0.171,0.523-0.349,0.697-0.171,0.873
								c0,0.173,1.047,2.093,1.396,2.093c0.351,0,1.569,0.523,1.394,1.046c-0.173,0.698,0.696,1.57,0.696,1.57s0.696,0,1.218,0.174
								c0-0.35,0-1.047,0.349-1.221c0.525-0.349,1.223-0.523,1.046-0.872c-0.171-0.349-0.171-0.697-0.693-1.047
								c-0.354-0.349-0.875-0.523-1.047-1.047c-0.174-0.523-0.349-1.22,0.171-1.047c0.522,0.175,0.875,1.22,1.22,0.523
								c0.176-0.697,0.698-1.22,1.046-1.046c0.349,0.174,1.047,0.349,1.047,0.697c0,0.174,0.522,1.917,0.522,1.917
								s0.173,0.173,0.349,1.046c0.176,0.873,0.874,1.047,0.698,1.221c-0.173,0.35-0.349,0.35,0.525,0.523
								c0.871,0.174,1.741,0.174,1.741,0.523c0,0.173,0.698,0.349,0.874,0.523c0.176,0.173,0.698,0.522,0.875,0.173
								c0.171-0.35,0.349-1.046,0.521-0.873c0.173,0.174,1.568,0.174,1.568,0.523c0,0.35,0.698,0.35,0.875,0.523
								c-1.047-2.441-2.093-4.883-3.318-7.324l-1.917-0.523l-1.218-0.523l-0.698-0.697h0.525l-0.175-0.873l0.175-0.523l0.521-0.347
								l0.351-1.047c-3.137-5.231-6.804-10.113-10.813-14.649c-0.173,0.175-0.698,0.523-0.873,0.523c-0.174,0-0.696,0.348-0.871,0
								c-0.176-0.174-0.354-0.697-0.354-0.697s-0.171-0.35-0.171-0.173c0,0.175-0.522,0.173-0.522,0.173l-0.875,0.35
								c0,0-0.525,0.349-0.696,0.523c-0.171,0-0.693,0-0.871,0.174c-0.173,0.174-0.875,0.697-1.046,0.349
								c-0.171-0.174-0.351,0.174-0.522-0.174c-0.174-0.347-0.174-0.871-0.354-0.697c-0.171,0-0.871,0.173-0.871,0.35
								c0,0.173-0.171,0.173-0.349,0.347c-0.173,0.174-1.22,0.35-1.22,0.35v-0.173l1.22-1.047l0.349-1.047
								c0,0,1.046,0.174,1.219,0.349c0,0.175,0.349-0.349,0.525,0c0.349,0.175,0.694,0.175,0.694,0.523
								c0,0.175,0.175,0.523,0.352,0.35c0-0.173,0-0.697,0-0.697s-0.352-0.174-0.525-0.35c-0.173-0.175-0.173-0.523,0-0.523
								c0.173-0.174,0.698-0.347,0.874-0.347c0.173,0.173,0.871-0.174,0.871-0.174s0.173-0.174,0.173-0.35s0.525-1.047,0.525-1.047
								s-0.352-0.174-0.352-0.523v-0.174c-2.79-2.79-5.928-5.231-9.065-7.498c-0.522,0.174-1.047,0.35-1.047,0.35l-1.396,1.394
								c0,0-0.349,0.697-0.522,0.872c0,0.174,0.173,2.093,0.173,2.093s0.874,0,0.696,0.35c-0.175,0.174-0.175,1.394-0.175,1.394
								l1.047,0.697c0,0,1.396,0.523,1.57,0.35c0.173,0,0.872-0.523,0.872-0.523c0.171,0,0.874-0.871,1.218-0.871
								c0.171,0,0.875-0.698,1.046-0.35c0,0.174,0.171,1.221,0.349,1.394c0.176,0.175,0.698,0.523,0.872,1.047
								c0.175,0.523,0.525,1.047,0.352,1.047c0,0.174-0.525,0.523-0.525,0.523s-1.043,0.173-1.22,0.347
								c-0.173,0.174-0.349,0.174-0.521,0.174s0.349-0.523,0.521-0.697c0.176-0.174-0.173-0.698-0.349-0.698
								c-0.176,0-0.349-0.349-0.173-0.349c0.173-0.174,0.173-0.872,0.173-0.872s-0.173-0.174-0.349,0
								c-0.173,0-1.396,0.523-1.396,0.523s-0.698,0.697-0.698,0.872c0,0.173-0.349,0.872-0.173,1.394
								c0.173,0.523,0.698,1.396,0.698,1.396s0.522,0.348,0.349,0.523c-0.176,0.176-0.525,0.697-0.525,0.697h-0.871
								c0,0-1.568,0.174-1.745,0.35c-0.173,0-1.571,0.523-1.571,0.697c0,0.173-0.346,1.745-0.346,1.745s-1.571,1.047-1.746,1.047
								c-0.176,0-1.221,0.349-1.221,0.349s-0.521,1.395-0.521,1.22l-1.746,0.872c0,0-2.793-0.872-2.793-1.046
								c0-0.174-0.522-0.523-0.522-0.349c0,0.174,0.522,1.221,0.522,1.396c0,0.174,0,0.697,0,0.523
								c-0.171-0.174-0.871-0.35-1.047-0.523c-0.171,0-1.396,0-1.396,0h-0.522l-0.693,0.523v0.523l0.35,0.349l1.218,0.523
								l1.218,0.698l0.521,1.22l0.525,1.046l-0.349,2.267c0,0.174-0.874,0.697-0.874,0.697l-2.442-0.174c0,0-1.22-0.174-1.22-0.35
								c-0.173,0-1.744,0.174-1.744,0c0-0.174-0.522-0.174-0.522-0.174l-0.173-0.35h-0.698l-0.696,0.873h-0.875v0.697l0.354,1.394
								c0-0.174-0.176,1.745-0.176,1.745s-0.696,1.569-0.871,1.743v1.047l0.522,0.697v0.872c0,0-0.351,0.872-0.171,0.697
								c0.171,0,1.218,0,1.396-0.174c0-0.174,0.696-0.523,0.874-0.174c0.173,0.174,0.522,0,0.695,0.35
								c0.171,0.348,0.52,1.047,0.52,1.221c0,0.173,0.351,0.173,0.351,0.173l0.174,0.35l-0.174,0.173l-0.871,2.092l-1.919,1.396
								l-1.218,0.697l-0.352,0.872l-0.522,0.523l-0.173,1.046c0,0,0.173,1.396,0,1.396l-2.615,2.614l-1.396,0.35l-0.871,1.395
								c0,0-1.046,1.047-1.223,1.22c0,0.174-0.698,0.873-0.698,0.873s0.354,1.046,0.354,0.873c0,0,0.693,1.046,0.871,1.395
								c1.221,3.488,1.746,5.057,1.221,8.544c-0.352,2.964-2.964,6.8-4.884,8.721l-0.171,0.522c0,0,0.521,0.524,0.693,0.349
								c0.176-0.172,1.223,0.698,1.399,0.875c0.173,0.175,1.394,1.917,1.394,1.917l0.171,0.35l0.698,2.267
								c0,0,3.14,2.618,3.14,2.443c0-0.176,3.313,2.442,3.313,2.442l2.616-1.222c0,0.175,2.266-0.173,2.266-0.173l1.396,0.173
								l1.047,0.525l3.662-1.746l0.695-0.521l2.791-0.175l1.396,0.524c0,0,0.874,1.394,0.874,1.569c0,0.175,0.522,1.219,0.698,1.046
								c0-0.172,3.137-0.35,3.313-0.172c0.173,0,1.393,1.393,1.393,1.393v1.222l-0.173,2.267l-0.521,1.047l-0.349,1.046
								l-0.173,0.694c0,0,3.314,4.709,3.314,4.885c0,0.172,0.873,1.917,0.873,1.917l1.045,2.439l0.522,1.396l-0.522,0.872
								l0.873,2.442l-0.351,2.439l-1.393,3.14l-0.696,2.267l0.171,2.964l1.746,3.489l1.745,4.011l0.173,4.356l0.874,1.572
								c16.041-15.346,26.159-36.795,26.159-60.862C254.076-117.248,253.727-121.083,253.202-125.093z"/>
							<path fill="#56E295" d="M116.31-117.421c0.351,0.173,0.696,0,0.873,0c0.177,0,0.871-0.174,0.871-0.174
								s0.176,0.522,0.176,0.697c0,0.172,1.045,0,1.045-0.175c0-0.173,0.351-0.522,0.351-0.522l1.393-0.35h1.917
								c0.176,0,0.352-0.35,0-0.872c-0.349-0.523-1.218-0.697-1.393-1.22c-0.173-0.348-1.22-0.174-1.572,0
								c-0.346,0.174-1.742-0.348-2.267-0.348c-0.349,0,0,0.523,0,0.523v1.396h-1.744v0.174c0,0-0.525,0.173-0.525,0.522
								C115.435-117.418,115.963-117.595,116.31-117.421z"/>
							<path fill="#56E295" d="M116.485-121.083c0-0.174-0.871-0.35-1.22-0.35c-0.348,0-1.917-1.57-2.094-1.917
								c-0.173-0.349-3.659-1.221-3.659-1.221s-4.011-0.174-4.011-0.35s-1.917,1.395-1.917,1.395v0.174c0,0,0.173,0.697,0.173,0.873
								s1.22-0.873,1.393-1.221c0.176-0.347,1.046-0.523,1.221-0.697c0.174-0.174,0.347,0.523,0.523,0.523
								c0.176,0,1.22,0.348,1.22,0.348l1.917,0.697l0.696,0.697c0,0,0.351,1.745,0.351,1.919c0,0.172,1.396,0.172,1.396,0.172
								l2.792-0.347C115.614-120.385,116.485-120.909,116.485-121.083z"/>
						</g>
					</g>
				</g>
			</g>
			<g id="Laag_22_1_">
				<g>
					<g>
						<path fill="#FFFFFF" d="M630.085-92.029l53.77,42.141c1.625,1.628,3.788,2.704,6.49,2.704c2.156,0,4.875-1.075,6.494-2.704
							c18.391-18.935,46.517-47.07,49.765-50.307c0.533,0,0.533-0.535,1.084-1.083c7.035-8.122,14.063-17.318,14.063-34.081
							c0-25.435-22.936-39.984-46.202-39.984c-11.354,0-21.636,4.871-29.204,12.981c-7.58-8.116-18.393-12.981-29.217-12.981
							c-23.262,0-42.202,20.558-42.202,45.984C614.396-113.66,620.343-100.139,630.085-92.029z"/>
					</g>
					<path fill="#07934A" d="M752.56-134.815c0-20.014-18.609-30.783-37.001-30.783c-12.979,0-23.81,8.113-29.214,19.475
						c-5.411-11.901-16.774-19.475-29.217-19.475c-18.39,0-32.999,16.228-32.999,36.783c0,12.442,4.327,23.8,12.979,30.295
						l53.766,42.688c0,0,51.941-52.471,50.312-50.318C747.695-114.796,752.56-121.829,752.56-134.815z"/>
				</g>
			</g>
		</g>
	</g>
	<g id="Layer_4" display="inline">
		<g>
			<g id="Laag_1">
				<path id="XMLID_125_" fill="#FECEA2" d="M526.339-142.004c-17.299-32.866-61.582-44.514-95.14-44.514
					c-33.56,0-77.843,11.648-95.142,44.514c-16.952,32.175-2.538,70.923,35.865,70.923c2.999,0,22.833-2.076,38.632-5.189
					c13.608-2.652,27.562-2.652,41.17,0c15.915,3.113,35.634,5.189,38.633,5.189C528.875-71.196,543.292-109.829,526.339-142.004z"
					/>
			</g>
		</g>
	</g>
	<g id="Layer_6" display="inline">
		<circle fill="#EFE8E3" cx="474.647" cy="-118.799" r="32.998"/>
		<circle fill="#EFE8E3" cx="382.98" cy="-119.783" r="32.998"/>
	</g>
	<g id="Layer_7" display="inline">
		<rect x="474.647" y="-118.799" fill="#EFE8E3" width="0" height="0"/>
		<circle fill="#784F30" cx="474.647" cy="-118.799" r="25.912"/>
		<circle fill="#784F30" cx="382.98" cy="-120.036" r="26.749"/>
	</g>
	<g id="Layer_8" display="inline">
		<circle fill="#020200" cx="474.647" cy="-118.799" r="14.912"/>
		<circle fill="#020200" cx="382.98" cy="-119.783" r="14.912"/>
	</g>
	<path display="inline" fill="#2D2723" d="M433.583-146.784l8.065,12.089c0,0,48.882-29.685,68.549-31.711l-20-17.689
		C490.198-184.096,438.583-154.71,433.583-146.784z"/>
	<path display="inline" fill="#2D2723" d="M420.978-145.663l-8.065,12.089c0,0-48.882-29.685-68.549-31.711l20-17.689
		C364.364-182.975,415.978-153.589,420.978-145.663z"/>
</g>
</svg>
